<svg width="430" height="430" viewBox="0 0 430 430" fill="none" xmlns="http://www.w3.org/2000/svg">
<path d="M20 20H410V410H20V20Z" fill="white" stroke="#488DFF" stroke-width="40"/>
<path d="M156.701 216.221H147.832V236H136.699V181.969H156.775C163.158 181.969 168.081 183.391 171.545 186.236C175.008 189.081 176.74 193.102 176.74 198.297C176.74 201.983 175.936 205.063 174.328 207.537C172.745 209.986 170.333 211.941 167.092 213.4L178.781 235.48V236H166.832L156.701 216.221ZM147.832 207.203H156.812C159.608 207.203 161.773 206.498 163.307 205.088C164.84 203.653 165.607 201.686 165.607 199.188C165.607 196.639 164.878 194.635 163.418 193.176C161.983 191.716 159.769 190.986 156.775 190.986H147.832V207.203ZM215.742 224.867H196.223L192.512 236H180.674L200.787 181.969H211.104L231.328 236H219.49L215.742 224.867ZM199.229 215.85H212.736L205.945 195.625L199.229 215.85ZM250.922 181.969L264.801 221.156L278.605 181.969H293.227V236H282.057V221.23L283.17 195.736L268.586 236H260.941L246.395 195.773L247.508 221.23V236H236.375V181.969H250.922Z" fill="#488DFF"/>
</svg>
