<svg width="661" height="491" viewBox="0 0 661 491" fill="none" xmlns="http://www.w3.org/2000/svg">
<line x1="208" y1="83.5" x2="132" y2="83.5" stroke="black"/>
<line x1="208" y1="123.5" x2="132" y2="123.5" stroke="black"/>
<line x1="208" y1="103.5" x2="132" y2="103.5" stroke="black"/>
<line x1="208" y1="63.5" x2="132" y2="63.5" stroke="black"/>
<line x1="208" y1="162.5" x2="132" y2="162.5" stroke="black"/>
<line x1="208" y1="202.5" x2="132" y2="202.5" stroke="black"/>
<line x1="208" y1="182.5" x2="132" y2="182.5" stroke="black"/>
<line x1="208" y1="142.5" x2="132" y2="142.5" stroke="black"/>
<path d="M30.1406 134.736C30.1406 135.15 30.0371 135.518 29.8301 135.838C29.623 136.158 29.3379 136.414 28.9746 136.605C29.3887 136.805 29.7168 137.08 29.959 137.432C30.2012 137.779 30.3223 138.189 30.3223 138.662C30.3223 139.42 30.0645 140.02 29.5488 140.461C29.0332 140.898 28.332 141.117 27.4453 141.117C26.5586 141.117 25.8555 140.896 25.3359 140.455C24.8164 140.014 24.5566 139.416 24.5566 138.662C24.5566 138.189 24.6777 137.777 24.9199 137.426C25.1621 137.074 25.4883 136.801 25.8984 136.605C25.5352 136.414 25.25 136.158 25.043 135.838C24.8398 135.518 24.7383 135.15 24.7383 134.736C24.7383 134.01 24.9805 133.432 25.4648 133.002C25.9492 132.568 26.6074 132.352 27.4395 132.352C28.2676 132.352 28.9238 132.566 29.4082 132.996C29.8965 133.422 30.1406 134.002 30.1406 134.736ZM28.623 138.539C28.623 138.168 28.5156 137.871 28.3008 137.648C28.0859 137.426 27.7969 137.314 27.4336 137.314C27.0742 137.314 26.7871 137.426 26.5723 137.648C26.3574 137.867 26.25 138.164 26.25 138.539C26.25 138.902 26.3555 139.195 26.5664 139.418C26.7773 139.641 27.0703 139.752 27.4453 139.752C27.8125 139.752 28.0996 139.645 28.3066 139.43C28.5176 139.215 28.623 138.918 28.623 138.539ZM28.4473 134.818C28.4473 134.486 28.3594 134.221 28.1836 134.021C28.0078 133.818 27.7598 133.717 27.4395 133.717C27.123 133.717 26.877 133.814 26.7012 134.01C26.5254 134.205 26.4375 134.475 26.4375 134.818C26.4375 135.158 26.5254 135.432 26.7012 135.639C26.877 135.846 27.125 135.949 27.4453 135.949C27.7656 135.949 28.0117 135.846 28.1836 135.639C28.3594 135.432 28.4473 135.158 28.4473 134.818ZM34.834 138.029H31.5352V136.664H34.834V138.029ZM41.9062 137.889C41.9062 138.904 41.6895 139.697 41.2559 140.268C40.8223 140.834 40.2168 141.117 39.4395 141.117C38.752 141.117 38.2031 140.854 37.793 140.326L37.7168 141H36.1934V132H37.8867V135.229C38.2773 134.771 38.791 134.543 39.4277 134.543C40.2012 134.543 40.8066 134.828 41.2441 135.398C41.6855 135.965 41.9062 136.764 41.9062 137.795V137.889ZM40.2129 137.766C40.2129 137.125 40.1113 136.658 39.9082 136.365C39.7051 136.068 39.4023 135.92 39 135.92C38.4609 135.92 38.0898 136.141 37.8867 136.582V139.084C38.0938 139.529 38.4688 139.752 39.0117 139.752C39.5586 139.752 39.918 139.482 40.0898 138.943C40.1719 138.686 40.2129 138.293 40.2129 137.766ZM44.7422 141H43.043V134.66H44.7422V141ZM42.9434 133.02C42.9434 132.766 43.0273 132.557 43.1953 132.393C43.3672 132.229 43.5996 132.146 43.8926 132.146C44.1816 132.146 44.4121 132.229 44.584 132.393C44.7559 132.557 44.8418 132.766 44.8418 133.02C44.8418 133.277 44.7539 133.488 44.5781 133.652C44.4062 133.816 44.1777 133.898 43.8926 133.898C43.6074 133.898 43.377 133.816 43.2012 133.652C43.0293 133.488 42.9434 133.277 42.9434 133.02ZM48.1699 133.102V134.66H49.2539V135.902H48.1699V139.066C48.1699 139.301 48.2148 139.469 48.3047 139.57C48.3945 139.672 48.5664 139.723 48.8203 139.723C49.0078 139.723 49.1738 139.709 49.3184 139.682V140.965C48.9863 141.066 48.6445 141.117 48.293 141.117C47.1055 141.117 46.5 140.518 46.4766 139.318V135.902H45.5508V134.66H46.4766V133.102H48.1699ZM52.9219 137.783C52.9219 136.795 53.1426 136.008 53.584 135.422C54.0293 134.836 54.6367 134.543 55.4062 134.543C56.0234 134.543 56.5332 134.773 56.9355 135.234V132H58.6348V141H57.1055L57.0234 140.326C56.6016 140.854 56.0586 141.117 55.3945 141.117C54.6484 141.117 54.0488 140.824 53.5957 140.238C53.1465 139.648 52.9219 138.83 52.9219 137.783ZM54.6152 137.906C54.6152 138.5 54.7188 138.955 54.9258 139.271C55.1328 139.588 55.4336 139.746 55.8281 139.746C56.3516 139.746 56.7207 139.525 56.9355 139.084V136.582C56.7246 136.141 56.3594 135.92 55.8398 135.92C55.0234 135.92 54.6152 136.582 54.6152 137.906ZM63.6211 141C63.543 140.848 63.4863 140.658 63.4512 140.432C63.041 140.889 62.5078 141.117 61.8516 141.117C61.2305 141.117 60.7148 140.938 60.3047 140.578C59.8984 140.219 59.6953 139.766 59.6953 139.219C59.6953 138.547 59.9434 138.031 60.4395 137.672C60.9395 137.312 61.6602 137.131 62.6016 137.127H63.3809V136.764C63.3809 136.471 63.3047 136.236 63.1523 136.061C63.0039 135.885 62.7676 135.797 62.4434 135.797C62.1582 135.797 61.9336 135.865 61.7695 136.002C61.6094 136.139 61.5293 136.326 61.5293 136.564H59.8359C59.8359 136.197 59.9492 135.857 60.1758 135.545C60.4023 135.232 60.7227 134.988 61.1367 134.812C61.5508 134.633 62.0156 134.543 62.5312 134.543C63.3125 134.543 63.9316 134.74 64.3887 135.135C64.8496 135.525 65.0801 136.076 65.0801 136.787V139.535C65.084 140.137 65.168 140.592 65.332 140.9V141H63.6211ZM62.2207 139.822C62.4707 139.822 62.7012 139.768 62.9121 139.658C63.123 139.545 63.2793 139.395 63.3809 139.207V138.117H62.748C61.9004 138.117 61.4492 138.41 61.3945 138.996L61.3887 139.096C61.3887 139.307 61.4629 139.48 61.6113 139.617C61.7598 139.754 61.9629 139.822 62.2207 139.822ZM68.4082 133.102V134.66H69.4922V135.902H68.4082V139.066C68.4082 139.301 68.4531 139.469 68.543 139.57C68.6328 139.672 68.8047 139.723 69.0586 139.723C69.2461 139.723 69.4121 139.709 69.5566 139.682V140.965C69.2246 141.066 68.8828 141.117 68.5312 141.117C67.3438 141.117 66.7383 140.518 66.7148 139.318V135.902H65.7891V134.66H66.7148V133.102H68.4082ZM74.1094 141C74.0312 140.848 73.9746 140.658 73.9395 140.432C73.5293 140.889 72.9961 141.117 72.3398 141.117C71.7188 141.117 71.2031 140.938 70.793 140.578C70.3867 140.219 70.1836 139.766 70.1836 139.219C70.1836 138.547 70.4316 138.031 70.9277 137.672C71.4277 137.312 72.1484 137.131 73.0898 137.127H73.8691V136.764C73.8691 136.471 73.793 136.236 73.6406 136.061C73.4922 135.885 73.2559 135.797 72.9316 135.797C72.6465 135.797 72.4219 135.865 72.2578 136.002C72.0977 136.139 72.0176 136.326 72.0176 136.564H70.3242C70.3242 136.197 70.4375 135.857 70.6641 135.545C70.8906 135.232 71.2109 134.988 71.625 134.812C72.0391 134.633 72.5039 134.543 73.0195 134.543C73.8008 134.543 74.4199 134.74 74.877 135.135C75.3379 135.525 75.5684 136.076 75.5684 136.787V139.535C75.5723 140.137 75.6562 140.592 75.8203 140.9V141H74.1094ZM72.709 139.822C72.959 139.822 73.1895 139.768 73.4004 139.658C73.6113 139.545 73.7676 139.395 73.8691 139.207V138.117H73.2363C72.3887 138.117 71.9375 138.41 71.8828 138.996L71.877 139.096C71.877 139.307 71.9512 139.48 72.0996 139.617C72.248 139.754 72.4512 139.822 72.709 139.822ZM76.9512 140.168C76.9512 139.898 77.041 139.68 77.2207 139.512C77.4043 139.344 77.6328 139.26 77.9062 139.26C78.1836 139.26 78.4121 139.344 78.5918 139.512C78.7754 139.68 78.8672 139.898 78.8672 140.168C78.8672 140.434 78.7773 140.65 78.5977 140.818C78.418 140.982 78.1875 141.064 77.9062 141.064C77.6289 141.064 77.4004 140.982 77.2207 140.818C77.041 140.65 76.9512 140.434 76.9512 140.168ZM76.9512 135.369C76.9512 135.1 77.041 134.881 77.2207 134.713C77.4043 134.545 77.6328 134.461 77.9062 134.461C78.1836 134.461 78.4121 134.545 78.5918 134.713C78.7754 134.881 78.8672 135.1 78.8672 135.369C78.8672 135.635 78.7773 135.852 78.5977 136.02C78.418 136.184 78.1875 136.266 77.9062 136.266C77.6289 136.266 77.4004 136.184 77.2207 136.02C77.041 135.852 76.9512 135.635 76.9512 135.369ZM87.8672 138.135H89.0508V139.02H87.8672V141H86.7773V139.02H82.8926V138.381L86.7129 132.469H87.8672V138.135ZM84.123 138.135H86.7773V133.951L86.6484 134.186L84.123 138.135ZM95.6191 141H90.0293V140.221L92.9824 136.939C93.4199 136.443 93.7207 136.041 93.8848 135.732C94.0527 135.42 94.1367 135.098 94.1367 134.766C94.1367 134.32 94.002 133.955 93.7324 133.67C93.4629 133.385 93.1035 133.242 92.6543 133.242C92.1152 133.242 91.6953 133.396 91.3945 133.705C91.0977 134.01 90.9492 134.436 90.9492 134.982H89.8652C89.8652 134.197 90.1172 133.562 90.6211 133.078C91.1289 132.594 91.8066 132.352 92.6543 132.352C93.4473 132.352 94.0742 132.561 94.5352 132.979C94.9961 133.393 95.2266 133.945 95.2266 134.637C95.2266 135.477 94.6914 136.477 93.6211 137.637L91.3359 140.115H95.6191V141Z" fill="black"/>
<line x1="208" y1="259.5" x2="132" y2="259.5" stroke="black"/>
<line x1="208" y1="299.5" x2="132" y2="299.5" stroke="black"/>
<line x1="208" y1="279.5" x2="132" y2="279.5" stroke="black"/>
<line x1="208" y1="239.5" x2="132" y2="239.5" stroke="black"/>
<line x1="208" y1="338.5" x2="132" y2="338.5" stroke="black"/>
<line x1="208" y1="378.5" x2="132" y2="378.5" stroke="black"/>
<line x1="208" y1="358.5" x2="132" y2="358.5" stroke="black"/>
<line x1="208" y1="318.5" x2="132" y2="318.5" stroke="black"/>
<path d="M6.14062 308.736C6.14062 309.15 6.03711 309.518 5.83008 309.838C5.62305 310.158 5.33789 310.414 4.97461 310.605C5.38867 310.805 5.7168 311.08 5.95898 311.432C6.20117 311.779 6.32227 312.189 6.32227 312.662C6.32227 313.42 6.06445 314.02 5.54883 314.461C5.0332 314.898 4.33203 315.117 3.44531 315.117C2.55859 315.117 1.85547 314.896 1.33594 314.455C0.816406 314.014 0.556641 313.416 0.556641 312.662C0.556641 312.189 0.677734 311.777 0.919922 311.426C1.16211 311.074 1.48828 310.801 1.89844 310.605C1.53516 310.414 1.25 310.158 1.04297 309.838C0.839844 309.518 0.738281 309.15 0.738281 308.736C0.738281 308.01 0.980469 307.432 1.46484 307.002C1.94922 306.568 2.60742 306.352 3.43945 306.352C4.26758 306.352 4.92383 306.566 5.4082 306.996C5.89648 307.422 6.14062 308.002 6.14062 308.736ZM4.62305 312.539C4.62305 312.168 4.51562 311.871 4.30078 311.648C4.08594 311.426 3.79688 311.314 3.43359 311.314C3.07422 311.314 2.78711 311.426 2.57227 311.648C2.35742 311.867 2.25 312.164 2.25 312.539C2.25 312.902 2.35547 313.195 2.56641 313.418C2.77734 313.641 3.07031 313.752 3.44531 313.752C3.8125 313.752 4.09961 313.645 4.30664 313.43C4.51758 313.215 4.62305 312.918 4.62305 312.539ZM4.44727 308.818C4.44727 308.486 4.35938 308.221 4.18359 308.021C4.00781 307.818 3.75977 307.717 3.43945 307.717C3.12305 307.717 2.87695 307.814 2.70117 308.01C2.52539 308.205 2.4375 308.475 2.4375 308.818C2.4375 309.158 2.52539 309.432 2.70117 309.639C2.87695 309.846 3.125 309.949 3.44531 309.949C3.76562 309.949 4.01172 309.846 4.18359 309.639C4.35938 309.432 4.44727 309.158 4.44727 308.818ZM10.834 312.029H7.53516V310.664H10.834V312.029ZM17.9062 311.889C17.9062 312.904 17.6895 313.697 17.2559 314.268C16.8223 314.834 16.2168 315.117 15.4395 315.117C14.752 315.117 14.2031 314.854 13.793 314.326L13.7168 315H12.1934V306H13.8867V309.229C14.2773 308.771 14.791 308.543 15.4277 308.543C16.2012 308.543 16.8066 308.828 17.2441 309.398C17.6855 309.965 17.9062 310.764 17.9062 311.795V311.889ZM16.2129 311.766C16.2129 311.125 16.1113 310.658 15.9082 310.365C15.7051 310.068 15.4023 309.92 15 309.92C14.4609 309.92 14.0898 310.141 13.8867 310.582V313.084C14.0938 313.529 14.4688 313.752 15.0117 313.752C15.5586 313.752 15.918 313.482 16.0898 312.943C16.1719 312.686 16.2129 312.293 16.2129 311.766ZM20.7422 315H19.043V308.66H20.7422V315ZM18.9434 307.02C18.9434 306.766 19.0273 306.557 19.1953 306.393C19.3672 306.229 19.5996 306.146 19.8926 306.146C20.1816 306.146 20.4121 306.229 20.584 306.393C20.7559 306.557 20.8418 306.766 20.8418 307.02C20.8418 307.277 20.7539 307.488 20.5781 307.652C20.4062 307.816 20.1777 307.898 19.8926 307.898C19.6074 307.898 19.377 307.816 19.2012 307.652C19.0293 307.488 18.9434 307.277 18.9434 307.02ZM24.1699 307.102V308.66H25.2539V309.902H24.1699V313.066C24.1699 313.301 24.2148 313.469 24.3047 313.57C24.3945 313.672 24.5664 313.723 24.8203 313.723C25.0078 313.723 25.1738 313.709 25.3184 313.682V314.965C24.9863 315.066 24.6445 315.117 24.293 315.117C23.1055 315.117 22.5 314.518 22.4766 313.318V309.902H21.5508V308.66H22.4766V307.102H24.1699ZM32.8594 315C32.7812 314.848 32.7246 314.658 32.6895 314.432C32.2793 314.889 31.7461 315.117 31.0898 315.117C30.4688 315.117 29.9531 314.938 29.543 314.578C29.1367 314.219 28.9336 313.766 28.9336 313.219C28.9336 312.547 29.1816 312.031 29.6777 311.672C30.1777 311.312 30.8984 311.131 31.8398 311.127H32.6191V310.764C32.6191 310.471 32.543 310.236 32.3906 310.061C32.2422 309.885 32.0059 309.797 31.6816 309.797C31.3965 309.797 31.1719 309.865 31.0078 310.002C30.8477 310.139 30.7676 310.326 30.7676 310.564H29.0742C29.0742 310.197 29.1875 309.857 29.4141 309.545C29.6406 309.232 29.9609 308.988 30.375 308.812C30.7891 308.633 31.2539 308.543 31.7695 308.543C32.5508 308.543 33.1699 308.74 33.627 309.135C34.0879 309.525 34.3184 310.076 34.3184 310.787V313.535C34.3223 314.137 34.4062 314.592 34.5703 314.9V315H32.8594ZM31.459 313.822C31.709 313.822 31.9395 313.768 32.1504 313.658C32.3613 313.545 32.5176 313.395 32.6191 313.207V312.117H31.9863C31.1387 312.117 30.6875 312.41 30.6328 312.996L30.627 313.096C30.627 313.307 30.7012 313.48 30.8496 313.617C30.998 313.754 31.2012 313.822 31.459 313.822ZM35.3555 311.783C35.3555 310.795 35.5762 310.008 36.0176 309.422C36.4629 308.836 37.0703 308.543 37.8398 308.543C38.457 308.543 38.9668 308.773 39.3691 309.234V306H41.0684V315H39.5391L39.457 314.326C39.0352 314.854 38.4922 315.117 37.8281 315.117C37.082 315.117 36.4824 314.824 36.0293 314.238C35.5801 313.648 35.3555 312.83 35.3555 311.783ZM37.0488 311.906C37.0488 312.5 37.1523 312.955 37.3594 313.271C37.5664 313.588 37.8672 313.746 38.2617 313.746C38.7852 313.746 39.1543 313.525 39.3691 313.084V310.582C39.1582 310.141 38.793 309.92 38.2734 309.92C37.457 309.92 37.0488 310.582 37.0488 311.906ZM42.1172 311.783C42.1172 310.795 42.3379 310.008 42.7793 309.422C43.2246 308.836 43.832 308.543 44.6016 308.543C45.2188 308.543 45.7285 308.773 46.1309 309.234V306H47.8301V315H46.3008L46.2188 314.326C45.7969 314.854 45.2539 315.117 44.5898 315.117C43.8438 315.117 43.2441 314.824 42.791 314.238C42.3418 313.648 42.1172 312.83 42.1172 311.783ZM43.8105 311.906C43.8105 312.5 43.9141 312.955 44.1211 313.271C44.3281 313.588 44.6289 313.746 45.0234 313.746C45.5469 313.746 45.916 313.525 46.1309 313.084V310.582C45.9199 310.141 45.5547 309.92 45.0352 309.92C44.2188 309.92 43.8105 310.582 43.8105 311.906ZM52.7051 310.248C52.4746 310.217 52.2715 310.201 52.0957 310.201C51.4551 310.201 51.0352 310.418 50.8359 310.852V315H49.1426V308.66H50.7422L50.7891 309.416C51.1289 308.834 51.5996 308.543 52.2012 308.543C52.3887 308.543 52.5645 308.568 52.7285 308.619L52.7051 310.248ZM56.3262 315.117C55.3965 315.117 54.6387 314.832 54.0527 314.262C53.4707 313.691 53.1797 312.932 53.1797 311.982V311.818C53.1797 311.182 53.3027 310.613 53.5488 310.113C53.7949 309.609 54.1426 309.223 54.5918 308.953C55.0449 308.68 55.5605 308.543 56.1387 308.543C57.0059 308.543 57.6875 308.816 58.1836 309.363C58.6836 309.91 58.9336 310.686 58.9336 311.689V312.381H54.8965C54.9512 312.795 55.1152 313.127 55.3887 313.377C55.666 313.627 56.0156 313.752 56.4375 313.752C57.0898 313.752 57.5996 313.516 57.9668 313.043L58.7988 313.975C58.5449 314.334 58.2012 314.615 57.7676 314.818C57.334 315.018 56.8535 315.117 56.3262 315.117ZM56.1328 309.914C55.7969 309.914 55.5234 310.027 55.3125 310.254C55.1055 310.48 54.9727 310.805 54.9141 311.227H57.2695V311.092C57.2617 310.717 57.1602 310.428 56.9648 310.225C56.7695 310.018 56.4922 309.914 56.1328 309.914ZM63.334 313.248C63.334 313.041 63.2305 312.879 63.0234 312.762C62.8203 312.641 62.4922 312.533 62.0391 312.439C60.5312 312.123 59.7773 311.482 59.7773 310.518C59.7773 309.955 60.0098 309.486 60.4746 309.111C60.9434 308.732 61.5547 308.543 62.3086 308.543C63.1133 308.543 63.7559 308.732 64.2363 309.111C64.7207 309.49 64.9629 309.982 64.9629 310.588H63.2695C63.2695 310.346 63.1914 310.146 63.0352 309.99C62.8789 309.83 62.6348 309.75 62.3027 309.75C62.0176 309.75 61.7969 309.814 61.6406 309.943C61.4844 310.072 61.4062 310.236 61.4062 310.436C61.4062 310.623 61.4941 310.775 61.6699 310.893C61.8496 311.006 62.1504 311.105 62.5723 311.191C62.9941 311.273 63.3496 311.367 63.6387 311.473C64.5332 311.801 64.9805 312.369 64.9805 313.178C64.9805 313.756 64.7324 314.225 64.2363 314.584C63.7402 314.939 63.0996 315.117 62.3145 315.117C61.7832 315.117 61.3105 315.023 60.8965 314.836C60.4863 314.645 60.1641 314.385 59.9297 314.057C59.6953 313.725 59.5781 313.367 59.5781 312.984H61.1836C61.1992 313.285 61.3105 313.516 61.5176 313.676C61.7246 313.836 62.002 313.916 62.3496 313.916C62.6738 313.916 62.918 313.855 63.082 313.734C63.25 313.609 63.334 313.447 63.334 313.248ZM69.5098 313.248C69.5098 313.041 69.4062 312.879 69.1992 312.762C68.9961 312.641 68.668 312.533 68.2148 312.439C66.707 312.123 65.9531 311.482 65.9531 310.518C65.9531 309.955 66.1855 309.486 66.6504 309.111C67.1191 308.732 67.7305 308.543 68.4844 308.543C69.2891 308.543 69.9316 308.732 70.4121 309.111C70.8965 309.49 71.1387 309.982 71.1387 310.588H69.4453C69.4453 310.346 69.3672 310.146 69.2109 309.99C69.0547 309.83 68.8105 309.75 68.4785 309.75C68.1934 309.75 67.9727 309.814 67.8164 309.943C67.6602 310.072 67.582 310.236 67.582 310.436C67.582 310.623 67.6699 310.775 67.8457 310.893C68.0254 311.006 68.3262 311.105 68.748 311.191C69.1699 311.273 69.5254 311.367 69.8145 311.473C70.709 311.801 71.1562 312.369 71.1562 313.178C71.1562 313.756 70.9082 314.225 70.4121 314.584C69.916 314.939 69.2754 315.117 68.4902 315.117C67.959 315.117 67.4863 315.023 67.0723 314.836C66.6621 314.645 66.3398 314.385 66.1055 314.057C65.8711 313.725 65.7539 313.367 65.7539 312.984H67.3594C67.375 313.285 67.4863 313.516 67.6934 313.676C67.9004 313.836 68.1777 313.916 68.5254 313.916C68.8496 313.916 69.0938 313.855 69.2578 313.734C69.4258 313.609 69.5098 313.447 69.5098 313.248ZM72.334 314.168C72.334 313.898 72.4238 313.68 72.6035 313.512C72.7871 313.344 73.0156 313.26 73.2891 313.26C73.5664 313.26 73.7949 313.344 73.9746 313.512C74.1582 313.68 74.25 313.898 74.25 314.168C74.25 314.434 74.1602 314.65 73.9805 314.818C73.8008 314.982 73.5703 315.064 73.2891 315.064C73.0117 315.064 72.7832 314.982 72.6035 314.818C72.4238 314.65 72.334 314.434 72.334 314.168ZM72.334 309.369C72.334 309.1 72.4238 308.881 72.6035 308.713C72.7871 308.545 73.0156 308.461 73.2891 308.461C73.5664 308.461 73.7949 308.545 73.9746 308.713C74.1582 308.881 74.25 309.1 74.25 309.369C74.25 309.635 74.1602 309.852 73.9805 310.02C73.8008 310.184 73.5703 310.266 73.2891 310.266C73.0117 310.266 72.7832 310.184 72.6035 310.02C72.4238 309.852 72.334 309.635 72.334 309.369ZM82.248 315H81.1582V307.775L78.9727 308.578V307.594L82.0781 306.428H82.248V315ZM90.9316 307.078L87.3984 315H86.2617L89.7832 307.359H85.166V306.469H90.9316V307.078ZM97.5117 311.361C97.5117 312.631 97.2949 313.574 96.8613 314.191C96.4277 314.809 95.75 315.117 94.8281 315.117C93.918 315.117 93.2441 314.816 92.8066 314.215C92.3691 313.609 92.1426 312.707 92.127 311.508V310.061C92.127 308.807 92.3438 307.875 92.7773 307.266C93.2109 306.656 93.8906 306.352 94.8164 306.352C95.7344 306.352 96.4102 306.646 96.8438 307.236C97.2773 307.822 97.5 308.729 97.5117 309.955V311.361ZM96.4277 309.879C96.4277 308.961 96.2988 308.293 96.041 307.875C95.7832 307.453 95.375 307.242 94.8164 307.242C94.2617 307.242 93.8574 307.451 93.6035 307.869C93.3496 308.287 93.2188 308.93 93.2109 309.797V311.531C93.2109 312.453 93.3438 313.135 93.6094 313.576C93.8789 314.014 94.2852 314.232 94.8281 314.232C95.3633 314.232 95.7598 314.025 96.0176 313.611C96.2793 313.197 96.416 312.545 96.4277 311.654V309.879Z" fill="black"/>
<line x1="209" y1="427.5" x2="44" y2="427.5" stroke="black"/>
<line x1="209" y1="458.5" x2="44" y2="458.5" stroke="black"/>
<rect x="208" y="35" width="453" height="456" fill="#E6F0FF"/>
<rect x="229" y="57" width="22" height="22" fill="#BBBBBB"/>
<rect x="255" y="57" width="22" height="22" fill="#BBBBBB"/>
<rect x="229" y="83" width="22" height="22" fill="#BBBBBB"/>
<rect x="255" y="83" width="22" height="22" fill="#BBBBBB"/>
<rect x="281" y="57" width="22" height="22" fill="#BBBBBB"/>
<rect x="307" y="57" width="22" height="22" fill="#BBBBBB"/>
<rect x="281" y="83" width="22" height="22" fill="#BBBBBB"/>
<rect x="307" y="83" width="22" height="22" fill="#BBBBBB"/>
<rect x="333" y="57" width="22" height="22" fill="#BBBBBB"/>
<rect x="359" y="57" width="22" height="22" fill="#BBBBBB"/>
<rect x="333" y="83" width="22" height="22" fill="#BBBBBB"/>
<rect x="359" y="83" width="22" height="22" fill="#BBBBBB"/>
<rect x="385" y="57" width="22" height="22" fill="#BBBBBB"/>
<rect x="411" y="57" width="22" height="22" fill="#BBBBBB"/>
<rect x="385" y="83" width="22" height="22" fill="#BBBBBB"/>
<rect x="411" y="83" width="22" height="22" fill="#BBBBBB"/>
<rect x="437" y="57" width="22" height="22" fill="#BBBBBB"/>
<rect x="463" y="57" width="22" height="22" fill="#BBBBBB"/>
<rect x="437" y="83" width="22" height="22" fill="#BBBBBB"/>
<rect x="463" y="83" width="22" height="22" fill="#BBBBBB"/>
<rect x="489" y="57" width="22" height="22" fill="#BBBBBB"/>
<rect x="515" y="57" width="22" height="22" fill="#BBBBBB"/>
<rect x="489" y="83" width="22" height="22" fill="#BBBBBB"/>
<rect x="515" y="83" width="22" height="22" fill="#BBBBBB"/>
<rect x="541" y="57" width="22" height="22" fill="#BBBBBB"/>
<rect x="567" y="57" width="22" height="22" fill="#BBBBBB"/>
<rect x="541" y="83" width="22" height="22" fill="#BBBBBB"/>
<rect x="567" y="83" width="22" height="22" fill="#BBBBBB"/>
<rect x="593" y="57" width="22" height="22" fill="#BBBBBB"/>
<rect x="619" y="57" width="22" height="22" fill="#BBBBBB"/>
<rect x="593" y="83" width="22" height="22" fill="#BBBBBB"/>
<rect x="619" y="83" width="22" height="22" fill="#BBBBBB"/>
<rect x="229" y="109" width="22" height="22" fill="#BBBBBB"/>
<rect x="255" y="109" width="22" height="22" fill="#BBBBBB"/>
<rect x="229" y="135" width="22" height="22" fill="#BBBBBB"/>
<rect x="255" y="135" width="22" height="22" fill="#BBBBBB"/>
<rect x="281" y="109" width="22" height="22" fill="#BBBBBB"/>
<rect x="307" y="109" width="22" height="22" fill="#BBBBBB"/>
<rect x="281" y="135" width="22" height="22" fill="#BBBBBB"/>
<rect x="307" y="135" width="22" height="22" fill="#BBBBBB"/>
<rect x="333" y="109" width="22" height="22" fill="#BBBBBB"/>
<rect x="359" y="109" width="22" height="22" fill="#BBBBBB"/>
<rect x="333" y="135" width="22" height="22" fill="#BBBBBB"/>
<rect x="359" y="135" width="22" height="22" fill="#BBBBBB"/>
<rect x="385" y="109" width="22" height="22" fill="#BBBBBB"/>
<rect x="411" y="109" width="22" height="22" fill="#BBBBBB"/>
<rect x="385" y="135" width="22" height="22" fill="#BBBBBB"/>
<rect x="411" y="135" width="22" height="22" fill="#BBBBBB"/>
<rect x="437" y="109" width="22" height="22" fill="#BBBBBB"/>
<rect x="463" y="109" width="22" height="22" fill="#BBBBBB"/>
<rect x="437" y="135" width="22" height="22" fill="#BBBBBB"/>
<rect x="463" y="135" width="22" height="22" fill="#BBBBBB"/>
<rect x="489" y="109" width="22" height="22" fill="#BBBBBB"/>
<rect x="515" y="109" width="22" height="22" fill="#BBBBBB"/>
<rect x="489" y="135" width="22" height="22" fill="#BBBBBB"/>
<rect x="515" y="135" width="22" height="22" fill="#BBBBBB"/>
<rect x="541" y="109" width="22" height="22" fill="#BBBBBB"/>
<rect x="567" y="109" width="22" height="22" fill="#BBBBBB"/>
<rect x="541" y="135" width="22" height="22" fill="#BBBBBB"/>
<rect x="567" y="135" width="22" height="22" fill="#BBBBBB"/>
<rect x="593" y="109" width="22" height="22" fill="#BBBBBB"/>
<rect x="619" y="109" width="22" height="22" fill="#BBBBBB"/>
<rect x="593" y="135" width="22" height="22" fill="#BBBBBB"/>
<rect x="619" y="135" width="22" height="22" fill="#BBBBBB"/>
<rect x="229" y="369" width="22" height="22" fill="#BBBBBB"/>
<rect x="255" y="369" width="22" height="22" fill="#BBBBBB"/>
<rect x="229" y="395" width="22" height="22" fill="#BBBBBB"/>
<rect x="255" y="395" width="22" height="22" fill="#BBBBBB"/>
<rect x="281" y="369" width="22" height="22" fill="#BBBBBB"/>
<rect x="307" y="369" width="22" height="22" fill="#BBBBBB"/>
<rect x="281" y="395" width="22" height="22" fill="#BBBBBB"/>
<rect x="307" y="395" width="22" height="22" fill="#BBBBBB"/>
<rect x="333" y="369" width="22" height="22" fill="#BBBBBB"/>
<rect x="359" y="369" width="22" height="22" fill="#BBBBBB"/>
<rect x="333" y="395" width="22" height="22" fill="#BBBBBB"/>
<rect x="359" y="395" width="22" height="22" fill="#BBBBBB"/>
<rect x="385" y="369" width="22" height="22" fill="#BBBBBB"/>
<rect x="411" y="369" width="22" height="22" fill="#BBBBBB"/>
<rect x="385" y="395" width="22" height="22" fill="#BBBBBB"/>
<rect x="411" y="395" width="22" height="22" fill="#BBBBBB"/>
<rect x="437" y="369" width="22" height="22" fill="#BBBBBB"/>
<rect x="463" y="369" width="22" height="22" fill="#BBBBBB"/>
<rect x="437" y="395" width="22" height="22" fill="#BBBBBB"/>
<rect x="463" y="395" width="22" height="22" fill="#BBBBBB"/>
<rect x="489" y="369" width="22" height="22" fill="#BBBBBB"/>
<rect x="515" y="369" width="22" height="22" fill="#BBBBBB"/>
<rect x="489" y="395" width="22" height="22" fill="#BBBBBB"/>
<rect x="515" y="395" width="22" height="22" fill="#BBBBBB"/>
<rect x="541" y="369" width="22" height="22" fill="#BBBBBB"/>
<rect x="567" y="369" width="22" height="22" fill="#BBBBBB"/>
<rect x="541" y="395" width="22" height="22" fill="#BBBBBB"/>
<rect x="567" y="395" width="22" height="22" fill="#BBBBBB"/>
<rect x="593" y="369" width="22" height="22" fill="#BBBBBB"/>
<rect x="619" y="369" width="22" height="22" fill="#BBBBBB"/>
<rect x="593" y="395" width="22" height="22" fill="#BBBBBB"/>
<rect x="619" y="395" width="22" height="22" fill="#BBBBBB"/>
<rect x="229" y="421" width="22" height="22" fill="#BBBBBB"/>
<rect x="255" y="421" width="22" height="22" fill="#BBBBBB"/>
<rect x="229" y="447" width="22" height="22" fill="#BBBBBB"/>
<rect x="255" y="447" width="22" height="22" fill="#BBBBBB"/>
<rect x="281" y="421" width="22" height="22" fill="#BBBBBB"/>
<rect x="307" y="421" width="22" height="22" fill="#BBBBBB"/>
<rect x="281" y="447" width="22" height="22" fill="#BBBBBB"/>
<rect x="307" y="447" width="22" height="22" fill="#BBBBBB"/>
<rect x="333" y="421" width="22" height="22" fill="#BBBBBB"/>
<rect x="359" y="421" width="22" height="22" fill="#BBBBBB"/>
<rect x="333" y="447" width="22" height="22" fill="#BBBBBB"/>
<rect x="359" y="447" width="22" height="22" fill="#BBBBBB"/>
<rect x="385" y="421" width="22" height="22" fill="#BBBBBB"/>
<rect x="411" y="421" width="22" height="22" fill="#BBBBBB"/>
<rect x="385" y="447" width="22" height="22" fill="#BBBBBB"/>
<rect x="411" y="447" width="22" height="22" fill="#BBBBBB"/>
<rect x="437" y="421" width="22" height="22" fill="#BBBBBB"/>
<rect x="463" y="421" width="22" height="22" fill="#BBBBBB"/>
<rect x="437" y="447" width="22" height="22" fill="#BBBBBB"/>
<rect x="463" y="447" width="22" height="22" fill="#BBBBBB"/>
<rect x="489" y="421" width="22" height="22" fill="#BBBBBB"/>
<rect x="515" y="421" width="22" height="22" fill="#BBBBBB"/>
<rect x="489" y="447" width="22" height="22" fill="#BBBBBB"/>
<rect x="515" y="447" width="22" height="22" fill="#BBBBBB"/>
<rect x="541" y="421" width="22" height="22" fill="#BBBBBB"/>
<rect x="567" y="421" width="22" height="22" fill="#BBBBBB"/>
<rect x="541" y="447" width="22" height="22" fill="#BBBBBB"/>
<rect x="567" y="447" width="22" height="22" fill="#BBBBBB"/>
<rect x="593" y="421" width="22" height="22" fill="#BBBBBB"/>
<rect x="619" y="421" width="22" height="22" fill="#BBBBBB"/>
<rect x="593" y="447" width="22" height="22" fill="#BBBBBB"/>
<rect x="619" y="447" width="22" height="22" fill="#BBBBBB"/>
<rect x="229" y="265" width="22" height="22" fill="#BBBBBB"/>
<rect x="255" y="265" width="22" height="22" fill="#BBBBBB"/>
<rect x="229" y="291" width="22" height="22" fill="#BBBBBB"/>
<rect x="255" y="291" width="22" height="22" fill="#BBBBBB"/>
<rect x="281" y="265" width="22" height="22" fill="#BBBBBB"/>
<rect x="307" y="265" width="22" height="22" fill="#BBBBBB"/>
<rect x="281" y="291" width="22" height="22" fill="#BBBBBB"/>
<rect x="307" y="291" width="22" height="22" fill="#BBBBBB"/>
<rect x="333" y="265" width="22" height="22" fill="#BBBBBB"/>
<rect x="359" y="265" width="22" height="22" fill="#BBBBBB"/>
<rect x="333" y="291" width="22" height="22" fill="#BBBBBB"/>
<rect x="359" y="291" width="22" height="22" fill="#BBBBBB"/>
<rect x="385" y="265" width="22" height="22" fill="#BBBBBB"/>
<rect x="411" y="265" width="22" height="22" fill="#BBBBBB"/>
<rect x="385" y="291" width="22" height="22" fill="#BBBBBB"/>
<rect x="411" y="291" width="22" height="22" fill="#BBBBBB"/>
<rect x="437" y="265" width="22" height="22" fill="#BBBBBB"/>
<rect x="463" y="265" width="22" height="22" fill="#BBBBBB"/>
<rect x="437" y="291" width="22" height="22" fill="#BBBBBB"/>
<rect x="463" y="291" width="22" height="22" fill="#BBBBBB"/>
<rect x="489" y="265" width="22" height="22" fill="#BBBBBB"/>
<rect x="515" y="265" width="22" height="22" fill="#BBBBBB"/>
<rect x="489" y="291" width="22" height="22" fill="#BBBBBB"/>
<rect x="515" y="291" width="22" height="22" fill="#BBBBBB"/>
<rect x="541" y="265" width="22" height="22" fill="#BBBBBB"/>
<rect x="567" y="265" width="22" height="22" fill="#BBBBBB"/>
<rect x="541" y="291" width="22" height="22" fill="#BBBBBB"/>
<rect x="567" y="291" width="22" height="22" fill="#BBBBBB"/>
<rect x="593" y="265" width="22" height="22" fill="#BBBBBB"/>
<rect x="619" y="265" width="22" height="22" fill="#BBBBBB"/>
<rect x="593" y="291" width="22" height="22" fill="#BBBBBB"/>
<rect x="619" y="291" width="22" height="22" fill="#BBBBBB"/>
<rect x="229" y="317" width="22" height="22" fill="#BBBBBB"/>
<rect x="255" y="317" width="22" height="22" fill="#BBBBBB"/>
<rect x="229" y="343" width="22" height="22" fill="#BBBBBB"/>
<rect x="255" y="343" width="22" height="22" fill="#BBBBBB"/>
<rect x="281" y="318" width="22" height="22" fill="#BBBBBB"/>
<rect x="307" y="317" width="22" height="22" fill="#BBBBBB"/>
<rect x="281" y="343" width="22" height="22" fill="#BBBBBB"/>
<rect x="307" y="343" width="22" height="22" fill="#BBBBBB"/>
<rect x="333" y="317" width="22" height="22" fill="#BBBBBB"/>
<rect x="359" y="317" width="22" height="22" fill="#BBBBBB"/>
<rect x="333" y="343" width="22" height="22" fill="#BBBBBB"/>
<rect x="359" y="343" width="22" height="22" fill="#BBBBBB"/>
<rect x="385" y="317" width="22" height="22" fill="#BBBBBB"/>
<rect x="411" y="317" width="22" height="22" fill="#BBBBBB"/>
<rect x="385" y="343" width="22" height="22" fill="#BBBBBB"/>
<rect x="411" y="343" width="22" height="22" fill="#BBBBBB"/>
<rect x="437" y="317" width="22" height="22" fill="#BBBBBB"/>
<rect x="463" y="317" width="22" height="22" fill="#BBBBBB"/>
<rect x="437" y="343" width="22" height="22" fill="#BBBBBB"/>
<rect x="463" y="343" width="22" height="22" fill="#BBBBBB"/>
<rect x="489" y="317" width="22" height="22" fill="#488DFF"/>
<rect x="515" y="317" width="22" height="22" fill="#BBBBBB"/>
<rect x="489" y="343" width="22" height="22" fill="#BBBBBB"/>
<rect x="515" y="343" width="22" height="22" fill="#BBBBBB"/>
<rect x="541" y="317" width="22" height="22" fill="#BBBBBB"/>
<rect x="567" y="317" width="22" height="22" fill="#BBBBBB"/>
<rect x="541" y="343" width="22" height="22" fill="#BBBBBB"/>
<rect x="567" y="343" width="22" height="22" fill="#BBBBBB"/>
<rect x="593" y="317" width="22" height="22" fill="#BBBBBB"/>
<rect x="619" y="317" width="22" height="22" fill="#BBBBBB"/>
<rect x="593" y="343" width="22" height="22" fill="#BBBBBB"/>
<rect x="619" y="343" width="22" height="22" fill="#BBBBBB"/>
<rect x="229" y="161" width="22" height="22" fill="#BBBBBB"/>
<rect x="255" y="161" width="22" height="22" fill="#BBBBBB"/>
<rect x="229" y="187" width="22" height="22" fill="#BBBBBB"/>
<rect x="255" y="187" width="22" height="22" fill="#BBBBBB"/>
<rect x="281" y="161" width="22" height="22" fill="#BBBBBB"/>
<rect x="307" y="161" width="22" height="22" fill="#BBBBBB"/>
<rect x="281" y="187" width="22" height="22" fill="#BBBBBB"/>
<rect x="307" y="187" width="22" height="22" fill="#BBBBBB"/>
<rect x="333" y="161" width="22" height="22" fill="#BBBBBB"/>
<rect x="359" y="161" width="22" height="22" fill="#BBBBBB"/>
<rect x="333" y="187" width="22" height="22" fill="#BBBBBB"/>
<rect x="359" y="187" width="22" height="22" fill="#BBBBBB"/>
<rect x="385" y="161" width="22" height="22" fill="#BBBBBB"/>
<rect x="411" y="161" width="22" height="22" fill="#BBBBBB"/>
<rect x="385" y="187" width="22" height="22" fill="#BBBBBB"/>
<rect x="411" y="187" width="22" height="22" fill="#BBBBBB"/>
<rect x="437" y="161" width="22" height="22" fill="#BBBBBB"/>
<rect x="463" y="161" width="22" height="22" fill="#BBBBBB"/>
<rect x="437" y="187" width="22" height="22" fill="#BBBBBB"/>
<rect x="463" y="187" width="22" height="22" fill="#BBBBBB"/>
<rect x="489" y="161" width="22" height="22" fill="#BBBBBB"/>
<rect x="515" y="161" width="22" height="22" fill="#BBBBBB"/>
<rect x="489" y="187" width="22" height="22" fill="#BBBBBB"/>
<rect x="515" y="187" width="22" height="22" fill="#BBBBBB"/>
<rect x="541" y="161" width="22" height="22" fill="#BBBBBB"/>
<rect x="567" y="161" width="22" height="22" fill="#BBBBBB"/>
<rect x="541" y="187" width="22" height="22" fill="#BBBBBB"/>
<rect x="567" y="187" width="22" height="22" fill="#BBBBBB"/>
<rect x="593" y="161" width="22" height="22" fill="#BBBBBB"/>
<rect x="619" y="161" width="22" height="22" fill="#BBBBBB"/>
<rect x="593" y="187" width="22" height="22" fill="#BBBBBB"/>
<rect x="619" y="187" width="22" height="22" fill="#BBBBBB"/>
<rect x="229" y="213" width="22" height="22" fill="#BBBBBB"/>
<rect x="255" y="213" width="22" height="22" fill="#BBBBBB"/>
<rect x="229" y="239" width="22" height="22" fill="#BBBBBB"/>
<rect x="255" y="239" width="22" height="22" fill="#BBBBBB"/>
<rect x="281" y="213" width="22" height="22" fill="#BBBBBB"/>
<rect x="307" y="213" width="22" height="22" fill="#BBBBBB"/>
<rect x="281" y="239" width="22" height="22" fill="#BBBBBB"/>
<rect x="307" y="239" width="22" height="22" fill="#BBBBBB"/>
<rect x="333" y="213" width="22" height="22" fill="#BBBBBB"/>
<rect x="359" y="213" width="22" height="22" fill="#BBBBBB"/>
<rect x="333" y="239" width="22" height="22" fill="#BBBBBB"/>
<rect x="359" y="239" width="22" height="22" fill="#BBBBBB"/>
<rect x="385" y="213" width="22" height="22" fill="#BBBBBB"/>
<rect x="411" y="213" width="22" height="22" fill="#BBBBBB"/>
<rect x="385" y="239" width="22" height="22" fill="#BBBBBB"/>
<rect x="411" y="239" width="22" height="22" fill="#BBBBBB"/>
<rect x="437" y="213" width="22" height="22" fill="#BBBBBB"/>
<rect x="463" y="213" width="22" height="22" fill="#BBBBBB"/>
<rect x="437" y="239" width="22" height="22" fill="#BBBBBB"/>
<rect x="463" y="239" width="22" height="22" fill="#BBBBBB"/>
<rect x="489" y="213" width="22" height="22" fill="#BBBBBB"/>
<rect x="515" y="213" width="22" height="22" fill="#BBBBBB"/>
<rect x="489" y="239" width="22" height="22" fill="#BBBBBB"/>
<rect x="515" y="239" width="22" height="22" fill="#BBBBBB"/>
<rect x="541" y="213" width="22" height="22" fill="#BBBBBB"/>
<rect x="567" y="213" width="22" height="22" fill="#BBBBBB"/>
<rect x="541" y="239" width="22" height="22" fill="#BBBBBB"/>
<rect x="567" y="239" width="22" height="22" fill="#BBBBBB"/>
<rect x="593" y="213" width="22" height="22" fill="#BBBBBB"/>
<rect x="619" y="213" width="22" height="22" fill="#BBBBBB"/>
<rect x="593" y="239" width="22" height="22" fill="#BBBBBB"/>
<path d="M121.059 63.3613C121.059 64.6309 120.842 65.5742 120.408 66.1914C119.975 66.8086 119.297 67.1172 118.375 67.1172C117.465 67.1172 116.791 66.8164 116.354 66.2148C115.916 65.6094 115.689 64.707 115.674 63.5078V62.0605C115.674 60.8066 115.891 59.875 116.324 59.2656C116.758 58.6562 117.438 58.3516 118.363 58.3516C119.281 58.3516 119.957 58.6465 120.391 59.2363C120.824 59.8223 121.047 60.7285 121.059 61.9551V63.3613ZM119.975 61.8789C119.975 60.9609 119.846 60.293 119.588 59.875C119.33 59.4531 118.922 59.2422 118.363 59.2422C117.809 59.2422 117.404 59.4512 117.15 59.8691C116.896 60.2871 116.766 60.9297 116.758 61.7969V63.5312C116.758 64.4531 116.891 65.1348 117.156 65.5762C117.426 66.0137 117.832 66.2324 118.375 66.2324C118.91 66.2324 119.307 66.0254 119.564 65.6113C119.826 65.1973 119.963 64.5449 119.975 63.6543V61.8789Z" fill="black"/>
<path d="M121.059 83.3613C121.059 84.6309 120.842 85.5742 120.408 86.1914C119.975 86.8086 119.297 87.1172 118.375 87.1172C117.465 87.1172 116.791 86.8164 116.354 86.2148C115.916 85.6094 115.689 84.707 115.674 83.5078V82.0605C115.674 80.8066 115.891 79.875 116.324 79.2656C116.758 78.6562 117.438 78.3516 118.363 78.3516C119.281 78.3516 119.957 78.6465 120.391 79.2363C120.824 79.8223 121.047 80.7285 121.059 81.9551V83.3613ZM119.975 81.8789C119.975 80.9609 119.846 80.293 119.588 79.875C119.33 79.4531 118.922 79.2422 118.363 79.2422C117.809 79.2422 117.404 79.4512 117.15 79.8691C116.896 80.2871 116.766 80.9297 116.758 81.7969V83.5312C116.758 84.4531 116.891 85.1348 117.156 85.5762C117.426 86.0137 117.832 86.2324 118.375 86.2324C118.91 86.2324 119.307 86.0254 119.564 85.6113C119.826 85.1973 119.963 84.5449 119.975 83.6543V81.8789Z" fill="black"/>
<path d="M122.059 123.361C122.059 124.631 121.842 125.574 121.408 126.191C120.975 126.809 120.297 127.117 119.375 127.117C118.465 127.117 117.791 126.816 117.354 126.215C116.916 125.609 116.689 124.707 116.674 123.508V122.061C116.674 120.807 116.891 119.875 117.324 119.266C117.758 118.656 118.438 118.352 119.363 118.352C120.281 118.352 120.957 118.646 121.391 119.236C121.824 119.822 122.047 120.729 122.059 121.955V123.361ZM120.975 121.879C120.975 120.961 120.846 120.293 120.588 119.875C120.33 119.453 119.922 119.242 119.363 119.242C118.809 119.242 118.404 119.451 118.15 119.869C117.896 120.287 117.766 120.93 117.758 121.797V123.531C117.758 124.453 117.891 125.135 118.156 125.576C118.426 126.014 118.832 126.232 119.375 126.232C119.91 126.232 120.307 126.025 120.564 125.611C120.826 125.197 120.963 124.545 120.975 123.654V121.879Z" fill="black"/>
<path d="M119.271 107H118.182V99.7754L115.996 100.578V99.5938L119.102 98.4277H119.271V107Z" fill="black"/>
<path d="M120.271 145H119.182V137.775L116.996 138.578V137.594L120.102 136.428H120.271V145Z" fill="black"/>
<path d="M122.059 161.361C122.059 162.631 121.842 163.574 121.408 164.191C120.975 164.809 120.297 165.117 119.375 165.117C118.465 165.117 117.791 164.816 117.354 164.215C116.916 163.609 116.689 162.707 116.674 161.508V160.061C116.674 158.807 116.891 157.875 117.324 157.266C117.758 156.656 118.438 156.352 119.363 156.352C120.281 156.352 120.957 156.646 121.391 157.236C121.824 157.822 122.047 158.729 122.059 159.955V161.361ZM120.975 159.879C120.975 158.961 120.846 158.293 120.588 157.875C120.33 157.453 119.922 157.242 119.363 157.242C118.809 157.242 118.404 157.451 118.15 157.869C117.896 158.287 117.766 158.93 117.758 159.797V161.531C117.758 162.453 117.891 163.135 118.156 163.576C118.426 164.014 118.832 164.232 119.375 164.232C119.91 164.232 120.307 164.025 120.564 163.611C120.826 163.197 120.963 162.545 120.975 161.654V159.879Z" fill="black"/>
<path d="M123.059 201.361C123.059 202.631 122.842 203.574 122.408 204.191C121.975 204.809 121.297 205.117 120.375 205.117C119.465 205.117 118.791 204.816 118.354 204.215C117.916 203.609 117.689 202.707 117.674 201.508V200.061C117.674 198.807 117.891 197.875 118.324 197.266C118.758 196.656 119.438 196.352 120.363 196.352C121.281 196.352 121.957 196.646 122.391 197.236C122.824 197.822 123.047 198.729 123.059 199.955V201.361ZM121.975 199.879C121.975 198.961 121.846 198.293 121.588 197.875C121.33 197.453 120.922 197.242 120.363 197.242C119.809 197.242 119.404 197.451 119.15 197.869C118.896 198.287 118.766 198.93 118.758 199.797V201.531C118.758 202.453 118.891 203.135 119.156 203.576C119.426 204.014 119.832 204.232 120.375 204.232C120.91 204.232 121.307 204.025 121.564 203.611C121.826 203.197 121.963 202.545 121.975 201.654V199.879Z" fill="black"/>
<path d="M120.271 185H119.182V177.775L116.996 178.578V177.594L120.102 176.428H120.271V185Z" fill="black"/>
<path d="M30.2715 463H29.1816V455.775L26.9961 456.578V455.594L30.1016 454.428H30.2715V463Z" fill="black"/>
<path d="M30.2715 429H29.1816V421.775L26.9961 422.578V421.594L30.1016 420.428H30.2715V429Z" fill="black"/>
<path d="M120.059 259.361C120.059 260.631 119.842 261.574 119.408 262.191C118.975 262.809 118.297 263.117 117.375 263.117C116.465 263.117 115.791 262.816 115.354 262.215C114.916 261.609 114.689 260.707 114.674 259.508V258.061C114.674 256.807 114.891 255.875 115.324 255.266C115.758 254.656 116.438 254.352 117.363 254.352C118.281 254.352 118.957 254.646 119.391 255.236C119.824 255.822 120.047 256.729 120.059 257.955V259.361ZM118.975 257.879C118.975 256.961 118.846 256.293 118.588 255.875C118.33 255.453 117.922 255.242 117.363 255.242C116.809 255.242 116.404 255.451 116.15 255.869C115.896 256.287 115.766 256.93 115.758 257.797V259.531C115.758 260.453 115.891 261.135 116.156 261.576C116.426 262.014 116.832 262.232 117.375 262.232C117.91 262.232 118.307 262.025 118.564 261.611C118.826 261.197 118.963 260.545 118.975 259.654V257.879Z" fill="black"/>
<path d="M121.059 299.361C121.059 300.631 120.842 301.574 120.408 302.191C119.975 302.809 119.297 303.117 118.375 303.117C117.465 303.117 116.791 302.816 116.354 302.215C115.916 301.609 115.689 300.707 115.674 299.508V298.061C115.674 296.807 115.891 295.875 116.324 295.266C116.758 294.656 117.438 294.352 118.363 294.352C119.281 294.352 119.957 294.646 120.391 295.236C120.824 295.822 121.047 296.729 121.059 297.955V299.361ZM119.975 297.879C119.975 296.961 119.846 296.293 119.588 295.875C119.33 295.453 118.922 295.242 118.363 295.242C117.809 295.242 117.404 295.451 117.15 295.869C116.896 296.287 116.766 296.93 116.758 297.797V299.531C116.758 300.453 116.891 301.135 117.156 301.576C117.426 302.014 117.832 302.232 118.375 302.232C118.91 302.232 119.307 302.025 119.564 301.611C119.826 301.197 119.963 300.545 119.975 299.654V297.879Z" fill="black"/>
<path d="M118.271 283H117.182V275.775L114.996 276.578V275.594L118.102 274.428H118.271V283Z" fill="black"/>
<path d="M119.271 321H118.182V313.775L115.996 314.578V313.594L119.102 312.428H119.271V321Z" fill="black"/>
<path d="M121.059 337.361C121.059 338.631 120.842 339.574 120.408 340.191C119.975 340.809 119.297 341.117 118.375 341.117C117.465 341.117 116.791 340.816 116.354 340.215C115.916 339.609 115.689 338.707 115.674 337.508V336.061C115.674 334.807 115.891 333.875 116.324 333.266C116.758 332.656 117.438 332.352 118.363 332.352C119.281 332.352 119.957 332.646 120.391 333.236C120.824 333.822 121.047 334.729 121.059 335.955V337.361ZM119.975 335.879C119.975 334.961 119.846 334.293 119.588 333.875C119.33 333.453 118.922 333.242 118.363 333.242C117.809 333.242 117.404 333.451 117.15 333.869C116.896 334.287 116.766 334.93 116.758 335.797V337.531C116.758 338.453 116.891 339.135 117.156 339.576C117.426 340.014 117.832 340.232 118.375 340.232C118.91 340.232 119.307 340.025 119.564 339.611C119.826 339.197 119.963 338.545 119.975 337.654V335.879Z" fill="black"/>
<path d="M122.059 377.361C122.059 378.631 121.842 379.574 121.408 380.191C120.975 380.809 120.297 381.117 119.375 381.117C118.465 381.117 117.791 380.816 117.354 380.215C116.916 379.609 116.689 378.707 116.674 377.508V376.061C116.674 374.807 116.891 373.875 117.324 373.266C117.758 372.656 118.438 372.352 119.363 372.352C120.281 372.352 120.957 372.646 121.391 373.236C121.824 373.822 122.047 374.729 122.059 375.955V377.361ZM120.975 375.879C120.975 374.961 120.846 374.293 120.588 373.875C120.33 373.453 119.922 373.242 119.363 373.242C118.809 373.242 118.404 373.451 118.15 373.869C117.896 374.287 117.766 374.93 117.758 375.797V377.531C117.758 378.453 117.891 379.135 118.156 379.576C118.426 380.014 118.832 380.232 119.375 380.232C119.91 380.232 120.307 380.025 120.564 379.611C120.826 379.197 120.963 378.545 120.975 377.654V375.879Z" fill="black"/>
<path d="M119.271 361H118.182V353.775L115.996 354.578V353.594L119.102 352.428H119.271V361Z" fill="black"/>
<path d="M118.271 243H117.182V235.775L114.996 236.578V235.594L118.102 234.428H118.271V243Z" fill="black"/>
<path d="M46.1191 417.549H44.1152V421H42.9844V412.469H45.8086C46.7695 412.469 47.5078 412.688 48.0234 413.125C48.543 413.562 48.8027 414.199 48.8027 415.035C48.8027 415.566 48.6582 416.029 48.3691 416.424C48.084 416.818 47.6855 417.113 47.1738 417.309L49.1777 420.93V421H47.9707L46.1191 417.549ZM44.1152 416.629H45.8438C46.4023 416.629 46.8457 416.484 47.1738 416.195C47.5059 415.906 47.6719 415.52 47.6719 415.035C47.6719 414.508 47.5137 414.104 47.1973 413.822C46.8848 413.541 46.4316 413.398 45.8379 413.395H44.1152V416.629ZM55.207 417.057H51.5098V420.08H55.8047V421H50.3848V412.469H55.7461V413.395H51.5098V416.137H55.207V417.057ZM61.916 418.773H58.3418L57.5391 421H56.3789L59.6367 412.469H60.6211L63.8848 421H62.7305L61.916 418.773ZM58.6816 417.848H61.582L60.1289 413.857L58.6816 417.848ZM65.0332 421V412.469H67.4414C68.1836 412.469 68.8398 412.633 69.4102 412.961C69.9805 413.289 70.4199 413.756 70.7285 414.361C71.041 414.967 71.1992 415.662 71.2031 416.447V416.992C71.2031 417.797 71.0469 418.502 70.7344 419.107C70.4258 419.713 69.9824 420.178 69.4043 420.502C68.8301 420.826 68.1602 420.992 67.3945 421H65.0332ZM66.1582 413.395V420.08H67.3418C68.209 420.08 68.8828 419.811 69.3633 419.271C69.8477 418.732 70.0898 417.965 70.0898 416.969V416.471C70.0898 415.502 69.8613 414.75 69.4043 414.215C68.9512 413.676 68.3066 413.402 67.4707 413.395H66.1582ZM75.9316 421.732H75L78.5625 412.469H79.4883L75.9316 421.732ZM85.6465 418.311L85.8105 419.436L86.0508 418.422L87.7383 412.469H88.6875L90.334 418.422L90.5684 419.453L90.75 418.305L92.0742 412.469H93.2051L91.1367 421H90.1113L88.3535 414.783L88.2188 414.133L88.084 414.783L86.2617 421H85.2363L83.1738 412.469H84.2988L85.6465 418.311ZM97.5879 417.549H95.584V421H94.4531V412.469H97.2773C98.2383 412.469 98.9766 412.688 99.4922 413.125C100.012 413.562 100.271 414.199 100.271 415.035C100.271 415.566 100.127 416.029 99.8379 416.424C99.5527 416.818 99.1543 417.113 98.6426 417.309L100.646 420.93V421H99.4395L97.5879 417.549ZM95.584 416.629H97.3125C97.8711 416.629 98.3145 416.484 98.6426 416.195C98.9746 415.906 99.1406 415.52 99.1406 415.035C99.1406 414.508 98.9824 414.104 98.666 413.822C98.3535 413.541 97.9004 413.398 97.3066 413.395H95.584V416.629ZM103.061 421H101.936V412.469H103.061V421ZM110.842 413.395H108.1V421H106.98V413.395H104.244V412.469H110.842V413.395ZM116.93 417.057H113.232V420.08H117.527V421H112.107V412.469H117.469V413.395H113.232V416.137H116.93V417.057Z" fill="black"/>
<path d="M47.8125 449.057H44.1152V452.08H48.4102V453H42.9902V444.469H48.3516V445.395H44.1152V448.137H47.8125V449.057ZM56.3672 453H55.2363L50.9414 446.426V453H49.8105V444.469H50.9414L55.248 451.072V444.469H56.3672V453ZM63.1816 450.773H59.6074L58.8047 453H57.6445L60.9023 444.469H61.8867L65.1504 453H63.9961L63.1816 450.773ZM59.9473 449.848H62.8477L61.3945 445.857L59.9473 449.848ZM66.2988 453V444.469H69.0879C70.0137 444.469 70.709 444.66 71.1738 445.043C71.6426 445.426 71.877 445.992 71.877 446.742C71.877 447.141 71.7637 447.494 71.5371 447.803C71.3105 448.107 71.002 448.344 70.6113 448.512C71.0723 448.641 71.4355 448.887 71.7012 449.25C71.9707 449.609 72.1055 450.039 72.1055 450.539C72.1055 451.305 71.8574 451.906 71.3613 452.344C70.8652 452.781 70.1641 453 69.2578 453H66.2988ZM67.4238 449.01V452.08H69.2812C69.8047 452.08 70.2168 451.945 70.5176 451.676C70.8223 451.402 70.9746 451.027 70.9746 450.551C70.9746 449.523 70.416 449.01 69.2988 449.01H67.4238ZM67.4238 448.107H69.123C69.6152 448.107 70.0078 447.984 70.3008 447.738C70.5977 447.492 70.7461 447.158 70.7461 446.736C70.7461 446.268 70.6094 445.928 70.3359 445.717C70.0625 445.502 69.6465 445.395 69.0879 445.395H67.4238V448.107ZM74.9062 452.08H78.9492V453H73.7754V444.469H74.9062V452.08ZM85.0547 449.057H81.3574V452.08H85.6523V453H80.2324V444.469H85.5938V445.395H81.3574V448.137H85.0547V449.057Z" fill="black"/>
<rect x="619" y="239" width="22" height="22" fill="#BBBBBB"/>
<path d="M233.479 5.35938L238.593 18.1211L243.706 5.35938H246.381V21H244.318V14.9092L244.512 8.33496L239.377 21H237.798L232.674 8.36719L232.878 14.9092V21H230.815V5.35938H233.479ZM254.534 21.2148C252.959 21.2148 251.677 20.6992 250.688 19.668C249.7 18.6296 249.206 17.2438 249.206 15.5107V15.1455C249.206 13.9925 249.424 12.9648 249.861 12.0625C250.305 11.153 250.921 10.444 251.709 9.93555C252.504 9.41992 253.363 9.16211 254.287 9.16211C255.798 9.16211 256.973 9.65983 257.811 10.6553C258.648 11.6507 259.067 13.0758 259.067 14.9307V15.7578H251.193C251.222 16.9036 251.555 17.8311 252.192 18.54C252.837 19.2419 253.653 19.5928 254.642 19.5928C255.343 19.5928 255.938 19.4495 256.425 19.1631C256.912 18.8766 257.338 18.4971 257.703 18.0244L258.917 18.9697C257.943 20.4665 256.482 21.2148 254.534 21.2148ZM254.287 10.7949C253.485 10.7949 252.812 11.0885 252.268 11.6758C251.723 12.2559 251.387 13.0723 251.258 14.125H257.08V13.9746C257.023 12.9648 256.751 12.1842 256.264 11.6328C255.777 11.0742 255.118 10.7949 254.287 10.7949ZM263.246 9.37695L263.3 10.666C264.152 9.66341 265.301 9.16211 266.748 9.16211C268.374 9.16211 269.48 9.78516 270.067 11.0312C270.454 10.4727 270.955 10.0215 271.571 9.67773C272.194 9.33398 272.928 9.16211 273.773 9.16211C276.323 9.16211 277.619 10.512 277.662 13.2119V21H275.675V13.3301C275.675 12.4993 275.485 11.8799 275.105 11.4717C274.726 11.0563 274.089 10.8486 273.193 10.8486C272.456 10.8486 271.843 11.0706 271.356 11.5146C270.869 11.9515 270.587 12.5423 270.508 13.2871V21H268.51V13.3838C268.51 11.6937 267.683 10.8486 266.028 10.8486C264.725 10.8486 263.833 11.4036 263.354 12.5137V21H261.366V9.37695H263.246ZM280.144 15.0811C280.144 13.9424 280.366 12.9183 280.81 12.0088C281.261 11.0993 281.884 10.3975 282.679 9.90332C283.481 9.40918 284.394 9.16211 285.418 9.16211C287.001 9.16211 288.279 9.70996 289.253 10.8057C290.234 11.9014 290.725 13.3587 290.725 15.1777V15.3174C290.725 16.4489 290.506 17.4658 290.069 18.3682C289.64 19.2633 289.02 19.9616 288.211 20.4629C287.409 20.9642 286.485 21.2148 285.439 21.2148C283.864 21.2148 282.586 20.667 281.604 19.5713C280.631 18.4756 280.144 17.0254 280.144 15.2207V15.0811ZM282.142 15.3174C282.142 16.6064 282.439 17.6413 283.033 18.4219C283.635 19.2025 284.437 19.5928 285.439 19.5928C286.449 19.5928 287.251 19.1989 287.846 18.4111C288.44 17.6162 288.737 16.5062 288.737 15.0811C288.737 13.8063 288.433 12.7751 287.824 11.9873C287.223 11.1924 286.421 10.7949 285.418 10.7949C284.437 10.7949 283.646 11.1852 283.044 11.9658C282.442 12.7464 282.142 13.8636 282.142 15.3174ZM298.835 11.1602C298.534 11.11 298.208 11.085 297.857 11.085C296.554 11.085 295.67 11.64 295.204 12.75V21H293.217V9.37695H295.15L295.183 10.7197C295.834 9.68132 296.758 9.16211 297.954 9.16211C298.341 9.16211 298.634 9.21224 298.835 9.3125V11.1602ZM304.668 18.0889L307.375 9.37695H309.502L304.829 22.7939C304.106 24.7275 302.956 25.6943 301.381 25.6943L301.005 25.6621L300.264 25.5225V23.9111L300.801 23.9541C301.474 23.9541 301.997 23.818 302.369 23.5459C302.749 23.2738 303.06 22.776 303.304 22.0527L303.744 20.8711L299.598 9.37695H301.768L304.668 18.0889ZM317.054 21V5.35938H322.167C323.864 5.35938 325.139 5.71029 325.991 6.41211C326.851 7.11393 327.28 8.15234 327.28 9.52734C327.28 10.2578 327.073 10.9059 326.657 11.4717C326.242 12.0303 325.676 12.4635 324.96 12.7715C325.805 13.0078 326.471 13.459 326.958 14.125C327.452 14.7839 327.699 15.5716 327.699 16.4883C327.699 17.8919 327.244 18.9948 326.335 19.7969C325.425 20.599 324.14 21 322.479 21H317.054ZM319.116 13.6846V19.3135H322.521C323.481 19.3135 324.237 19.0664 324.788 18.5723C325.347 18.071 325.626 17.3835 325.626 16.5098C325.626 14.6263 324.602 13.6846 322.554 13.6846H319.116ZM319.116 12.0303H322.231C323.134 12.0303 323.854 11.8047 324.391 11.3535C324.935 10.9023 325.207 10.29 325.207 9.5166C325.207 8.65723 324.956 8.03418 324.455 7.64746C323.954 7.25358 323.191 7.05664 322.167 7.05664H319.116V12.0303ZM337.625 21C337.51 20.7708 337.417 20.3626 337.346 19.7754C336.422 20.735 335.319 21.2148 334.037 21.2148C332.891 21.2148 331.95 20.8926 331.212 20.248C330.481 19.5964 330.116 18.7728 330.116 17.7773C330.116 16.5671 330.575 15.6289 331.491 14.9629C332.415 14.2897 333.711 13.9531 335.38 13.9531H337.313V13.04C337.313 12.3454 337.106 11.7939 336.69 11.3857C336.275 10.9704 335.663 10.7627 334.854 10.7627C334.145 10.7627 333.55 10.9417 333.07 11.2998C332.59 11.6579 332.351 12.0911 332.351 12.5996H330.353C330.353 12.0195 330.557 11.4609 330.965 10.9238C331.38 10.3796 331.939 9.94987 332.641 9.63477C333.35 9.31966 334.127 9.16211 334.972 9.16211C336.311 9.16211 337.36 9.4987 338.119 10.1719C338.878 10.8379 339.272 11.7581 339.301 12.9326V18.2822C339.301 19.3493 339.437 20.1979 339.709 20.8281V21H337.625ZM334.327 19.4854C334.95 19.4854 335.541 19.3242 336.1 19.002C336.658 18.6797 337.063 18.2607 337.313 17.7451V15.3604H335.756C333.321 15.3604 332.104 16.0729 332.104 17.498C332.104 18.1211 332.311 18.6081 332.727 18.959C333.142 19.3099 333.675 19.4854 334.327 19.4854ZM344.296 9.37695L344.36 10.8379C345.248 9.7207 346.409 9.16211 347.841 9.16211C350.297 9.16211 351.536 10.5479 351.558 13.3193V21H349.57V13.3086C349.563 12.4707 349.37 11.8512 348.99 11.4502C348.618 11.0492 348.034 10.8486 347.239 10.8486C346.595 10.8486 346.029 11.0205 345.542 11.3643C345.055 11.708 344.675 12.1592 344.403 12.7178V21H342.416V9.37695H344.296ZM357.799 15.6182L356.553 16.918V21H354.565V4.5H356.553V14.4795L357.616 13.2012L361.236 9.37695H363.653L359.131 14.2324L364.18 21H361.849L357.799 15.6182ZM381.453 18.2607L383.688 9.37695H385.675L382.291 21H380.68L377.854 12.1914L375.104 21H373.493L370.12 9.37695H372.097L374.385 18.0781L377.092 9.37695H378.692L381.453 18.2607ZM389.864 21H387.877V9.37695H389.864V21ZM387.716 6.29395C387.716 5.97168 387.812 5.69954 388.006 5.47754C388.206 5.25553 388.5 5.14453 388.887 5.14453C389.273 5.14453 389.567 5.25553 389.768 5.47754C389.968 5.69954 390.068 5.97168 390.068 6.29395C390.068 6.61621 389.968 6.88477 389.768 7.09961C389.567 7.31445 389.273 7.42188 388.887 7.42188C388.5 7.42188 388.206 7.31445 388.006 7.09961C387.812 6.88477 387.716 6.61621 387.716 6.29395ZM395.751 6.5625V9.37695H397.921V10.9131H395.751V18.1211C395.751 18.5866 395.848 18.9375 396.041 19.1738C396.234 19.403 396.564 19.5176 397.029 19.5176C397.258 19.5176 397.574 19.4746 397.975 19.3887V21C397.452 21.1432 396.943 21.2148 396.449 21.2148C395.561 21.2148 394.892 20.9463 394.44 20.4092C393.989 19.8721 393.764 19.1094 393.764 18.1211V10.9131H391.647V9.37695H393.764V6.5625H395.751ZM402.239 10.7842C403.12 9.7028 404.266 9.16211 405.677 9.16211C408.133 9.16211 409.372 10.5479 409.394 13.3193V21H407.406V13.3086C407.399 12.4707 407.206 11.8512 406.826 11.4502C406.454 11.0492 405.87 10.8486 405.075 10.8486C404.431 10.8486 403.865 11.0205 403.378 11.3643C402.891 11.708 402.511 12.1592 402.239 12.7178V21H400.252V4.5H402.239V10.7842ZM427.87 21H417.622V19.5713L423.036 13.5557C423.838 12.6462 424.39 11.9085 424.69 11.3428C424.998 10.7699 425.152 10.179 425.152 9.57031C425.152 8.75391 424.905 8.08431 424.411 7.56152C423.917 7.03874 423.258 6.77734 422.435 6.77734C421.446 6.77734 420.676 7.06022 420.125 7.62598C419.581 8.18457 419.309 8.96517 419.309 9.96777H417.321C417.321 8.52832 417.783 7.36458 418.707 6.47656C419.638 5.58854 420.881 5.14453 422.435 5.14453C423.888 5.14453 425.038 5.52767 425.883 6.29395C426.728 7.05306 427.15 8.06641 427.15 9.33398C427.15 10.8737 426.169 12.707 424.207 14.834L420.018 19.3779H427.87V21ZM430.889 13.1582L431.684 5.35938H439.697V7.19629H433.37L432.897 11.4609C433.664 11.0098 434.534 10.7842 435.508 10.7842C436.933 10.7842 438.064 11.2568 438.902 12.2021C439.74 13.1403 440.159 14.4115 440.159 16.0156C440.159 17.627 439.722 18.8981 438.849 19.8291C437.982 20.7529 436.768 21.2148 435.207 21.2148C433.825 21.2148 432.697 20.8317 431.823 20.0654C430.95 19.2992 430.452 18.2393 430.33 16.8857H432.21C432.332 17.7809 432.65 18.4577 433.166 18.916C433.682 19.3672 434.362 19.5928 435.207 19.5928C436.131 19.5928 436.854 19.2777 437.377 18.6475C437.907 18.0173 438.172 17.1471 438.172 16.0371C438.172 14.9915 437.885 14.1536 437.312 13.5234C436.747 12.8861 435.991 12.5674 435.046 12.5674C434.179 12.5674 433.499 12.7572 433.005 13.1367L432.479 13.5664L430.889 13.1582ZM450.128 5.34863V7.03516H449.763C448.216 7.0638 446.984 7.52214 446.067 8.41016C445.151 9.29818 444.621 10.5479 444.478 12.1592C445.301 11.2139 446.425 10.7412 447.851 10.7412C449.211 10.7412 450.296 11.221 451.105 12.1807C451.922 13.1403 452.33 14.3792 452.33 15.8975C452.33 17.5088 451.89 18.7979 451.009 19.7646C450.135 20.7314 448.961 21.2148 447.485 21.2148C445.989 21.2148 444.775 20.6419 443.844 19.4961C442.913 18.3431 442.447 16.8607 442.447 15.0488V14.2861C442.447 11.4072 443.06 9.20866 444.284 7.69043C445.516 6.16504 447.346 5.38444 449.773 5.34863H450.128ZM447.518 12.3955C446.837 12.3955 446.211 12.5996 445.638 13.0078C445.065 13.416 444.667 13.9281 444.445 14.5439V15.2744C444.445 16.5635 444.735 17.6019 445.315 18.3896C445.896 19.1774 446.619 19.5713 447.485 19.5713C448.381 19.5713 449.082 19.2419 449.591 18.583C450.106 17.9242 450.364 17.0612 450.364 15.9941C450.364 14.9199 450.103 14.0534 449.58 13.3945C449.064 12.7285 448.377 12.3955 447.518 12.3955ZM467.52 21C467.405 20.7708 467.312 20.3626 467.24 19.7754C466.316 20.735 465.214 21.2148 463.932 21.2148C462.786 21.2148 461.844 20.8926 461.106 20.248C460.376 19.5964 460.011 18.7728 460.011 17.7773C460.011 16.5671 460.469 15.6289 461.386 14.9629C462.31 14.2897 463.606 13.9531 465.274 13.9531H467.208V13.04C467.208 12.3454 467 11.7939 466.585 11.3857C466.17 10.9704 465.557 10.7627 464.748 10.7627C464.039 10.7627 463.445 10.9417 462.965 11.2998C462.485 11.6579 462.245 12.0911 462.245 12.5996H460.247C460.247 12.0195 460.451 11.4609 460.859 10.9238C461.275 10.3796 461.833 9.94987 462.535 9.63477C463.244 9.31966 464.021 9.16211 464.866 9.16211C466.205 9.16211 467.255 9.4987 468.014 10.1719C468.773 10.8379 469.167 11.7581 469.195 12.9326V18.2822C469.195 19.3493 469.331 20.1979 469.604 20.8281V21H467.52ZM464.222 19.4854C464.845 19.4854 465.436 19.3242 465.994 19.002C466.553 18.6797 466.957 18.2607 467.208 17.7451V15.3604H465.65C463.215 15.3604 461.998 16.0729 461.998 17.498C461.998 18.1211 462.206 18.6081 462.621 18.959C463.036 19.3099 463.57 19.4854 464.222 19.4854ZM471.827 15.0918C471.827 13.3086 472.25 11.8763 473.095 10.7949C473.94 9.70638 475.046 9.16211 476.414 9.16211C477.775 9.16211 478.853 9.6276 479.647 10.5586V4.5H481.635V21H479.809L479.712 19.7539C478.917 20.7279 477.811 21.2148 476.393 21.2148C475.046 21.2148 473.947 20.6634 473.095 19.5605C472.25 18.4577 471.827 17.0182 471.827 15.2422V15.0918ZM473.814 15.3174C473.814 16.6351 474.087 17.6663 474.631 18.4111C475.175 19.1559 475.927 19.5283 476.887 19.5283C478.147 19.5283 479.067 18.9626 479.647 17.8311V12.4922C479.053 11.3965 478.14 10.8486 476.908 10.8486C475.934 10.8486 475.175 11.2246 474.631 11.9766C474.087 12.7285 473.814 13.8421 473.814 15.3174ZM484.245 15.0918C484.245 13.3086 484.668 11.8763 485.513 10.7949C486.358 9.70638 487.464 9.16211 488.832 9.16211C490.193 9.16211 491.271 9.6276 492.065 10.5586V4.5H494.053V21H492.227L492.13 19.7539C491.335 20.7279 490.229 21.2148 488.811 21.2148C487.464 21.2148 486.365 20.6634 485.513 19.5605C484.668 18.4577 484.245 17.0182 484.245 15.2422V15.0918ZM486.232 15.3174C486.232 16.6351 486.505 17.6663 487.049 18.4111C487.593 19.1559 488.345 19.5283 489.305 19.5283C490.565 19.5283 491.485 18.9626 492.065 17.8311V12.4922C491.471 11.3965 490.558 10.8486 489.326 10.8486C488.352 10.8486 487.593 11.2246 487.049 11.9766C486.505 12.7285 486.232 13.8421 486.232 15.3174ZM502.765 11.1602C502.464 11.11 502.138 11.085 501.787 11.085C500.484 11.085 499.599 11.64 499.134 12.75V21H497.146V9.37695H499.08L499.112 10.7197C499.764 9.68132 500.688 9.16211 501.884 9.16211C502.271 9.16211 502.564 9.21224 502.765 9.3125V11.1602ZM509.21 21.2148C507.634 21.2148 506.353 20.6992 505.364 19.668C504.376 18.6296 503.882 17.2438 503.882 15.5107V15.1455C503.882 13.9925 504.1 12.9648 504.537 12.0625C504.981 11.153 505.597 10.444 506.385 9.93555C507.18 9.41992 508.039 9.16211 508.963 9.16211C510.474 9.16211 511.648 9.65983 512.486 10.6553C513.324 11.6507 513.743 13.0758 513.743 14.9307V15.7578H505.869C505.898 16.9036 506.231 17.8311 506.868 18.54C507.513 19.2419 508.329 19.5928 509.317 19.5928C510.019 19.5928 510.614 19.4495 511.101 19.1631C511.588 18.8766 512.014 18.4971 512.379 18.0244L513.593 18.9697C512.619 20.4665 511.158 21.2148 509.21 21.2148ZM508.963 10.7949C508.161 10.7949 507.488 11.0885 506.943 11.6758C506.399 12.2559 506.062 13.0723 505.934 14.125H511.756V13.9746C511.699 12.9648 511.426 12.1842 510.939 11.6328C510.452 11.0742 509.794 10.7949 508.963 10.7949ZM522.82 17.917C522.82 17.3799 522.616 16.9645 522.208 16.6709C521.807 16.3701 521.102 16.1123 520.092 15.8975C519.089 15.6826 518.291 15.4248 517.696 15.124C517.109 14.8232 516.672 14.4652 516.386 14.0498C516.106 13.6344 515.967 13.1403 515.967 12.5674C515.967 11.6149 516.368 10.8092 517.17 10.1504C517.979 9.49154 519.01 9.16211 520.264 9.16211C521.581 9.16211 522.648 9.50228 523.465 10.1826C524.288 10.863 524.7 11.7331 524.7 12.793H522.702C522.702 12.2487 522.469 11.7796 522.004 11.3857C521.546 10.9919 520.965 10.7949 520.264 10.7949C519.54 10.7949 518.975 10.9525 518.566 11.2676C518.158 11.5827 517.954 11.9945 517.954 12.5029C517.954 12.9827 518.144 13.3444 518.523 13.5879C518.903 13.8314 519.587 14.0641 520.575 14.2861C521.571 14.5081 522.376 14.7731 522.992 15.0811C523.608 15.389 524.063 15.7614 524.356 16.1982C524.657 16.6279 524.808 17.1543 524.808 17.7773C524.808 18.8158 524.392 19.6501 523.562 20.2803C522.731 20.9033 521.653 21.2148 520.328 21.2148C519.397 21.2148 518.574 21.0501 517.857 20.7207C517.141 20.3913 516.579 19.9329 516.171 19.3457C515.77 18.7513 515.569 18.1104 515.569 17.4229H517.557C517.592 18.0889 517.857 18.6188 518.352 19.0127C518.853 19.3994 519.512 19.5928 520.328 19.5928C521.08 19.5928 521.682 19.4424 522.133 19.1416C522.591 18.8337 522.82 18.4255 522.82 17.917ZM534.164 17.917C534.164 17.3799 533.96 16.9645 533.552 16.6709C533.151 16.3701 532.445 16.1123 531.436 15.8975C530.433 15.6826 529.634 15.4248 529.04 15.124C528.453 14.8232 528.016 14.4652 527.729 14.0498C527.45 13.6344 527.311 13.1403 527.311 12.5674C527.311 11.6149 527.712 10.8092 528.514 10.1504C529.323 9.49154 530.354 9.16211 531.607 9.16211C532.925 9.16211 533.992 9.50228 534.809 10.1826C535.632 10.863 536.044 11.7331 536.044 12.793H534.046C534.046 12.2487 533.813 11.7796 533.348 11.3857C532.889 10.9919 532.309 10.7949 531.607 10.7949C530.884 10.7949 530.318 10.9525 529.91 11.2676C529.502 11.5827 529.298 11.9945 529.298 12.5029C529.298 12.9827 529.488 13.3444 529.867 13.5879C530.247 13.8314 530.931 14.0641 531.919 14.2861C532.914 14.5081 533.72 14.7731 534.336 15.0811C534.952 15.389 535.407 15.7614 535.7 16.1982C536.001 16.6279 536.151 17.1543 536.151 17.7773C536.151 18.8158 535.736 19.6501 534.905 20.2803C534.075 20.9033 532.997 21.2148 531.672 21.2148C530.741 21.2148 529.917 21.0501 529.201 20.7207C528.485 20.3913 527.923 19.9329 527.515 19.3457C527.114 18.7513 526.913 18.1104 526.913 17.4229H528.9C528.936 18.0889 529.201 18.6188 529.695 19.0127C530.197 19.3994 530.855 19.5928 531.672 19.5928C532.424 19.5928 533.025 19.4424 533.477 19.1416C533.935 18.8337 534.164 18.4255 534.164 17.917ZM546.356 21H544.369V4.5H546.356V21ZM549.021 15.0811C549.021 13.9424 549.243 12.9183 549.687 12.0088C550.138 11.0993 550.761 10.3975 551.556 9.90332C552.358 9.40918 553.271 9.16211 554.295 9.16211C555.878 9.16211 557.156 9.70996 558.13 10.8057C559.111 11.9014 559.602 13.3587 559.602 15.1777V15.3174C559.602 16.4489 559.383 17.4658 558.946 18.3682C558.517 19.2633 557.897 19.9616 557.088 20.4629C556.286 20.9642 555.362 21.2148 554.316 21.2148C552.741 21.2148 551.463 20.667 550.481 19.5713C549.507 18.4756 549.021 17.0254 549.021 15.2207V15.0811ZM551.019 15.3174C551.019 16.6064 551.316 17.6413 551.91 18.4219C552.512 19.2025 553.314 19.5928 554.316 19.5928C555.326 19.5928 556.128 19.1989 556.723 18.4111C557.317 17.6162 557.614 16.5062 557.614 15.0811C557.614 13.8063 557.31 12.7751 556.701 11.9873C556.1 11.1924 555.298 10.7949 554.295 10.7949C553.314 10.7949 552.522 11.1852 551.921 11.9658C551.319 12.7464 551.019 13.8636 551.019 15.3174ZM566.756 19.5928C567.465 19.5928 568.084 19.3779 568.614 18.9482C569.144 18.5186 569.438 17.9814 569.495 17.3369H571.375C571.339 18.0029 571.11 18.6367 570.688 19.2383C570.265 19.8398 569.699 20.3197 568.99 20.6777C568.288 21.0358 567.544 21.2148 566.756 21.2148C565.173 21.2148 563.913 20.6885 562.975 19.6357C562.044 18.5758 561.578 17.1292 561.578 15.2959V14.9629C561.578 13.8314 561.786 12.8252 562.201 11.9443C562.617 11.0635 563.211 10.3796 563.984 9.89258C564.765 9.4056 565.685 9.16211 566.745 9.16211C568.049 9.16211 569.13 9.55241 569.989 10.333C570.856 11.1136 571.318 12.127 571.375 13.373H569.495C569.438 12.6211 569.151 12.0052 568.636 11.5254C568.127 11.0384 567.497 10.7949 566.745 10.7949C565.735 10.7949 564.951 11.1602 564.393 11.8906C563.841 12.6139 563.565 13.6631 563.565 15.0381V15.4141C563.565 16.7533 563.841 17.7845 564.393 18.5078C564.944 19.2311 565.732 19.5928 566.756 19.5928ZM580.785 21C580.671 20.7708 580.577 20.3626 580.506 19.7754C579.582 20.735 578.479 21.2148 577.197 21.2148C576.051 21.2148 575.11 20.8926 574.372 20.248C573.642 19.5964 573.276 18.7728 573.276 17.7773C573.276 16.5671 573.735 15.6289 574.651 14.9629C575.575 14.2897 576.871 13.9531 578.54 13.9531H580.474V13.04C580.474 12.3454 580.266 11.7939 579.851 11.3857C579.435 10.9704 578.823 10.7627 578.014 10.7627C577.305 10.7627 576.71 10.9417 576.23 11.2998C575.751 11.6579 575.511 12.0911 575.511 12.5996H573.513C573.513 12.0195 573.717 11.4609 574.125 10.9238C574.54 10.3796 575.099 9.94987 575.801 9.63477C576.51 9.31966 577.287 9.16211 578.132 9.16211C579.471 9.16211 580.52 9.4987 581.279 10.1719C582.038 10.8379 582.432 11.7581 582.461 12.9326V18.2822C582.461 19.3493 582.597 20.1979 582.869 20.8281V21H580.785ZM577.487 19.4854C578.11 19.4854 578.701 19.3242 579.26 19.002C579.818 18.6797 580.223 18.2607 580.474 17.7451V15.3604H578.916C576.481 15.3604 575.264 16.0729 575.264 17.498C575.264 18.1211 575.471 18.6081 575.887 18.959C576.302 19.3099 576.836 19.4854 577.487 19.4854ZM588.272 6.5625V9.37695H590.442V10.9131H588.272V18.1211C588.272 18.5866 588.369 18.9375 588.562 19.1738C588.756 19.403 589.085 19.5176 589.551 19.5176C589.78 19.5176 590.095 19.4746 590.496 19.3887V21C589.973 21.1432 589.465 21.2148 588.971 21.2148C588.083 21.2148 587.413 20.9463 586.962 20.4092C586.511 19.8721 586.285 19.1094 586.285 18.1211V10.9131H584.169V9.37695H586.285V6.5625H588.272ZM594.933 21H592.945V9.37695H594.933V21ZM592.784 6.29395C592.784 5.97168 592.881 5.69954 593.074 5.47754C593.275 5.25553 593.568 5.14453 593.955 5.14453C594.342 5.14453 594.635 5.25553 594.836 5.47754C595.036 5.69954 595.137 5.97168 595.137 6.29395C595.137 6.61621 595.036 6.88477 594.836 7.09961C594.635 7.31445 594.342 7.42188 593.955 7.42188C593.568 7.42188 593.275 7.31445 593.074 7.09961C592.881 6.88477 592.784 6.61621 592.784 6.29395ZM597.597 15.0811C597.597 13.9424 597.819 12.9183 598.263 12.0088C598.714 11.0993 599.337 10.3975 600.132 9.90332C600.934 9.40918 601.847 9.16211 602.871 9.16211C604.454 9.16211 605.732 9.70996 606.706 10.8057C607.687 11.9014 608.178 13.3587 608.178 15.1777V15.3174C608.178 16.4489 607.959 17.4658 607.522 18.3682C607.093 19.2633 606.473 19.9616 605.664 20.4629C604.862 20.9642 603.938 21.2148 602.893 21.2148C601.317 21.2148 600.039 20.667 599.058 19.5713C598.084 18.4756 597.597 17.0254 597.597 15.2207V15.0811ZM599.595 15.3174C599.595 16.6064 599.892 17.6413 600.486 18.4219C601.088 19.2025 601.89 19.5928 602.893 19.5928C603.902 19.5928 604.704 19.1989 605.299 18.4111C605.893 17.6162 606.19 16.5062 606.19 15.0811C606.19 13.8063 605.886 12.7751 605.277 11.9873C604.676 11.1924 603.874 10.7949 602.871 10.7949C601.89 10.7949 601.099 11.1852 600.497 11.9658C599.896 12.7464 599.595 13.8636 599.595 15.3174ZM612.55 9.37695L612.614 10.8379C613.502 9.7207 614.662 9.16211 616.095 9.16211C618.551 9.16211 619.79 10.5479 619.812 13.3193V21H617.824V13.3086C617.817 12.4707 617.624 11.8512 617.244 11.4502C616.872 11.0492 616.288 10.8486 615.493 10.8486C614.849 10.8486 614.283 11.0205 613.796 11.3643C613.309 11.708 612.929 12.1592 612.657 12.7178V21H610.67V9.37695H612.55ZM629.576 17.917C629.576 17.3799 629.372 16.9645 628.964 16.6709C628.563 16.3701 627.857 16.1123 626.848 15.8975C625.845 15.6826 625.047 15.4248 624.452 15.124C623.865 14.8232 623.428 14.4652 623.142 14.0498C622.862 13.6344 622.723 13.1403 622.723 12.5674C622.723 11.6149 623.124 10.8092 623.926 10.1504C624.735 9.49154 625.766 9.16211 627.02 9.16211C628.337 9.16211 629.404 9.50228 630.221 10.1826C631.044 10.863 631.456 11.7331 631.456 12.793H629.458C629.458 12.2487 629.225 11.7796 628.76 11.3857C628.301 10.9919 627.721 10.7949 627.02 10.7949C626.296 10.7949 625.73 10.9525 625.322 11.2676C624.914 11.5827 624.71 11.9945 624.71 12.5029C624.71 12.9827 624.9 13.3444 625.279 13.5879C625.659 13.8314 626.343 14.0641 627.331 14.2861C628.326 14.5081 629.132 14.7731 629.748 15.0811C630.364 15.389 630.819 15.7614 631.112 16.1982C631.413 16.6279 631.563 17.1543 631.563 17.7773C631.563 18.8158 631.148 19.6501 630.317 20.2803C629.487 20.9033 628.409 21.2148 627.084 21.2148C626.153 21.2148 625.329 21.0501 624.613 20.7207C623.897 20.3913 623.335 19.9329 622.927 19.3457C622.526 18.7513 622.325 18.1104 622.325 17.4229H624.312C624.348 18.0889 624.613 18.6188 625.107 19.0127C625.609 19.3994 626.268 19.5928 627.084 19.5928C627.836 19.5928 628.438 19.4424 628.889 19.1416C629.347 18.8337 629.576 18.4255 629.576 17.917Z" fill="black"/>
<path d="M82.5 407.515L116.5 407.515" stroke="black"/>
</svg>
