<svg width="3113" height="1247" viewBox="0 0 3113 1247" fill="none" xmlns="http://www.w3.org/2000/svg">
<path d="M414 10H722V318H414V10Z" fill="white" stroke="#488DFF" stroke-width="10"/>
<path d="M522.034 158.544H504.491V155.064L512.77 146.24C513.907 144.997 514.745 143.913 515.284 142.988C515.835 142.062 516.11 141.183 516.11 140.351C516.11 139.214 515.823 138.323 515.249 137.679C514.675 137.023 513.854 136.695 512.788 136.695C511.639 136.695 510.731 137.093 510.063 137.89C509.407 138.675 509.079 139.712 509.079 141.001H503.981C503.981 139.443 504.35 138.019 505.089 136.73C505.839 135.441 506.893 134.433 508.253 133.706C509.612 132.968 511.153 132.599 512.876 132.599C515.512 132.599 517.557 133.232 519.01 134.497C520.475 135.763 521.208 137.55 521.208 139.859C521.208 141.124 520.88 142.413 520.223 143.726C519.567 145.038 518.442 146.568 516.848 148.314L511.03 154.448H522.034V158.544ZM525.919 145.958L527.395 132.95H541.739V137.187H531.561L530.928 142.689C532.135 142.044 533.419 141.722 534.778 141.722C537.216 141.722 539.126 142.478 540.509 143.99C541.891 145.501 542.583 147.616 542.583 150.335C542.583 151.988 542.231 153.47 541.528 154.782C540.837 156.083 539.841 157.097 538.54 157.823C537.239 158.538 535.704 158.896 533.934 158.896C532.387 158.896 530.952 158.585 529.628 157.964C528.303 157.331 527.255 156.447 526.481 155.31C525.719 154.173 525.315 152.878 525.268 151.425H530.296C530.401 152.491 530.77 153.323 531.403 153.921C532.048 154.507 532.885 154.8 533.917 154.8C535.065 154.8 535.95 154.39 536.571 153.57C537.192 152.738 537.503 151.566 537.503 150.054C537.503 148.601 537.145 147.488 536.43 146.714C535.716 145.941 534.702 145.554 533.389 145.554C532.182 145.554 531.204 145.87 530.454 146.503L529.962 146.96L525.919 145.958ZM559.616 132.687V136.87H559.124C556.827 136.906 554.975 137.503 553.569 138.663C552.175 139.823 551.337 141.435 551.055 143.497C552.415 142.115 554.132 141.423 556.206 141.423C558.432 141.423 560.202 142.22 561.514 143.814C562.827 145.407 563.483 147.505 563.483 150.107C563.483 151.771 563.12 153.277 562.393 154.624C561.678 155.972 560.659 157.021 559.335 157.771C558.022 158.521 556.534 158.896 554.87 158.896C552.175 158.896 549.995 157.958 548.331 156.083C546.678 154.208 545.852 151.706 545.852 148.577V146.749C545.852 143.972 546.374 141.523 547.417 139.402C548.471 137.269 549.977 135.622 551.934 134.462C553.903 133.29 556.182 132.698 558.772 132.687H559.616ZM554.659 145.501C553.839 145.501 553.094 145.718 552.426 146.152C551.759 146.573 551.266 147.136 550.95 147.839V149.386C550.95 151.085 551.284 152.415 551.952 153.376C552.62 154.325 553.557 154.8 554.764 154.8C555.854 154.8 556.733 154.372 557.401 153.517C558.081 152.65 558.421 151.531 558.421 150.159C558.421 148.765 558.081 147.64 557.401 146.784C556.721 145.929 555.807 145.501 554.659 145.501ZM576.596 149.632H566.7V145.536H576.596V149.632ZM581.009 158.544V132.95H589.973C593.079 132.95 595.434 133.548 597.04 134.743C598.645 135.927 599.448 137.667 599.448 139.964C599.448 141.218 599.126 142.325 598.481 143.286C597.837 144.236 596.94 144.933 595.792 145.378C597.104 145.706 598.135 146.368 598.885 147.365C599.647 148.361 600.028 149.579 600.028 151.021C600.028 153.482 599.243 155.345 597.673 156.611C596.102 157.876 593.864 158.521 590.958 158.544H581.009ZM586.282 147.4V154.308H590.8C592.042 154.308 593.009 154.015 593.7 153.429C594.403 152.831 594.755 152.011 594.755 150.968C594.755 148.624 593.542 147.435 591.116 147.4H586.282ZM586.282 143.673H590.184C592.844 143.626 594.175 142.566 594.175 140.491C594.175 139.331 593.835 138.499 593.155 137.995C592.487 137.48 591.426 137.222 589.973 137.222H586.282V143.673ZM609.608 158.544H604.335V132.95H609.608V158.544ZM633.251 137.222H625.411V158.544H620.137V137.222H612.403V132.95H633.251V137.222ZM501.257 174.95L507.831 193.513L514.37 174.95H521.296V200.544H516.005V193.548L516.532 181.472L509.624 200.544H506.003L499.112 181.49L499.639 193.548V200.544H494.366V174.95H501.257ZM541.3 189.452H531.175V196.308H543.057V200.544H525.901V174.95H543.022V179.222H531.175V185.322H541.3V189.452ZM553.042 174.95L559.616 193.513L566.155 174.95H573.081V200.544H567.79V193.548L568.317 181.472L561.409 200.544H557.788L550.897 181.49L551.425 193.548V200.544H546.151V174.95H553.042ZM598.71 188.327C598.71 190.847 598.264 193.056 597.374 194.954C596.483 196.853 595.206 198.318 593.542 199.349C591.889 200.38 589.991 200.896 587.846 200.896C585.725 200.896 583.833 200.386 582.169 199.366C580.505 198.347 579.216 196.894 578.301 195.007C577.387 193.109 576.925 190.929 576.913 188.468V187.202C576.913 184.683 577.364 182.468 578.266 180.558C579.18 178.636 580.464 177.165 582.116 176.146C583.78 175.115 585.678 174.599 587.811 174.599C589.944 174.599 591.837 175.115 593.489 176.146C595.153 177.165 596.436 178.636 597.339 180.558C598.253 182.468 598.71 184.677 598.71 187.185V188.327ZM593.366 187.167C593.366 184.484 592.885 182.445 591.925 181.05C590.964 179.656 589.593 178.958 587.811 178.958C586.042 178.958 584.676 179.65 583.716 181.032C582.755 182.404 582.268 184.419 582.257 187.079V188.327C582.257 190.941 582.737 192.968 583.698 194.409C584.659 195.851 586.042 196.572 587.846 196.572C589.616 196.572 590.975 195.88 591.925 194.497C592.874 193.103 593.354 191.075 593.366 188.415V187.167ZM612.016 191.175H607.815V200.544H602.542V174.95H612.051C615.075 174.95 617.407 175.624 619.048 176.972C620.688 178.32 621.509 180.224 621.509 182.685C621.509 184.431 621.128 185.89 620.366 187.062C619.616 188.222 618.473 189.148 616.938 189.839L622.475 200.298V200.544H616.815L612.016 191.175ZM607.815 186.904H612.069C613.393 186.904 614.419 186.57 615.145 185.902C615.872 185.222 616.235 184.29 616.235 183.107C616.235 181.9 615.889 180.95 615.198 180.259C614.518 179.568 613.469 179.222 612.051 179.222H607.815V186.904ZM633.514 186.482L638.841 174.95H644.606L636.204 191.263V200.544H630.842V191.263L622.44 174.95H628.223L633.514 186.482Z" fill="#488DFF"/>
<path d="M754.448 8.28564H1062.45V316.286H754.448V8.28564Z" fill="white" stroke="#488DFF" stroke-width="10"/>
<path d="M862.482 156.83H844.939V153.349L853.218 144.525C854.355 143.283 855.193 142.199 855.732 141.273C856.283 140.347 856.558 139.469 856.558 138.636C856.558 137.5 856.271 136.609 855.697 135.965C855.123 135.308 854.302 134.98 853.236 134.98C852.088 134.98 851.179 135.379 850.511 136.176C849.855 136.961 849.527 137.998 849.527 139.287H844.429C844.429 137.728 844.799 136.304 845.537 135.015C846.287 133.726 847.342 132.719 848.701 131.992C850.06 131.254 851.601 130.885 853.324 130.885C855.961 130.885 858.006 131.517 859.459 132.783C860.924 134.049 861.656 135.836 861.656 138.144C861.656 139.41 861.328 140.699 860.672 142.011C860.015 143.324 858.89 144.853 857.297 146.599L851.478 152.734H862.482V156.83ZM866.367 144.244L867.843 131.236H882.187V135.472H872.009L871.377 140.974C872.584 140.33 873.867 140.008 875.226 140.008C877.664 140.008 879.574 140.763 880.957 142.275C882.34 143.787 883.031 145.902 883.031 148.621C883.031 150.273 882.679 151.756 881.976 153.068C881.285 154.369 880.289 155.383 878.988 156.109C877.687 156.824 876.152 157.181 874.383 157.181C872.836 157.181 871.4 156.871 870.076 156.25C868.752 155.617 867.703 154.732 866.929 153.595C866.168 152.459 865.763 151.164 865.717 149.711H870.744C870.849 150.777 871.218 151.609 871.851 152.207C872.496 152.793 873.334 153.086 874.365 153.086C875.513 153.086 876.398 152.676 877.019 151.855C877.64 151.023 877.951 149.851 877.951 148.34C877.951 146.886 877.593 145.773 876.879 145C876.164 144.226 875.15 143.84 873.838 143.84C872.631 143.84 871.652 144.156 870.902 144.789L870.41 145.246L866.367 144.244ZM900.064 130.972V135.156H899.572C897.275 135.191 895.424 135.789 894.017 136.949C892.623 138.109 891.785 139.72 891.504 141.783C892.863 140.4 894.58 139.709 896.654 139.709C898.881 139.709 900.65 140.506 901.963 142.099C903.275 143.693 903.931 145.791 903.931 148.392C903.931 150.056 903.568 151.562 902.842 152.91C902.127 154.258 901.107 155.306 899.783 156.056C898.47 156.806 896.982 157.181 895.318 157.181C892.623 157.181 890.443 156.244 888.779 154.369C887.127 152.494 886.301 149.992 886.301 146.863V145.035C886.301 142.258 886.822 139.808 887.865 137.687C888.92 135.554 890.426 133.908 892.383 132.748C894.351 131.576 896.631 130.984 899.22 130.972H900.064ZM895.107 143.787C894.287 143.787 893.543 144.004 892.875 144.437C892.207 144.859 891.715 145.422 891.398 146.125V147.672C891.398 149.371 891.732 150.701 892.4 151.662C893.068 152.611 894.006 153.086 895.213 153.086C896.302 153.086 897.181 152.658 897.849 151.802C898.529 150.935 898.869 149.816 898.869 148.445C898.869 147.051 898.529 145.926 897.849 145.07C897.17 144.215 896.256 143.787 895.107 143.787ZM917.045 147.918H907.148V143.822H917.045V147.918ZM921.457 156.83V131.236H930.422C933.527 131.236 935.883 131.834 937.488 133.029C939.093 134.213 939.896 135.953 939.896 138.25C939.896 139.504 939.574 140.611 938.929 141.572C938.285 142.521 937.388 143.219 936.24 143.664C937.552 143.992 938.584 144.654 939.334 145.65C940.095 146.646 940.476 147.865 940.476 149.306C940.476 151.767 939.691 153.631 938.121 154.896C936.551 156.162 934.312 156.806 931.406 156.83H921.457ZM926.73 145.685V152.594H931.248C932.49 152.594 933.457 152.301 934.148 151.715C934.851 151.117 935.203 150.297 935.203 149.254C935.203 146.91 933.99 145.72 931.564 145.685H926.73ZM926.73 141.959H930.633C933.293 141.912 934.623 140.851 934.623 138.777C934.623 137.617 934.283 136.785 933.603 136.281C932.935 135.765 931.875 135.508 930.422 135.508H926.73V141.959ZM950.056 156.83H944.783V131.236H950.056V156.83ZM973.699 135.508H965.859V156.83H960.586V135.508H952.851V131.236H973.699V135.508ZM841.705 173.236L848.279 191.799L854.818 173.236H861.744V198.83H856.453V191.834L856.98 179.758L850.072 198.83H846.451L839.56 179.775L840.088 191.834V198.83H834.814V173.236H841.705ZM881.748 187.738H871.623V194.594H883.506V198.83H866.349V173.236H883.47V177.508H871.623V183.607H881.748V187.738ZM893.49 173.236L900.064 191.799L906.603 173.236H913.529V198.83H908.238V191.834L908.765 179.758L901.857 198.83H898.236L891.345 179.775L891.873 191.834V198.83H886.599V173.236H893.49ZM939.158 186.613C939.158 189.133 938.713 191.342 937.822 193.24C936.931 195.138 935.654 196.603 933.99 197.635C932.338 198.666 930.439 199.181 928.295 199.181C926.174 199.181 924.281 198.672 922.617 197.652C920.953 196.633 919.664 195.179 918.75 193.293C917.836 191.394 917.373 189.215 917.361 186.754V185.488C917.361 182.969 917.812 180.754 918.715 178.844C919.629 176.922 920.912 175.451 922.564 174.431C924.228 173.4 926.127 172.885 928.259 172.885C930.392 172.885 932.285 173.4 933.937 174.431C935.601 175.451 936.884 176.922 937.787 178.844C938.701 180.754 939.158 182.963 939.158 185.47V186.613ZM933.814 185.453C933.814 182.769 933.334 180.73 932.373 179.336C931.412 177.941 930.041 177.244 928.259 177.244C926.49 177.244 925.125 177.935 924.164 179.318C923.203 180.689 922.717 182.705 922.705 185.365V186.613C922.705 189.226 923.185 191.254 924.146 192.695C925.107 194.136 926.49 194.857 928.295 194.857C930.064 194.857 931.424 194.166 932.373 192.783C933.322 191.388 933.802 189.361 933.814 186.701V185.453ZM952.465 189.461H948.263V198.83H942.99V173.236H952.5C955.523 173.236 957.855 173.91 959.496 175.258C961.136 176.605 961.957 178.51 961.957 180.97C961.957 182.717 961.576 184.176 960.814 185.347C960.064 186.508 958.922 187.433 957.386 188.125L962.924 198.584V198.83H957.263L952.465 189.461ZM948.263 185.189H952.517C953.842 185.189 954.867 184.855 955.593 184.187C956.32 183.508 956.683 182.576 956.683 181.392C956.683 180.185 956.338 179.236 955.646 178.545C954.967 177.853 953.918 177.508 952.5 177.508H948.263V185.189ZM973.963 184.767L979.289 173.236H985.054L976.652 189.549V198.83H971.291V189.549L962.888 173.236H968.672L973.963 184.767Z" fill="#488DFF"/>
<path d="M2459 5H2767V313H2459V5Z" fill="white" stroke="#488DFF" stroke-width="10"/>
<path d="M2567.03 153.544H2549.49V150.064L2557.77 141.24C2558.91 139.997 2559.74 138.913 2560.28 137.988C2560.83 137.062 2561.11 136.183 2561.11 135.351C2561.11 134.214 2560.82 133.323 2560.25 132.679C2559.67 132.023 2558.85 131.695 2557.79 131.695C2556.64 131.695 2555.73 132.093 2555.06 132.89C2554.41 133.675 2554.08 134.712 2554.08 136.001H2548.98C2548.98 134.443 2549.35 133.019 2550.09 131.73C2550.84 130.441 2551.89 129.433 2553.25 128.706C2554.61 127.968 2556.15 127.599 2557.88 127.599C2560.51 127.599 2562.56 128.232 2564.01 129.497C2565.48 130.763 2566.21 132.55 2566.21 134.859C2566.21 136.124 2565.88 137.413 2565.22 138.726C2564.57 140.038 2563.44 141.568 2561.85 143.314L2556.03 149.448H2567.03V153.544ZM2570.92 140.958L2572.39 127.95H2586.74V132.187H2576.56L2575.93 137.689C2577.14 137.044 2578.42 136.722 2579.78 136.722C2582.22 136.722 2584.13 137.478 2585.51 138.99C2586.89 140.501 2587.58 142.616 2587.58 145.335C2587.58 146.988 2587.23 148.47 2586.53 149.782C2585.84 151.083 2584.84 152.097 2583.54 152.823C2582.24 153.538 2580.7 153.896 2578.93 153.896C2577.39 153.896 2575.95 153.585 2574.63 152.964C2573.3 152.331 2572.25 151.447 2571.48 150.31C2570.72 149.173 2570.31 147.878 2570.27 146.425H2575.3C2575.4 147.491 2575.77 148.323 2576.4 148.921C2577.05 149.507 2577.89 149.8 2578.92 149.8C2580.06 149.8 2580.95 149.39 2581.57 148.57C2582.19 147.738 2582.5 146.566 2582.5 145.054C2582.5 143.601 2582.14 142.488 2581.43 141.714C2580.72 140.941 2579.7 140.554 2578.39 140.554C2577.18 140.554 2576.2 140.87 2575.45 141.503L2574.96 141.96L2570.92 140.958ZM2604.62 127.687V131.87H2604.12C2601.83 131.906 2599.98 132.503 2598.57 133.663C2597.17 134.823 2596.34 136.435 2596.06 138.497C2597.41 137.115 2599.13 136.423 2601.21 136.423C2603.43 136.423 2605.2 137.22 2606.51 138.814C2607.83 140.407 2608.48 142.505 2608.48 145.107C2608.48 146.771 2608.12 148.277 2607.39 149.624C2606.68 150.972 2605.66 152.021 2604.33 152.771C2603.02 153.521 2601.53 153.896 2599.87 153.896C2597.17 153.896 2594.99 152.958 2593.33 151.083C2591.68 149.208 2590.85 146.706 2590.85 143.577V141.749C2590.85 138.972 2591.37 136.523 2592.42 134.402C2593.47 132.269 2594.98 130.622 2596.93 129.462C2598.9 128.29 2601.18 127.698 2603.77 127.687H2604.62ZM2599.66 140.501C2598.84 140.501 2598.09 140.718 2597.43 141.152C2596.76 141.573 2596.27 142.136 2595.95 142.839V144.386C2595.95 146.085 2596.28 147.415 2596.95 148.376C2597.62 149.325 2598.56 149.8 2599.76 149.8C2600.85 149.8 2601.73 149.372 2602.4 148.517C2603.08 147.65 2603.42 146.531 2603.42 145.159C2603.42 143.765 2603.08 142.64 2602.4 141.784C2601.72 140.929 2600.81 140.501 2599.66 140.501ZM2621.6 144.632H2611.7V140.536H2621.6V144.632ZM2626.01 153.544V127.95H2634.97C2638.08 127.95 2640.43 128.548 2642.04 129.743C2643.64 130.927 2644.45 132.667 2644.45 134.964C2644.45 136.218 2644.13 137.325 2643.48 138.286C2642.84 139.236 2641.94 139.933 2640.79 140.378C2642.1 140.706 2643.14 141.368 2643.89 142.365C2644.65 143.361 2645.03 144.579 2645.03 146.021C2645.03 148.482 2644.24 150.345 2642.67 151.611C2641.1 152.876 2638.86 153.521 2635.96 153.544H2626.01ZM2631.28 142.4V149.308H2635.8C2637.04 149.308 2638.01 149.015 2638.7 148.429C2639.4 147.831 2639.75 147.011 2639.75 145.968C2639.75 143.624 2638.54 142.435 2636.12 142.4H2631.28ZM2631.28 138.673H2635.18C2637.84 138.626 2639.17 137.566 2639.17 135.491C2639.17 134.331 2638.83 133.499 2638.15 132.995C2637.49 132.48 2636.43 132.222 2634.97 132.222H2631.28V138.673ZM2654.61 153.544H2649.33V127.95H2654.61V153.544ZM2678.25 132.222H2670.41V153.544H2665.14V132.222H2657.4V127.95H2678.25V132.222ZM2546.26 169.95L2552.83 188.513L2559.37 169.95H2566.3V195.544H2561V188.548L2561.53 176.472L2554.62 195.544H2551L2544.11 176.49L2544.64 188.548V195.544H2539.37V169.95H2546.26ZM2586.3 184.452H2576.17V191.308H2588.06V195.544H2570.9V169.95H2588.02V174.222H2576.17V180.322H2586.3V184.452ZM2598.04 169.95L2604.62 188.513L2611.15 169.95H2618.08V195.544H2612.79V188.548L2613.32 176.472L2606.41 195.544H2602.79L2595.9 176.49L2596.42 188.548V195.544H2591.15V169.95H2598.04ZM2643.71 183.327C2643.71 185.847 2643.26 188.056 2642.37 189.954C2641.48 191.853 2640.21 193.318 2638.54 194.349C2636.89 195.38 2634.99 195.896 2632.85 195.896C2630.73 195.896 2628.83 195.386 2627.17 194.366C2625.5 193.347 2624.22 191.894 2623.3 190.007C2622.39 188.109 2621.92 185.929 2621.91 183.468V182.202C2621.91 179.683 2622.36 177.468 2623.27 175.558C2624.18 173.636 2625.46 172.165 2627.12 171.146C2628.78 170.115 2630.68 169.599 2632.81 169.599C2634.94 169.599 2636.84 170.115 2638.49 171.146C2640.15 172.165 2641.44 173.636 2642.34 175.558C2643.25 177.468 2643.71 179.677 2643.71 182.185V183.327ZM2638.37 182.167C2638.37 179.484 2637.89 177.445 2636.92 176.05C2635.96 174.656 2634.59 173.958 2632.81 173.958C2631.04 173.958 2629.68 174.65 2628.72 176.032C2627.75 177.404 2627.27 179.419 2627.26 182.079V183.327C2627.26 185.941 2627.74 187.968 2628.7 189.409C2629.66 190.851 2631.04 191.572 2632.85 191.572C2634.62 191.572 2635.98 190.88 2636.92 189.497C2637.87 188.103 2638.35 186.075 2638.37 183.415V182.167ZM2657.02 186.175H2652.81V195.544H2647.54V169.95H2657.05C2660.07 169.95 2662.41 170.624 2664.05 171.972C2665.69 173.32 2666.51 175.224 2666.51 177.685C2666.51 179.431 2666.13 180.89 2665.37 182.062C2664.62 183.222 2663.47 184.148 2661.94 184.839L2667.48 195.298V195.544H2661.81L2657.02 186.175ZM2652.81 181.904H2657.07C2658.39 181.904 2659.42 181.57 2660.14 180.902C2660.87 180.222 2661.23 179.29 2661.23 178.107C2661.23 176.9 2660.89 175.95 2660.2 175.259C2659.52 174.568 2658.47 174.222 2657.05 174.222H2652.81V181.904ZM2678.51 181.482L2683.84 169.95H2689.61L2681.2 186.263V195.544H2675.84V186.263L2667.44 169.95H2673.22L2678.51 181.482Z" fill="#488DFF"/>
<path d="M2800 5H3108V313H2800V5Z" fill="white" stroke="#488DFF" stroke-width="10"/>
<path d="M2908.03 153.544H2890.49V150.064L2898.77 141.24C2899.91 139.997 2900.74 138.913 2901.28 137.988C2901.83 137.062 2902.11 136.183 2902.11 135.351C2902.11 134.214 2901.82 133.323 2901.25 132.679C2900.67 132.023 2899.85 131.695 2898.79 131.695C2897.64 131.695 2896.73 132.093 2896.06 132.89C2895.41 133.675 2895.08 134.712 2895.08 136.001H2889.98C2889.98 134.443 2890.35 133.019 2891.09 131.73C2891.84 130.441 2892.89 129.433 2894.25 128.706C2895.61 127.968 2897.15 127.599 2898.88 127.599C2901.51 127.599 2903.56 128.232 2905.01 129.497C2906.48 130.763 2907.21 132.55 2907.21 134.859C2907.21 136.124 2906.88 137.413 2906.22 138.726C2905.57 140.038 2904.44 141.568 2902.85 143.314L2897.03 149.448H2908.03V153.544ZM2911.92 140.958L2913.39 127.95H2927.74V132.187H2917.56L2916.93 137.689C2918.14 137.044 2919.42 136.722 2920.78 136.722C2923.22 136.722 2925.13 137.478 2926.51 138.99C2927.89 140.501 2928.58 142.616 2928.58 145.335C2928.58 146.988 2928.23 148.47 2927.53 149.782C2926.84 151.083 2925.84 152.097 2924.54 152.823C2923.24 153.538 2921.7 153.896 2919.93 153.896C2918.39 153.896 2916.95 153.585 2915.63 152.964C2914.3 152.331 2913.25 151.447 2912.48 150.31C2911.72 149.173 2911.31 147.878 2911.27 146.425H2916.3C2916.4 147.491 2916.77 148.323 2917.4 148.921C2918.05 149.507 2918.89 149.8 2919.92 149.8C2921.06 149.8 2921.95 149.39 2922.57 148.57C2923.19 147.738 2923.5 146.566 2923.5 145.054C2923.5 143.601 2923.14 142.488 2922.43 141.714C2921.72 140.941 2920.7 140.554 2919.39 140.554C2918.18 140.554 2917.2 140.87 2916.45 141.503L2915.96 141.96L2911.92 140.958ZM2945.62 127.687V131.87H2945.12C2942.83 131.906 2940.98 132.503 2939.57 133.663C2938.17 134.823 2937.34 136.435 2937.06 138.497C2938.41 137.115 2940.13 136.423 2942.21 136.423C2944.43 136.423 2946.2 137.22 2947.51 138.814C2948.83 140.407 2949.48 142.505 2949.48 145.107C2949.48 146.771 2949.12 148.277 2948.39 149.624C2947.68 150.972 2946.66 152.021 2945.33 152.771C2944.02 153.521 2942.53 153.896 2940.87 153.896C2938.17 153.896 2935.99 152.958 2934.33 151.083C2932.68 149.208 2931.85 146.706 2931.85 143.577V141.749C2931.85 138.972 2932.37 136.523 2933.42 134.402C2934.47 132.269 2935.98 130.622 2937.93 129.462C2939.9 128.29 2942.18 127.698 2944.77 127.687H2945.62ZM2940.66 140.501C2939.84 140.501 2939.09 140.718 2938.43 141.152C2937.76 141.573 2937.27 142.136 2936.95 142.839V144.386C2936.95 146.085 2937.28 147.415 2937.95 148.376C2938.62 149.325 2939.56 149.8 2940.76 149.8C2941.85 149.8 2942.73 149.372 2943.4 148.517C2944.08 147.65 2944.42 146.531 2944.42 145.159C2944.42 143.765 2944.08 142.64 2943.4 141.784C2942.72 140.929 2941.81 140.501 2940.66 140.501ZM2962.6 144.632H2952.7V140.536H2962.6V144.632ZM2967.01 153.544V127.95H2975.97C2979.08 127.95 2981.43 128.548 2983.04 129.743C2984.64 130.927 2985.45 132.667 2985.45 134.964C2985.45 136.218 2985.13 137.325 2984.48 138.286C2983.84 139.236 2982.94 139.933 2981.79 140.378C2983.1 140.706 2984.14 141.368 2984.89 142.365C2985.65 143.361 2986.03 144.579 2986.03 146.021C2986.03 148.482 2985.24 150.345 2983.67 151.611C2982.1 152.876 2979.86 153.521 2976.96 153.544H2967.01ZM2972.28 142.4V149.308H2976.8C2978.04 149.308 2979.01 149.015 2979.7 148.429C2980.4 147.831 2980.75 147.011 2980.75 145.968C2980.75 143.624 2979.54 142.435 2977.12 142.4H2972.28ZM2972.28 138.673H2976.18C2978.84 138.626 2980.17 137.566 2980.17 135.491C2980.17 134.331 2979.83 133.499 2979.15 132.995C2978.49 132.48 2977.43 132.222 2975.97 132.222H2972.28V138.673ZM2995.61 153.544H2990.33V127.95H2995.61V153.544ZM3019.25 132.222H3011.41V153.544H3006.14V132.222H2998.4V127.95H3019.25V132.222ZM2887.26 169.95L2893.83 188.513L2900.37 169.95H2907.3V195.544H2902V188.548L2902.53 176.472L2895.62 195.544H2892L2885.11 176.49L2885.64 188.548V195.544H2880.37V169.95H2887.26ZM2927.3 184.452H2917.17V191.308H2929.06V195.544H2911.9V169.95H2929.02V174.222H2917.17V180.322H2927.3V184.452ZM2939.04 169.95L2945.62 188.513L2952.15 169.95H2959.08V195.544H2953.79V188.548L2954.32 176.472L2947.41 195.544H2943.79L2936.9 176.49L2937.42 188.548V195.544H2932.15V169.95H2939.04ZM2984.71 183.327C2984.71 185.847 2984.26 188.056 2983.37 189.954C2982.48 191.853 2981.21 193.318 2979.54 194.349C2977.89 195.38 2975.99 195.896 2973.85 195.896C2971.73 195.896 2969.83 195.386 2968.17 194.366C2966.5 193.347 2965.22 191.894 2964.3 190.007C2963.39 188.109 2962.92 185.929 2962.91 183.468V182.202C2962.91 179.683 2963.36 177.468 2964.27 175.558C2965.18 173.636 2966.46 172.165 2968.12 171.146C2969.78 170.115 2971.68 169.599 2973.81 169.599C2975.94 169.599 2977.84 170.115 2979.49 171.146C2981.15 172.165 2982.44 173.636 2983.34 175.558C2984.25 177.468 2984.71 179.677 2984.71 182.185V183.327ZM2979.37 182.167C2979.37 179.484 2978.89 177.445 2977.92 176.05C2976.96 174.656 2975.59 173.958 2973.81 173.958C2972.04 173.958 2970.68 174.65 2969.72 176.032C2968.75 177.404 2968.27 179.419 2968.26 182.079V183.327C2968.26 185.941 2968.74 187.968 2969.7 189.409C2970.66 190.851 2972.04 191.572 2973.85 191.572C2975.62 191.572 2976.98 190.88 2977.92 189.497C2978.87 188.103 2979.35 186.075 2979.37 183.415V182.167ZM2998.02 186.175H2993.81V195.544H2988.54V169.95H2998.05C3001.07 169.95 3003.41 170.624 3005.05 171.972C3006.69 173.32 3007.51 175.224 3007.51 177.685C3007.51 179.431 3007.13 180.89 3006.37 182.062C3005.62 183.222 3004.47 184.148 3002.94 184.839L3008.48 195.298V195.544H3002.81L2998.02 186.175ZM2993.81 181.904H2998.07C2999.39 181.904 3000.42 181.57 3001.14 180.902C3001.87 180.222 3002.23 179.29 3002.23 178.107C3002.23 176.9 3001.89 175.95 3001.2 175.259C3000.52 174.568 2999.47 174.222 2998.05 174.222H2993.81V181.904ZM3019.51 181.482L3024.84 169.95H3030.61L3022.2 186.263V195.544H3016.84V186.263L3008.44 169.95H3014.22L3019.51 181.482Z" fill="#488DFF"/>
<path d="M2118 5H2426V313H2118V5Z" fill="white" stroke="#488DFF" stroke-width="10"/>
<path d="M2226.03 153.544H2208.49V150.064L2216.77 141.24C2217.91 139.997 2218.74 138.913 2219.28 137.988C2219.83 137.062 2220.11 136.183 2220.11 135.351C2220.11 134.214 2219.82 133.323 2219.25 132.679C2218.67 132.023 2217.85 131.695 2216.79 131.695C2215.64 131.695 2214.73 132.093 2214.06 132.89C2213.41 133.675 2213.08 134.712 2213.08 136.001H2207.98C2207.98 134.443 2208.35 133.019 2209.09 131.73C2209.84 130.441 2210.89 129.433 2212.25 128.706C2213.61 127.968 2215.15 127.599 2216.88 127.599C2219.51 127.599 2221.56 128.232 2223.01 129.497C2224.48 130.763 2225.21 132.55 2225.21 134.859C2225.21 136.124 2224.88 137.413 2224.22 138.726C2223.57 140.038 2222.44 141.568 2220.85 143.314L2215.03 149.448H2226.03V153.544ZM2229.92 140.958L2231.39 127.95H2245.74V132.187H2235.56L2234.93 137.689C2236.14 137.044 2237.42 136.722 2238.78 136.722C2241.22 136.722 2243.13 137.478 2244.51 138.99C2245.89 140.501 2246.58 142.616 2246.58 145.335C2246.58 146.988 2246.23 148.47 2245.53 149.782C2244.84 151.083 2243.84 152.097 2242.54 152.823C2241.24 153.538 2239.7 153.896 2237.93 153.896C2236.39 153.896 2234.95 153.585 2233.63 152.964C2232.3 152.331 2231.25 151.447 2230.48 150.31C2229.72 149.173 2229.31 147.878 2229.27 146.425H2234.3C2234.4 147.491 2234.77 148.323 2235.4 148.921C2236.05 149.507 2236.89 149.8 2237.92 149.8C2239.06 149.8 2239.95 149.39 2240.57 148.57C2241.19 147.738 2241.5 146.566 2241.5 145.054C2241.5 143.601 2241.14 142.488 2240.43 141.714C2239.72 140.941 2238.7 140.554 2237.39 140.554C2236.18 140.554 2235.2 140.87 2234.45 141.503L2233.96 141.96L2229.92 140.958ZM2263.62 127.687V131.87H2263.12C2260.83 131.906 2258.98 132.503 2257.57 133.663C2256.17 134.823 2255.34 136.435 2255.06 138.497C2256.41 137.115 2258.13 136.423 2260.21 136.423C2262.43 136.423 2264.2 137.22 2265.51 138.814C2266.83 140.407 2267.48 142.505 2267.48 145.107C2267.48 146.771 2267.12 148.277 2266.39 149.624C2265.68 150.972 2264.66 152.021 2263.33 152.771C2262.02 153.521 2260.53 153.896 2258.87 153.896C2256.17 153.896 2253.99 152.958 2252.33 151.083C2250.68 149.208 2249.85 146.706 2249.85 143.577V141.749C2249.85 138.972 2250.37 136.523 2251.42 134.402C2252.47 132.269 2253.98 130.622 2255.93 129.462C2257.9 128.29 2260.18 127.698 2262.77 127.687H2263.62ZM2258.66 140.501C2257.84 140.501 2257.09 140.718 2256.43 141.152C2255.76 141.573 2255.27 142.136 2254.95 142.839V144.386C2254.95 146.085 2255.28 147.415 2255.95 148.376C2256.62 149.325 2257.56 149.8 2258.76 149.8C2259.85 149.8 2260.73 149.372 2261.4 148.517C2262.08 147.65 2262.42 146.531 2262.42 145.159C2262.42 143.765 2262.08 142.64 2261.4 141.784C2260.72 140.929 2259.81 140.501 2258.66 140.501ZM2280.6 144.632H2270.7V140.536H2280.6V144.632ZM2285.01 153.544V127.95H2293.97C2297.08 127.95 2299.43 128.548 2301.04 129.743C2302.64 130.927 2303.45 132.667 2303.45 134.964C2303.45 136.218 2303.13 137.325 2302.48 138.286C2301.84 139.236 2300.94 139.933 2299.79 140.378C2301.1 140.706 2302.14 141.368 2302.89 142.365C2303.65 143.361 2304.03 144.579 2304.03 146.021C2304.03 148.482 2303.24 150.345 2301.67 151.611C2300.1 152.876 2297.86 153.521 2294.96 153.544H2285.01ZM2290.28 142.4V149.308H2294.8C2296.04 149.308 2297.01 149.015 2297.7 148.429C2298.4 147.831 2298.75 147.011 2298.75 145.968C2298.75 143.624 2297.54 142.435 2295.12 142.4H2290.28ZM2290.28 138.673H2294.18C2296.84 138.626 2298.17 137.566 2298.17 135.491C2298.17 134.331 2297.83 133.499 2297.15 132.995C2296.49 132.48 2295.43 132.222 2293.97 132.222H2290.28V138.673ZM2313.61 153.544H2308.33V127.95H2313.61V153.544ZM2337.25 132.222H2329.41V153.544H2324.14V132.222H2316.4V127.95H2337.25V132.222ZM2205.26 169.95L2211.83 188.513L2218.37 169.95H2225.3V195.544H2220V188.548L2220.53 176.472L2213.62 195.544H2210L2203.11 176.49L2203.64 188.548V195.544H2198.37V169.95H2205.26ZM2245.3 184.452H2235.17V191.308H2247.06V195.544H2229.9V169.95H2247.02V174.222H2235.17V180.322H2245.3V184.452ZM2257.04 169.95L2263.62 188.513L2270.15 169.95H2277.08V195.544H2271.79V188.548L2272.32 176.472L2265.41 195.544H2261.79L2254.9 176.49L2255.42 188.548V195.544H2250.15V169.95H2257.04ZM2302.71 183.327C2302.71 185.847 2302.26 188.056 2301.37 189.954C2300.48 191.853 2299.21 193.318 2297.54 194.349C2295.89 195.38 2293.99 195.896 2291.85 195.896C2289.73 195.896 2287.83 195.386 2286.17 194.366C2284.5 193.347 2283.22 191.894 2282.3 190.007C2281.39 188.109 2280.92 185.929 2280.91 183.468V182.202C2280.91 179.683 2281.36 177.468 2282.27 175.558C2283.18 173.636 2284.46 172.165 2286.12 171.146C2287.78 170.115 2289.68 169.599 2291.81 169.599C2293.94 169.599 2295.84 170.115 2297.49 171.146C2299.15 172.165 2300.44 173.636 2301.34 175.558C2302.25 177.468 2302.71 179.677 2302.71 182.185V183.327ZM2297.37 182.167C2297.37 179.484 2296.89 177.445 2295.92 176.05C2294.96 174.656 2293.59 173.958 2291.81 173.958C2290.04 173.958 2288.68 174.65 2287.72 176.032C2286.75 177.404 2286.27 179.419 2286.26 182.079V183.327C2286.26 185.941 2286.74 187.968 2287.7 189.409C2288.66 190.851 2290.04 191.572 2291.85 191.572C2293.62 191.572 2294.98 190.88 2295.92 189.497C2296.87 188.103 2297.35 186.075 2297.37 183.415V182.167ZM2316.02 186.175H2311.81V195.544H2306.54V169.95H2316.05C2319.07 169.95 2321.41 170.624 2323.05 171.972C2324.69 173.32 2325.51 175.224 2325.51 177.685C2325.51 179.431 2325.13 180.89 2324.37 182.062C2323.62 183.222 2322.47 184.148 2320.94 184.839L2326.48 195.298V195.544H2320.81L2316.02 186.175ZM2311.81 181.904H2316.07C2317.39 181.904 2318.42 181.57 2319.14 180.902C2319.87 180.222 2320.23 179.29 2320.23 178.107C2320.23 176.9 2319.89 175.95 2319.2 175.259C2318.52 174.568 2317.47 174.222 2316.05 174.222H2311.81V181.904ZM2337.51 181.482L2342.84 169.95H2348.61L2340.2 186.263V195.544H2334.84V186.263L2326.44 169.95H2332.22L2337.51 181.482Z" fill="#488DFF"/>
<path d="M1095 7H1403V315H1095V7Z" fill="white" stroke="#488DFF" stroke-width="10"/>
<path d="M1203.03 155.544H1185.49V152.064L1193.77 143.24C1194.91 141.997 1195.74 140.913 1196.28 139.988C1196.83 139.062 1197.11 138.183 1197.11 137.351C1197.11 136.214 1196.82 135.323 1196.25 134.679C1195.67 134.023 1194.85 133.695 1193.79 133.695C1192.64 133.695 1191.73 134.093 1191.06 134.89C1190.41 135.675 1190.08 136.712 1190.08 138.001H1184.98C1184.98 136.443 1185.35 135.019 1186.09 133.73C1186.84 132.441 1187.89 131.433 1189.25 130.706C1190.61 129.968 1192.15 129.599 1193.88 129.599C1196.51 129.599 1198.56 130.232 1200.01 131.497C1201.48 132.763 1202.21 134.55 1202.21 136.859C1202.21 138.124 1201.88 139.413 1201.22 140.726C1200.57 142.038 1199.44 143.568 1197.85 145.314L1192.03 151.448H1203.03V155.544ZM1206.92 142.958L1208.39 129.95H1222.74V134.187H1212.56L1211.93 139.689C1213.14 139.044 1214.42 138.722 1215.78 138.722C1218.22 138.722 1220.13 139.478 1221.51 140.99C1222.89 142.501 1223.58 144.616 1223.58 147.335C1223.58 148.988 1223.23 150.47 1222.53 151.782C1221.84 153.083 1220.84 154.097 1219.54 154.823C1218.24 155.538 1216.7 155.896 1214.93 155.896C1213.39 155.896 1211.95 155.585 1210.63 154.964C1209.3 154.331 1208.25 153.447 1207.48 152.31C1206.72 151.173 1206.31 149.878 1206.27 148.425H1211.3C1211.4 149.491 1211.77 150.323 1212.4 150.921C1213.05 151.507 1213.89 151.8 1214.92 151.8C1216.06 151.8 1216.95 151.39 1217.57 150.57C1218.19 149.738 1218.5 148.566 1218.5 147.054C1218.5 145.601 1218.14 144.488 1217.43 143.714C1216.72 142.941 1215.7 142.554 1214.39 142.554C1213.18 142.554 1212.2 142.87 1211.45 143.503L1210.96 143.96L1206.92 142.958ZM1240.62 129.687V133.87H1240.12C1237.83 133.906 1235.98 134.503 1234.57 135.663C1233.17 136.823 1232.34 138.435 1232.06 140.497C1233.41 139.115 1235.13 138.423 1237.21 138.423C1239.43 138.423 1241.2 139.22 1242.51 140.814C1243.83 142.407 1244.48 144.505 1244.48 147.107C1244.48 148.771 1244.12 150.277 1243.39 151.624C1242.68 152.972 1241.66 154.021 1240.33 154.771C1239.02 155.521 1237.53 155.896 1235.87 155.896C1233.17 155.896 1230.99 154.958 1229.33 153.083C1227.68 151.208 1226.85 148.706 1226.85 145.577V143.749C1226.85 140.972 1227.37 138.523 1228.42 136.402C1229.47 134.269 1230.98 132.622 1232.93 131.462C1234.9 130.29 1237.18 129.698 1239.77 129.687H1240.62ZM1235.66 142.501C1234.84 142.501 1234.09 142.718 1233.43 143.152C1232.76 143.573 1232.27 144.136 1231.95 144.839V146.386C1231.95 148.085 1232.28 149.415 1232.95 150.376C1233.62 151.325 1234.56 151.8 1235.76 151.8C1236.85 151.8 1237.73 151.372 1238.4 150.517C1239.08 149.65 1239.42 148.531 1239.42 147.159C1239.42 145.765 1239.08 144.64 1238.4 143.784C1237.72 142.929 1236.81 142.501 1235.66 142.501ZM1257.6 146.632H1247.7V142.536H1257.6V146.632ZM1262.01 155.544V129.95H1270.97C1274.08 129.95 1276.43 130.548 1278.04 131.743C1279.64 132.927 1280.45 134.667 1280.45 136.964C1280.45 138.218 1280.13 139.325 1279.48 140.286C1278.84 141.236 1277.94 141.933 1276.79 142.378C1278.1 142.706 1279.14 143.368 1279.89 144.365C1280.65 145.361 1281.03 146.579 1281.03 148.021C1281.03 150.482 1280.24 152.345 1278.67 153.611C1277.1 154.876 1274.86 155.521 1271.96 155.544H1262.01ZM1267.28 144.4V151.308H1271.8C1273.04 151.308 1274.01 151.015 1274.7 150.429C1275.4 149.831 1275.75 149.011 1275.75 147.968C1275.75 145.624 1274.54 144.435 1272.12 144.4H1267.28ZM1267.28 140.673H1271.18C1273.84 140.626 1275.17 139.566 1275.17 137.491C1275.17 136.331 1274.83 135.499 1274.15 134.995C1273.49 134.48 1272.43 134.222 1270.97 134.222H1267.28V140.673ZM1290.61 155.544H1285.33V129.95H1290.61V155.544ZM1314.25 134.222H1306.41V155.544H1301.14V134.222H1293.4V129.95H1314.25V134.222ZM1182.26 171.95L1188.83 190.513L1195.37 171.95H1202.3V197.544H1197V190.548L1197.53 178.472L1190.62 197.544H1187L1180.11 178.49L1180.64 190.548V197.544H1175.37V171.95H1182.26ZM1222.3 186.452H1212.17V193.308H1224.06V197.544H1206.9V171.95H1224.02V176.222H1212.17V182.322H1222.3V186.452ZM1234.04 171.95L1240.62 190.513L1247.15 171.95H1254.08V197.544H1248.79V190.548L1249.32 178.472L1242.41 197.544H1238.79L1231.9 178.49L1232.42 190.548V197.544H1227.15V171.95H1234.04ZM1279.71 185.327C1279.71 187.847 1279.26 190.056 1278.37 191.954C1277.48 193.853 1276.21 195.318 1274.54 196.349C1272.89 197.38 1270.99 197.896 1268.85 197.896C1266.73 197.896 1264.83 197.386 1263.17 196.366C1261.5 195.347 1260.22 193.894 1259.3 192.007C1258.39 190.109 1257.92 187.929 1257.91 185.468V184.202C1257.91 181.683 1258.36 179.468 1259.27 177.558C1260.18 175.636 1261.46 174.165 1263.12 173.146C1264.78 172.115 1266.68 171.599 1268.81 171.599C1270.94 171.599 1272.84 172.115 1274.49 173.146C1276.15 174.165 1277.44 175.636 1278.34 177.558C1279.25 179.468 1279.71 181.677 1279.71 184.185V185.327ZM1274.37 184.167C1274.37 181.484 1273.89 179.445 1272.92 178.05C1271.96 176.656 1270.59 175.958 1268.81 175.958C1267.04 175.958 1265.68 176.65 1264.72 178.032C1263.75 179.404 1263.27 181.419 1263.26 184.079V185.327C1263.26 187.941 1263.74 189.968 1264.7 191.409C1265.66 192.851 1267.04 193.572 1268.85 193.572C1270.62 193.572 1271.98 192.88 1272.92 191.497C1273.87 190.103 1274.35 188.075 1274.37 185.415V184.167ZM1293.02 188.175H1288.81V197.544H1283.54V171.95H1293.05C1296.07 171.95 1298.41 172.624 1300.05 173.972C1301.69 175.32 1302.51 177.224 1302.51 179.685C1302.51 181.431 1302.13 182.89 1301.37 184.062C1300.62 185.222 1299.47 186.148 1297.94 186.839L1303.48 197.298V197.544H1297.81L1293.02 188.175ZM1288.81 183.904H1293.07C1294.39 183.904 1295.42 183.57 1296.14 182.902C1296.87 182.222 1297.23 181.29 1297.23 180.107C1297.23 178.9 1296.89 177.95 1296.2 177.259C1295.52 176.568 1294.47 176.222 1293.05 176.222H1288.81V183.904ZM1314.51 183.482L1319.84 171.95H1325.61L1317.2 188.263V197.544H1311.84V188.263L1303.44 171.95H1309.22L1314.51 183.482Z" fill="#488DFF"/>
<path d="M1436 5H1744V313H1436V5Z" fill="white" stroke="#488DFF" stroke-width="10"/>
<path d="M1544.03 153.544H1526.49V150.064L1534.77 141.24C1535.91 139.997 1536.74 138.913 1537.28 137.988C1537.83 137.062 1538.11 136.183 1538.11 135.351C1538.11 134.214 1537.82 133.323 1537.25 132.679C1536.67 132.023 1535.85 131.695 1534.79 131.695C1533.64 131.695 1532.73 132.093 1532.06 132.89C1531.41 133.675 1531.08 134.712 1531.08 136.001H1525.98C1525.98 134.443 1526.35 133.019 1527.09 131.73C1527.84 130.441 1528.89 129.433 1530.25 128.706C1531.61 127.968 1533.15 127.599 1534.88 127.599C1537.51 127.599 1539.56 128.232 1541.01 129.497C1542.48 130.763 1543.21 132.55 1543.21 134.859C1543.21 136.124 1542.88 137.413 1542.22 138.726C1541.57 140.038 1540.44 141.568 1538.85 143.314L1533.03 149.448H1544.03V153.544ZM1547.92 140.958L1549.39 127.95H1563.74V132.187H1553.56L1552.93 137.689C1554.14 137.044 1555.42 136.722 1556.78 136.722C1559.22 136.722 1561.13 137.478 1562.51 138.99C1563.89 140.501 1564.58 142.616 1564.58 145.335C1564.58 146.988 1564.23 148.47 1563.53 149.782C1562.84 151.083 1561.84 152.097 1560.54 152.823C1559.24 153.538 1557.7 153.896 1555.93 153.896C1554.39 153.896 1552.95 153.585 1551.63 152.964C1550.3 152.331 1549.25 151.447 1548.48 150.31C1547.72 149.173 1547.31 147.878 1547.27 146.425H1552.3C1552.4 147.491 1552.77 148.323 1553.4 148.921C1554.05 149.507 1554.89 149.8 1555.92 149.8C1557.06 149.8 1557.95 149.39 1558.57 148.57C1559.19 147.738 1559.5 146.566 1559.5 145.054C1559.5 143.601 1559.14 142.488 1558.43 141.714C1557.72 140.941 1556.7 140.554 1555.39 140.554C1554.18 140.554 1553.2 140.87 1552.45 141.503L1551.96 141.96L1547.92 140.958ZM1581.62 127.687V131.87H1581.12C1578.83 131.906 1576.98 132.503 1575.57 133.663C1574.17 134.823 1573.34 136.435 1573.06 138.497C1574.41 137.115 1576.13 136.423 1578.21 136.423C1580.43 136.423 1582.2 137.22 1583.51 138.814C1584.83 140.407 1585.48 142.505 1585.48 145.107C1585.48 146.771 1585.12 148.277 1584.39 149.624C1583.68 150.972 1582.66 152.021 1581.33 152.771C1580.02 153.521 1578.53 153.896 1576.87 153.896C1574.17 153.896 1571.99 152.958 1570.33 151.083C1568.68 149.208 1567.85 146.706 1567.85 143.577V141.749C1567.85 138.972 1568.37 136.523 1569.42 134.402C1570.47 132.269 1571.98 130.622 1573.93 129.462C1575.9 128.29 1578.18 127.698 1580.77 127.687H1581.62ZM1576.66 140.501C1575.84 140.501 1575.09 140.718 1574.43 141.152C1573.76 141.573 1573.27 142.136 1572.95 142.839V144.386C1572.95 146.085 1573.28 147.415 1573.95 148.376C1574.62 149.325 1575.56 149.8 1576.76 149.8C1577.85 149.8 1578.73 149.372 1579.4 148.517C1580.08 147.65 1580.42 146.531 1580.42 145.159C1580.42 143.765 1580.08 142.64 1579.4 141.784C1578.72 140.929 1577.81 140.501 1576.66 140.501ZM1598.6 144.632H1588.7V140.536H1598.6V144.632ZM1603.01 153.544V127.95H1611.97C1615.08 127.95 1617.43 128.548 1619.04 129.743C1620.64 130.927 1621.45 132.667 1621.45 134.964C1621.45 136.218 1621.13 137.325 1620.48 138.286C1619.84 139.236 1618.94 139.933 1617.79 140.378C1619.1 140.706 1620.14 141.368 1620.89 142.365C1621.65 143.361 1622.03 144.579 1622.03 146.021C1622.03 148.482 1621.24 150.345 1619.67 151.611C1618.1 152.876 1615.86 153.521 1612.96 153.544H1603.01ZM1608.28 142.4V149.308H1612.8C1614.04 149.308 1615.01 149.015 1615.7 148.429C1616.4 147.831 1616.75 147.011 1616.75 145.968C1616.75 143.624 1615.54 142.435 1613.12 142.4H1608.28ZM1608.28 138.673H1612.18C1614.84 138.626 1616.17 137.566 1616.17 135.491C1616.17 134.331 1615.83 133.499 1615.15 132.995C1614.49 132.48 1613.43 132.222 1611.97 132.222H1608.28V138.673ZM1631.61 153.544H1626.33V127.95H1631.61V153.544ZM1655.25 132.222H1647.41V153.544H1642.14V132.222H1634.4V127.95H1655.25V132.222ZM1523.26 169.95L1529.83 188.513L1536.37 169.95H1543.3V195.544H1538V188.548L1538.53 176.472L1531.62 195.544H1528L1521.11 176.49L1521.64 188.548V195.544H1516.37V169.95H1523.26ZM1563.3 184.452H1553.17V191.308H1565.06V195.544H1547.9V169.95H1565.02V174.222H1553.17V180.322H1563.3V184.452ZM1575.04 169.95L1581.62 188.513L1588.15 169.95H1595.08V195.544H1589.79V188.548L1590.32 176.472L1583.41 195.544H1579.79L1572.9 176.49L1573.42 188.548V195.544H1568.15V169.95H1575.04ZM1620.71 183.327C1620.71 185.847 1620.26 188.056 1619.37 189.954C1618.48 191.853 1617.21 193.318 1615.54 194.349C1613.89 195.38 1611.99 195.896 1609.85 195.896C1607.73 195.896 1605.83 195.386 1604.17 194.366C1602.5 193.347 1601.22 191.894 1600.3 190.007C1599.39 188.109 1598.92 185.929 1598.91 183.468V182.202C1598.91 179.683 1599.36 177.468 1600.27 175.558C1601.18 173.636 1602.46 172.165 1604.12 171.146C1605.78 170.115 1607.68 169.599 1609.81 169.599C1611.94 169.599 1613.84 170.115 1615.49 171.146C1617.15 172.165 1618.44 173.636 1619.34 175.558C1620.25 177.468 1620.71 179.677 1620.71 182.185V183.327ZM1615.37 182.167C1615.37 179.484 1614.89 177.445 1613.92 176.05C1612.96 174.656 1611.59 173.958 1609.81 173.958C1608.04 173.958 1606.68 174.65 1605.72 176.032C1604.75 177.404 1604.27 179.419 1604.26 182.079V183.327C1604.26 185.941 1604.74 187.968 1605.7 189.409C1606.66 190.851 1608.04 191.572 1609.85 191.572C1611.62 191.572 1612.98 190.88 1613.92 189.497C1614.87 188.103 1615.35 186.075 1615.37 183.415V182.167ZM1634.02 186.175H1629.81V195.544H1624.54V169.95H1634.05C1637.07 169.95 1639.41 170.624 1641.05 171.972C1642.69 173.32 1643.51 175.224 1643.51 177.685C1643.51 179.431 1643.13 180.89 1642.37 182.062C1641.62 183.222 1640.47 184.148 1638.94 184.839L1644.48 195.298V195.544H1638.81L1634.02 186.175ZM1629.81 181.904H1634.07C1635.39 181.904 1636.42 181.57 1637.14 180.902C1637.87 180.222 1638.23 179.29 1638.23 178.107C1638.23 176.9 1637.89 175.95 1637.2 175.259C1636.52 174.568 1635.47 174.222 1634.05 174.222H1629.81V181.904ZM1655.51 181.482L1660.84 169.95H1666.61L1658.2 186.263V195.544H1652.84V186.263L1644.44 169.95H1650.22L1655.51 181.482Z" fill="#488DFF"/>
<path d="M1743.5 1185V835.999" stroke="#488DFF" stroke-width="5"/>
<path d="M1757.51 1185L1757.49 854" stroke="#488DFF" stroke-width="5"/>
<path d="M1787.74 1185V883" stroke="#488DFF" stroke-width="5"/>
<path d="M1772.5 1185V864.999" stroke="#488DFF" stroke-width="5"/>
<path d="M1802.01 1185L1801.99 898.5" stroke="#488DFF" stroke-width="5"/>
<path d="M858.775 450.499V321.018" stroke="#488DFF" stroke-width="5"/>
<line x1="835.5" y1="480.61" x2="835.5" y2="320.015" stroke="#488DFF" stroke-width="5"/>
<path d="M847 467.562V320.015" stroke="#488DFF" stroke-width="5"/>
<path d="M858.775 450.499V321.018" stroke="#488DFF" stroke-width="5"/>
<line x1="835.5" y1="480.61" x2="835.5" y2="320.015" stroke="#488DFF" stroke-width="5"/>
<path d="M847 467.562V320.015" stroke="#488DFF" stroke-width="5"/>
<path d="M824.062 497.673L824.063 316" stroke="#488DFF" stroke-width="5"/>
<line x1="813.25" y1="513.718" x2="813.25" y2="320" stroke="#488DFF" stroke-width="5"/>
<line x1="790.5" y1="540" x2="790.5" y2="316" stroke="#488DFF" stroke-width="5"/>
<path d="M802.5 526.782V315.999" stroke="#488DFF" stroke-width="5"/>
<path d="M779 556.892V320.015" stroke="#488DFF" stroke-width="5"/>
<path d="M911 619.123V320.015" stroke="#488DFF" stroke-width="5"/>
<path d="M999 690.387L999 320.015" stroke="#488DFF" stroke-width="5"/>
<path d="M1038 870V319" stroke="#488DFF" stroke-width="5"/>
<path d="M1881.78 449.5V320.019" stroke="#488DFF" stroke-width="5"/>
<line x1="1858.5" y1="479.611" x2="1858.5" y2="319.016" stroke="#488DFF" stroke-width="5"/>
<path d="M1870 466.563V319.016" stroke="#488DFF" stroke-width="5"/>
<path d="M1881.78 449.5V320.019" stroke="#488DFF" stroke-width="5"/>
<line x1="1858.5" y1="479.611" x2="1858.5" y2="319.016" stroke="#488DFF" stroke-width="5"/>
<path d="M1870 466.563V319.016" stroke="#488DFF" stroke-width="5"/>
<path d="M1847.06 496.674V315.001" stroke="#488DFF" stroke-width="5"/>
<line x1="1836.25" y1="509.72" x2="1836.25" y2="316.002" stroke="#488DFF" stroke-width="5"/>
<line x1="1813.5" y1="539.001" x2="1813.5" y2="315.001" stroke="#488DFF" stroke-width="5"/>
<path d="M1825.5 525.783V315" stroke="#488DFF" stroke-width="5"/>
<path d="M1802 555.894V319.016" stroke="#488DFF" stroke-width="5"/>
<path d="M1934 618.124V319.016" stroke="#488DFF" stroke-width="5"/>
<path d="M2022 689.388V319.016" stroke="#488DFF" stroke-width="5"/>
<path d="M2061 855.001V315.001" stroke="#488DFF" stroke-width="5"/>
<path d="M2222.78 448.216V317.084" stroke="#488DFF" stroke-width="5"/>
<line x1="2199.5" y1="478.712" x2="2199.5" y2="316.068" stroke="#488DFF" stroke-width="5"/>
<path d="M2211 465.497V316.068" stroke="#488DFF" stroke-width="5"/>
<path d="M2223 451.246L2222.78 317.084" stroke="#488DFF" stroke-width="5"/>
<line x1="2199.5" y1="481.517" x2="2199.5" y2="316.036" stroke="#488DFF" stroke-width="5"/>
<path d="M2211 469.408V316.036" stroke="#488DFF" stroke-width="5"/>
<path d="M2188.06 499.175V312.002" stroke="#488DFF" stroke-width="5"/>
<line x1="2177.5" y1="514.244" x2="2177.5" y2="318.054" stroke="#488DFF" stroke-width="5"/>
<line x1="2154.5" y1="542.895" x2="2154.5" y2="316.036" stroke="#488DFF" stroke-width="5"/>
<path d="M2166.5 526.923V312" stroke="#488DFF" stroke-width="5"/>
<path d="M2143 555.968V316.068" stroke="#488DFF" stroke-width="5"/>
<path d="M2275 618.992V316.067" stroke="#488DFF" stroke-width="5"/>
<path d="M2363 691.165V316.067" stroke="#488DFF" stroke-width="5"/>
<path d="M2402 871V312" stroke="#488DFF" stroke-width="5"/>
<path d="M2557.78 449.5V320.019" stroke="#488DFF" stroke-width="5"/>
<line x1="2534.5" y1="479.611" x2="2534.5" y2="319.016" stroke="#488DFF" stroke-width="5"/>
<path d="M2546 466.563V319.016" stroke="#488DFF" stroke-width="5"/>
<path d="M2557.78 449.5L2558 315" stroke="#488DFF" stroke-width="5"/>
<line x1="2534.5" y1="480" x2="2534.5" y2="312" stroke="#488DFF" stroke-width="5"/>
<path d="M2546 467V312" stroke="#488DFF" stroke-width="5"/>
<path d="M2523.06 496.674V315.001" stroke="#488DFF" stroke-width="5"/>
<path d="M2512.25 509.719V316.001" stroke="#488DFF" stroke-width="5"/>
<line x1="2489.5" y1="539.001" x2="2489.5" y2="315.001" stroke="#488DFF" stroke-width="5"/>
<path d="M2501.5 525.783V315" stroke="#488DFF" stroke-width="5"/>
<path d="M2478 553.894V317.016" stroke="#488DFF" stroke-width="5"/>
<path d="M2610 618.124L2609 312" stroke="#488DFF" stroke-width="5"/>
<path d="M2697.5 689.388V311.999" stroke="#488DFF" stroke-width="5"/>
<path d="M2737 886V315" stroke="#488DFF" stroke-width="5"/>
<path d="M2898.78 446.998V317.038" stroke="#488DFF" stroke-width="5"/>
<line x1="2875.5" y1="477.22" x2="2875.5" y2="316.031" stroke="#488DFF" stroke-width="5"/>
<path d="M2887 464.124V316.031" stroke="#488DFF" stroke-width="5"/>
<path d="M2899 455L2898.78 317.038" stroke="#488DFF" stroke-width="5"/>
<line x1="2875.5" y1="480" x2="2875.5" y2="316" stroke="#488DFF" stroke-width="5"/>
<path d="M2887 468V316" stroke="#488DFF" stroke-width="5"/>
<path d="M2864.06 497.5V312.001" stroke="#488DFF" stroke-width="5"/>
<line x1="2853.5" y1="512.436" x2="2853.5" y2="318" stroke="#488DFF" stroke-width="5"/>
<line x1="2830.5" y1="540.829" x2="2830.5" y2="316" stroke="#488DFF" stroke-width="5"/>
<path d="M2842.5 525V312" stroke="#488DFF" stroke-width="5"/>
<path d="M2819 553.785V316.031" stroke="#488DFF" stroke-width="5"/>
<path d="M2951 616.246V316.031" stroke="#488DFF" stroke-width="5"/>
<path d="M3039 690V316" stroke="#488DFF" stroke-width="5"/>
<path d="M3077.5 900.001V312.001" stroke="#488DFF" stroke-width="5"/>
<path d="M517.775 450.5V321.019" stroke="#488DFF" stroke-width="5"/>
<line x1="494.5" y1="480.611" x2="494.5" y2="320.016" stroke="#488DFF" stroke-width="5"/>
<path d="M506 467.562V320.016" stroke="#488DFF" stroke-width="5"/>
<path d="M517.775 450.5V321.019" stroke="#488DFF" stroke-width="5"/>
<line x1="494.5" y1="480.611" x2="494.5" y2="320.016" stroke="#488DFF" stroke-width="5"/>
<path d="M506 467.562V320.016" stroke="#488DFF" stroke-width="5"/>
<path d="M483.062 497.674L483.063 316.001" stroke="#488DFF" stroke-width="5"/>
<path d="M472.179 511L472.18 316.003" stroke="#488DFF" stroke-width="5"/>
<line x1="449.5" y1="540.001" x2="449.5" y2="316.001" stroke="#488DFF" stroke-width="5"/>
<path d="M461.5 526.783V316" stroke="#488DFF" stroke-width="5"/>
<path d="M438 556.893V320.016" stroke="#488DFF" stroke-width="5"/>
<path d="M570 619.124V320.016" stroke="#488DFF" stroke-width="5"/>
<path d="M658 690.388L658 320.016" stroke="#488DFF" stroke-width="5"/>
<path d="M697 886L697 316.001" stroke="#488DFF" stroke-width="5"/>
<path d="M2953.5 617.5L231.989 618.474" stroke="#488DFF" stroke-width="5"/>
<path d="M3041.5 688L238.993 687.578" stroke="#488DFF" stroke-width="5"/>
<line x1="2901" y1="452.5" x2="239" y2="452.5" stroke="#488DFF" stroke-width="5"/>
<path d="M2878 482.5L239 482.5" stroke="#488DFF" stroke-width="5"/>
<path d="M2889.5 467.75L239 467.75" stroke="#488DFF" stroke-width="5"/>
<path d="M2866.5 497.498L239 497.498" stroke="#488DFF" stroke-width="5"/>
<path d="M2856 512.002L239 511.998" stroke="#488DFF" stroke-width="5"/>
<path d="M2833 540.5H239" stroke="#488DFF" stroke-width="5"/>
<path d="M2845 526.498L239 526.502" stroke="#488DFF" stroke-width="5"/>
<path d="M2821.5 554.497L239 555.003" stroke="#488DFF" stroke-width="5"/>
<path d="M40.9102 500.385C40.9102 501.351 40.6686 502.208 40.1855 502.955C39.7025 503.702 39.0371 504.299 38.1895 504.746C39.1556 505.211 39.9212 505.854 40.4863 506.674C41.0514 507.485 41.334 508.442 41.334 509.545C41.334 511.313 40.7324 512.712 39.5293 513.742C38.3262 514.763 36.6901 515.273 34.6211 515.273C32.5521 515.273 30.9115 514.758 29.6992 513.729C28.487 512.699 27.8809 511.304 27.8809 509.545C27.8809 508.442 28.1634 507.48 28.7285 506.66C29.2936 505.84 30.0547 505.202 31.0117 504.746C30.1641 504.299 29.4987 503.702 29.0156 502.955C28.5417 502.208 28.3047 501.351 28.3047 500.385C28.3047 498.689 28.8698 497.34 30 496.338C31.1302 495.326 32.666 494.82 34.6074 494.82C36.5397 494.82 38.071 495.322 39.2012 496.324C40.3405 497.318 40.9102 498.671 40.9102 500.385ZM37.3691 509.258C37.3691 508.392 37.1185 507.699 36.6172 507.18C36.1159 506.66 35.4414 506.4 34.5938 506.4C33.7552 506.4 33.0853 506.66 32.584 507.18C32.0827 507.69 31.832 508.383 31.832 509.258C31.832 510.105 32.0781 510.789 32.5703 511.309C33.0625 511.828 33.7461 512.088 34.6211 512.088C35.4779 512.088 36.1478 511.837 36.6309 511.336C37.123 510.835 37.3691 510.142 37.3691 509.258ZM36.959 500.576C36.959 499.801 36.7539 499.182 36.3438 498.717C35.9336 498.243 35.3548 498.006 34.6074 498.006C33.8691 498.006 33.2949 498.234 32.8848 498.689C32.4746 499.145 32.2695 499.774 32.2695 500.576C32.2695 501.369 32.4746 502.007 32.8848 502.49C33.2949 502.973 33.8737 503.215 34.6211 503.215C35.3685 503.215 35.9427 502.973 36.3438 502.49C36.7539 502.007 36.959 501.369 36.959 500.576ZM51.8613 508.068H44.1641V504.883H51.8613V508.068ZM55.293 515V495.094H62.2656C64.681 495.094 66.513 495.559 67.7617 496.488C69.0104 497.409 69.6348 498.762 69.6348 500.549C69.6348 501.524 69.3841 502.385 68.8828 503.133C68.3815 503.871 67.6842 504.413 66.791 504.76C67.8118 505.015 68.6139 505.53 69.1973 506.305C69.7897 507.079 70.0859 508.027 70.0859 509.148C70.0859 511.062 69.4753 512.512 68.2539 513.496C67.0326 514.48 65.2917 514.982 63.0312 515H55.293ZM59.3945 506.332V511.705H62.9082C63.8743 511.705 64.6263 511.477 65.1641 511.021C65.7109 510.557 65.9844 509.919 65.9844 509.107C65.9844 507.285 65.041 506.359 63.1543 506.332H59.3945ZM59.3945 503.434H62.4297C64.4987 503.397 65.5332 502.572 65.5332 500.959C65.5332 500.057 65.2689 499.41 64.7402 499.018C64.2207 498.617 63.3958 498.416 62.2656 498.416H59.3945V503.434ZM77.5371 515H73.4355V495.094H77.5371V515ZM95.9258 498.416H89.8281V515H85.7266V498.416H79.7109V495.094H95.9258V498.416ZM115.668 510.898H108.477L107.109 515H102.748L110.158 495.094H113.959L121.41 515H117.049L115.668 510.898ZM109.584 507.576H114.561L112.059 500.125L109.584 507.576ZM123.27 515V495.094H129.395C131.145 495.094 132.708 495.49 134.084 496.283C135.469 497.067 136.549 498.188 137.324 499.646C138.099 501.096 138.486 502.745 138.486 504.596V505.512C138.486 507.362 138.104 509.007 137.338 510.447C136.581 511.887 135.51 513.004 134.125 513.797C132.74 514.59 131.176 514.991 129.436 515H123.27ZM127.371 498.416V511.705H129.354C130.958 511.705 132.184 511.181 133.031 510.133C133.879 509.085 134.312 507.585 134.33 505.635V504.582C134.33 502.559 133.911 501.027 133.072 499.988C132.234 498.94 131.008 498.416 129.395 498.416H127.371ZM141.48 515V495.094H147.605C149.355 495.094 150.919 495.49 152.295 496.283C153.68 497.067 154.76 498.188 155.535 499.646C156.31 501.096 156.697 502.745 156.697 504.596V505.512C156.697 507.362 156.314 509.007 155.549 510.447C154.792 511.887 153.721 513.004 152.336 513.797C150.951 514.59 149.387 514.991 147.646 515H141.48ZM145.582 498.416V511.705H147.564C149.169 511.705 150.395 511.181 151.242 510.133C152.09 509.085 152.523 507.585 152.541 505.635V504.582C152.541 502.559 152.122 501.027 151.283 499.988C150.445 498.94 149.219 498.416 147.605 498.416H145.582ZM167.061 507.713H163.793V515H159.691V495.094H167.088C169.439 495.094 171.253 495.618 172.529 496.666C173.805 497.714 174.443 499.195 174.443 501.109C174.443 502.467 174.147 503.602 173.555 504.514C172.971 505.416 172.083 506.136 170.889 506.674L175.195 514.809V515H170.793L167.061 507.713ZM163.793 504.391H167.102C168.132 504.391 168.929 504.131 169.494 503.611C170.059 503.083 170.342 502.358 170.342 501.438C170.342 500.499 170.073 499.76 169.535 499.223C169.007 498.685 168.191 498.416 167.088 498.416H163.793V504.391ZM189.551 506.373H181.676V511.705H190.918V515H177.574V495.094H190.891V498.416H181.676V503.16H189.551V506.373ZM203.646 509.777C203.646 509.003 203.373 508.41 202.826 508C202.279 507.581 201.295 507.143 199.873 506.688C198.451 506.223 197.326 505.767 196.496 505.32C194.236 504.099 193.105 502.454 193.105 500.385C193.105 499.309 193.406 498.352 194.008 497.514C194.618 496.666 195.489 496.005 196.619 495.531C197.758 495.057 199.035 494.82 200.447 494.82C201.869 494.82 203.136 495.08 204.248 495.6C205.36 496.11 206.221 496.835 206.832 497.773C207.452 498.712 207.762 499.779 207.762 500.973H203.66C203.66 500.061 203.373 499.355 202.799 498.854C202.225 498.343 201.418 498.088 200.379 498.088C199.376 498.088 198.597 498.302 198.041 498.73C197.485 499.15 197.207 499.706 197.207 500.398C197.207 501.046 197.531 501.588 198.178 502.025C198.834 502.463 199.796 502.873 201.062 503.256C203.396 503.958 205.096 504.828 206.162 505.867C207.229 506.906 207.762 508.201 207.762 509.75C207.762 511.473 207.11 512.826 205.807 513.811C204.503 514.786 202.749 515.273 200.543 515.273C199.012 515.273 197.617 514.995 196.359 514.439C195.102 513.874 194.14 513.104 193.475 512.129C192.818 511.154 192.49 510.023 192.49 508.738H196.605C196.605 510.935 197.918 512.033 200.543 512.033C201.518 512.033 202.279 511.837 202.826 511.445C203.373 511.044 203.646 510.488 203.646 509.777ZM220.873 509.777C220.873 509.003 220.6 508.41 220.053 508C219.506 507.581 218.521 507.143 217.1 506.688C215.678 506.223 214.552 505.767 213.723 505.32C211.462 504.099 210.332 502.454 210.332 500.385C210.332 499.309 210.633 498.352 211.234 497.514C211.845 496.666 212.715 496.005 213.846 495.531C214.985 495.057 216.261 494.82 217.674 494.82C219.096 494.82 220.363 495.08 221.475 495.6C222.587 496.11 223.448 496.835 224.059 497.773C224.678 498.712 224.988 499.779 224.988 500.973H220.887C220.887 500.061 220.6 499.355 220.025 498.854C219.451 498.343 218.645 498.088 217.605 498.088C216.603 498.088 215.824 498.302 215.268 498.73C214.712 499.15 214.434 499.706 214.434 500.398C214.434 501.046 214.757 501.588 215.404 502.025C216.061 502.463 217.022 502.873 218.289 503.256C220.622 503.958 222.322 504.828 223.389 505.867C224.455 506.906 224.988 508.201 224.988 509.75C224.988 511.473 224.337 512.826 223.033 513.811C221.73 514.786 219.975 515.273 217.77 515.273C216.238 515.273 214.844 514.995 213.586 514.439C212.328 513.874 211.367 513.104 210.701 512.129C210.045 511.154 209.717 510.023 209.717 508.738H213.832C213.832 510.935 215.145 512.033 217.77 512.033C218.745 512.033 219.506 511.837 220.053 511.445C220.6 511.044 220.873 510.488 220.873 509.777Z" fill="#488DFF"/>
<path d="M1692.61 1211.38C1692.61 1212.35 1692.37 1213.21 1691.89 1213.96C1691.41 1214.7 1690.74 1215.3 1689.89 1215.75C1690.86 1216.21 1691.62 1216.85 1692.19 1217.67C1692.75 1218.49 1693.04 1219.44 1693.04 1220.54C1693.04 1222.31 1692.44 1223.71 1691.23 1224.74C1690.03 1225.76 1688.39 1226.27 1686.32 1226.27C1684.26 1226.27 1682.61 1225.76 1681.4 1224.73C1680.19 1223.7 1679.58 1222.3 1679.58 1220.54C1679.58 1219.44 1679.87 1218.48 1680.43 1217.66C1681 1216.84 1681.76 1216.2 1682.71 1215.75C1681.87 1215.3 1681.2 1214.7 1680.72 1213.96C1680.24 1213.21 1680.01 1212.35 1680.01 1211.38C1680.01 1209.69 1680.57 1208.34 1681.7 1207.34C1682.83 1206.33 1684.37 1205.82 1686.31 1205.82C1688.24 1205.82 1689.77 1206.32 1690.9 1207.32C1692.04 1208.32 1692.61 1209.67 1692.61 1211.38ZM1689.07 1220.26C1689.07 1219.39 1688.82 1218.7 1688.32 1218.18C1687.82 1217.66 1687.14 1217.4 1686.3 1217.4C1685.46 1217.4 1684.79 1217.66 1684.29 1218.18C1683.79 1218.69 1683.54 1219.38 1683.54 1220.26C1683.54 1221.11 1683.78 1221.79 1684.27 1222.31C1684.77 1222.83 1685.45 1223.09 1686.32 1223.09C1687.18 1223.09 1687.85 1222.84 1688.33 1222.34C1688.83 1221.83 1689.07 1221.14 1689.07 1220.26ZM1688.66 1211.58C1688.66 1210.8 1688.46 1210.18 1688.05 1209.72C1687.64 1209.24 1687.06 1209.01 1686.31 1209.01C1685.57 1209.01 1685 1209.23 1684.59 1209.69C1684.18 1210.15 1683.97 1210.77 1683.97 1211.58C1683.97 1212.37 1684.18 1213.01 1684.59 1213.49C1685 1213.97 1685.58 1214.21 1686.32 1214.21C1687.07 1214.21 1687.65 1213.97 1688.05 1213.49C1688.46 1213.01 1688.66 1212.37 1688.66 1211.58ZM1703.56 1219.07H1695.87V1215.88H1703.56V1219.07ZM1707 1226V1206.09H1713.97C1716.38 1206.09 1718.22 1206.56 1719.46 1207.49C1720.71 1208.41 1721.34 1209.76 1721.34 1211.55C1721.34 1212.52 1721.09 1213.39 1720.59 1214.13C1720.08 1214.87 1719.39 1215.41 1718.49 1215.76C1719.51 1216.01 1720.32 1216.53 1720.9 1217.3C1721.49 1218.08 1721.79 1219.03 1721.79 1220.15C1721.79 1222.06 1721.18 1223.51 1719.96 1224.5C1718.74 1225.48 1716.99 1225.98 1714.73 1226H1707ZM1711.1 1217.33V1222.71H1714.61C1715.58 1222.71 1716.33 1222.48 1716.87 1222.02C1717.41 1221.56 1717.69 1220.92 1717.69 1220.11C1717.69 1218.28 1716.74 1217.36 1714.86 1217.33H1711.1ZM1711.1 1214.43H1714.13C1716.2 1214.4 1717.24 1213.57 1717.24 1211.96C1717.24 1211.06 1716.97 1210.41 1716.44 1210.02C1715.92 1209.62 1715.1 1209.42 1713.97 1209.42H1711.1V1214.43ZM1729.24 1226H1725.14V1206.09H1729.24V1226ZM1747.63 1209.42H1741.53V1226H1737.43V1209.42H1731.41V1206.09H1747.63V1209.42ZM1756.13 1226V1206.09H1762.26C1764.01 1206.09 1765.57 1206.49 1766.95 1207.28C1768.33 1208.07 1769.41 1209.19 1770.19 1210.65C1770.96 1212.1 1771.35 1213.75 1771.35 1215.6V1216.51C1771.35 1218.36 1770.97 1220.01 1770.2 1221.45C1769.44 1222.89 1768.37 1224 1766.99 1224.8C1765.6 1225.59 1764.04 1225.99 1762.3 1226H1756.13ZM1760.23 1209.42V1222.71H1762.22C1763.82 1222.71 1765.05 1222.18 1765.89 1221.13C1766.74 1220.08 1767.18 1218.59 1767.19 1216.63V1215.58C1767.19 1213.56 1766.77 1212.03 1765.94 1210.99C1765.1 1209.94 1763.87 1209.42 1762.26 1209.42H1760.23ZM1785.28 1221.9H1778.09L1776.72 1226H1772.36L1779.77 1206.09H1783.57L1791.02 1226H1786.66L1785.28 1221.9ZM1779.2 1218.58H1784.17L1781.67 1211.12L1779.2 1218.58ZM1806.23 1209.42H1800.13V1226H1796.03V1209.42H1790.01V1206.09H1806.23V1209.42ZM1818.18 1221.9H1810.98L1809.62 1226H1805.26L1812.67 1206.09H1816.47L1823.92 1226H1819.56L1818.18 1221.9ZM1812.09 1218.58H1817.07L1814.57 1211.12L1812.09 1218.58Z" fill="#488DFF"/>
<path d="M136.34 617.373H128.465V622.705H137.707V626H124.363V606.094H137.68V609.416H128.465V614.16H136.34V617.373ZM156.301 626H152.199L144.215 612.902V626H140.113V606.094H144.215L152.213 619.219V606.094H156.301V626ZM171.367 621.898H164.176L162.809 626H158.447L165.857 606.094H169.658L177.109 626H172.748L171.367 621.898ZM165.283 618.576H170.26L167.758 611.125L165.283 618.576ZM178.969 626V606.094H185.941C188.357 606.094 190.189 606.559 191.438 607.488C192.686 608.409 193.311 609.762 193.311 611.549C193.311 612.524 193.06 613.385 192.559 614.133C192.057 614.871 191.36 615.413 190.467 615.76C191.488 616.015 192.29 616.53 192.873 617.305C193.465 618.079 193.762 619.027 193.762 620.148C193.762 622.062 193.151 623.512 191.93 624.496C190.708 625.48 188.967 625.982 186.707 626H178.969ZM183.07 617.332V622.705H186.584C187.55 622.705 188.302 622.477 188.84 622.021C189.387 621.557 189.66 620.919 189.66 620.107C189.66 618.285 188.717 617.359 186.83 617.332H183.07ZM183.07 614.434H186.105C188.174 614.397 189.209 613.572 189.209 611.959C189.209 611.057 188.945 610.41 188.416 610.018C187.896 609.617 187.072 609.416 185.941 609.416H183.07V614.434ZM200.953 622.705H209.662V626H196.852V606.094H200.953V622.705ZM224.004 617.373H216.129V622.705H225.371V626H212.027V606.094H225.344V609.416H216.129V614.16H224.004V617.373Z" fill="#488DFF"/>
<path d="M56.8105 696.713H53.543V704H49.4414V684.094H56.8379C59.1895 684.094 61.0033 684.618 62.2793 685.666C63.5553 686.714 64.1934 688.195 64.1934 690.109C64.1934 691.467 63.8971 692.602 63.3047 693.514C62.7214 694.416 61.8327 695.136 60.6387 695.674L64.9453 703.809V704H60.543L56.8105 696.713ZM53.543 693.391H56.8516C57.8815 693.391 58.679 693.131 59.2441 692.611C59.8092 692.083 60.0918 691.358 60.0918 690.438C60.0918 689.499 59.8229 688.76 59.2852 688.223C58.7565 687.685 57.9408 687.416 56.8379 687.416H53.543V693.391ZM79.3008 695.373H71.4258V700.705H80.668V704H67.3242V684.094H80.6406V687.416H71.4258V692.16H79.3008V695.373ZM94.3125 699.898H87.1211L85.7539 704H81.3926L88.8027 684.094H92.6035L100.055 704H95.6934L94.3125 699.898ZM88.2285 696.576H93.2051L90.7031 689.125L88.2285 696.576ZM101.914 704V684.094H108.039C109.789 684.094 111.352 684.49 112.729 685.283C114.114 686.067 115.194 687.188 115.969 688.646C116.743 690.096 117.131 691.745 117.131 693.596V694.512C117.131 696.362 116.748 698.007 115.982 699.447C115.226 700.887 114.155 702.004 112.77 702.797C111.384 703.59 109.821 703.991 108.08 704H101.914ZM106.016 687.416V700.705H107.998C109.602 700.705 110.828 700.181 111.676 699.133C112.523 698.085 112.956 696.585 112.975 694.635V693.582C112.975 691.559 112.555 690.027 111.717 688.988C110.878 687.94 109.652 687.416 108.039 687.416H106.016ZM128.082 705.709H125.143L132.471 684.094H135.41L128.082 705.709ZM160.047 698.258L162.727 684.094H166.814L162.398 704H158.27L155.029 690.684L151.789 704H147.66L143.244 684.094H147.332L150.025 698.23L153.307 684.094H156.779L160.047 698.258ZM176.412 696.713H173.145V704H169.043V684.094H176.439C178.791 684.094 180.605 684.618 181.881 685.666C183.157 686.714 183.795 688.195 183.795 690.109C183.795 691.467 183.499 692.602 182.906 693.514C182.323 694.416 181.434 695.136 180.24 695.674L184.547 703.809V704H180.145L176.412 696.713ZM173.145 693.391H176.453C177.483 693.391 178.281 693.131 178.846 692.611C179.411 692.083 179.693 691.358 179.693 690.438C179.693 689.499 179.424 688.76 178.887 688.223C178.358 687.685 177.542 687.416 176.439 687.416H173.145V693.391ZM191.287 704H187.186V684.094H191.287V704ZM209.676 687.416H203.578V704H199.477V687.416H193.461V684.094H209.676V687.416ZM224.004 695.373H216.129V700.705H225.371V704H212.027V684.094H225.344V687.416H216.129V692.16H224.004V695.373Z" fill="#488DFF"/>
<line x1="142" y1="676.5" x2="226" y2="676.5" stroke="#488DFF" stroke-width="3"/>
<path d="M1777 7H2085V315H1777V7Z" fill="white" stroke="#488DFF" stroke-width="10"/>
<path d="M1885.03 155.544H1867.49V152.064L1875.77 143.24C1876.91 141.997 1877.74 140.913 1878.28 139.988C1878.83 139.062 1879.11 138.183 1879.11 137.351C1879.11 136.214 1878.82 135.323 1878.25 134.679C1877.67 134.023 1876.85 133.695 1875.79 133.695C1874.64 133.695 1873.73 134.093 1873.06 134.89C1872.41 135.675 1872.08 136.712 1872.08 138.001H1866.98C1866.98 136.443 1867.35 135.019 1868.09 133.73C1868.84 132.441 1869.89 131.433 1871.25 130.706C1872.61 129.968 1874.15 129.599 1875.88 129.599C1878.51 129.599 1880.56 130.232 1882.01 131.497C1883.48 132.763 1884.21 134.55 1884.21 136.859C1884.21 138.124 1883.88 139.413 1883.22 140.726C1882.57 142.038 1881.44 143.568 1879.85 145.314L1874.03 151.448H1885.03V155.544ZM1888.92 142.958L1890.39 129.95H1904.74V134.187H1894.56L1893.93 139.689C1895.14 139.044 1896.42 138.722 1897.78 138.722C1900.22 138.722 1902.13 139.478 1903.51 140.99C1904.89 142.501 1905.58 144.616 1905.58 147.335C1905.58 148.988 1905.23 150.47 1904.53 151.782C1903.84 153.083 1902.84 154.097 1901.54 154.823C1900.24 155.538 1898.7 155.896 1896.93 155.896C1895.39 155.896 1893.95 155.585 1892.63 154.964C1891.3 154.331 1890.25 153.447 1889.48 152.31C1888.72 151.173 1888.31 149.878 1888.27 148.425H1893.3C1893.4 149.491 1893.77 150.323 1894.4 150.921C1895.05 151.507 1895.89 151.8 1896.92 151.8C1898.06 151.8 1898.95 151.39 1899.57 150.57C1900.19 149.738 1900.5 148.566 1900.5 147.054C1900.5 145.601 1900.14 144.488 1899.43 143.714C1898.72 142.941 1897.7 142.554 1896.39 142.554C1895.18 142.554 1894.2 142.87 1893.45 143.503L1892.96 143.96L1888.92 142.958ZM1922.62 129.687V133.87H1922.12C1919.83 133.906 1917.98 134.503 1916.57 135.663C1915.17 136.823 1914.34 138.435 1914.06 140.497C1915.41 139.115 1917.13 138.423 1919.21 138.423C1921.43 138.423 1923.2 139.22 1924.51 140.814C1925.83 142.407 1926.48 144.505 1926.48 147.107C1926.48 148.771 1926.12 150.277 1925.39 151.624C1924.68 152.972 1923.66 154.021 1922.33 154.771C1921.02 155.521 1919.53 155.896 1917.87 155.896C1915.17 155.896 1912.99 154.958 1911.33 153.083C1909.68 151.208 1908.85 148.706 1908.85 145.577V143.749C1908.85 140.972 1909.37 138.523 1910.42 136.402C1911.47 134.269 1912.98 132.622 1914.93 131.462C1916.9 130.29 1919.18 129.698 1921.77 129.687H1922.62ZM1917.66 142.501C1916.84 142.501 1916.09 142.718 1915.43 143.152C1914.76 143.573 1914.27 144.136 1913.95 144.839V146.386C1913.95 148.085 1914.28 149.415 1914.95 150.376C1915.62 151.325 1916.56 151.8 1917.76 151.8C1918.85 151.8 1919.73 151.372 1920.4 150.517C1921.08 149.65 1921.42 148.531 1921.42 147.159C1921.42 145.765 1921.08 144.64 1920.4 143.784C1919.72 142.929 1918.81 142.501 1917.66 142.501ZM1939.6 146.632H1929.7V142.536H1939.6V146.632ZM1944.01 155.544V129.95H1952.97C1956.08 129.95 1958.43 130.548 1960.04 131.743C1961.64 132.927 1962.45 134.667 1962.45 136.964C1962.45 138.218 1962.13 139.325 1961.48 140.286C1960.84 141.236 1959.94 141.933 1958.79 142.378C1960.1 142.706 1961.14 143.368 1961.89 144.365C1962.65 145.361 1963.03 146.579 1963.03 148.021C1963.03 150.482 1962.24 152.345 1960.67 153.611C1959.1 154.876 1956.86 155.521 1953.96 155.544H1944.01ZM1949.28 144.4V151.308H1953.8C1955.04 151.308 1956.01 151.015 1956.7 150.429C1957.4 149.831 1957.75 149.011 1957.75 147.968C1957.75 145.624 1956.54 144.435 1954.12 144.4H1949.28ZM1949.28 140.673H1953.18C1955.84 140.626 1957.17 139.566 1957.17 137.491C1957.17 136.331 1956.83 135.499 1956.15 134.995C1955.49 134.48 1954.43 134.222 1952.97 134.222H1949.28V140.673ZM1972.61 155.544H1967.33V129.95H1972.61V155.544ZM1996.25 134.222H1988.41V155.544H1983.14V134.222H1975.4V129.95H1996.25V134.222ZM1864.26 171.95L1870.83 190.513L1877.37 171.95H1884.3V197.544H1879V190.548L1879.53 178.472L1872.62 197.544H1869L1862.11 178.49L1862.64 190.548V197.544H1857.37V171.95H1864.26ZM1904.3 186.452H1894.17V193.308H1906.06V197.544H1888.9V171.95H1906.02V176.222H1894.17V182.322H1904.3V186.452ZM1916.04 171.95L1922.62 190.513L1929.15 171.95H1936.08V197.544H1930.79V190.548L1931.32 178.472L1924.41 197.544H1920.79L1913.9 178.49L1914.42 190.548V197.544H1909.15V171.95H1916.04ZM1961.71 185.327C1961.71 187.847 1961.26 190.056 1960.37 191.954C1959.48 193.853 1958.21 195.318 1956.54 196.349C1954.89 197.38 1952.99 197.896 1950.85 197.896C1948.73 197.896 1946.83 197.386 1945.17 196.366C1943.5 195.347 1942.22 193.894 1941.3 192.007C1940.39 190.109 1939.92 187.929 1939.91 185.468V184.202C1939.91 181.683 1940.36 179.468 1941.27 177.558C1942.18 175.636 1943.46 174.165 1945.12 173.146C1946.78 172.115 1948.68 171.599 1950.81 171.599C1952.94 171.599 1954.84 172.115 1956.49 173.146C1958.15 174.165 1959.44 175.636 1960.34 177.558C1961.25 179.468 1961.71 181.677 1961.71 184.185V185.327ZM1956.37 184.167C1956.37 181.484 1955.89 179.445 1954.92 178.05C1953.96 176.656 1952.59 175.958 1950.81 175.958C1949.04 175.958 1947.68 176.65 1946.72 178.032C1945.75 179.404 1945.27 181.419 1945.26 184.079V185.327C1945.26 187.941 1945.74 189.968 1946.7 191.409C1947.66 192.851 1949.04 193.572 1950.85 193.572C1952.62 193.572 1953.98 192.88 1954.92 191.497C1955.87 190.103 1956.35 188.075 1956.37 185.415V184.167ZM1975.02 188.175H1970.81V197.544H1965.54V171.95H1975.05C1978.07 171.95 1980.41 172.624 1982.05 173.972C1983.69 175.32 1984.51 177.224 1984.51 179.685C1984.51 181.431 1984.13 182.89 1983.37 184.062C1982.62 185.222 1981.47 186.148 1979.94 186.839L1985.48 197.298V197.544H1979.81L1975.02 188.175ZM1970.81 183.904H1975.07C1976.39 183.904 1977.42 183.57 1978.14 182.902C1978.87 182.222 1979.23 181.29 1979.23 180.107C1979.23 178.9 1978.89 177.95 1978.2 177.259C1977.52 176.568 1976.47 176.222 1975.05 176.222H1970.81V183.904ZM1996.51 183.482L2001.84 171.95H2007.61L1999.2 188.263V197.544H1993.84V188.263L1985.44 171.95H1991.22L1996.51 183.482Z" fill="#488DFF"/>
<path d="M1699.26 1185V881.498" stroke="#488DFF" stroke-width="5"/>
<path d="M1728.24 1185V849.998" stroke="#488DFF" stroke-width="5"/>
<path d="M1712.99 1185V865.5" stroke="#488DFF" stroke-width="5"/>
<path d="M1198.78 449.5V320.019" stroke="#488DFF" stroke-width="5"/>
<line x1="1175.5" y1="479.611" x2="1175.5" y2="319.016" stroke="#488DFF" stroke-width="5"/>
<path d="M1187 466.562V319.016" stroke="#488DFF" stroke-width="5"/>
<path d="M1198.78 449.5V320.019" stroke="#488DFF" stroke-width="5"/>
<line x1="1175.5" y1="479.611" x2="1175.5" y2="319.016" stroke="#488DFF" stroke-width="5"/>
<path d="M1187 466.562V319.016" stroke="#488DFF" stroke-width="5"/>
<path d="M1164.06 496.674V315.001" stroke="#488DFF" stroke-width="5"/>
<line x1="1153.25" y1="512.719" x2="1153.25" y2="319.001" stroke="#488DFF" stroke-width="5"/>
<line x1="1130.5" y1="539.001" x2="1130.5" y2="315.001" stroke="#488DFF" stroke-width="5"/>
<path d="M1142.5 525.783V315" stroke="#488DFF" stroke-width="5"/>
<path d="M1119 555.893V319.016" stroke="#488DFF" stroke-width="5"/>
<path d="M1251 618.124V319.016" stroke="#488DFF" stroke-width="5"/>
<path d="M1339 689.388V319.016" stroke="#488DFF" stroke-width="5"/>
<path d="M1378 855.001V315.001" stroke="#488DFF" stroke-width="5"/>
<path d="M1539.78 446.997V317.037" stroke="#488DFF" stroke-width="5"/>
<line x1="1516.5" y1="477.22" x2="1516.5" y2="316.031" stroke="#488DFF" stroke-width="5"/>
<path d="M1528 464.123V316.031" stroke="#488DFF" stroke-width="5"/>
<path d="M1540 450L1539.78 317.038" stroke="#488DFF" stroke-width="5"/>
<line x1="1516.5" y1="480" x2="1516.5" y2="316" stroke="#488DFF" stroke-width="5"/>
<path d="M1528 468V316" stroke="#488DFF" stroke-width="5"/>
<path d="M1505.06 497.5V312.001" stroke="#488DFF" stroke-width="5"/>
<line x1="1494.5" y1="512.435" x2="1494.5" y2="318" stroke="#488DFF" stroke-width="5"/>
<line x1="1471.5" y1="540.829" x2="1471.5" y2="316" stroke="#488DFF" stroke-width="5"/>
<path d="M1483.5 525V312" stroke="#488DFF" stroke-width="5"/>
<path d="M1460 553.785V316.031" stroke="#488DFF" stroke-width="5"/>
<path d="M1592 616.246V316.031" stroke="#488DFF" stroke-width="5"/>
<path d="M1680 687.773V316.031" stroke="#488DFF" stroke-width="5"/>
<path d="M1716 837.017V311.984" stroke="#488DFF" stroke-width="5"/>
<path d="M1713.5 837.5H1745.5" stroke="#488DFF" stroke-width="5"/>
<line x1="1378" y1="852.5" x2="1726" y2="852.5" stroke="#488DFF" stroke-width="5"/>
<line x1="1715.5" y1="867.5" x2="1040.5" y2="867.5" stroke="#488DFF" stroke-width="5"/>
<line x1="2402" y1="868.5" x2="1772" y2="868.5" stroke="#488DFF" stroke-width="5"/>
<line x1="1701.02" y1="883.5" x2="698.976" y2="883.5" stroke="#488DFF" stroke-width="5"/>
<path d="M2738.5 883.5L1785 883.5" stroke="#488DFF" stroke-width="5"/>
<path d="M3080 899.5H1799.46" stroke="#488DFF" stroke-width="5"/>
<path d="M1755 852.5H2062" stroke="#488DFF" stroke-width="5"/>
</svg>
