<svg width="662" height="491" viewBox="0 0 662 491" fill="none" xmlns="http://www.w3.org/2000/svg">
<line x1="209" y1="83.5" x2="133" y2="83.5" stroke="black"/>
<line x1="209" y1="123.5" x2="133" y2="123.5" stroke="black"/>
<line x1="209" y1="103.5" x2="133" y2="103.5" stroke="black"/>
<line x1="209" y1="63.5" x2="133" y2="63.5" stroke="black"/>
<line x1="209" y1="162.5" x2="133" y2="162.5" stroke="black"/>
<line x1="209" y1="202.5" x2="133" y2="202.5" stroke="black"/>
<line x1="209" y1="182.5" x2="133" y2="182.5" stroke="black"/>
<line x1="209" y1="142.5" x2="133" y2="142.5" stroke="black"/>
<path d="M6.14062 132.736C6.14062 133.15 6.03711 133.518 5.83008 133.838C5.62305 134.158 5.33789 134.414 4.97461 134.605C5.38867 134.805 5.7168 135.08 5.95898 135.432C6.20117 135.779 6.32227 136.189 6.32227 136.662C6.32227 137.42 6.06445 138.02 5.54883 138.461C5.0332 138.898 4.33203 139.117 3.44531 139.117C2.55859 139.117 1.85547 138.896 1.33594 138.455C0.816406 138.014 0.556641 137.416 0.556641 136.662C0.556641 136.189 0.677734 135.777 0.919922 135.426C1.16211 135.074 1.48828 134.801 1.89844 134.605C1.53516 134.414 1.25 134.158 1.04297 133.838C0.839844 133.518 0.738281 133.15 0.738281 132.736C0.738281 132.01 0.980469 131.432 1.46484 131.002C1.94922 130.568 2.60742 130.352 3.43945 130.352C4.26758 130.352 4.92383 130.566 5.4082 130.996C5.89648 131.422 6.14062 132.002 6.14062 132.736ZM4.62305 136.539C4.62305 136.168 4.51562 135.871 4.30078 135.648C4.08594 135.426 3.79688 135.314 3.43359 135.314C3.07422 135.314 2.78711 135.426 2.57227 135.648C2.35742 135.867 2.25 136.164 2.25 136.539C2.25 136.902 2.35547 137.195 2.56641 137.418C2.77734 137.641 3.07031 137.752 3.44531 137.752C3.8125 137.752 4.09961 137.645 4.30664 137.43C4.51758 137.215 4.62305 136.918 4.62305 136.539ZM4.44727 132.818C4.44727 132.486 4.35938 132.221 4.18359 132.021C4.00781 131.818 3.75977 131.717 3.43945 131.717C3.12305 131.717 2.87695 131.814 2.70117 132.01C2.52539 132.205 2.4375 132.475 2.4375 132.818C2.4375 133.158 2.52539 133.432 2.70117 133.639C2.87695 133.846 3.125 133.949 3.44531 133.949C3.76562 133.949 4.01172 133.846 4.18359 133.639C4.35938 133.432 4.44727 133.158 4.44727 132.818ZM10.834 136.029H7.53516V134.664H10.834V136.029ZM17.9062 135.889C17.9062 136.904 17.6895 137.697 17.2559 138.268C16.8223 138.834 16.2168 139.117 15.4395 139.117C14.752 139.117 14.2031 138.854 13.793 138.326L13.7168 139H12.1934V130H13.8867V133.229C14.2773 132.771 14.791 132.543 15.4277 132.543C16.2012 132.543 16.8066 132.828 17.2441 133.398C17.6855 133.965 17.9062 134.764 17.9062 135.795V135.889ZM16.2129 135.766C16.2129 135.125 16.1113 134.658 15.9082 134.365C15.7051 134.068 15.4023 133.92 15 133.92C14.4609 133.92 14.0898 134.141 13.8867 134.582V137.084C14.0938 137.529 14.4688 137.752 15.0117 137.752C15.5586 137.752 15.918 137.482 16.0898 136.943C16.1719 136.686 16.2129 136.293 16.2129 135.766ZM20.7422 139H19.043V132.66H20.7422V139ZM18.9434 131.02C18.9434 130.766 19.0273 130.557 19.1953 130.393C19.3672 130.229 19.5996 130.146 19.8926 130.146C20.1816 130.146 20.4121 130.229 20.584 130.393C20.7559 130.557 20.8418 130.766 20.8418 131.02C20.8418 131.277 20.7539 131.488 20.5781 131.652C20.4062 131.816 20.1777 131.898 19.8926 131.898C19.6074 131.898 19.377 131.816 19.2012 131.652C19.0293 131.488 18.9434 131.277 18.9434 131.02ZM24.1699 131.102V132.66H25.2539V133.902H24.1699V137.066C24.1699 137.301 24.2148 137.469 24.3047 137.57C24.3945 137.672 24.5664 137.723 24.8203 137.723C25.0078 137.723 25.1738 137.709 25.3184 137.682V138.965C24.9863 139.066 24.6445 139.117 24.293 139.117C23.1055 139.117 22.5 138.518 22.4766 137.318V133.902H21.5508V132.66H22.4766V131.102H24.1699ZM28.9219 135.783C28.9219 134.795 29.1426 134.008 29.584 133.422C30.0293 132.836 30.6367 132.543 31.4062 132.543C32.0234 132.543 32.5332 132.773 32.9355 133.234V130H34.6348V139H33.1055L33.0234 138.326C32.6016 138.854 32.0586 139.117 31.3945 139.117C30.6484 139.117 30.0488 138.824 29.5957 138.238C29.1465 137.648 28.9219 136.83 28.9219 135.783ZM30.6152 135.906C30.6152 136.5 30.7188 136.955 30.9258 137.271C31.1328 137.588 31.4336 137.746 31.8281 137.746C32.3516 137.746 32.7207 137.525 32.9355 137.084V134.582C32.7246 134.141 32.3594 133.92 31.8398 133.92C31.0234 133.92 30.6152 134.582 30.6152 135.906ZM39.6211 139C39.543 138.848 39.4863 138.658 39.4512 138.432C39.041 138.889 38.5078 139.117 37.8516 139.117C37.2305 139.117 36.7148 138.938 36.3047 138.578C35.8984 138.219 35.6953 137.766 35.6953 137.219C35.6953 136.547 35.9434 136.031 36.4395 135.672C36.9395 135.312 37.6602 135.131 38.6016 135.127H39.3809V134.764C39.3809 134.471 39.3047 134.236 39.1523 134.061C39.0039 133.885 38.7676 133.797 38.4434 133.797C38.1582 133.797 37.9336 133.865 37.7695 134.002C37.6094 134.139 37.5293 134.326 37.5293 134.564H35.8359C35.8359 134.197 35.9492 133.857 36.1758 133.545C36.4023 133.232 36.7227 132.988 37.1367 132.812C37.5508 132.633 38.0156 132.543 38.5312 132.543C39.3125 132.543 39.9316 132.74 40.3887 133.135C40.8496 133.525 41.0801 134.076 41.0801 134.787V137.535C41.084 138.137 41.168 138.592 41.332 138.9V139H39.6211ZM38.2207 137.822C38.4707 137.822 38.7012 137.768 38.9121 137.658C39.123 137.545 39.2793 137.395 39.3809 137.207V136.117H38.748C37.9004 136.117 37.4492 136.41 37.3945 136.996L37.3887 137.096C37.3887 137.307 37.4629 137.48 37.6113 137.617C37.7598 137.754 37.9629 137.822 38.2207 137.822ZM44.4082 131.102V132.66H45.4922V133.902H44.4082V137.066C44.4082 137.301 44.4531 137.469 44.543 137.57C44.6328 137.672 44.8047 137.723 45.0586 137.723C45.2461 137.723 45.4121 137.709 45.5566 137.682V138.965C45.2246 139.066 44.8828 139.117 44.5312 139.117C43.3438 139.117 42.7383 138.518 42.7148 137.318V133.902H41.7891V132.66H42.7148V131.102H44.4082ZM50.1094 139C50.0312 138.848 49.9746 138.658 49.9395 138.432C49.5293 138.889 48.9961 139.117 48.3398 139.117C47.7188 139.117 47.2031 138.938 46.793 138.578C46.3867 138.219 46.1836 137.766 46.1836 137.219C46.1836 136.547 46.4316 136.031 46.9277 135.672C47.4277 135.312 48.1484 135.131 49.0898 135.127H49.8691V134.764C49.8691 134.471 49.793 134.236 49.6406 134.061C49.4922 133.885 49.2559 133.797 48.9316 133.797C48.6465 133.797 48.4219 133.865 48.2578 134.002C48.0977 134.139 48.0176 134.326 48.0176 134.564H46.3242C46.3242 134.197 46.4375 133.857 46.6641 133.545C46.8906 133.232 47.2109 132.988 47.625 132.812C48.0391 132.633 48.5039 132.543 49.0195 132.543C49.8008 132.543 50.4199 132.74 50.877 133.135C51.3379 133.525 51.5684 134.076 51.5684 134.787V137.535C51.5723 138.137 51.6562 138.592 51.8203 138.9V139H50.1094ZM48.709 137.822C48.959 137.822 49.1895 137.768 49.4004 137.658C49.6113 137.545 49.7676 137.395 49.8691 137.207V136.117H49.2363C48.3887 136.117 47.9375 136.41 47.8828 136.996L47.877 137.096C47.877 137.307 47.9512 137.48 48.0996 137.617C48.248 137.754 48.4512 137.822 48.709 137.822ZM52.9512 138.168C52.9512 137.898 53.041 137.68 53.2207 137.512C53.4043 137.344 53.6328 137.26 53.9062 137.26C54.1836 137.26 54.4121 137.344 54.5918 137.512C54.7754 137.68 54.8672 137.898 54.8672 138.168C54.8672 138.434 54.7773 138.65 54.5977 138.818C54.418 138.982 54.1875 139.064 53.9062 139.064C53.6289 139.064 53.4004 138.982 53.2207 138.818C53.041 138.65 52.9512 138.434 52.9512 138.168ZM52.9512 133.369C52.9512 133.1 53.041 132.881 53.2207 132.713C53.4043 132.545 53.6328 132.461 53.9062 132.461C54.1836 132.461 54.4121 132.545 54.5918 132.713C54.7754 132.881 54.8672 133.1 54.8672 133.369C54.8672 133.635 54.7773 133.852 54.5977 134.02C54.418 134.184 54.1875 134.266 53.9062 134.266C53.6289 134.266 53.4004 134.184 53.2207 134.02C53.041 133.852 52.9512 133.635 52.9512 133.369ZM63.8789 136.135H65.0625V137.02H63.8789V139H62.7891V137.02H58.9043V136.381L62.7246 130.469H63.8789V136.135ZM60.1348 136.135H62.7891V131.951L62.6602 132.186L60.1348 136.135ZM71.6309 139H66.041V138.221L68.9941 134.939C69.4316 134.443 69.7324 134.041 69.8965 133.732C70.0645 133.42 70.1484 133.098 70.1484 132.766C70.1484 132.32 70.0137 131.955 69.7441 131.67C69.4746 131.385 69.1152 131.242 68.666 131.242C68.127 131.242 67.707 131.396 67.4062 131.705C67.1094 132.01 66.9609 132.436 66.9609 132.982H65.877C65.877 132.197 66.1289 131.562 66.6328 131.078C67.1406 130.594 67.8184 130.352 68.666 130.352C69.459 130.352 70.0859 130.561 70.5469 130.979C71.0078 131.393 71.2383 131.945 71.2383 132.637C71.2383 133.477 70.7031 134.477 69.6328 135.637L67.3477 138.115H71.6309V139Z" fill="black"/>
<line x1="209" y1="259.5" x2="133" y2="259.5" stroke="black"/>
<line x1="209" y1="299.5" x2="133" y2="299.5" stroke="black"/>
<line x1="209" y1="279.5" x2="133" y2="279.5" stroke="black"/>
<line x1="209" y1="239.5" x2="133" y2="239.5" stroke="black"/>
<line x1="209" y1="338.5" x2="133" y2="338.5" stroke="black"/>
<line x1="209" y1="378.5" x2="133" y2="378.5" stroke="black"/>
<line x1="209" y1="358.5" x2="133" y2="358.5" stroke="black"/>
<line x1="209" y1="318.5" x2="133" y2="318.5" stroke="black"/>
<path d="M6.14062 219.736C6.14062 220.15 6.03711 220.518 5.83008 220.838C5.62305 221.158 5.33789 221.414 4.97461 221.605C5.38867 221.805 5.7168 222.08 5.95898 222.432C6.20117 222.779 6.32227 223.189 6.32227 223.662C6.32227 224.42 6.06445 225.02 5.54883 225.461C5.0332 225.898 4.33203 226.117 3.44531 226.117C2.55859 226.117 1.85547 225.896 1.33594 225.455C0.816406 225.014 0.556641 224.416 0.556641 223.662C0.556641 223.189 0.677734 222.777 0.919922 222.426C1.16211 222.074 1.48828 221.801 1.89844 221.605C1.53516 221.414 1.25 221.158 1.04297 220.838C0.839844 220.518 0.738281 220.15 0.738281 219.736C0.738281 219.01 0.980469 218.432 1.46484 218.002C1.94922 217.568 2.60742 217.352 3.43945 217.352C4.26758 217.352 4.92383 217.566 5.4082 217.996C5.89648 218.422 6.14062 219.002 6.14062 219.736ZM4.62305 223.539C4.62305 223.168 4.51562 222.871 4.30078 222.648C4.08594 222.426 3.79688 222.314 3.43359 222.314C3.07422 222.314 2.78711 222.426 2.57227 222.648C2.35742 222.867 2.25 223.164 2.25 223.539C2.25 223.902 2.35547 224.195 2.56641 224.418C2.77734 224.641 3.07031 224.752 3.44531 224.752C3.8125 224.752 4.09961 224.645 4.30664 224.43C4.51758 224.215 4.62305 223.918 4.62305 223.539ZM4.44727 219.818C4.44727 219.486 4.35938 219.221 4.18359 219.021C4.00781 218.818 3.75977 218.717 3.43945 218.717C3.12305 218.717 2.87695 218.814 2.70117 219.01C2.52539 219.205 2.4375 219.475 2.4375 219.818C2.4375 220.158 2.52539 220.432 2.70117 220.639C2.87695 220.846 3.125 220.949 3.44531 220.949C3.76562 220.949 4.01172 220.846 4.18359 220.639C4.35938 220.432 4.44727 220.158 4.44727 219.818ZM10.834 223.029H7.53516V221.664H10.834V223.029ZM17.9062 222.889C17.9062 223.904 17.6895 224.697 17.2559 225.268C16.8223 225.834 16.2168 226.117 15.4395 226.117C14.752 226.117 14.2031 225.854 13.793 225.326L13.7168 226H12.1934V217H13.8867V220.229C14.2773 219.771 14.791 219.543 15.4277 219.543C16.2012 219.543 16.8066 219.828 17.2441 220.398C17.6855 220.965 17.9062 221.764 17.9062 222.795V222.889ZM16.2129 222.766C16.2129 222.125 16.1113 221.658 15.9082 221.365C15.7051 221.068 15.4023 220.92 15 220.92C14.4609 220.92 14.0898 221.141 13.8867 221.582V224.084C14.0938 224.529 14.4688 224.752 15.0117 224.752C15.5586 224.752 15.918 224.482 16.0898 223.943C16.1719 223.686 16.2129 223.293 16.2129 222.766ZM20.7422 226H19.043V219.66H20.7422V226ZM18.9434 218.02C18.9434 217.766 19.0273 217.557 19.1953 217.393C19.3672 217.229 19.5996 217.146 19.8926 217.146C20.1816 217.146 20.4121 217.229 20.584 217.393C20.7559 217.557 20.8418 217.766 20.8418 218.02C20.8418 218.277 20.7539 218.488 20.5781 218.652C20.4062 218.816 20.1777 218.898 19.8926 218.898C19.6074 218.898 19.377 218.816 19.2012 218.652C19.0293 218.488 18.9434 218.277 18.9434 218.02ZM24.1699 218.102V219.66H25.2539V220.902H24.1699V224.066C24.1699 224.301 24.2148 224.469 24.3047 224.57C24.3945 224.672 24.5664 224.723 24.8203 224.723C25.0078 224.723 25.1738 224.709 25.3184 224.682V225.965C24.9863 226.066 24.6445 226.117 24.293 226.117C23.1055 226.117 22.5 225.518 22.4766 224.318V220.902H21.5508V219.66H22.4766V218.102H24.1699ZM32.8594 226C32.7812 225.848 32.7246 225.658 32.6895 225.432C32.2793 225.889 31.7461 226.117 31.0898 226.117C30.4688 226.117 29.9531 225.938 29.543 225.578C29.1367 225.219 28.9336 224.766 28.9336 224.219C28.9336 223.547 29.1816 223.031 29.6777 222.672C30.1777 222.312 30.8984 222.131 31.8398 222.127H32.6191V221.764C32.6191 221.471 32.543 221.236 32.3906 221.061C32.2422 220.885 32.0059 220.797 31.6816 220.797C31.3965 220.797 31.1719 220.865 31.0078 221.002C30.8477 221.139 30.7676 221.326 30.7676 221.564H29.0742C29.0742 221.197 29.1875 220.857 29.4141 220.545C29.6406 220.232 29.9609 219.988 30.375 219.812C30.7891 219.633 31.2539 219.543 31.7695 219.543C32.5508 219.543 33.1699 219.74 33.627 220.135C34.0879 220.525 34.3184 221.076 34.3184 221.787V224.535C34.3223 225.137 34.4062 225.592 34.5703 225.9V226H32.8594ZM31.459 224.822C31.709 224.822 31.9395 224.768 32.1504 224.658C32.3613 224.545 32.5176 224.395 32.6191 224.207V223.117H31.9863C31.1387 223.117 30.6875 223.41 30.6328 223.996L30.627 224.096C30.627 224.307 30.7012 224.48 30.8496 224.617C30.998 224.754 31.2012 224.822 31.459 224.822ZM35.3555 222.783C35.3555 221.795 35.5762 221.008 36.0176 220.422C36.4629 219.836 37.0703 219.543 37.8398 219.543C38.457 219.543 38.9668 219.773 39.3691 220.234V217H41.0684V226H39.5391L39.457 225.326C39.0352 225.854 38.4922 226.117 37.8281 226.117C37.082 226.117 36.4824 225.824 36.0293 225.238C35.5801 224.648 35.3555 223.83 35.3555 222.783ZM37.0488 222.906C37.0488 223.5 37.1523 223.955 37.3594 224.271C37.5664 224.588 37.8672 224.746 38.2617 224.746C38.7852 224.746 39.1543 224.525 39.3691 224.084V221.582C39.1582 221.141 38.793 220.92 38.2734 220.92C37.457 220.92 37.0488 221.582 37.0488 222.906ZM42.1172 222.783C42.1172 221.795 42.3379 221.008 42.7793 220.422C43.2246 219.836 43.832 219.543 44.6016 219.543C45.2188 219.543 45.7285 219.773 46.1309 220.234V217H47.8301V226H46.3008L46.2188 225.326C45.7969 225.854 45.2539 226.117 44.5898 226.117C43.8438 226.117 43.2441 225.824 42.791 225.238C42.3418 224.648 42.1172 223.83 42.1172 222.783ZM43.8105 222.906C43.8105 223.5 43.9141 223.955 44.1211 224.271C44.3281 224.588 44.6289 224.746 45.0234 224.746C45.5469 224.746 45.916 224.525 46.1309 224.084V221.582C45.9199 221.141 45.5547 220.92 45.0352 220.92C44.2188 220.92 43.8105 221.582 43.8105 222.906ZM52.7051 221.248C52.4746 221.217 52.2715 221.201 52.0957 221.201C51.4551 221.201 51.0352 221.418 50.8359 221.852V226H49.1426V219.66H50.7422L50.7891 220.416C51.1289 219.834 51.5996 219.543 52.2012 219.543C52.3887 219.543 52.5645 219.568 52.7285 219.619L52.7051 221.248ZM56.3262 226.117C55.3965 226.117 54.6387 225.832 54.0527 225.262C53.4707 224.691 53.1797 223.932 53.1797 222.982V222.818C53.1797 222.182 53.3027 221.613 53.5488 221.113C53.7949 220.609 54.1426 220.223 54.5918 219.953C55.0449 219.68 55.5605 219.543 56.1387 219.543C57.0059 219.543 57.6875 219.816 58.1836 220.363C58.6836 220.91 58.9336 221.686 58.9336 222.689V223.381H54.8965C54.9512 223.795 55.1152 224.127 55.3887 224.377C55.666 224.627 56.0156 224.752 56.4375 224.752C57.0898 224.752 57.5996 224.516 57.9668 224.043L58.7988 224.975C58.5449 225.334 58.2012 225.615 57.7676 225.818C57.334 226.018 56.8535 226.117 56.3262 226.117ZM56.1328 220.914C55.7969 220.914 55.5234 221.027 55.3125 221.254C55.1055 221.48 54.9727 221.805 54.9141 222.227H57.2695V222.092C57.2617 221.717 57.1602 221.428 56.9648 221.225C56.7695 221.018 56.4922 220.914 56.1328 220.914ZM63.334 224.248C63.334 224.041 63.2305 223.879 63.0234 223.762C62.8203 223.641 62.4922 223.533 62.0391 223.439C60.5312 223.123 59.7773 222.482 59.7773 221.518C59.7773 220.955 60.0098 220.486 60.4746 220.111C60.9434 219.732 61.5547 219.543 62.3086 219.543C63.1133 219.543 63.7559 219.732 64.2363 220.111C64.7207 220.49 64.9629 220.982 64.9629 221.588H63.2695C63.2695 221.346 63.1914 221.146 63.0352 220.99C62.8789 220.83 62.6348 220.75 62.3027 220.75C62.0176 220.75 61.7969 220.814 61.6406 220.943C61.4844 221.072 61.4062 221.236 61.4062 221.436C61.4062 221.623 61.4941 221.775 61.6699 221.893C61.8496 222.006 62.1504 222.105 62.5723 222.191C62.9941 222.273 63.3496 222.367 63.6387 222.473C64.5332 222.801 64.9805 223.369 64.9805 224.178C64.9805 224.756 64.7324 225.225 64.2363 225.584C63.7402 225.939 63.0996 226.117 62.3145 226.117C61.7832 226.117 61.3105 226.023 60.8965 225.836C60.4863 225.645 60.1641 225.385 59.9297 225.057C59.6953 224.725 59.5781 224.367 59.5781 223.984H61.1836C61.1992 224.285 61.3105 224.516 61.5176 224.676C61.7246 224.836 62.002 224.916 62.3496 224.916C62.6738 224.916 62.918 224.855 63.082 224.734C63.25 224.609 63.334 224.447 63.334 224.248ZM69.5098 224.248C69.5098 224.041 69.4062 223.879 69.1992 223.762C68.9961 223.641 68.668 223.533 68.2148 223.439C66.707 223.123 65.9531 222.482 65.9531 221.518C65.9531 220.955 66.1855 220.486 66.6504 220.111C67.1191 219.732 67.7305 219.543 68.4844 219.543C69.2891 219.543 69.9316 219.732 70.4121 220.111C70.8965 220.49 71.1387 220.982 71.1387 221.588H69.4453C69.4453 221.346 69.3672 221.146 69.2109 220.99C69.0547 220.83 68.8105 220.75 68.4785 220.75C68.1934 220.75 67.9727 220.814 67.8164 220.943C67.6602 221.072 67.582 221.236 67.582 221.436C67.582 221.623 67.6699 221.775 67.8457 221.893C68.0254 222.006 68.3262 222.105 68.748 222.191C69.1699 222.273 69.5254 222.367 69.8145 222.473C70.709 222.801 71.1562 223.369 71.1562 224.178C71.1562 224.756 70.9082 225.225 70.4121 225.584C69.916 225.939 69.2754 226.117 68.4902 226.117C67.959 226.117 67.4863 226.023 67.0723 225.836C66.6621 225.645 66.3398 225.385 66.1055 225.057C65.8711 224.725 65.7539 224.367 65.7539 223.984H67.3594C67.375 224.285 67.4863 224.516 67.6934 224.676C67.9004 224.836 68.1777 224.916 68.5254 224.916C68.8496 224.916 69.0938 224.855 69.2578 224.734C69.4258 224.609 69.5098 224.447 69.5098 224.248ZM72.334 225.168C72.334 224.898 72.4238 224.68 72.6035 224.512C72.7871 224.344 73.0156 224.26 73.2891 224.26C73.5664 224.26 73.7949 224.344 73.9746 224.512C74.1582 224.68 74.25 224.898 74.25 225.168C74.25 225.434 74.1602 225.65 73.9805 225.818C73.8008 225.982 73.5703 226.064 73.2891 226.064C73.0117 226.064 72.7832 225.982 72.6035 225.818C72.4238 225.65 72.334 225.434 72.334 225.168ZM72.334 220.369C72.334 220.1 72.4238 219.881 72.6035 219.713C72.7871 219.545 73.0156 219.461 73.2891 219.461C73.5664 219.461 73.7949 219.545 73.9746 219.713C74.1582 219.881 74.25 220.1 74.25 220.369C74.25 220.635 74.1602 220.852 73.9805 221.02C73.8008 221.184 73.5703 221.266 73.2891 221.266C73.0117 221.266 72.7832 221.184 72.6035 221.02C72.4238 220.852 72.334 220.635 72.334 220.369ZM82.2363 226H81.1465V218.775L78.9609 219.578V218.594L82.0664 217.428H82.2363V226ZM90.9199 218.078L87.3867 226H86.25L89.7715 218.359H85.1543V217.469H90.9199V218.078ZM97.5 222.361C97.5 223.631 97.2832 224.574 96.8496 225.191C96.416 225.809 95.7383 226.117 94.8164 226.117C93.9062 226.117 93.2324 225.816 92.7949 225.215C92.3574 224.609 92.1309 223.707 92.1152 222.508V221.061C92.1152 219.807 92.332 218.875 92.7656 218.266C93.1992 217.656 93.8789 217.352 94.8047 217.352C95.7227 217.352 96.3984 217.646 96.832 218.236C97.2656 218.822 97.4883 219.729 97.5 220.955V222.361ZM96.416 220.879C96.416 219.961 96.2871 219.293 96.0293 218.875C95.7715 218.453 95.3633 218.242 94.8047 218.242C94.25 218.242 93.8457 218.451 93.5918 218.869C93.3379 219.287 93.207 219.93 93.1992 220.797V222.531C93.1992 223.453 93.332 224.135 93.5977 224.576C93.8672 225.014 94.2734 225.232 94.8164 225.232C95.3516 225.232 95.748 225.025 96.0059 224.611C96.2676 224.197 96.4043 223.545 96.416 222.654V220.879Z" fill="black"/>
<line x1="210" y1="427.5" x2="45" y2="427.5" stroke="black"/>
<line x1="210" y1="458.5" x2="45" y2="458.5" stroke="black"/>
<rect x="209" y="35" width="453" height="456" fill="#E6F0FF"/>
<rect x="230" y="57" width="22" height="22" fill="#BBBBBB"/>
<rect x="256" y="57" width="22" height="22" fill="#BBBBBB"/>
<rect x="230" y="83" width="22" height="22" fill="#BBBBBB"/>
<rect x="256" y="83" width="22" height="22" fill="#BBBBBB"/>
<rect x="282" y="57" width="22" height="22" fill="#BBBBBB"/>
<rect x="308" y="57" width="22" height="22" fill="#BBBBBB"/>
<rect x="282" y="83" width="22" height="22" fill="#BBBBBB"/>
<rect x="308" y="83" width="22" height="22" fill="#BBBBBB"/>
<rect x="334" y="57" width="22" height="22" fill="#BBBBBB"/>
<rect x="360" y="57" width="22" height="22" fill="#BBBBBB"/>
<rect x="334" y="83" width="22" height="22" fill="#BBBBBB"/>
<rect x="360" y="83" width="22" height="22" fill="#BBBBBB"/>
<rect x="386" y="57" width="22" height="22" fill="#BBBBBB"/>
<rect x="412" y="57" width="22" height="22" fill="#BBBBBB"/>
<rect x="386" y="83" width="22" height="22" fill="#BBBBBB"/>
<rect x="412" y="83" width="22" height="22" fill="#BBBBBB"/>
<rect x="438" y="57" width="22" height="22" fill="#BBBBBB"/>
<rect x="464" y="57" width="22" height="22" fill="#BBBBBB"/>
<rect x="438" y="83" width="22" height="22" fill="#BBBBBB"/>
<rect x="464" y="83" width="22" height="22" fill="#BBBBBB"/>
<rect x="490" y="57" width="22" height="22" fill="#BBBBBB"/>
<rect x="516" y="57" width="22" height="22" fill="#BBBBBB"/>
<rect x="490" y="83" width="22" height="22" fill="#BBBBBB"/>
<rect x="516" y="83" width="22" height="22" fill="#BBBBBB"/>
<rect x="542" y="57" width="22" height="22" fill="#BBBBBB"/>
<rect x="568" y="57" width="22" height="22" fill="#BBBBBB"/>
<rect x="542" y="83" width="22" height="22" fill="#BBBBBB"/>
<rect x="568" y="83" width="22" height="22" fill="#BBBBBB"/>
<rect x="594" y="57" width="22" height="22" fill="#BBBBBB"/>
<rect x="620" y="57" width="22" height="22" fill="#BBBBBB"/>
<rect x="594" y="83" width="22" height="22" fill="#BBBBBB"/>
<rect x="620" y="83" width="22" height="22" fill="#BBBBBB"/>
<rect x="230" y="109" width="22" height="22" fill="#BBBBBB"/>
<rect x="256" y="109" width="22" height="22" fill="#BBBBBB"/>
<rect x="230" y="135" width="22" height="22" fill="#BBBBBB"/>
<rect x="256" y="135" width="22" height="22" fill="#BBBBBB"/>
<rect x="282" y="109" width="22" height="22" fill="#BBBBBB"/>
<rect x="308" y="109" width="22" height="22" fill="#BBBBBB"/>
<rect x="282" y="135" width="22" height="22" fill="#BBBBBB"/>
<rect x="308" y="135" width="22" height="22" fill="#BBBBBB"/>
<rect x="334" y="109" width="22" height="22" fill="#BBBBBB"/>
<rect x="360" y="109" width="22" height="22" fill="#BBBBBB"/>
<rect x="334" y="135" width="22" height="22" fill="#BBBBBB"/>
<rect x="360" y="135" width="22" height="22" fill="#BBBBBB"/>
<rect x="386" y="109" width="22" height="22" fill="#BBBBBB"/>
<rect x="412" y="109" width="22" height="22" fill="#BBBBBB"/>
<rect x="386" y="135" width="22" height="22" fill="#BBBBBB"/>
<rect x="412" y="135" width="22" height="22" fill="#BBBBBB"/>
<rect x="438" y="109" width="22" height="22" fill="#BBBBBB"/>
<rect x="464" y="109" width="22" height="22" fill="#BBBBBB"/>
<rect x="438" y="135" width="22" height="22" fill="#BBBBBB"/>
<rect x="464" y="135" width="22" height="22" fill="#BBBBBB"/>
<rect x="490" y="109" width="22" height="22" fill="#BBBBBB"/>
<rect x="516" y="109" width="22" height="22" fill="#BBBBBB"/>
<rect x="490" y="135" width="22" height="22" fill="#BBBBBB"/>
<rect x="516" y="135" width="22" height="22" fill="#BBBBBB"/>
<rect x="542" y="109" width="22" height="22" fill="#BBBBBB"/>
<rect x="568" y="109" width="22" height="22" fill="#BBBBBB"/>
<rect x="542" y="135" width="22" height="22" fill="#BBBBBB"/>
<rect x="568" y="135" width="22" height="22" fill="#BBBBBB"/>
<rect x="594" y="109" width="22" height="22" fill="#BBBBBB"/>
<rect x="620" y="109" width="22" height="22" fill="#BBBBBB"/>
<rect x="594" y="135" width="22" height="22" fill="#BBBBBB"/>
<rect x="620" y="135" width="22" height="22" fill="#BBBBBB"/>
<rect x="230" y="369" width="22" height="22" fill="#BBBBBB"/>
<rect x="256" y="369" width="22" height="22" fill="#BBBBBB"/>
<rect x="230" y="395" width="22" height="22" fill="#BBBBBB"/>
<rect x="256" y="395" width="22" height="22" fill="#BBBBBB"/>
<rect x="282" y="369" width="22" height="22" fill="#BBBBBB"/>
<rect x="308" y="369" width="22" height="22" fill="#BBBBBB"/>
<rect x="282" y="395" width="22" height="22" fill="#BBBBBB"/>
<rect x="308" y="395" width="22" height="22" fill="#BBBBBB"/>
<rect x="334" y="369" width="22" height="22" fill="#BBBBBB"/>
<rect x="360" y="369" width="22" height="22" fill="#BBBBBB"/>
<rect x="334" y="395" width="22" height="22" fill="#BBBBBB"/>
<rect x="360" y="395" width="22" height="22" fill="#BBBBBB"/>
<rect x="386" y="369" width="22" height="22" fill="#BBBBBB"/>
<rect x="412" y="369" width="22" height="22" fill="#BBBBBB"/>
<rect x="386" y="395" width="22" height="22" fill="#BBBBBB"/>
<rect x="412" y="395" width="22" height="22" fill="#BBBBBB"/>
<rect x="438" y="369" width="22" height="22" fill="#BBBBBB"/>
<rect x="464" y="369" width="22" height="22" fill="#BBBBBB"/>
<rect x="438" y="395" width="22" height="22" fill="#BBBBBB"/>
<rect x="464" y="395" width="22" height="22" fill="#BBBBBB"/>
<rect x="490" y="369" width="22" height="22" fill="#BBBBBB"/>
<rect x="516" y="369" width="22" height="22" fill="#BBBBBB"/>
<rect x="490" y="395" width="22" height="22" fill="#BBBBBB"/>
<rect x="516" y="395" width="22" height="22" fill="#BBBBBB"/>
<rect x="542" y="369" width="22" height="22" fill="#BBBBBB"/>
<rect x="568" y="369" width="22" height="22" fill="#BBBBBB"/>
<rect x="542" y="395" width="22" height="22" fill="#BBBBBB"/>
<rect x="568" y="395" width="22" height="22" fill="#BBBBBB"/>
<rect x="594" y="369" width="22" height="22" fill="#BBBBBB"/>
<rect x="620" y="369" width="22" height="22" fill="#BBBBBB"/>
<rect x="594" y="395" width="22" height="22" fill="#BBBBBB"/>
<rect x="620" y="395" width="22" height="22" fill="#BBBBBB"/>
<rect x="230" y="421" width="22" height="22" fill="#BBBBBB"/>
<rect x="256" y="421" width="22" height="22" fill="#BBBBBB"/>
<rect x="230" y="447" width="22" height="22" fill="#BBBBBB"/>
<rect x="256" y="447" width="22" height="22" fill="#BBBBBB"/>
<rect x="282" y="421" width="22" height="22" fill="#BBBBBB"/>
<rect x="308" y="421" width="22" height="22" fill="#BBBBBB"/>
<rect x="282" y="447" width="22" height="22" fill="#BBBBBB"/>
<rect x="308" y="447" width="22" height="22" fill="#BBBBBB"/>
<rect x="334" y="421" width="22" height="22" fill="#BBBBBB"/>
<rect x="360" y="421" width="22" height="22" fill="#BBBBBB"/>
<rect x="334" y="447" width="22" height="22" fill="#BBBBBB"/>
<rect x="360" y="447" width="22" height="22" fill="#BBBBBB"/>
<rect x="386" y="421" width="22" height="22" fill="#BBBBBB"/>
<rect x="412" y="421" width="22" height="22" fill="#BBBBBB"/>
<rect x="386" y="447" width="22" height="22" fill="#BBBBBB"/>
<rect x="412" y="447" width="22" height="22" fill="#BBBBBB"/>
<rect x="438" y="421" width="22" height="22" fill="#BBBBBB"/>
<rect x="464" y="421" width="22" height="22" fill="#BBBBBB"/>
<rect x="438" y="447" width="22" height="22" fill="#BBBBBB"/>
<rect x="464" y="447" width="22" height="22" fill="#BBBBBB"/>
<rect x="490" y="421" width="22" height="22" fill="#BBBBBB"/>
<rect x="516" y="421" width="22" height="22" fill="#BBBBBB"/>
<rect x="490" y="447" width="22" height="22" fill="#BBBBBB"/>
<rect x="516" y="447" width="22" height="22" fill="#BBBBBB"/>
<rect x="542" y="421" width="22" height="22" fill="#BBBBBB"/>
<rect x="568" y="421" width="22" height="22" fill="#BBBBBB"/>
<rect x="542" y="447" width="22" height="22" fill="#BBBBBB"/>
<rect x="568" y="447" width="22" height="22" fill="#BBBBBB"/>
<rect x="594" y="421" width="22" height="22" fill="#BBBBBB"/>
<rect x="620" y="421" width="22" height="22" fill="#BBBBBB"/>
<rect x="594" y="447" width="22" height="22" fill="#BBBBBB"/>
<rect x="620" y="447" width="22" height="22" fill="#BBBBBB"/>
<rect x="230" y="265" width="22" height="22" fill="#BBBBBB"/>
<rect x="256" y="265" width="22" height="22" fill="#BBBBBB"/>
<rect x="230" y="291" width="22" height="22" fill="#BBBBBB"/>
<rect x="256" y="291" width="22" height="22" fill="#BBBBBB"/>
<rect x="282" y="265" width="22" height="22" fill="#BBBBBB"/>
<rect x="308" y="265" width="22" height="22" fill="#BBBBBB"/>
<rect x="282" y="291" width="22" height="22" fill="#BBBBBB"/>
<rect x="308" y="291" width="22" height="22" fill="#BBBBBB"/>
<rect x="334" y="265" width="22" height="22" fill="#BBBBBB"/>
<rect x="360" y="265" width="22" height="22" fill="#BBBBBB"/>
<rect x="334" y="291" width="22" height="22" fill="#BBBBBB"/>
<rect x="360" y="291" width="22" height="22" fill="#BBBBBB"/>
<rect x="386" y="265" width="22" height="22" fill="#BBBBBB"/>
<rect x="412" y="265" width="22" height="22" fill="#BBBBBB"/>
<rect x="386" y="291" width="22" height="22" fill="#BBBBBB"/>
<rect x="412" y="291" width="22" height="22" fill="#BBBBBB"/>
<rect x="438" y="265" width="22" height="22" fill="#BBBBBB"/>
<rect x="464" y="265" width="22" height="22" fill="#BBBBBB"/>
<rect x="438" y="291" width="22" height="22" fill="#BBBBBB"/>
<rect x="464" y="291" width="22" height="22" fill="#BBBBBB"/>
<rect x="490" y="265" width="22" height="22" fill="#BBBBBB"/>
<rect x="516" y="265" width="22" height="22" fill="#BBBBBB"/>
<rect x="490" y="291" width="22" height="22" fill="#BBBBBB"/>
<rect x="516" y="291" width="22" height="22" fill="#BBBBBB"/>
<rect x="542" y="265" width="22" height="22" fill="#BBBBBB"/>
<rect x="568" y="265" width="22" height="22" fill="#BBBBBB"/>
<rect x="542" y="291" width="22" height="22" fill="#BBBBBB"/>
<rect x="568" y="291" width="22" height="22" fill="#BBBBBB"/>
<rect x="594" y="265" width="22" height="22" fill="#BBBBBB"/>
<rect x="620" y="265" width="22" height="22" fill="#BBBBBB"/>
<rect x="594" y="291" width="22" height="22" fill="#BBBBBB"/>
<rect x="620" y="291" width="22" height="22" fill="#BBBBBB"/>
<rect x="230" y="317" width="22" height="22" fill="#BBBBBB"/>
<rect x="256" y="317" width="22" height="22" fill="#BBBBBB"/>
<rect x="230" y="343" width="22" height="22" fill="#BBBBBB"/>
<rect x="256" y="343" width="22" height="22" fill="#BBBBBB"/>
<rect x="282" y="318" width="22" height="22" fill="#BBBBBB"/>
<rect x="308" y="317" width="22" height="22" fill="#BBBBBB"/>
<rect x="282" y="343" width="22" height="22" fill="#BBBBBB"/>
<rect x="308" y="343" width="22" height="22" fill="#BBBBBB"/>
<rect x="334" y="317" width="22" height="22" fill="#BBBBBB"/>
<rect x="360" y="317" width="22" height="22" fill="#BBBBBB"/>
<rect x="334" y="343" width="22" height="22" fill="#BBBBBB"/>
<rect x="360" y="343" width="22" height="22" fill="#BBBBBB"/>
<rect x="386" y="317" width="22" height="22" fill="#BBBBBB"/>
<rect x="412" y="317" width="22" height="22" fill="#BBBBBB"/>
<rect x="386" y="343" width="22" height="22" fill="#BBBBBB"/>
<rect x="412" y="343" width="22" height="22" fill="#BBBBBB"/>
<rect x="438" y="317" width="22" height="22" fill="#BBBBBB"/>
<rect x="464" y="317" width="22" height="22" fill="#BBBBBB"/>
<rect x="438" y="343" width="22" height="22" fill="#BBBBBB"/>
<rect x="464" y="343" width="22" height="22" fill="#BBBBBB"/>
<rect x="490" y="317" width="22" height="22" fill="#488DFF"/>
<rect x="516" y="317" width="22" height="22" fill="#BBBBBB"/>
<rect x="490" y="343" width="22" height="22" fill="#BBBBBB"/>
<rect x="516" y="343" width="22" height="22" fill="#BBBBBB"/>
<rect x="542" y="317" width="22" height="22" fill="#BBBBBB"/>
<rect x="568" y="317" width="22" height="22" fill="#BBBBBB"/>
<rect x="542" y="343" width="22" height="22" fill="#BBBBBB"/>
<rect x="568" y="343" width="22" height="22" fill="#BBBBBB"/>
<rect x="594" y="317" width="22" height="22" fill="#BBBBBB"/>
<rect x="620" y="317" width="22" height="22" fill="#BBBBBB"/>
<rect x="594" y="343" width="22" height="22" fill="#BBBBBB"/>
<rect x="620" y="343" width="22" height="22" fill="#BBBBBB"/>
<rect x="230" y="161" width="22" height="22" fill="#BBBBBB"/>
<rect x="256" y="161" width="22" height="22" fill="#BBBBBB"/>
<rect x="230" y="187" width="22" height="22" fill="#BBBBBB"/>
<rect x="256" y="187" width="22" height="22" fill="#BBBBBB"/>
<rect x="282" y="161" width="22" height="22" fill="#BBBBBB"/>
<rect x="308" y="161" width="22" height="22" fill="#BBBBBB"/>
<rect x="282" y="187" width="22" height="22" fill="#BBBBBB"/>
<rect x="308" y="187" width="22" height="22" fill="#BBBBBB"/>
<rect x="334" y="161" width="22" height="22" fill="#BBBBBB"/>
<rect x="360" y="161" width="22" height="22" fill="#BBBBBB"/>
<rect x="334" y="187" width="22" height="22" fill="#BBBBBB"/>
<rect x="360" y="187" width="22" height="22" fill="#BBBBBB"/>
<rect x="386" y="161" width="22" height="22" fill="#BBBBBB"/>
<rect x="412" y="161" width="22" height="22" fill="#BBBBBB"/>
<rect x="386" y="187" width="22" height="22" fill="#BBBBBB"/>
<rect x="412" y="187" width="22" height="22" fill="#BBBBBB"/>
<rect x="438" y="161" width="22" height="22" fill="#BBBBBB"/>
<rect x="464" y="161" width="22" height="22" fill="#BBBBBB"/>
<rect x="438" y="187" width="22" height="22" fill="#BBBBBB"/>
<rect x="464" y="187" width="22" height="22" fill="#BBBBBB"/>
<rect x="490" y="161" width="22" height="22" fill="#BBBBBB"/>
<rect x="516" y="161" width="22" height="22" fill="#BBBBBB"/>
<rect x="490" y="187" width="22" height="22" fill="#BBBBBB"/>
<rect x="516" y="187" width="22" height="22" fill="#BBBBBB"/>
<rect x="542" y="161" width="22" height="22" fill="#BBBBBB"/>
<rect x="568" y="161" width="22" height="22" fill="#BBBBBB"/>
<rect x="542" y="187" width="22" height="22" fill="#BBBBBB"/>
<rect x="568" y="187" width="22" height="22" fill="#BBBBBB"/>
<rect x="594" y="161" width="22" height="22" fill="#BBBBBB"/>
<rect x="620" y="161" width="22" height="22" fill="#BBBBBB"/>
<rect x="594" y="187" width="22" height="22" fill="#BBBBBB"/>
<rect x="620" y="187" width="22" height="22" fill="#BBBBBB"/>
<rect x="230" y="213" width="22" height="22" fill="#BBBBBB"/>
<rect x="256" y="213" width="22" height="22" fill="#BBBBBB"/>
<rect x="230" y="239" width="22" height="22" fill="#BBBBBB"/>
<rect x="256" y="239" width="22" height="22" fill="#BBBBBB"/>
<rect x="282" y="213" width="22" height="22" fill="#BBBBBB"/>
<rect x="308" y="213" width="22" height="22" fill="#BBBBBB"/>
<rect x="282" y="239" width="22" height="22" fill="#BBBBBB"/>
<rect x="308" y="239" width="22" height="22" fill="#BBBBBB"/>
<rect x="334" y="213" width="22" height="22" fill="#BBBBBB"/>
<rect x="360" y="213" width="22" height="22" fill="#BBBBBB"/>
<rect x="334" y="239" width="22" height="22" fill="#BBBBBB"/>
<rect x="360" y="239" width="22" height="22" fill="#BBBBBB"/>
<rect x="386" y="213" width="22" height="22" fill="#BBBBBB"/>
<rect x="412" y="213" width="22" height="22" fill="#BBBBBB"/>
<rect x="386" y="239" width="22" height="22" fill="#BBBBBB"/>
<rect x="412" y="239" width="22" height="22" fill="#BBBBBB"/>
<rect x="438" y="213" width="22" height="22" fill="#BBBBBB"/>
<rect x="464" y="213" width="22" height="22" fill="#BBBBBB"/>
<rect x="438" y="239" width="22" height="22" fill="#BBBBBB"/>
<rect x="464" y="239" width="22" height="22" fill="#BBBBBB"/>
<rect x="490" y="213" width="22" height="22" fill="#BBBBBB"/>
<rect x="516" y="213" width="22" height="22" fill="#BBBBBB"/>
<rect x="490" y="239" width="22" height="22" fill="#BBBBBB"/>
<rect x="516" y="239" width="22" height="22" fill="#BBBBBB"/>
<rect x="542" y="213" width="22" height="22" fill="#BBBBBB"/>
<rect x="568" y="213" width="22" height="22" fill="#BBBBBB"/>
<rect x="542" y="239" width="22" height="22" fill="#BBBBBB"/>
<rect x="568" y="239" width="22" height="22" fill="#BBBBBB"/>
<rect x="594" y="213" width="22" height="22" fill="#BBBBBB"/>
<rect x="620" y="213" width="22" height="22" fill="#BBBBBB"/>
<rect x="594" y="239" width="22" height="22" fill="#BBBBBB"/>
<path d="M122.059 63.3613C122.059 64.6309 121.842 65.5742 121.408 66.1914C120.975 66.8086 120.297 67.1172 119.375 67.1172C118.465 67.1172 117.791 66.8164 117.354 66.2148C116.916 65.6094 116.689 64.707 116.674 63.5078V62.0605C116.674 60.8066 116.891 59.875 117.324 59.2656C117.758 58.6562 118.438 58.3516 119.363 58.3516C120.281 58.3516 120.957 58.6465 121.391 59.2363C121.824 59.8223 122.047 60.7285 122.059 61.9551V63.3613ZM120.975 61.8789C120.975 60.9609 120.846 60.293 120.588 59.875C120.33 59.4531 119.922 59.2422 119.363 59.2422C118.809 59.2422 118.404 59.4512 118.15 59.8691C117.896 60.2871 117.766 60.9297 117.758 61.7969V63.5312C117.758 64.4531 117.891 65.1348 118.156 65.5762C118.426 66.0137 118.832 66.2324 119.375 66.2324C119.91 66.2324 120.307 66.0254 120.564 65.6113C120.826 65.1973 120.963 64.5449 120.975 63.6543V61.8789Z" fill="black"/>
<path d="M122.059 83.3613C122.059 84.6309 121.842 85.5742 121.408 86.1914C120.975 86.8086 120.297 87.1172 119.375 87.1172C118.465 87.1172 117.791 86.8164 117.354 86.2148C116.916 85.6094 116.689 84.707 116.674 83.5078V82.0605C116.674 80.8066 116.891 79.875 117.324 79.2656C117.758 78.6562 118.438 78.3516 119.363 78.3516C120.281 78.3516 120.957 78.6465 121.391 79.2363C121.824 79.8223 122.047 80.7285 122.059 81.9551V83.3613ZM120.975 81.8789C120.975 80.9609 120.846 80.293 120.588 79.875C120.33 79.4531 119.922 79.2422 119.363 79.2422C118.809 79.2422 118.404 79.4512 118.15 79.8691C117.896 80.2871 117.766 80.9297 117.758 81.7969V83.5312C117.758 84.4531 117.891 85.1348 118.156 85.5762C118.426 86.0137 118.832 86.2324 119.375 86.2324C119.91 86.2324 120.307 86.0254 120.564 85.6113C120.826 85.1973 120.963 84.5449 120.975 83.6543V81.8789Z" fill="black"/>
<path d="M123.059 123.361C123.059 124.631 122.842 125.574 122.408 126.191C121.975 126.809 121.297 127.117 120.375 127.117C119.465 127.117 118.791 126.816 118.354 126.215C117.916 125.609 117.689 124.707 117.674 123.508V122.061C117.674 120.807 117.891 119.875 118.324 119.266C118.758 118.656 119.438 118.352 120.363 118.352C121.281 118.352 121.957 118.646 122.391 119.236C122.824 119.822 123.047 120.729 123.059 121.955V123.361ZM121.975 121.879C121.975 120.961 121.846 120.293 121.588 119.875C121.33 119.453 120.922 119.242 120.363 119.242C119.809 119.242 119.404 119.451 119.15 119.869C118.896 120.287 118.766 120.93 118.758 121.797V123.531C118.758 124.453 118.891 125.135 119.156 125.576C119.426 126.014 119.832 126.232 120.375 126.232C120.91 126.232 121.307 126.025 121.564 125.611C121.826 125.197 121.963 124.545 121.975 123.654V121.879Z" fill="black"/>
<path d="M120.271 107H119.182V99.7754L116.996 100.578V99.5938L120.102 98.4277H120.271V107Z" fill="black"/>
<path d="M121.271 145H120.182V137.775L117.996 138.578V137.594L121.102 136.428H121.271V145Z" fill="black"/>
<path d="M123.059 161.361C123.059 162.631 122.842 163.574 122.408 164.191C121.975 164.809 121.297 165.117 120.375 165.117C119.465 165.117 118.791 164.816 118.354 164.215C117.916 163.609 117.689 162.707 117.674 161.508V160.061C117.674 158.807 117.891 157.875 118.324 157.266C118.758 156.656 119.438 156.352 120.363 156.352C121.281 156.352 121.957 156.646 122.391 157.236C122.824 157.822 123.047 158.729 123.059 159.955V161.361ZM121.975 159.879C121.975 158.961 121.846 158.293 121.588 157.875C121.33 157.453 120.922 157.242 120.363 157.242C119.809 157.242 119.404 157.451 119.15 157.869C118.896 158.287 118.766 158.93 118.758 159.797V161.531C118.758 162.453 118.891 163.135 119.156 163.576C119.426 164.014 119.832 164.232 120.375 164.232C120.91 164.232 121.307 164.025 121.564 163.611C121.826 163.197 121.963 162.545 121.975 161.654V159.879Z" fill="black"/>
<path d="M124.059 201.361C124.059 202.631 123.842 203.574 123.408 204.191C122.975 204.809 122.297 205.117 121.375 205.117C120.465 205.117 119.791 204.816 119.354 204.215C118.916 203.609 118.689 202.707 118.674 201.508V200.061C118.674 198.807 118.891 197.875 119.324 197.266C119.758 196.656 120.438 196.352 121.363 196.352C122.281 196.352 122.957 196.646 123.391 197.236C123.824 197.822 124.047 198.729 124.059 199.955V201.361ZM122.975 199.879C122.975 198.961 122.846 198.293 122.588 197.875C122.33 197.453 121.922 197.242 121.363 197.242C120.809 197.242 120.404 197.451 120.15 197.869C119.896 198.287 119.766 198.93 119.758 199.797V201.531C119.758 202.453 119.891 203.135 120.156 203.576C120.426 204.014 120.832 204.232 121.375 204.232C121.91 204.232 122.307 204.025 122.564 203.611C122.826 203.197 122.963 202.545 122.975 201.654V199.879Z" fill="black"/>
<path d="M121.271 185H120.182V177.775L117.996 178.578V177.594L121.102 176.428H121.271V185Z" fill="black"/>
<path d="M31.2715 463H30.1816V455.775L27.9961 456.578V455.594L31.1016 454.428H31.2715V463Z" fill="black"/>
<path d="M31.2715 429H30.1816V421.775L27.9961 422.578V421.594L31.1016 420.428H31.2715V429Z" fill="black"/>
<path d="M121.059 259.361C121.059 260.631 120.842 261.574 120.408 262.191C119.975 262.809 119.297 263.117 118.375 263.117C117.465 263.117 116.791 262.816 116.354 262.215C115.916 261.609 115.689 260.707 115.674 259.508V258.061C115.674 256.807 115.891 255.875 116.324 255.266C116.758 254.656 117.438 254.352 118.363 254.352C119.281 254.352 119.957 254.646 120.391 255.236C120.824 255.822 121.047 256.729 121.059 257.955V259.361ZM119.975 257.879C119.975 256.961 119.846 256.293 119.588 255.875C119.33 255.453 118.922 255.242 118.363 255.242C117.809 255.242 117.404 255.451 117.15 255.869C116.896 256.287 116.766 256.93 116.758 257.797V259.531C116.758 260.453 116.891 261.135 117.156 261.576C117.426 262.014 117.832 262.232 118.375 262.232C118.91 262.232 119.307 262.025 119.564 261.611C119.826 261.197 119.963 260.545 119.975 259.654V257.879Z" fill="black"/>
<path d="M122.059 299.361C122.059 300.631 121.842 301.574 121.408 302.191C120.975 302.809 120.297 303.117 119.375 303.117C118.465 303.117 117.791 302.816 117.354 302.215C116.916 301.609 116.689 300.707 116.674 299.508V298.061C116.674 296.807 116.891 295.875 117.324 295.266C117.758 294.656 118.438 294.352 119.363 294.352C120.281 294.352 120.957 294.646 121.391 295.236C121.824 295.822 122.047 296.729 122.059 297.955V299.361ZM120.975 297.879C120.975 296.961 120.846 296.293 120.588 295.875C120.33 295.453 119.922 295.242 119.363 295.242C118.809 295.242 118.404 295.451 118.15 295.869C117.896 296.287 117.766 296.93 117.758 297.797V299.531C117.758 300.453 117.891 301.135 118.156 301.576C118.426 302.014 118.832 302.232 119.375 302.232C119.91 302.232 120.307 302.025 120.564 301.611C120.826 301.197 120.963 300.545 120.975 299.654V297.879Z" fill="black"/>
<path d="M119.271 283H118.182V275.775L115.996 276.578V275.594L119.102 274.428H119.271V283Z" fill="black"/>
<path d="M120.271 321H119.182V313.775L116.996 314.578V313.594L120.102 312.428H120.271V321Z" fill="black"/>
<path d="M122.059 337.361C122.059 338.631 121.842 339.574 121.408 340.191C120.975 340.809 120.297 341.117 119.375 341.117C118.465 341.117 117.791 340.816 117.354 340.215C116.916 339.609 116.689 338.707 116.674 337.508V336.061C116.674 334.807 116.891 333.875 117.324 333.266C117.758 332.656 118.438 332.352 119.363 332.352C120.281 332.352 120.957 332.646 121.391 333.236C121.824 333.822 122.047 334.729 122.059 335.955V337.361ZM120.975 335.879C120.975 334.961 120.846 334.293 120.588 333.875C120.33 333.453 119.922 333.242 119.363 333.242C118.809 333.242 118.404 333.451 118.15 333.869C117.896 334.287 117.766 334.93 117.758 335.797V337.531C117.758 338.453 117.891 339.135 118.156 339.576C118.426 340.014 118.832 340.232 119.375 340.232C119.91 340.232 120.307 340.025 120.564 339.611C120.826 339.197 120.963 338.545 120.975 337.654V335.879Z" fill="black"/>
<path d="M123.059 377.361C123.059 378.631 122.842 379.574 122.408 380.191C121.975 380.809 121.297 381.117 120.375 381.117C119.465 381.117 118.791 380.816 118.354 380.215C117.916 379.609 117.689 378.707 117.674 377.508V376.061C117.674 374.807 117.891 373.875 118.324 373.266C118.758 372.656 119.438 372.352 120.363 372.352C121.281 372.352 121.957 372.646 122.391 373.236C122.824 373.822 123.047 374.729 123.059 375.955V377.361ZM121.975 375.879C121.975 374.961 121.846 374.293 121.588 373.875C121.33 373.453 120.922 373.242 120.363 373.242C119.809 373.242 119.404 373.451 119.15 373.869C118.896 374.287 118.766 374.93 118.758 375.797V377.531C118.758 378.453 118.891 379.135 119.156 379.576C119.426 380.014 119.832 380.232 120.375 380.232C120.91 380.232 121.307 380.025 121.564 379.611C121.826 379.197 121.963 378.545 121.975 377.654V375.879Z" fill="black"/>
<path d="M120.271 361H119.182V353.775L116.996 354.578V353.594L120.102 352.428H120.271V361Z" fill="black"/>
<path d="M119.271 243H118.182V235.775L115.996 236.578V235.594L119.102 234.428H119.271V243Z" fill="black"/>
<line x1="86.5" y1="232" x2="86.5" y2="306" stroke="black"/>
<line x1="86" y1="305.5" x2="94" y2="305.5" stroke="black"/>
<line x1="86" y1="231.5" x2="94" y2="231.5" stroke="black"/>
<line x1="86.5" y1="312" x2="86.5" y2="386" stroke="black"/>
<line x1="86" y1="385.5" x2="94" y2="385.5" stroke="black"/>
<line x1="86" y1="311.5" x2="94" y2="311.5" stroke="black"/>
<path d="M6.88477 257.633C6.7207 257.605 6.54297 257.592 6.35156 257.592C5.64062 257.592 5.1582 257.895 4.9043 258.5V263H3.82031V256.66H4.875L4.89258 257.393C5.24805 256.826 5.75195 256.543 6.4043 256.543C6.61523 256.543 6.77539 256.57 6.88477 256.625V257.633ZM7.48242 259.771C7.48242 259.15 7.60352 258.592 7.8457 258.096C8.0918 257.6 8.43164 257.217 8.86523 256.947C9.30273 256.678 9.80078 256.543 10.3594 256.543C11.2227 256.543 11.9199 256.842 12.4512 257.439C12.9863 258.037 13.2539 258.832 13.2539 259.824V259.9C13.2539 260.518 13.1348 261.072 12.8965 261.564C12.6621 262.053 12.3242 262.434 11.8828 262.707C11.4453 262.98 10.9414 263.117 10.3711 263.117C9.51172 263.117 8.81445 262.818 8.2793 262.221C7.74805 261.623 7.48242 260.832 7.48242 259.848V259.771ZM8.57227 259.9C8.57227 260.604 8.73438 261.168 9.05859 261.594C9.38672 262.02 9.82422 262.232 10.3711 262.232C10.9219 262.232 11.3594 262.018 11.6836 261.588C12.0078 261.154 12.1699 260.549 12.1699 259.771C12.1699 259.076 12.0039 258.514 11.6719 258.084C11.3438 257.65 10.9062 257.434 10.3594 257.434C9.82422 257.434 9.39258 257.646 9.06445 258.072C8.73633 258.498 8.57227 259.107 8.57227 259.9ZM20.2266 261.506L21.4453 256.66H22.5293L20.6836 263H19.8047L18.2637 258.195L16.7637 263H15.8848L14.0449 256.66H15.123L16.3711 261.406L17.8477 256.66H18.7207L20.2266 261.506ZM23.6016 262.432C23.6016 262.244 23.6562 262.088 23.7656 261.963C23.8789 261.838 24.0469 261.775 24.2695 261.775C24.4922 261.775 24.6602 261.838 24.7734 261.963C24.8906 262.088 24.9492 262.244 24.9492 262.432C24.9492 262.611 24.8906 262.762 24.7734 262.883C24.6602 263.004 24.4922 263.064 24.2695 263.064C24.0469 263.064 23.8789 263.004 23.7656 262.883C23.6562 262.762 23.6016 262.611 23.6016 262.432ZM23.6074 257.258C23.6074 257.07 23.6621 256.914 23.7715 256.789C23.8848 256.664 24.0527 256.602 24.2754 256.602C24.498 256.602 24.666 256.664 24.7793 256.789C24.8965 256.914 24.9551 257.07 24.9551 257.258C24.9551 257.438 24.8965 257.588 24.7793 257.709C24.666 257.83 24.498 257.891 24.2754 257.891C24.0527 257.891 23.8848 257.83 23.7715 257.709C23.6621 257.588 23.6074 257.438 23.6074 257.258ZM35.9473 263H34.8574V255.775L32.6719 256.578V255.594L35.7773 254.428H35.9473V263ZM44.4727 259.361C44.4727 260.631 44.2559 261.574 43.8223 262.191C43.3887 262.809 42.7109 263.117 41.7891 263.117C40.8789 263.117 40.2051 262.816 39.7676 262.215C39.3301 261.609 39.1035 260.707 39.0879 259.508V258.061C39.0879 256.807 39.3047 255.875 39.7383 255.266C40.1719 254.656 40.8516 254.352 41.7773 254.352C42.6953 254.352 43.3711 254.646 43.8047 255.236C44.2383 255.822 44.4609 256.729 44.4727 257.955V259.361ZM43.3887 257.879C43.3887 256.961 43.2598 256.293 43.002 255.875C42.7441 255.453 42.3359 255.242 41.7773 255.242C41.2227 255.242 40.8184 255.451 40.5645 255.869C40.3105 256.287 40.1797 256.93 40.1719 257.797V259.531C40.1719 260.453 40.3047 261.135 40.5703 261.576C40.8398 262.014 41.2461 262.232 41.7891 262.232C42.3242 262.232 42.7207 262.025 42.9785 261.611C43.2402 261.197 43.377 260.545 43.3887 259.654V257.879Z" fill="black"/>
<path d="M3.36328 348.232C3.75 348.232 4.08789 348.115 4.37695 347.881C4.66602 347.646 4.82617 347.354 4.85742 347.002H5.88281C5.86328 347.365 5.73828 347.711 5.50781 348.039C5.27734 348.367 4.96875 348.629 4.58203 348.824C4.19922 349.02 3.79297 349.117 3.36328 349.117C2.5 349.117 1.8125 348.83 1.30078 348.256C0.792969 347.678 0.539062 346.889 0.539062 345.889V345.707C0.539062 345.09 0.652344 344.541 0.878906 344.061C1.10547 343.58 1.42969 343.207 1.85156 342.941C2.27734 342.676 2.7793 342.543 3.35742 342.543C4.06836 342.543 4.6582 342.756 5.12695 343.182C5.59961 343.607 5.85156 344.16 5.88281 344.84H4.85742C4.82617 344.43 4.66992 344.094 4.38867 343.832C4.11133 343.566 3.76758 343.434 3.35742 343.434C2.80664 343.434 2.37891 343.633 2.07422 344.031C1.77344 344.426 1.62305 344.998 1.62305 345.748V345.953C1.62305 346.684 1.77344 347.246 2.07422 347.641C2.375 348.035 2.80469 348.232 3.36328 348.232ZM6.81445 345.771C6.81445 345.15 6.93555 344.592 7.17773 344.096C7.42383 343.6 7.76367 343.217 8.19727 342.947C8.63477 342.678 9.13281 342.543 9.69141 342.543C10.5547 342.543 11.252 342.842 11.7832 343.439C12.3184 344.037 12.5859 344.832 12.5859 345.824V345.9C12.5859 346.518 12.4668 347.072 12.2285 347.564C11.9941 348.053 11.6562 348.434 11.2148 348.707C10.7773 348.98 10.2734 349.117 9.70312 349.117C8.84375 349.117 8.14648 348.818 7.61133 348.221C7.08008 347.623 6.81445 346.832 6.81445 345.848V345.771ZM7.9043 345.9C7.9043 346.604 8.06641 347.168 8.39062 347.594C8.71875 348.02 9.15625 348.232 9.70312 348.232C10.2539 348.232 10.6914 348.018 11.0156 347.588C11.3398 347.154 11.502 346.549 11.502 345.771C11.502 345.076 11.3359 344.514 11.0039 344.084C10.6758 343.65 10.2383 343.434 9.69141 343.434C9.15625 343.434 8.72461 343.646 8.39648 344.072C8.06836 344.498 7.9043 345.107 7.9043 345.9ZM15.123 349H14.0391V340H15.123V349ZM20.7773 348.373C20.3555 348.869 19.7363 349.117 18.9199 349.117C18.2441 349.117 17.7285 348.922 17.373 348.531C17.0215 348.137 16.8438 347.555 16.8398 346.785V342.66H17.9238V346.756C17.9238 347.717 18.3145 348.197 19.0957 348.197C19.9238 348.197 20.4746 347.889 20.748 347.271V342.66H21.832V349H20.8008L20.7773 348.373ZM24.5039 342.66L24.5332 343.363C24.998 342.816 25.625 342.543 26.4141 342.543C27.3008 342.543 27.9043 342.883 28.2246 343.562C28.4355 343.258 28.709 343.012 29.0449 342.824C29.3848 342.637 29.7852 342.543 30.2461 342.543C31.6367 342.543 32.3438 343.279 32.3672 344.752V349H31.2832V344.816C31.2832 344.363 31.1797 344.025 30.9727 343.803C30.7656 343.576 30.418 343.463 29.9297 343.463C29.5273 343.463 29.1934 343.584 28.9277 343.826C28.6621 344.064 28.5078 344.387 28.4648 344.793V349H27.375V344.846C27.375 343.924 26.9238 343.463 26.0215 343.463C25.3105 343.463 24.8242 343.766 24.5625 344.371V349H23.4785V342.66H24.5039ZM35.0332 342.66L35.0684 343.457C35.5527 342.848 36.1855 342.543 36.9668 342.543C38.3066 342.543 38.9824 343.299 38.9941 344.811V349H37.9102V344.805C37.9062 344.348 37.8008 344.01 37.5938 343.791C37.3906 343.572 37.0723 343.463 36.6387 343.463C36.2871 343.463 35.9785 343.557 35.7129 343.744C35.4473 343.932 35.2402 344.178 35.0918 344.482V349H34.0078V342.66H35.0332ZM40.5938 348.432C40.5938 348.244 40.6484 348.088 40.7578 347.963C40.8711 347.838 41.0391 347.775 41.2617 347.775C41.4844 347.775 41.6523 347.838 41.7656 347.963C41.8828 348.088 41.9414 348.244 41.9414 348.432C41.9414 348.611 41.8828 348.762 41.7656 348.883C41.6523 349.004 41.4844 349.064 41.2617 349.064C41.0391 349.064 40.8711 349.004 40.7578 348.883C40.6484 348.762 40.5938 348.611 40.5938 348.432ZM40.5996 343.258C40.5996 343.07 40.6543 342.914 40.7637 342.789C40.877 342.664 41.0449 342.602 41.2676 342.602C41.4902 342.602 41.6582 342.664 41.7715 342.789C41.8887 342.914 41.9473 343.07 41.9473 343.258C41.9473 343.438 41.8887 343.588 41.7715 343.709C41.6582 343.83 41.4902 343.891 41.2676 343.891C41.0449 343.891 40.877 343.83 40.7637 343.709C40.6543 343.588 40.5996 343.438 40.5996 343.258ZM52.9395 349H51.8496V341.775L49.6641 342.578V341.594L52.7695 340.428H52.9395V349ZM61.4648 345.361C61.4648 346.631 61.248 347.574 60.8145 348.191C60.3809 348.809 59.7031 349.117 58.7812 349.117C57.8711 349.117 57.1973 348.816 56.7598 348.215C56.3223 347.609 56.0957 346.707 56.0801 345.508V344.061C56.0801 342.807 56.2969 341.875 56.7305 341.266C57.1641 340.656 57.8438 340.352 58.7695 340.352C59.6875 340.352 60.3633 340.646 60.7969 341.236C61.2305 341.822 61.4531 342.729 61.4648 343.955V345.361ZM60.3809 343.879C60.3809 342.961 60.252 342.293 59.9941 341.875C59.7363 341.453 59.3281 341.242 58.7695 341.242C58.2148 341.242 57.8105 341.451 57.5566 341.869C57.3027 342.287 57.1719 342.93 57.1641 343.797V345.531C57.1641 346.453 57.2969 347.135 57.5625 347.576C57.832 348.014 58.2383 348.232 58.7812 348.232C59.3164 348.232 59.7129 348.025 59.9707 347.611C60.2324 347.197 60.3691 346.545 60.3809 345.654V343.879Z" fill="black"/>
<path d="M49.1191 417.034H47.1152V420.485H45.9844V411.954H48.8086C49.7695 411.954 50.5078 412.173 51.0234 412.61C51.543 413.048 51.8027 413.684 51.8027 414.52C51.8027 415.051 51.6582 415.514 51.3691 415.909C51.084 416.303 50.6855 416.598 50.1738 416.794L52.1777 420.415V420.485H50.9707L49.1191 417.034ZM47.1152 416.114H48.8438C49.4023 416.114 49.8457 415.969 50.1738 415.68C50.5059 415.391 50.6719 415.005 50.6719 414.52C50.6719 413.993 50.5137 413.589 50.1973 413.307C49.8848 413.026 49.4316 412.884 48.8379 412.88H47.1152V416.114ZM58.207 416.542H54.5098V419.565H58.8047V420.485H53.3848V411.954H58.7461V412.88H54.5098V415.622H58.207V416.542ZM64.916 418.259H61.3418L60.5391 420.485H59.3789L62.6367 411.954H63.6211L66.8848 420.485H65.7305L64.916 418.259ZM61.6816 417.333H64.582L63.1289 413.342L61.6816 417.333ZM68.0332 420.485V411.954H70.4414C71.1836 411.954 71.8398 412.118 72.4102 412.446C72.9805 412.774 73.4199 413.241 73.7285 413.846C74.041 414.452 74.1992 415.147 74.2031 415.932V416.477C74.2031 417.282 74.0469 417.987 73.7344 418.592C73.4258 419.198 72.9824 419.663 72.4043 419.987C71.8301 420.311 71.1602 420.477 70.3945 420.485H68.0332ZM69.1582 412.88V419.565H70.3418C71.209 419.565 71.8828 419.296 72.3633 418.757C72.8477 418.217 73.0898 417.45 73.0898 416.454V415.956C73.0898 414.987 72.8613 414.235 72.4043 413.7C71.9512 413.161 71.3066 412.887 70.4707 412.88H69.1582ZM78.9316 421.217H78L81.5625 411.954H82.4883L78.9316 421.217ZM88.6465 417.796L88.8105 418.921L89.0508 417.907L90.7383 411.954H91.6875L93.334 417.907L93.5684 418.938L93.75 417.79L95.0742 411.954H96.2051L94.1367 420.485H93.1113L91.3535 414.268L91.2188 413.618L91.084 414.268L89.2617 420.485H88.2363L86.1738 411.954H87.2988L88.6465 417.796ZM100.588 417.034H98.584V420.485H97.4531V411.954H100.277C101.238 411.954 101.977 412.173 102.492 412.61C103.012 413.048 103.271 413.684 103.271 414.52C103.271 415.051 103.127 415.514 102.838 415.909C102.553 416.303 102.154 416.598 101.643 416.794L103.646 420.415V420.485H102.439L100.588 417.034ZM98.584 416.114H100.312C100.871 416.114 101.314 415.969 101.643 415.68C101.975 415.391 102.141 415.005 102.141 414.52C102.141 413.993 101.982 413.589 101.666 413.307C101.354 413.026 100.9 412.884 100.307 412.88H98.584V416.114ZM106.061 420.485H104.936V411.954H106.061V420.485ZM113.842 412.88H111.1V420.485H109.98V412.88H107.244V411.954H113.842V412.88ZM119.93 416.542H116.232V419.565H120.527V420.485H115.107V411.954H120.469V412.88H116.232V415.622H119.93V416.542Z" fill="black"/>
<path d="M50.8125 448.057H47.1152V451.08H51.4102V452H45.9902V443.469H51.3516V444.395H47.1152V447.137H50.8125V448.057ZM59.3672 452H58.2363L53.9414 445.426V452H52.8105V443.469H53.9414L58.248 450.072V443.469H59.3672V452ZM66.1816 449.773H62.6074L61.8047 452H60.6445L63.9023 443.469H64.8867L68.1504 452H66.9961L66.1816 449.773ZM62.9473 448.848H65.8477L64.3945 444.857L62.9473 448.848ZM69.2988 452V443.469H72.0879C73.0137 443.469 73.709 443.66 74.1738 444.043C74.6426 444.426 74.877 444.992 74.877 445.742C74.877 446.141 74.7637 446.494 74.5371 446.803C74.3105 447.107 74.002 447.344 73.6113 447.512C74.0723 447.641 74.4355 447.887 74.7012 448.25C74.9707 448.609 75.1055 449.039 75.1055 449.539C75.1055 450.305 74.8574 450.906 74.3613 451.344C73.8652 451.781 73.1641 452 72.2578 452H69.2988ZM70.4238 448.01V451.08H72.2812C72.8047 451.08 73.2168 450.945 73.5176 450.676C73.8223 450.402 73.9746 450.027 73.9746 449.551C73.9746 448.523 73.416 448.01 72.2988 448.01H70.4238ZM70.4238 447.107H72.123C72.6152 447.107 73.0078 446.984 73.3008 446.738C73.5977 446.492 73.7461 446.158 73.7461 445.736C73.7461 445.268 73.6094 444.928 73.3359 444.717C73.0625 444.502 72.6465 444.395 72.0879 444.395H70.4238V447.107ZM77.9062 451.08H81.9492V452H76.7754V443.469H77.9062V451.08ZM88.0547 448.057H84.3574V451.08H88.6523V452H83.2324V443.469H88.5938V444.395H84.3574V447.137H88.0547V448.057Z" fill="black"/>
<rect x="620" y="239" width="22" height="22" fill="#BBBBBB"/>
<path d="M234.479 5.35938L239.593 18.1211L244.706 5.35938H247.381V21H245.318V14.9092L245.512 8.33496L240.377 21H238.798L233.674 8.36719L233.878 14.9092V21H231.815V5.35938H234.479ZM255.534 21.2148C253.959 21.2148 252.677 20.6992 251.688 19.668C250.7 18.6296 250.206 17.2438 250.206 15.5107V15.1455C250.206 13.9925 250.424 12.9648 250.861 12.0625C251.305 11.153 251.921 10.444 252.709 9.93555C253.504 9.41992 254.363 9.16211 255.287 9.16211C256.798 9.16211 257.973 9.65983 258.811 10.6553C259.648 11.6507 260.067 13.0758 260.067 14.9307V15.7578H252.193C252.222 16.9036 252.555 17.8311 253.192 18.54C253.837 19.2419 254.653 19.5928 255.642 19.5928C256.343 19.5928 256.938 19.4495 257.425 19.1631C257.912 18.8766 258.338 18.4971 258.703 18.0244L259.917 18.9697C258.943 20.4665 257.482 21.2148 255.534 21.2148ZM255.287 10.7949C254.485 10.7949 253.812 11.0885 253.268 11.6758C252.723 12.2559 252.387 13.0723 252.258 14.125H258.08V13.9746C258.023 12.9648 257.751 12.1842 257.264 11.6328C256.777 11.0742 256.118 10.7949 255.287 10.7949ZM264.246 9.37695L264.3 10.666C265.152 9.66341 266.301 9.16211 267.748 9.16211C269.374 9.16211 270.48 9.78516 271.067 11.0312C271.454 10.4727 271.955 10.0215 272.571 9.67773C273.194 9.33398 273.928 9.16211 274.773 9.16211C277.323 9.16211 278.619 10.512 278.662 13.2119V21H276.675V13.3301C276.675 12.4993 276.485 11.8799 276.105 11.4717C275.726 11.0563 275.089 10.8486 274.193 10.8486C273.456 10.8486 272.843 11.0706 272.356 11.5146C271.869 11.9515 271.587 12.5423 271.508 13.2871V21H269.51V13.3838C269.51 11.6937 268.683 10.8486 267.028 10.8486C265.725 10.8486 264.833 11.4036 264.354 12.5137V21H262.366V9.37695H264.246ZM281.144 15.0811C281.144 13.9424 281.366 12.9183 281.81 12.0088C282.261 11.0993 282.884 10.3975 283.679 9.90332C284.481 9.40918 285.394 9.16211 286.418 9.16211C288.001 9.16211 289.279 9.70996 290.253 10.8057C291.234 11.9014 291.725 13.3587 291.725 15.1777V15.3174C291.725 16.4489 291.506 17.4658 291.069 18.3682C290.64 19.2633 290.02 19.9616 289.211 20.4629C288.409 20.9642 287.485 21.2148 286.439 21.2148C284.864 21.2148 283.586 20.667 282.604 19.5713C281.631 18.4756 281.144 17.0254 281.144 15.2207V15.0811ZM283.142 15.3174C283.142 16.6064 283.439 17.6413 284.033 18.4219C284.635 19.2025 285.437 19.5928 286.439 19.5928C287.449 19.5928 288.251 19.1989 288.846 18.4111C289.44 17.6162 289.737 16.5062 289.737 15.0811C289.737 13.8063 289.433 12.7751 288.824 11.9873C288.223 11.1924 287.421 10.7949 286.418 10.7949C285.437 10.7949 284.646 11.1852 284.044 11.9658C283.442 12.7464 283.142 13.8636 283.142 15.3174ZM299.835 11.1602C299.534 11.11 299.208 11.085 298.857 11.085C297.554 11.085 296.67 11.64 296.204 12.75V21H294.217V9.37695H296.15L296.183 10.7197C296.834 9.68132 297.758 9.16211 298.954 9.16211C299.341 9.16211 299.634 9.21224 299.835 9.3125V11.1602ZM305.668 18.0889L308.375 9.37695H310.502L305.829 22.7939C305.106 24.7275 303.956 25.6943 302.381 25.6943L302.005 25.6621L301.264 25.5225V23.9111L301.801 23.9541C302.474 23.9541 302.997 23.818 303.369 23.5459C303.749 23.2738 304.06 22.776 304.304 22.0527L304.744 20.8711L300.598 9.37695H302.768L305.668 18.0889ZM318.054 21V5.35938H323.167C324.864 5.35938 326.139 5.71029 326.991 6.41211C327.851 7.11393 328.28 8.15234 328.28 9.52734C328.28 10.2578 328.073 10.9059 327.657 11.4717C327.242 12.0303 326.676 12.4635 325.96 12.7715C326.805 13.0078 327.471 13.459 327.958 14.125C328.452 14.7839 328.699 15.5716 328.699 16.4883C328.699 17.8919 328.244 18.9948 327.335 19.7969C326.425 20.599 325.14 21 323.479 21H318.054ZM320.116 13.6846V19.3135H323.521C324.481 19.3135 325.237 19.0664 325.788 18.5723C326.347 18.071 326.626 17.3835 326.626 16.5098C326.626 14.6263 325.602 13.6846 323.554 13.6846H320.116ZM320.116 12.0303H323.231C324.134 12.0303 324.854 11.8047 325.391 11.3535C325.935 10.9023 326.207 10.29 326.207 9.5166C326.207 8.65723 325.956 8.03418 325.455 7.64746C324.954 7.25358 324.191 7.05664 323.167 7.05664H320.116V12.0303ZM338.625 21C338.51 20.7708 338.417 20.3626 338.346 19.7754C337.422 20.735 336.319 21.2148 335.037 21.2148C333.891 21.2148 332.95 20.8926 332.212 20.248C331.481 19.5964 331.116 18.7728 331.116 17.7773C331.116 16.5671 331.575 15.6289 332.491 14.9629C333.415 14.2897 334.711 13.9531 336.38 13.9531H338.313V13.04C338.313 12.3454 338.106 11.7939 337.69 11.3857C337.275 10.9704 336.663 10.7627 335.854 10.7627C335.145 10.7627 334.55 10.9417 334.07 11.2998C333.59 11.6579 333.351 12.0911 333.351 12.5996H331.353C331.353 12.0195 331.557 11.4609 331.965 10.9238C332.38 10.3796 332.939 9.94987 333.641 9.63477C334.35 9.31966 335.127 9.16211 335.972 9.16211C337.311 9.16211 338.36 9.4987 339.119 10.1719C339.878 10.8379 340.272 11.7581 340.301 12.9326V18.2822C340.301 19.3493 340.437 20.1979 340.709 20.8281V21H338.625ZM335.327 19.4854C335.95 19.4854 336.541 19.3242 337.1 19.002C337.658 18.6797 338.063 18.2607 338.313 17.7451V15.3604H336.756C334.321 15.3604 333.104 16.0729 333.104 17.498C333.104 18.1211 333.311 18.6081 333.727 18.959C334.142 19.3099 334.675 19.4854 335.327 19.4854ZM345.296 9.37695L345.36 10.8379C346.248 9.7207 347.409 9.16211 348.841 9.16211C351.297 9.16211 352.536 10.5479 352.558 13.3193V21H350.57V13.3086C350.563 12.4707 350.37 11.8512 349.99 11.4502C349.618 11.0492 349.034 10.8486 348.239 10.8486C347.595 10.8486 347.029 11.0205 346.542 11.3643C346.055 11.708 345.675 12.1592 345.403 12.7178V21H343.416V9.37695H345.296ZM358.799 15.6182L357.553 16.918V21H355.565V4.5H357.553V14.4795L358.616 13.2012L362.236 9.37695H364.653L360.131 14.2324L365.18 21H362.849L358.799 15.6182ZM382.453 18.2607L384.688 9.37695H386.675L383.291 21H381.68L378.854 12.1914L376.104 21H374.493L371.12 9.37695H373.097L375.385 18.0781L378.092 9.37695H379.692L382.453 18.2607ZM390.864 21H388.877V9.37695H390.864V21ZM388.716 6.29395C388.716 5.97168 388.812 5.69954 389.006 5.47754C389.206 5.25553 389.5 5.14453 389.887 5.14453C390.273 5.14453 390.567 5.25553 390.768 5.47754C390.968 5.69954 391.068 5.97168 391.068 6.29395C391.068 6.61621 390.968 6.88477 390.768 7.09961C390.567 7.31445 390.273 7.42188 389.887 7.42188C389.5 7.42188 389.206 7.31445 389.006 7.09961C388.812 6.88477 388.716 6.61621 388.716 6.29395ZM396.751 6.5625V9.37695H398.921V10.9131H396.751V18.1211C396.751 18.5866 396.848 18.9375 397.041 19.1738C397.234 19.403 397.564 19.5176 398.029 19.5176C398.258 19.5176 398.574 19.4746 398.975 19.3887V21C398.452 21.1432 397.943 21.2148 397.449 21.2148C396.561 21.2148 395.892 20.9463 395.44 20.4092C394.989 19.8721 394.764 19.1094 394.764 18.1211V10.9131H392.647V9.37695H394.764V6.5625H396.751ZM403.239 10.7842C404.12 9.7028 405.266 9.16211 406.677 9.16211C409.133 9.16211 410.372 10.5479 410.394 13.3193V21H408.406V13.3086C408.399 12.4707 408.206 11.8512 407.826 11.4502C407.454 11.0492 406.87 10.8486 406.075 10.8486C405.431 10.8486 404.865 11.0205 404.378 11.3643C403.891 11.708 403.511 12.1592 403.239 12.7178V21H401.252V4.5H403.239V10.7842ZM428.87 21H418.622V19.5713L424.036 13.5557C424.838 12.6462 425.39 11.9085 425.69 11.3428C425.998 10.7699 426.152 10.179 426.152 9.57031C426.152 8.75391 425.905 8.08431 425.411 7.56152C424.917 7.03874 424.258 6.77734 423.435 6.77734C422.446 6.77734 421.676 7.06022 421.125 7.62598C420.581 8.18457 420.309 8.96517 420.309 9.96777H418.321C418.321 8.52832 418.783 7.36458 419.707 6.47656C420.638 5.58854 421.881 5.14453 423.435 5.14453C424.888 5.14453 426.038 5.52767 426.883 6.29395C427.728 7.05306 428.15 8.06641 428.15 9.33398C428.15 10.8737 427.169 12.707 425.207 14.834L421.018 19.3779H428.87V21ZM431.889 13.1582L432.684 5.35938H440.697V7.19629H434.37L433.897 11.4609C434.664 11.0098 435.534 10.7842 436.508 10.7842C437.933 10.7842 439.064 11.2568 439.902 12.2021C440.74 13.1403 441.159 14.4115 441.159 16.0156C441.159 17.627 440.722 18.8981 439.849 19.8291C438.982 20.7529 437.768 21.2148 436.207 21.2148C434.825 21.2148 433.697 20.8317 432.823 20.0654C431.95 19.2992 431.452 18.2393 431.33 16.8857H433.21C433.332 17.7809 433.65 18.4577 434.166 18.916C434.682 19.3672 435.362 19.5928 436.207 19.5928C437.131 19.5928 437.854 19.2777 438.377 18.6475C438.907 18.0173 439.172 17.1471 439.172 16.0371C439.172 14.9915 438.885 14.1536 438.312 13.5234C437.747 12.8861 436.991 12.5674 436.046 12.5674C435.179 12.5674 434.499 12.7572 434.005 13.1367L433.479 13.5664L431.889 13.1582ZM451.128 5.34863V7.03516H450.763C449.216 7.0638 447.984 7.52214 447.067 8.41016C446.151 9.29818 445.621 10.5479 445.478 12.1592C446.301 11.2139 447.425 10.7412 448.851 10.7412C450.211 10.7412 451.296 11.221 452.105 12.1807C452.922 13.1403 453.33 14.3792 453.33 15.8975C453.33 17.5088 452.89 18.7979 452.009 19.7646C451.135 20.7314 449.961 21.2148 448.485 21.2148C446.989 21.2148 445.775 20.6419 444.844 19.4961C443.913 18.3431 443.447 16.8607 443.447 15.0488V14.2861C443.447 11.4072 444.06 9.20866 445.284 7.69043C446.516 6.16504 448.346 5.38444 450.773 5.34863H451.128ZM448.518 12.3955C447.837 12.3955 447.211 12.5996 446.638 13.0078C446.065 13.416 445.667 13.9281 445.445 14.5439V15.2744C445.445 16.5635 445.735 17.6019 446.315 18.3896C446.896 19.1774 447.619 19.5713 448.485 19.5713C449.381 19.5713 450.082 19.2419 450.591 18.583C451.106 17.9242 451.364 17.0612 451.364 15.9941C451.364 14.9199 451.103 14.0534 450.58 13.3945C450.064 12.7285 449.377 12.3955 448.518 12.3955ZM468.52 21C468.405 20.7708 468.312 20.3626 468.24 19.7754C467.316 20.735 466.214 21.2148 464.932 21.2148C463.786 21.2148 462.844 20.8926 462.106 20.248C461.376 19.5964 461.011 18.7728 461.011 17.7773C461.011 16.5671 461.469 15.6289 462.386 14.9629C463.31 14.2897 464.606 13.9531 466.274 13.9531H468.208V13.04C468.208 12.3454 468 11.7939 467.585 11.3857C467.17 10.9704 466.557 10.7627 465.748 10.7627C465.039 10.7627 464.445 10.9417 463.965 11.2998C463.485 11.6579 463.245 12.0911 463.245 12.5996H461.247C461.247 12.0195 461.451 11.4609 461.859 10.9238C462.275 10.3796 462.833 9.94987 463.535 9.63477C464.244 9.31966 465.021 9.16211 465.866 9.16211C467.205 9.16211 468.255 9.4987 469.014 10.1719C469.773 10.8379 470.167 11.7581 470.195 12.9326V18.2822C470.195 19.3493 470.331 20.1979 470.604 20.8281V21H468.52ZM465.222 19.4854C465.845 19.4854 466.436 19.3242 466.994 19.002C467.553 18.6797 467.957 18.2607 468.208 17.7451V15.3604H466.65C464.215 15.3604 462.998 16.0729 462.998 17.498C462.998 18.1211 463.206 18.6081 463.621 18.959C464.036 19.3099 464.57 19.4854 465.222 19.4854ZM472.827 15.0918C472.827 13.3086 473.25 11.8763 474.095 10.7949C474.94 9.70638 476.046 9.16211 477.414 9.16211C478.775 9.16211 479.853 9.6276 480.647 10.5586V4.5H482.635V21H480.809L480.712 19.7539C479.917 20.7279 478.811 21.2148 477.393 21.2148C476.046 21.2148 474.947 20.6634 474.095 19.5605C473.25 18.4577 472.827 17.0182 472.827 15.2422V15.0918ZM474.814 15.3174C474.814 16.6351 475.087 17.6663 475.631 18.4111C476.175 19.1559 476.927 19.5283 477.887 19.5283C479.147 19.5283 480.067 18.9626 480.647 17.8311V12.4922C480.053 11.3965 479.14 10.8486 477.908 10.8486C476.934 10.8486 476.175 11.2246 475.631 11.9766C475.087 12.7285 474.814 13.8421 474.814 15.3174ZM485.245 15.0918C485.245 13.3086 485.668 11.8763 486.513 10.7949C487.358 9.70638 488.464 9.16211 489.832 9.16211C491.193 9.16211 492.271 9.6276 493.065 10.5586V4.5H495.053V21H493.227L493.13 19.7539C492.335 20.7279 491.229 21.2148 489.811 21.2148C488.464 21.2148 487.365 20.6634 486.513 19.5605C485.668 18.4577 485.245 17.0182 485.245 15.2422V15.0918ZM487.232 15.3174C487.232 16.6351 487.505 17.6663 488.049 18.4111C488.593 19.1559 489.345 19.5283 490.305 19.5283C491.565 19.5283 492.485 18.9626 493.065 17.8311V12.4922C492.471 11.3965 491.558 10.8486 490.326 10.8486C489.352 10.8486 488.593 11.2246 488.049 11.9766C487.505 12.7285 487.232 13.8421 487.232 15.3174ZM503.765 11.1602C503.464 11.11 503.138 11.085 502.787 11.085C501.484 11.085 500.599 11.64 500.134 12.75V21H498.146V9.37695H500.08L500.112 10.7197C500.764 9.68132 501.688 9.16211 502.884 9.16211C503.271 9.16211 503.564 9.21224 503.765 9.3125V11.1602ZM510.21 21.2148C508.634 21.2148 507.353 20.6992 506.364 19.668C505.376 18.6296 504.882 17.2438 504.882 15.5107V15.1455C504.882 13.9925 505.1 12.9648 505.537 12.0625C505.981 11.153 506.597 10.444 507.385 9.93555C508.18 9.41992 509.039 9.16211 509.963 9.16211C511.474 9.16211 512.648 9.65983 513.486 10.6553C514.324 11.6507 514.743 13.0758 514.743 14.9307V15.7578H506.869C506.898 16.9036 507.231 17.8311 507.868 18.54C508.513 19.2419 509.329 19.5928 510.317 19.5928C511.019 19.5928 511.614 19.4495 512.101 19.1631C512.588 18.8766 513.014 18.4971 513.379 18.0244L514.593 18.9697C513.619 20.4665 512.158 21.2148 510.21 21.2148ZM509.963 10.7949C509.161 10.7949 508.488 11.0885 507.943 11.6758C507.399 12.2559 507.062 13.0723 506.934 14.125H512.756V13.9746C512.699 12.9648 512.426 12.1842 511.939 11.6328C511.452 11.0742 510.794 10.7949 509.963 10.7949ZM523.82 17.917C523.82 17.3799 523.616 16.9645 523.208 16.6709C522.807 16.3701 522.102 16.1123 521.092 15.8975C520.089 15.6826 519.291 15.4248 518.696 15.124C518.109 14.8232 517.672 14.4652 517.386 14.0498C517.106 13.6344 516.967 13.1403 516.967 12.5674C516.967 11.6149 517.368 10.8092 518.17 10.1504C518.979 9.49154 520.01 9.16211 521.264 9.16211C522.581 9.16211 523.648 9.50228 524.465 10.1826C525.288 10.863 525.7 11.7331 525.7 12.793H523.702C523.702 12.2487 523.469 11.7796 523.004 11.3857C522.546 10.9919 521.965 10.7949 521.264 10.7949C520.54 10.7949 519.975 10.9525 519.566 11.2676C519.158 11.5827 518.954 11.9945 518.954 12.5029C518.954 12.9827 519.144 13.3444 519.523 13.5879C519.903 13.8314 520.587 14.0641 521.575 14.2861C522.571 14.5081 523.376 14.7731 523.992 15.0811C524.608 15.389 525.063 15.7614 525.356 16.1982C525.657 16.6279 525.808 17.1543 525.808 17.7773C525.808 18.8158 525.392 19.6501 524.562 20.2803C523.731 20.9033 522.653 21.2148 521.328 21.2148C520.397 21.2148 519.574 21.0501 518.857 20.7207C518.141 20.3913 517.579 19.9329 517.171 19.3457C516.77 18.7513 516.569 18.1104 516.569 17.4229H518.557C518.592 18.0889 518.857 18.6188 519.352 19.0127C519.853 19.3994 520.512 19.5928 521.328 19.5928C522.08 19.5928 522.682 19.4424 523.133 19.1416C523.591 18.8337 523.82 18.4255 523.82 17.917ZM535.164 17.917C535.164 17.3799 534.96 16.9645 534.552 16.6709C534.151 16.3701 533.445 16.1123 532.436 15.8975C531.433 15.6826 530.634 15.4248 530.04 15.124C529.453 14.8232 529.016 14.4652 528.729 14.0498C528.45 13.6344 528.311 13.1403 528.311 12.5674C528.311 11.6149 528.712 10.8092 529.514 10.1504C530.323 9.49154 531.354 9.16211 532.607 9.16211C533.925 9.16211 534.992 9.50228 535.809 10.1826C536.632 10.863 537.044 11.7331 537.044 12.793H535.046C535.046 12.2487 534.813 11.7796 534.348 11.3857C533.889 10.9919 533.309 10.7949 532.607 10.7949C531.884 10.7949 531.318 10.9525 530.91 11.2676C530.502 11.5827 530.298 11.9945 530.298 12.5029C530.298 12.9827 530.488 13.3444 530.867 13.5879C531.247 13.8314 531.931 14.0641 532.919 14.2861C533.914 14.5081 534.72 14.7731 535.336 15.0811C535.952 15.389 536.407 15.7614 536.7 16.1982C537.001 16.6279 537.151 17.1543 537.151 17.7773C537.151 18.8158 536.736 19.6501 535.905 20.2803C535.075 20.9033 533.997 21.2148 532.672 21.2148C531.741 21.2148 530.917 21.0501 530.201 20.7207C529.485 20.3913 528.923 19.9329 528.515 19.3457C528.114 18.7513 527.913 18.1104 527.913 17.4229H529.9C529.936 18.0889 530.201 18.6188 530.695 19.0127C531.197 19.3994 531.855 19.5928 532.672 19.5928C533.424 19.5928 534.025 19.4424 534.477 19.1416C534.935 18.8337 535.164 18.4255 535.164 17.917ZM547.356 21H545.369V4.5H547.356V21ZM550.021 15.0811C550.021 13.9424 550.243 12.9183 550.687 12.0088C551.138 11.0993 551.761 10.3975 552.556 9.90332C553.358 9.40918 554.271 9.16211 555.295 9.16211C556.878 9.16211 558.156 9.70996 559.13 10.8057C560.111 11.9014 560.602 13.3587 560.602 15.1777V15.3174C560.602 16.4489 560.383 17.4658 559.946 18.3682C559.517 19.2633 558.897 19.9616 558.088 20.4629C557.286 20.9642 556.362 21.2148 555.316 21.2148C553.741 21.2148 552.463 20.667 551.481 19.5713C550.507 18.4756 550.021 17.0254 550.021 15.2207V15.0811ZM552.019 15.3174C552.019 16.6064 552.316 17.6413 552.91 18.4219C553.512 19.2025 554.314 19.5928 555.316 19.5928C556.326 19.5928 557.128 19.1989 557.723 18.4111C558.317 17.6162 558.614 16.5062 558.614 15.0811C558.614 13.8063 558.31 12.7751 557.701 11.9873C557.1 11.1924 556.298 10.7949 555.295 10.7949C554.314 10.7949 553.522 11.1852 552.921 11.9658C552.319 12.7464 552.019 13.8636 552.019 15.3174ZM567.756 19.5928C568.465 19.5928 569.084 19.3779 569.614 18.9482C570.144 18.5186 570.438 17.9814 570.495 17.3369H572.375C572.339 18.0029 572.11 18.6367 571.688 19.2383C571.265 19.8398 570.699 20.3197 569.99 20.6777C569.288 21.0358 568.544 21.2148 567.756 21.2148C566.173 21.2148 564.913 20.6885 563.975 19.6357C563.044 18.5758 562.578 17.1292 562.578 15.2959V14.9629C562.578 13.8314 562.786 12.8252 563.201 11.9443C563.617 11.0635 564.211 10.3796 564.984 9.89258C565.765 9.4056 566.685 9.16211 567.745 9.16211C569.049 9.16211 570.13 9.55241 570.989 10.333C571.856 11.1136 572.318 12.127 572.375 13.373H570.495C570.438 12.6211 570.151 12.0052 569.636 11.5254C569.127 11.0384 568.497 10.7949 567.745 10.7949C566.735 10.7949 565.951 11.1602 565.393 11.8906C564.841 12.6139 564.565 13.6631 564.565 15.0381V15.4141C564.565 16.7533 564.841 17.7845 565.393 18.5078C565.944 19.2311 566.732 19.5928 567.756 19.5928ZM581.785 21C581.671 20.7708 581.577 20.3626 581.506 19.7754C580.582 20.735 579.479 21.2148 578.197 21.2148C577.051 21.2148 576.11 20.8926 575.372 20.248C574.642 19.5964 574.276 18.7728 574.276 17.7773C574.276 16.5671 574.735 15.6289 575.651 14.9629C576.575 14.2897 577.871 13.9531 579.54 13.9531H581.474V13.04C581.474 12.3454 581.266 11.7939 580.851 11.3857C580.435 10.9704 579.823 10.7627 579.014 10.7627C578.305 10.7627 577.71 10.9417 577.23 11.2998C576.751 11.6579 576.511 12.0911 576.511 12.5996H574.513C574.513 12.0195 574.717 11.4609 575.125 10.9238C575.54 10.3796 576.099 9.94987 576.801 9.63477C577.51 9.31966 578.287 9.16211 579.132 9.16211C580.471 9.16211 581.52 9.4987 582.279 10.1719C583.038 10.8379 583.432 11.7581 583.461 12.9326V18.2822C583.461 19.3493 583.597 20.1979 583.869 20.8281V21H581.785ZM578.487 19.4854C579.11 19.4854 579.701 19.3242 580.26 19.002C580.818 18.6797 581.223 18.2607 581.474 17.7451V15.3604H579.916C577.481 15.3604 576.264 16.0729 576.264 17.498C576.264 18.1211 576.471 18.6081 576.887 18.959C577.302 19.3099 577.836 19.4854 578.487 19.4854ZM589.272 6.5625V9.37695H591.442V10.9131H589.272V18.1211C589.272 18.5866 589.369 18.9375 589.562 19.1738C589.756 19.403 590.085 19.5176 590.551 19.5176C590.78 19.5176 591.095 19.4746 591.496 19.3887V21C590.973 21.1432 590.465 21.2148 589.971 21.2148C589.083 21.2148 588.413 20.9463 587.962 20.4092C587.511 19.8721 587.285 19.1094 587.285 18.1211V10.9131H585.169V9.37695H587.285V6.5625H589.272ZM595.933 21H593.945V9.37695H595.933V21ZM593.784 6.29395C593.784 5.97168 593.881 5.69954 594.074 5.47754C594.275 5.25553 594.568 5.14453 594.955 5.14453C595.342 5.14453 595.635 5.25553 595.836 5.47754C596.036 5.69954 596.137 5.97168 596.137 6.29395C596.137 6.61621 596.036 6.88477 595.836 7.09961C595.635 7.31445 595.342 7.42188 594.955 7.42188C594.568 7.42188 594.275 7.31445 594.074 7.09961C593.881 6.88477 593.784 6.61621 593.784 6.29395ZM598.597 15.0811C598.597 13.9424 598.819 12.9183 599.263 12.0088C599.714 11.0993 600.337 10.3975 601.132 9.90332C601.934 9.40918 602.847 9.16211 603.871 9.16211C605.454 9.16211 606.732 9.70996 607.706 10.8057C608.687 11.9014 609.178 13.3587 609.178 15.1777V15.3174C609.178 16.4489 608.959 17.4658 608.522 18.3682C608.093 19.2633 607.473 19.9616 606.664 20.4629C605.862 20.9642 604.938 21.2148 603.893 21.2148C602.317 21.2148 601.039 20.667 600.058 19.5713C599.084 18.4756 598.597 17.0254 598.597 15.2207V15.0811ZM600.595 15.3174C600.595 16.6064 600.892 17.6413 601.486 18.4219C602.088 19.2025 602.89 19.5928 603.893 19.5928C604.902 19.5928 605.704 19.1989 606.299 18.4111C606.893 17.6162 607.19 16.5062 607.19 15.0811C607.19 13.8063 606.886 12.7751 606.277 11.9873C605.676 11.1924 604.874 10.7949 603.871 10.7949C602.89 10.7949 602.099 11.1852 601.497 11.9658C600.896 12.7464 600.595 13.8636 600.595 15.3174ZM613.55 9.37695L613.614 10.8379C614.502 9.7207 615.662 9.16211 617.095 9.16211C619.551 9.16211 620.79 10.5479 620.812 13.3193V21H618.824V13.3086C618.817 12.4707 618.624 11.8512 618.244 11.4502C617.872 11.0492 617.288 10.8486 616.493 10.8486C615.849 10.8486 615.283 11.0205 614.796 11.3643C614.309 11.708 613.929 12.1592 613.657 12.7178V21H611.67V9.37695H613.55ZM630.576 17.917C630.576 17.3799 630.372 16.9645 629.964 16.6709C629.563 16.3701 628.857 16.1123 627.848 15.8975C626.845 15.6826 626.047 15.4248 625.452 15.124C624.865 14.8232 624.428 14.4652 624.142 14.0498C623.862 13.6344 623.723 13.1403 623.723 12.5674C623.723 11.6149 624.124 10.8092 624.926 10.1504C625.735 9.49154 626.766 9.16211 628.02 9.16211C629.337 9.16211 630.404 9.50228 631.221 10.1826C632.044 10.863 632.456 11.7331 632.456 12.793H630.458C630.458 12.2487 630.225 11.7796 629.76 11.3857C629.301 10.9919 628.721 10.7949 628.02 10.7949C627.296 10.7949 626.73 10.9525 626.322 11.2676C625.914 11.5827 625.71 11.9945 625.71 12.5029C625.71 12.9827 625.9 13.3444 626.279 13.5879C626.659 13.8314 627.343 14.0641 628.331 14.2861C629.326 14.5081 630.132 14.7731 630.748 15.0811C631.364 15.389 631.819 15.7614 632.112 16.1982C632.413 16.6279 632.563 17.1543 632.563 17.7773C632.563 18.8158 632.148 19.6501 631.317 20.2803C630.487 20.9033 629.409 21.2148 628.084 21.2148C627.153 21.2148 626.329 21.0501 625.613 20.7207C624.897 20.3913 624.335 19.9329 623.927 19.3457C623.526 18.7513 623.325 18.1104 623.325 17.4229H625.312C625.348 18.0889 625.613 18.6188 626.107 19.0127C626.609 19.3994 627.268 19.5928 628.084 19.5928C628.836 19.5928 629.438 19.4424 629.889 19.1416C630.347 18.8337 630.576 18.4255 630.576 17.917Z" fill="black"/>
<path d="M85.5 409L119.5 409" stroke="black"/>
</svg>
