<svg width="863" height="677" viewBox="0 0 863 677" fill="none" xmlns="http://www.w3.org/2000/svg">
<rect x="333.5" y="72.5" width="135" height="240" fill="white" stroke="black"/>
<line x1="333.051" y1="105.5" x2="175" y2="105.5" stroke="black"/>
<line x1="175.5" y1="105" x2="175.5" y2="341" stroke="black"/>
<line x1="333.051" y1="169.5" x2="232" y2="169.5" stroke="black"/>
<line x1="232.5" y1="169" x2="232.5" y2="379" stroke="black"/>
<line x1="237" y1="340.5" x2="584" y2="340.5" stroke="black"/>
<line x1="583.5" y1="341" x2="583.5" y2="192" stroke="black"/>
<line x1="584" y1="191.5" x2="724" y2="191.5" stroke="black"/>
<line x1="723.5" y1="192" x2="723.5" y2="105" stroke="black"/>
<line x1="469" y1="104.5" x2="781" y2="104.5" stroke="black"/>
<path d="M633 69.4109L695.973 104.5L633 139.589V69.4109Z" fill="white" stroke="black"/>
<path d="M664.704 96.25L652.5 122.321L640.296 96.25H664.704Z" fill="white" stroke="black"/>
<ellipse cx="63" cy="449" rx="3" ry="4" fill="black"/>
<circle cx="723.5" cy="104" r="4" fill="black"/>
<circle cx="401" cy="465.5" r="4" fill="black"/>
<line x1="232" y1="378.5" x2="401" y2="378.5" stroke="black"/>
<line x1="401.5" y1="379" x2="401.5" y2="466" stroke="black"/>
<line x1="380" y1="465.5" x2="665" y2="465.5" stroke="black"/>
<line x1="664.5" y1="466" x2="664.5" y2="213" stroke="black"/>
<path d="M686.543 156.84L687.007 228.927L625.461 191.393L686.543 156.84Z" fill="white" stroke="black"/>
<path d="M678.792 197.649L650.092 199.863L666.775 176.405L678.792 197.649Z" fill="white" stroke="black"/>
<path d="M380 466C380 483.673 365.852 498 348.4 498C330.948 498 316.8 483.673 316.8 466C316.8 448.327 330.948 434 348.4 434C365.852 434 380 448.327 380 466Z" fill="white"/>
<path fill-rule="evenodd" clip-rule="evenodd" d="M348.4 497C365.307 497 379.013 483.121 379.013 466C379.013 448.879 365.307 435 348.4 435C331.493 435 317.788 448.879 317.788 466C317.788 483.121 331.493 497 348.4 497ZM348.4 498C365.852 498 380 483.673 380 466C380 448.327 365.852 434 348.4 434C330.948 434 316.8 448.327 316.8 466C316.8 483.673 330.948 498 348.4 498Z" fill="black"/>
<path d="M301 434H348V485V498H301V434Z" fill="white"/>
<line x1="301" y1="434.5" x2="348" y2="434.5" stroke="black"/>
<line x1="301.5" y1="434" x2="301.5" y2="498" stroke="black"/>
<line x1="301" y1="497.5" x2="349" y2="497.5" stroke="black"/>
<path d="M380 554C380 571.673 365.852 586 348.4 586C330.948 586 316.8 571.673 316.8 554C316.8 536.327 330.948 522 348.4 522C365.852 522 380 536.327 380 554Z" fill="white"/>
<path fill-rule="evenodd" clip-rule="evenodd" d="M348.4 585C365.307 585 379.013 571.121 379.013 554C379.013 536.879 365.307 523 348.4 523C331.493 523 317.788 536.879 317.788 554C317.788 571.121 331.493 585 348.4 585ZM348.4 586C365.852 586 380 571.673 380 554C380 536.327 365.852 522 348.4 522C330.948 522 316.8 536.327 316.8 554C316.8 571.673 330.948 586 348.4 586Z" fill="black"/>
<path d="M301 522H348V573V586H301V522Z" fill="white"/>
<line x1="301" y1="522.5" x2="348" y2="522.5" stroke="black"/>
<line x1="301.5" y1="522" x2="301.5" y2="586" stroke="black"/>
<line x1="301" y1="585.5" x2="349" y2="585.5" stroke="black"/>
<circle cx="267.5" cy="509.5" r="4" fill="black"/>
<line x1="302" y1="482.5" x2="267" y2="482.5" stroke="black"/>
<line x1="302" y1="536.5" x2="267" y2="536.5" stroke="black"/>
<line x1="267.5" y1="482" x2="267.5" y2="536" stroke="black"/>
<line x1="267" y1="509.825" x2="233" y2="509.825" stroke="black"/>
<circle cx="473.5" cy="249.5" r="4.5" stroke="black" stroke-width="2"/>
<path d="M477 249.5H554.5" stroke="black"/>
<path d="M237 341V341C236.27 335.889 228.908 335.917 228 341V341" stroke="black"/>
<path d="M728 151V151C727.27 145.889 719.908 145.917 719 151V151" stroke="black"/>
<line x1="175" y1="340.5" x2="228" y2="340.5" stroke="black"/>
<path d="M735.146 131V112.516H740.363C741.971 112.516 743.393 112.871 744.629 113.582C745.865 114.293 746.817 115.304 747.485 116.616C748.162 117.928 748.505 119.435 748.514 121.136V122.316C748.514 124.06 748.175 125.588 747.498 126.899C746.829 128.211 745.869 129.218 744.616 129.921C743.372 130.623 741.921 130.983 740.262 131H735.146ZM737.583 114.521V129.007H740.147C742.026 129.007 743.486 128.423 744.527 127.255C745.577 126.087 746.102 124.424 746.102 122.266V121.187C746.102 119.088 745.606 117.458 744.616 116.299C743.634 115.131 742.238 114.538 740.427 114.521H737.583ZM760.32 131C760.185 130.729 760.075 130.247 759.99 129.553C758.898 130.687 757.595 131.254 756.08 131.254C754.726 131.254 753.613 130.873 752.741 130.111C751.878 129.341 751.446 128.368 751.446 127.191C751.446 125.761 751.988 124.652 753.071 123.865C754.163 123.07 755.695 122.672 757.667 122.672H759.952V121.593C759.952 120.772 759.707 120.12 759.216 119.638C758.725 119.147 758.001 118.901 757.045 118.901C756.207 118.901 755.505 119.113 754.938 119.536C754.37 119.959 754.087 120.471 754.087 121.072H751.726C751.726 120.387 751.967 119.727 752.449 119.092C752.94 118.449 753.6 117.941 754.43 117.568C755.268 117.196 756.186 117.01 757.185 117.01C758.767 117.01 760.007 117.408 760.904 118.203C761.801 118.99 762.267 120.078 762.301 121.466V127.788C762.301 129.049 762.462 130.052 762.783 130.797V131H760.32ZM756.423 129.21C757.159 129.21 757.857 129.02 758.518 128.639C759.178 128.258 759.656 127.763 759.952 127.153V124.335H758.111C755.234 124.335 753.795 125.177 753.795 126.861C753.795 127.598 754.04 128.173 754.531 128.588C755.022 129.003 755.653 129.21 756.423 129.21ZM769.169 113.938V117.264H771.733V119.079H769.169V127.598C769.169 128.148 769.283 128.562 769.512 128.842C769.74 129.113 770.13 129.248 770.68 129.248C770.951 129.248 771.323 129.197 771.797 129.096V131C771.179 131.169 770.578 131.254 769.994 131.254C768.945 131.254 768.153 130.937 767.62 130.302C767.087 129.667 766.82 128.766 766.82 127.598V119.079H764.319V117.264H766.82V113.938H769.169ZM782.969 131C782.833 130.729 782.723 130.247 782.639 129.553C781.547 130.687 780.243 131.254 778.729 131.254C777.374 131.254 776.261 130.873 775.39 130.111C774.526 129.341 774.095 128.368 774.095 127.191C774.095 125.761 774.636 124.652 775.72 123.865C776.812 123.07 778.343 122.672 780.315 122.672H782.601V121.593C782.601 120.772 782.355 120.12 781.864 119.638C781.373 119.147 780.65 118.901 779.693 118.901C778.855 118.901 778.153 119.113 777.586 119.536C777.019 119.959 776.735 120.471 776.735 121.072H774.374C774.374 120.387 774.615 119.727 775.098 119.092C775.589 118.449 776.249 117.941 777.078 117.568C777.916 117.196 778.834 117.01 779.833 117.01C781.416 117.01 782.656 117.408 783.553 118.203C784.45 118.99 784.915 120.078 784.949 121.466V127.788C784.949 129.049 785.11 130.052 785.432 130.797V131H782.969ZM779.071 129.21C779.808 129.21 780.506 129.02 781.166 128.639C781.826 128.258 782.304 127.763 782.601 127.153V124.335H780.76C777.882 124.335 776.443 125.177 776.443 126.861C776.443 127.598 776.689 128.173 777.18 128.588C777.671 129.003 778.301 129.21 779.071 129.21ZM797.632 131H795.283V117.264H797.632V131ZM795.093 113.62C795.093 113.239 795.207 112.918 795.436 112.655C795.673 112.393 796.02 112.262 796.477 112.262C796.934 112.262 797.281 112.393 797.518 112.655C797.755 112.918 797.873 113.239 797.873 113.62C797.873 114.001 797.755 114.318 797.518 114.572C797.281 114.826 796.934 114.953 796.477 114.953C796.02 114.953 795.673 114.826 795.436 114.572C795.207 114.318 795.093 114.001 795.093 113.62ZM803.624 117.264L803.7 118.99C804.75 117.67 806.121 117.01 807.813 117.01C810.716 117.01 812.181 118.647 812.206 121.923V131H809.857V121.91C809.849 120.92 809.62 120.188 809.172 119.714C808.732 119.24 808.042 119.003 807.103 119.003C806.341 119.003 805.672 119.206 805.097 119.612C804.521 120.019 804.073 120.552 803.751 121.212V131H801.402V117.264H803.624ZM816.218 132.587H814.199L821.918 112.516H823.924L816.218 132.587ZM825.841 124.005C825.841 122.659 826.103 121.449 826.628 120.374C827.161 119.299 827.897 118.47 828.837 117.886C829.785 117.302 830.864 117.01 832.074 117.01C833.945 117.01 835.455 117.657 836.606 118.952C837.766 120.247 838.346 121.969 838.346 124.119V124.284C838.346 125.621 838.088 126.823 837.571 127.89C837.063 128.948 836.331 129.773 835.375 130.365C834.427 130.958 833.335 131.254 832.1 131.254C830.238 131.254 828.727 130.606 827.567 129.312C826.416 128.017 825.841 126.303 825.841 124.17V124.005ZM828.202 124.284C828.202 125.808 828.553 127.031 829.256 127.953C829.967 128.876 830.915 129.337 832.1 129.337C833.293 129.337 834.241 128.871 834.943 127.94C835.646 127.001 835.997 125.689 835.997 124.005C835.997 122.498 835.637 121.28 834.918 120.349C834.207 119.409 833.259 118.939 832.074 118.939C830.915 118.939 829.979 119.401 829.269 120.323C828.558 121.246 828.202 122.566 828.202 124.284ZM849.771 129.642C848.857 130.716 847.516 131.254 845.747 131.254C844.283 131.254 843.166 130.831 842.396 129.984C841.634 129.13 841.249 127.868 841.24 126.201V117.264H843.589V126.138C843.589 128.22 844.435 129.261 846.128 129.261C847.922 129.261 849.116 128.592 849.708 127.255V117.264H852.057V131H849.822L849.771 129.642ZM858.823 113.938V117.264H861.388V119.079H858.823V127.598C858.823 128.148 858.938 128.562 859.166 128.842C859.395 129.113 859.784 129.248 860.334 129.248C860.605 129.248 860.977 129.197 861.451 129.096V131C860.833 131.169 860.232 131.254 859.648 131.254C858.599 131.254 857.808 130.937 857.274 130.302C856.741 129.667 856.475 128.766 856.475 127.598V119.079H853.974V117.264H856.475V113.938H858.823Z" fill="black"/>
<path d="M366.34 191.837H358.583V200H356.146V181.516H367.597V183.521H358.583V189.844H366.34V191.837ZM372.7 200H370.352V180.5H372.7V200ZM379.022 200H376.674V186.264H379.022V200ZM376.483 182.62C376.483 182.239 376.598 181.918 376.826 181.655C377.063 181.393 377.41 181.262 377.867 181.262C378.324 181.262 378.671 181.393 378.908 181.655C379.145 181.918 379.264 182.239 379.264 182.62C379.264 183.001 379.145 183.318 378.908 183.572C378.671 183.826 378.324 183.953 377.867 183.953C377.41 183.953 377.063 183.826 376.826 183.572C376.598 183.318 376.483 183.001 376.483 182.62ZM394.396 193.284C394.396 195.375 393.918 197.059 392.962 198.337C392.006 199.615 390.711 200.254 389.077 200.254C387.41 200.254 386.098 199.725 385.142 198.667V205.281H382.793V186.264H384.938L385.053 187.787C386.009 186.602 387.338 186.01 389.039 186.01C390.689 186.01 391.993 186.632 392.949 187.876C393.914 189.12 394.396 190.851 394.396 193.068V193.284ZM392.048 193.018C392.048 191.469 391.718 190.246 391.058 189.349C390.397 188.451 389.492 188.003 388.341 188.003C386.919 188.003 385.853 188.633 385.142 189.895V196.458C385.844 197.711 386.919 198.337 388.366 198.337C389.492 198.337 390.385 197.893 391.045 197.004C391.714 196.107 392.048 194.778 392.048 193.018ZM402.28 193.106H396.085V191.189H402.28V193.106ZM413.16 182.493C412.111 182.324 411.264 182.239 410.621 182.239C408.928 182.239 408.082 183.128 408.082 184.905V186.264H411.015V188.079H408.082V200H405.733V188.079H403.562V186.264H405.733V184.766C405.742 183.301 406.152 182.18 406.965 181.401C407.777 180.623 408.933 180.233 410.431 180.233C411.285 180.233 412.978 180.492 415.509 181.008V200H413.16V182.493ZM418.733 193.005C418.733 191.659 418.996 190.449 419.521 189.374C420.054 188.299 420.79 187.47 421.729 186.886C422.677 186.302 423.757 186.01 424.967 186.01C426.837 186.01 428.348 186.657 429.499 187.952C430.659 189.247 431.238 190.969 431.238 193.119V193.284C431.238 194.621 430.98 195.823 430.464 196.89C429.956 197.948 429.224 198.773 428.268 199.365C427.32 199.958 426.228 200.254 424.992 200.254C423.13 200.254 421.619 199.606 420.46 198.312C419.309 197.017 418.733 195.303 418.733 193.17V193.005ZM421.095 193.284C421.095 194.808 421.446 196.031 422.148 196.953C422.859 197.876 423.807 198.337 424.992 198.337C426.186 198.337 427.133 197.871 427.836 196.94C428.538 196.001 428.89 194.689 428.89 193.005C428.89 191.498 428.53 190.28 427.811 189.349C427.1 188.409 426.152 187.939 424.967 187.939C423.807 187.939 422.872 188.401 422.161 189.323C421.45 190.246 421.095 191.566 421.095 193.284ZM445.787 193.284C445.787 195.375 445.309 197.059 444.353 198.337C443.396 199.615 442.101 200.254 440.468 200.254C438.8 200.254 437.489 199.725 436.532 198.667V205.281H434.184V186.264H436.329L436.443 187.787C437.4 186.602 438.729 186.01 440.43 186.01C442.08 186.01 443.383 186.632 444.34 187.876C445.305 189.12 445.787 190.851 445.787 193.068V193.284ZM443.438 193.018C443.438 191.469 443.108 190.246 442.448 189.349C441.788 188.451 440.882 188.003 439.731 188.003C438.31 188.003 437.243 188.633 436.532 189.895V196.458C437.235 197.711 438.31 198.337 439.757 198.337C440.882 198.337 441.775 197.893 442.436 197.004C443.104 196.107 443.438 194.778 443.438 193.018Z" fill="black"/>
<path d="M493.364 86.3545C493.364 88.1657 493.06 89.7484 492.45 91.1025C491.841 92.4482 490.978 93.4766 489.86 94.1875C488.743 94.8984 487.44 95.2539 485.95 95.2539C484.494 95.2539 483.204 94.8984 482.078 94.1875C480.952 93.4681 480.076 92.4482 479.45 91.1279C478.832 89.7992 478.515 88.263 478.498 86.5195V85.1865C478.498 83.4092 478.807 81.8392 479.425 80.4766C480.043 79.1139 480.914 78.0729 482.04 77.3535C483.174 76.6257 484.469 76.2617 485.925 76.2617C487.406 76.2617 488.709 76.6214 489.835 77.3408C490.969 78.0518 491.841 79.0885 492.45 80.4512C493.06 81.8053 493.364 83.3838 493.364 85.1865V86.3545ZM490.939 85.1611C490.939 82.9691 490.499 81.2891 489.619 80.1211C488.739 78.9447 487.507 78.3564 485.925 78.3564C484.384 78.3564 483.17 78.9447 482.281 80.1211C481.401 81.2891 480.948 82.9141 480.923 84.9961V86.3545C480.923 88.4788 481.367 90.1504 482.256 91.3691C483.153 92.5794 484.384 93.1846 485.95 93.1846C487.524 93.1846 488.743 92.6133 489.606 91.4707C490.47 90.3197 490.914 88.6735 490.939 86.5322V85.1611ZM505.133 93.6416C504.219 94.7165 502.877 95.2539 501.108 95.2539C499.644 95.2539 498.527 94.8307 497.757 93.9844C496.995 93.1296 496.61 91.8685 496.602 90.2012V81.2637H498.95V90.1377C498.95 92.2197 499.797 93.2607 501.489 93.2607C503.284 93.2607 504.477 92.5921 505.069 91.2549V81.2637H507.418V95H505.184L505.133 93.6416ZM514.185 77.9375V81.2637H516.749V83.0791H514.185V91.5977C514.185 92.1478 514.299 92.5625 514.527 92.8418C514.756 93.1126 515.145 93.248 515.695 93.248C515.966 93.248 516.339 93.1973 516.812 93.0957V95C516.195 95.1693 515.594 95.2539 515.01 95.2539C513.96 95.2539 513.169 94.9365 512.636 94.3018C512.103 93.667 511.836 92.7656 511.836 91.5977V83.0791H509.335V81.2637H511.836V77.9375H514.185ZM531.107 88.2842C531.107 90.3747 530.629 92.0589 529.673 93.3369C528.716 94.6149 527.422 95.2539 525.788 95.2539C524.121 95.2539 522.809 94.7249 521.853 93.667V100.281H519.504V81.2637H521.649L521.764 82.7871C522.72 81.6022 524.049 81.0098 525.75 81.0098C527.4 81.0098 528.704 81.6318 529.66 82.876C530.625 84.1201 531.107 85.8509 531.107 88.0684V88.2842ZM528.759 88.0176C528.759 86.4688 528.429 85.2458 527.769 84.3486C527.108 83.4515 526.203 83.0029 525.052 83.0029C523.63 83.0029 522.563 83.6335 521.853 84.8945V91.458C522.555 92.7106 523.63 93.3369 525.077 93.3369C526.203 93.3369 527.096 92.8926 527.756 92.0039C528.424 91.1068 528.759 89.778 528.759 88.0176ZM542.584 93.6416C541.67 94.7165 540.328 95.2539 538.56 95.2539C537.095 95.2539 535.978 94.8307 535.208 93.9844C534.446 93.1296 534.061 91.8685 534.053 90.2012V81.2637H536.401V90.1377C536.401 92.2197 537.248 93.2607 538.94 93.2607C540.735 93.2607 541.928 92.5921 542.521 91.2549V81.2637H544.869V95H542.635L542.584 93.6416ZM551.636 77.9375V81.2637H554.2V83.0791H551.636V91.5977C551.636 92.1478 551.75 92.5625 551.979 92.8418C552.207 93.1126 552.596 93.248 553.146 93.248C553.417 93.248 553.79 93.1973 554.264 93.0957V95C553.646 95.1693 553.045 95.2539 552.461 95.2539C551.411 95.2539 550.62 94.9365 550.087 94.3018C549.554 93.667 549.287 92.7656 549.287 91.5977V83.0791H546.786V81.2637H549.287V77.9375H551.636Z" fill="black"/>
<path d="M276.146 96V77.5156H281.363C282.971 77.5156 284.393 77.8711 285.629 78.582C286.865 79.293 287.817 80.3044 288.485 81.6162C289.162 82.9281 289.505 84.4346 289.514 86.1357V87.3164C289.514 89.0599 289.175 90.5876 288.498 91.8994C287.829 93.2113 286.869 94.2184 285.616 94.9209C284.372 95.6234 282.921 95.9831 281.262 96H276.146ZM278.583 79.5215V94.0068H281.147C283.026 94.0068 284.486 93.4229 285.527 92.2549C286.577 91.0869 287.102 89.4238 287.102 87.2656V86.1865C287.102 84.0876 286.606 82.4583 285.616 81.2988C284.634 80.1309 283.238 79.5384 281.427 79.5215H278.583ZM301.32 96C301.185 95.7292 301.075 95.2467 300.99 94.5527C299.898 95.6868 298.595 96.2539 297.08 96.2539C295.726 96.2539 294.613 95.873 293.741 95.1113C292.878 94.3411 292.446 93.3678 292.446 92.1914C292.446 90.7611 292.988 89.6523 294.071 88.8652C295.163 88.0697 296.695 87.6719 298.667 87.6719H300.952V86.5928C300.952 85.7718 300.707 85.1201 300.216 84.6377C299.725 84.1468 299.001 83.9014 298.045 83.9014C297.207 83.9014 296.505 84.113 295.938 84.5361C295.37 84.9593 295.087 85.4714 295.087 86.0723H292.726C292.726 85.3867 292.967 84.7266 293.449 84.0918C293.94 83.4486 294.6 82.9408 295.43 82.5684C296.268 82.196 297.186 82.0098 298.185 82.0098C299.767 82.0098 301.007 82.4076 301.904 83.2031C302.801 83.9902 303.267 85.0778 303.301 86.4658V92.7881C303.301 94.0492 303.462 95.0521 303.783 95.7969V96H301.32ZM297.423 94.21C298.159 94.21 298.857 94.0195 299.518 93.6387C300.178 93.2578 300.656 92.7627 300.952 92.1533V89.335H299.111C296.234 89.335 294.795 90.1771 294.795 91.8613C294.795 92.5977 295.04 93.1732 295.531 93.5879C296.022 94.0026 296.653 94.21 297.423 94.21ZM310.169 78.9375V82.2637H312.733V84.0791H310.169V92.5977C310.169 93.1478 310.283 93.5625 310.512 93.8418C310.74 94.1126 311.13 94.248 311.68 94.248C311.951 94.248 312.323 94.1973 312.797 94.0957V96C312.179 96.1693 311.578 96.2539 310.994 96.2539C309.945 96.2539 309.153 95.9365 308.62 95.3018C308.087 94.667 307.82 93.7656 307.82 92.5977V84.0791H305.319V82.2637H307.82V78.9375H310.169ZM323.969 96C323.833 95.7292 323.723 95.2467 323.639 94.5527C322.547 95.6868 321.243 96.2539 319.729 96.2539C318.374 96.2539 317.261 95.873 316.39 95.1113C315.526 94.3411 315.095 93.3678 315.095 92.1914C315.095 90.7611 315.636 89.6523 316.72 88.8652C317.812 88.0697 319.343 87.6719 321.315 87.6719H323.601V86.5928C323.601 85.7718 323.355 85.1201 322.864 84.6377C322.373 84.1468 321.65 83.9014 320.693 83.9014C319.855 83.9014 319.153 84.113 318.586 84.5361C318.019 84.9593 317.735 85.4714 317.735 86.0723H315.374C315.374 85.3867 315.615 84.7266 316.098 84.0918C316.589 83.4486 317.249 82.9408 318.078 82.5684C318.916 82.196 319.834 82.0098 320.833 82.0098C322.416 82.0098 323.656 82.4076 324.553 83.2031C325.45 83.9902 325.915 85.0778 325.949 86.4658V92.7881C325.949 94.0492 326.11 95.0521 326.432 95.7969V96H323.969ZM320.071 94.21C320.808 94.21 321.506 94.0195 322.166 93.6387C322.826 93.2578 323.304 92.7627 323.601 92.1533V89.335H321.76C318.882 89.335 317.443 90.1771 317.443 91.8613C317.443 92.5977 317.689 93.1732 318.18 93.5879C318.671 94.0026 319.301 94.21 320.071 94.21Z" fill="black"/>
<path d="M262.594 152.456H254.583V159.007H263.889V161H252.146V142.516H263.762V144.521H254.583V150.463H262.594V152.456ZM268.776 147.264L268.853 148.99C269.902 147.67 271.273 147.01 272.966 147.01C275.869 147.01 277.333 148.647 277.358 151.923V161H275.01V151.91C275.001 150.92 274.773 150.188 274.324 149.714C273.884 149.24 273.194 149.003 272.255 149.003C271.493 149.003 270.825 149.206 270.249 149.612C269.674 150.019 269.225 150.552 268.903 151.212V161H266.555V147.264H268.776ZM289.381 161C289.245 160.729 289.135 160.247 289.051 159.553C287.959 160.687 286.656 161.254 285.141 161.254C283.786 161.254 282.674 160.873 281.802 160.111C280.938 159.341 280.507 158.368 280.507 157.191C280.507 155.761 281.049 154.652 282.132 153.865C283.224 153.07 284.756 152.672 286.728 152.672H289.013V151.593C289.013 150.772 288.767 150.12 288.276 149.638C287.785 149.147 287.062 148.901 286.105 148.901C285.268 148.901 284.565 149.113 283.998 149.536C283.431 149.959 283.147 150.471 283.147 151.072H280.786C280.786 150.387 281.027 149.727 281.51 149.092C282.001 148.449 282.661 147.941 283.49 147.568C284.328 147.196 285.246 147.01 286.245 147.01C287.828 147.01 289.068 147.408 289.965 148.203C290.862 148.99 291.327 150.078 291.361 151.466V157.788C291.361 159.049 291.522 160.052 291.844 160.797V161H289.381ZM285.483 159.21C286.22 159.21 286.918 159.02 287.578 158.639C288.238 158.258 288.716 157.763 289.013 157.153V154.335H287.172C284.294 154.335 282.855 155.177 282.855 156.861C282.855 157.598 283.101 158.173 283.592 158.588C284.083 159.003 284.713 159.21 285.483 159.21ZM306.672 154.284C306.672 156.383 306.189 158.072 305.225 159.35C304.26 160.619 302.965 161.254 301.34 161.254C299.605 161.254 298.263 160.64 297.315 159.413L297.201 161H295.043V141.5H297.392V148.774C298.34 147.598 299.647 147.01 301.314 147.01C302.982 147.01 304.289 147.64 305.237 148.901C306.194 150.162 306.672 151.889 306.672 154.081V154.284ZM304.323 154.018C304.323 152.418 304.014 151.182 303.396 150.311C302.779 149.439 301.89 149.003 300.73 149.003C299.182 149.003 298.069 149.722 297.392 151.161V157.103C298.111 158.541 299.232 159.261 300.756 159.261C301.882 159.261 302.757 158.825 303.384 157.953C304.01 157.081 304.323 155.77 304.323 154.018ZM312.194 161H309.846V141.5H312.194V161ZM321.665 161.254C319.803 161.254 318.288 160.645 317.12 159.426C315.952 158.199 315.368 156.561 315.368 154.513V154.081C315.368 152.718 315.626 151.504 316.143 150.438C316.667 149.363 317.395 148.525 318.326 147.924C319.266 147.314 320.281 147.01 321.373 147.01C323.159 147.01 324.547 147.598 325.537 148.774C326.527 149.951 327.022 151.635 327.022 153.827V154.805H317.717C317.751 156.159 318.144 157.255 318.897 158.093C319.659 158.922 320.624 159.337 321.792 159.337C322.621 159.337 323.324 159.168 323.899 158.829C324.475 158.491 324.979 158.042 325.41 157.483L326.845 158.601C325.694 160.369 323.967 161.254 321.665 161.254ZM321.373 148.939C320.425 148.939 319.63 149.286 318.986 149.98C318.343 150.666 317.945 151.631 317.793 152.875H324.674V152.697C324.606 151.504 324.285 150.581 323.709 149.93C323.133 149.27 322.355 148.939 321.373 148.939Z" fill="black"/>
<path d="M324.452 469.918H317.899L316.428 474H314.301L320.273 458.359H322.078L328.062 474H325.945L324.452 469.918ZM318.522 468.221H323.84L321.176 460.905L318.522 468.221ZM342.188 474H340.114L332.24 461.947V474H330.167V458.359H332.24L340.136 470.466V458.359H342.188V474ZM345.851 474V458.359H350.266C351.626 458.359 352.829 458.66 353.875 459.262C354.921 459.863 355.726 460.719 356.292 461.829C356.865 462.939 357.155 464.214 357.162 465.653V466.652C357.162 468.128 356.876 469.42 356.303 470.53C355.737 471.64 354.924 472.493 353.864 473.087C352.812 473.681 351.583 473.986 350.18 474H345.851ZM347.913 460.057V472.313H350.083C351.673 472.313 352.908 471.819 353.789 470.831C354.677 469.843 355.121 468.436 355.121 466.609V465.696C355.121 463.92 354.702 462.542 353.864 461.561C353.034 460.572 351.852 460.071 350.319 460.057H347.913Z" fill="black"/>
<path d="M324.452 557.918H317.899L316.428 562H314.301L320.273 546.359H322.078L328.062 562H325.945L324.452 557.918ZM318.522 556.221H323.84L321.176 548.905L318.522 556.221ZM342.188 562H340.114L332.24 549.947V562H330.167V546.359H332.24L340.136 558.466V546.359H342.188V562ZM345.851 562V546.359H350.266C351.626 546.359 352.829 546.66 353.875 547.262C354.921 547.863 355.726 548.719 356.292 549.829C356.865 550.939 357.155 552.214 357.162 553.653V554.652C357.162 556.128 356.876 557.42 356.303 558.53C355.737 559.64 354.924 560.493 353.864 561.087C352.812 561.681 351.583 561.986 350.18 562H345.851ZM347.913 548.057V560.313H350.083C351.673 560.313 352.908 559.819 353.789 558.831C354.677 557.843 355.121 556.436 355.121 554.609V553.696C355.121 551.92 354.702 550.542 353.864 549.561C353.034 548.572 351.852 548.071 350.319 548.057H347.913Z" fill="black"/>
<path d="M493.364 232.354C493.364 234.166 493.06 235.748 492.45 237.103C491.841 238.448 490.978 239.477 489.86 240.188C488.743 240.898 487.44 241.254 485.95 241.254C484.494 241.254 483.204 240.898 482.078 240.188C480.952 239.468 480.076 238.448 479.45 237.128C478.832 235.799 478.515 234.263 478.498 232.52V231.187C478.498 229.409 478.807 227.839 479.425 226.477C480.043 225.114 480.914 224.073 482.04 223.354C483.174 222.626 484.469 222.262 485.925 222.262C487.406 222.262 488.709 222.621 489.835 223.341C490.969 224.052 491.841 225.089 492.45 226.451C493.06 227.805 493.364 229.384 493.364 231.187V232.354ZM490.939 231.161C490.939 228.969 490.499 227.289 489.619 226.121C488.739 224.945 487.507 224.356 485.925 224.356C484.384 224.356 483.17 224.945 482.281 226.121C481.401 227.289 480.948 228.914 480.923 230.996V232.354C480.923 234.479 481.367 236.15 482.256 237.369C483.153 238.579 484.384 239.185 485.95 239.185C487.524 239.185 488.743 238.613 489.606 237.471C490.47 236.32 490.914 234.674 490.939 232.532V231.161ZM505.133 239.642C504.219 240.716 502.877 241.254 501.108 241.254C499.644 241.254 498.527 240.831 497.757 239.984C496.995 239.13 496.61 237.868 496.602 236.201V227.264H498.95V236.138C498.95 238.22 499.797 239.261 501.489 239.261C503.284 239.261 504.477 238.592 505.069 237.255V227.264H507.418V241H505.184L505.133 239.642ZM514.185 223.938V227.264H516.749V229.079H514.185V237.598C514.185 238.148 514.299 238.562 514.527 238.842C514.756 239.113 515.145 239.248 515.695 239.248C515.966 239.248 516.339 239.197 516.812 239.096V241C516.195 241.169 515.594 241.254 515.01 241.254C513.96 241.254 513.169 240.937 512.636 240.302C512.103 239.667 511.836 238.766 511.836 237.598V229.079H509.335V227.264H511.836V223.938H514.185ZM531.107 234.284C531.107 236.375 530.629 238.059 529.673 239.337C528.716 240.615 527.422 241.254 525.788 241.254C524.121 241.254 522.809 240.725 521.853 239.667V246.281H519.504V227.264H521.649L521.764 228.787C522.72 227.602 524.049 227.01 525.75 227.01C527.4 227.01 528.704 227.632 529.66 228.876C530.625 230.12 531.107 231.851 531.107 234.068V234.284ZM528.759 234.018C528.759 232.469 528.429 231.246 527.769 230.349C527.108 229.451 526.203 229.003 525.052 229.003C523.63 229.003 522.563 229.633 521.853 230.895V237.458C522.555 238.711 523.63 239.337 525.077 239.337C526.203 239.337 527.096 238.893 527.756 238.004C528.424 237.107 528.759 235.778 528.759 234.018ZM542.584 239.642C541.67 240.716 540.328 241.254 538.56 241.254C537.095 241.254 535.978 240.831 535.208 239.984C534.446 239.13 534.061 237.868 534.053 236.201V227.264H536.401V236.138C536.401 238.22 537.248 239.261 538.94 239.261C540.735 239.261 541.928 238.592 542.521 237.255V227.264H544.869V241H542.635L542.584 239.642ZM551.636 223.938V227.264H554.2V229.079H551.636V237.598C551.636 238.148 551.75 238.562 551.979 238.842C552.207 239.113 552.596 239.248 553.146 239.248C553.417 239.248 553.79 239.197 554.264 239.096V241C553.646 241.169 553.045 241.254 552.461 241.254C551.411 241.254 550.62 240.937 550.087 240.302C549.554 239.667 549.287 238.766 549.287 237.598V229.079H546.786V227.264H549.287V223.938H551.636Z" fill="black"/>
<path d="M161.353 485.176H153.608L151.869 490H149.355L156.414 471.516H158.547L165.618 490H163.117L161.353 485.176ZM154.345 483.17H160.629L157.48 474.524L154.345 483.17ZM167.167 483.018C167.167 480.91 167.666 479.217 168.665 477.939C169.664 476.653 170.971 476.01 172.588 476.01C174.196 476.01 175.47 476.56 176.409 477.66V470.5H178.758V490H176.6L176.485 488.527C175.546 489.678 174.238 490.254 172.562 490.254C170.971 490.254 169.672 489.602 168.665 488.299C167.666 486.995 167.167 485.294 167.167 483.195V483.018ZM169.516 483.284C169.516 484.841 169.837 486.06 170.48 486.94C171.124 487.821 172.012 488.261 173.146 488.261C174.636 488.261 175.724 487.592 176.409 486.255V479.945C175.707 478.65 174.628 478.003 173.172 478.003C172.021 478.003 171.124 478.447 170.48 479.336C169.837 480.225 169.516 481.541 169.516 483.284ZM181.843 483.018C181.843 480.91 182.342 479.217 183.341 477.939C184.34 476.653 185.647 476.01 187.264 476.01C188.872 476.01 190.146 476.56 191.085 477.66V470.5H193.434V490H191.275L191.161 488.527C190.222 489.678 188.914 490.254 187.238 490.254C185.647 490.254 184.348 489.602 183.341 488.299C182.342 486.995 181.843 485.294 181.843 483.195V483.018ZM184.191 483.284C184.191 484.841 184.513 486.06 185.156 486.94C185.799 487.821 186.688 488.261 187.822 488.261C189.312 488.261 190.399 487.592 191.085 486.255V479.945C190.382 478.65 189.303 478.003 187.848 478.003C186.697 478.003 185.799 478.447 185.156 479.336C184.513 480.225 184.191 481.541 184.191 483.284ZM203.729 478.371C203.374 478.312 202.989 478.282 202.574 478.282C201.034 478.282 199.989 478.938 199.438 480.25V490H197.09V476.264H199.375L199.413 477.851C200.183 476.623 201.275 476.01 202.688 476.01C203.146 476.01 203.493 476.069 203.729 476.188V478.371ZM211.347 490.254C209.485 490.254 207.97 489.645 206.802 488.426C205.634 487.199 205.05 485.561 205.05 483.513V483.081C205.05 481.718 205.308 480.504 205.824 479.438C206.349 478.363 207.077 477.525 208.008 476.924C208.947 476.314 209.963 476.01 211.055 476.01C212.84 476.01 214.229 476.598 215.219 477.774C216.209 478.951 216.704 480.635 216.704 482.827V483.805H207.398C207.432 485.159 207.826 486.255 208.579 487.093C209.341 487.922 210.306 488.337 211.474 488.337C212.303 488.337 213.006 488.168 213.581 487.829C214.157 487.491 214.66 487.042 215.092 486.483L216.526 487.601C215.375 489.369 213.649 490.254 211.347 490.254ZM211.055 477.939C210.107 477.939 209.311 478.286 208.668 478.98C208.025 479.666 207.627 480.631 207.475 481.875H214.355V481.697C214.288 480.504 213.966 479.581 213.391 478.93C212.815 478.27 212.036 477.939 211.055 477.939ZM227.432 486.356C227.432 485.722 227.19 485.231 226.708 484.884C226.234 484.528 225.4 484.224 224.207 483.97C223.022 483.716 222.078 483.411 221.376 483.056C220.682 482.7 220.166 482.277 219.827 481.786C219.497 481.295 219.332 480.711 219.332 480.034C219.332 478.909 219.806 477.956 220.754 477.178C221.71 476.399 222.929 476.01 224.41 476.01C225.967 476.01 227.229 476.412 228.193 477.216C229.167 478.02 229.653 479.048 229.653 480.301H227.292C227.292 479.658 227.017 479.103 226.467 478.638C225.925 478.172 225.24 477.939 224.41 477.939C223.555 477.939 222.887 478.126 222.404 478.498C221.922 478.87 221.681 479.357 221.681 479.958C221.681 480.525 221.905 480.952 222.354 481.24C222.802 481.528 223.61 481.803 224.778 482.065C225.955 482.328 226.907 482.641 227.635 483.005C228.363 483.369 228.9 483.809 229.247 484.325C229.603 484.833 229.78 485.455 229.78 486.191C229.78 487.419 229.289 488.405 228.308 489.149C227.326 489.886 226.052 490.254 224.486 490.254C223.386 490.254 222.413 490.059 221.566 489.67C220.72 489.281 220.056 488.739 219.573 488.045C219.099 487.342 218.862 486.585 218.862 485.772H221.211C221.253 486.56 221.566 487.186 222.15 487.651C222.743 488.108 223.521 488.337 224.486 488.337C225.375 488.337 226.086 488.159 226.619 487.804C227.161 487.44 227.432 486.957 227.432 486.356ZM240.838 486.356C240.838 485.722 240.597 485.231 240.114 484.884C239.64 484.528 238.807 484.224 237.613 483.97C236.428 483.716 235.485 483.411 234.782 483.056C234.088 482.7 233.572 482.277 233.233 481.786C232.903 481.295 232.738 480.711 232.738 480.034C232.738 478.909 233.212 477.956 234.16 477.178C235.117 476.399 236.335 476.01 237.816 476.01C239.374 476.01 240.635 476.412 241.6 477.216C242.573 478.02 243.06 479.048 243.06 480.301H240.698C240.698 479.658 240.423 479.103 239.873 478.638C239.331 478.172 238.646 477.939 237.816 477.939C236.962 477.939 236.293 478.126 235.811 478.498C235.328 478.87 235.087 479.357 235.087 479.958C235.087 480.525 235.311 480.952 235.76 481.24C236.208 481.528 237.017 481.803 238.185 482.065C239.361 482.328 240.313 482.641 241.041 483.005C241.769 483.369 242.306 483.809 242.653 484.325C243.009 484.833 243.187 485.455 243.187 486.191C243.187 487.419 242.696 488.405 241.714 489.149C240.732 489.886 239.458 490.254 237.893 490.254C236.792 490.254 235.819 490.059 234.973 489.67C234.126 489.281 233.462 488.739 232.979 488.045C232.506 487.342 232.269 486.585 232.269 485.772H234.617C234.66 486.56 234.973 487.186 235.557 487.651C236.149 488.108 236.928 488.337 237.893 488.337C238.781 488.337 239.492 488.159 240.025 487.804C240.567 487.44 240.838 486.957 240.838 486.356ZM161.594 511.456H153.583V518.007H162.889V520H151.146V501.516H162.762V503.521H153.583V509.463H161.594V511.456ZM167.776 506.264L167.853 507.99C168.902 506.67 170.273 506.01 171.966 506.01C174.869 506.01 176.333 507.647 176.358 510.923V520H174.01V510.91C174.001 509.92 173.773 509.188 173.324 508.714C172.884 508.24 172.194 508.003 171.255 508.003C170.493 508.003 169.825 508.206 169.249 508.612C168.674 509.019 168.225 509.552 167.903 510.212V520H165.555V506.264H167.776ZM188.381 520C188.245 519.729 188.135 519.247 188.051 518.553C186.959 519.687 185.656 520.254 184.141 520.254C182.786 520.254 181.674 519.873 180.802 519.111C179.938 518.341 179.507 517.368 179.507 516.191C179.507 514.761 180.049 513.652 181.132 512.865C182.224 512.07 183.756 511.672 185.728 511.672H188.013V510.593C188.013 509.772 187.767 509.12 187.276 508.638C186.785 508.147 186.062 507.901 185.105 507.901C184.268 507.901 183.565 508.113 182.998 508.536C182.431 508.959 182.147 509.471 182.147 510.072H179.786C179.786 509.387 180.027 508.727 180.51 508.092C181.001 507.449 181.661 506.941 182.49 506.568C183.328 506.196 184.246 506.01 185.245 506.01C186.828 506.01 188.068 506.408 188.965 507.203C189.862 507.99 190.327 509.078 190.361 510.466V516.788C190.361 518.049 190.522 519.052 190.844 519.797V520H188.381ZM184.483 518.21C185.22 518.21 185.918 518.02 186.578 517.639C187.238 517.258 187.716 516.763 188.013 516.153V513.335H186.172C183.294 513.335 181.855 514.177 181.855 515.861C181.855 516.598 182.101 517.173 182.592 517.588C183.083 518.003 183.713 518.21 184.483 518.21ZM205.672 513.284C205.672 515.383 205.189 517.072 204.225 518.35C203.26 519.619 201.965 520.254 200.34 520.254C198.605 520.254 197.263 519.64 196.315 518.413L196.201 520H194.043V500.5H196.392V507.774C197.34 506.598 198.647 506.01 200.314 506.01C201.982 506.01 203.289 506.64 204.237 507.901C205.194 509.162 205.672 510.889 205.672 513.081V513.284ZM203.323 513.018C203.323 511.418 203.014 510.182 202.396 509.311C201.779 508.439 200.89 508.003 199.73 508.003C198.182 508.003 197.069 508.722 196.392 510.161V516.103C197.111 517.541 198.232 518.261 199.756 518.261C200.882 518.261 201.757 517.825 202.384 516.953C203.01 516.081 203.323 514.77 203.323 513.018ZM211.194 520H208.846V500.5H211.194V520ZM220.665 520.254C218.803 520.254 217.288 519.645 216.12 518.426C214.952 517.199 214.368 515.561 214.368 513.513V513.081C214.368 511.718 214.626 510.504 215.143 509.438C215.667 508.363 216.395 507.525 217.326 506.924C218.266 506.314 219.281 506.01 220.373 506.01C222.159 506.01 223.547 506.598 224.537 507.774C225.527 508.951 226.022 510.635 226.022 512.827V513.805H216.717C216.751 515.159 217.144 516.255 217.897 517.093C218.659 517.922 219.624 518.337 220.792 518.337C221.621 518.337 222.324 518.168 222.899 517.829C223.475 517.491 223.979 517.042 224.41 516.483L225.845 517.601C224.694 519.369 222.967 520.254 220.665 520.254ZM220.373 507.939C219.425 507.939 218.63 508.286 217.986 508.98C217.343 509.666 216.945 510.631 216.793 511.875H223.674V511.697C223.606 510.504 223.285 509.581 222.709 508.93C222.133 508.27 221.355 507.939 220.373 507.939Z" fill="black"/>
<path d="M165.793 638.575C165.167 639.472 164.291 640.145 163.165 640.594C162.048 641.034 160.744 641.254 159.255 641.254C157.748 641.254 156.411 640.903 155.243 640.2C154.075 639.489 153.17 638.482 152.526 637.179C151.892 635.875 151.566 634.365 151.549 632.646V631.034C151.549 628.25 152.196 626.091 153.491 624.56C154.795 623.028 156.623 622.262 158.976 622.262C160.905 622.262 162.458 622.757 163.635 623.747C164.811 624.729 165.531 626.125 165.793 627.937H163.355C162.898 625.491 161.443 624.268 158.988 624.268C157.355 624.268 156.115 624.843 155.269 625.994C154.431 627.137 154.007 628.796 153.999 630.971V632.481C153.999 634.555 154.473 636.205 155.421 637.433C156.369 638.651 157.651 639.261 159.268 639.261C160.182 639.261 160.981 639.159 161.667 638.956C162.353 638.753 162.92 638.41 163.368 637.928V633.776H159.09V631.796H165.793V638.575ZM177.98 641C177.845 640.729 177.735 640.247 177.65 639.553C176.559 640.687 175.255 641.254 173.74 641.254C172.386 641.254 171.273 640.873 170.401 640.111C169.538 639.341 169.106 638.368 169.106 637.191C169.106 635.761 169.648 634.652 170.731 633.865C171.823 633.07 173.355 632.672 175.327 632.672H177.612V631.593C177.612 630.772 177.367 630.12 176.876 629.638C176.385 629.147 175.661 628.901 174.705 628.901C173.867 628.901 173.165 629.113 172.598 629.536C172.031 629.959 171.747 630.471 171.747 631.072H169.386C169.386 630.387 169.627 629.727 170.109 629.092C170.6 628.449 171.26 627.941 172.09 627.568C172.928 627.196 173.846 627.01 174.845 627.01C176.427 627.01 177.667 627.408 178.564 628.203C179.462 628.99 179.927 630.078 179.961 631.466V637.788C179.961 639.049 180.122 640.052 180.443 640.797V641H177.98ZM174.083 639.21C174.819 639.21 175.518 639.02 176.178 638.639C176.838 638.258 177.316 637.763 177.612 637.153V634.335H175.771C172.894 634.335 171.455 635.177 171.455 636.861C171.455 637.598 171.701 638.173 172.191 638.588C172.682 639.003 173.313 639.21 174.083 639.21ZM186.829 623.938V627.264H189.394V629.079H186.829V637.598C186.829 638.148 186.943 638.562 187.172 638.842C187.4 639.113 187.79 639.248 188.34 639.248C188.611 639.248 188.983 639.197 189.457 639.096V641C188.839 641.169 188.238 641.254 187.654 641.254C186.605 641.254 185.813 640.937 185.28 640.302C184.747 639.667 184.48 638.766 184.48 637.598V629.079H181.979V627.264H184.48V623.938H186.829ZM197.849 641.254C195.987 641.254 194.472 640.645 193.304 639.426C192.136 638.199 191.552 636.561 191.552 634.513V634.081C191.552 632.718 191.81 631.504 192.326 630.438C192.851 629.363 193.579 628.525 194.51 627.924C195.449 627.314 196.465 627.01 197.557 627.01C199.342 627.01 200.73 627.598 201.721 628.774C202.711 629.951 203.206 631.635 203.206 633.827V634.805H193.9C193.934 636.159 194.328 637.255 195.081 638.093C195.843 638.922 196.808 639.337 197.976 639.337C198.805 639.337 199.507 639.168 200.083 638.829C200.659 638.491 201.162 638.042 201.594 637.483L203.028 638.601C201.877 640.369 200.151 641.254 197.849 641.254ZM197.557 628.939C196.609 628.939 195.813 629.286 195.17 629.98C194.527 630.666 194.129 631.631 193.977 632.875H200.857V632.697C200.79 631.504 200.468 630.581 199.893 629.93C199.317 629.27 198.538 628.939 197.557 628.939ZM151.688 663.497C151.688 661.584 151.942 659.748 152.45 657.987C152.966 656.227 153.732 654.627 154.748 653.188C155.764 651.75 156.817 650.734 157.909 650.142L158.392 651.69C157.156 652.638 156.14 654.086 155.345 656.032C154.558 657.979 154.126 660.158 154.05 662.57L154.037 663.649C154.037 666.916 154.634 669.752 155.827 672.155C156.547 673.594 157.401 674.72 158.392 675.532L157.909 676.967C156.784 676.34 155.709 675.291 154.685 673.818C152.687 670.941 151.688 667.5 151.688 663.497ZM163.216 671H160.867V657.264H163.216V671ZM160.677 653.62C160.677 653.239 160.791 652.918 161.02 652.655C161.257 652.393 161.604 652.262 162.061 652.262C162.518 652.262 162.865 652.393 163.102 652.655C163.339 652.918 163.457 653.239 163.457 653.62C163.457 654.001 163.339 654.318 163.102 654.572C162.865 654.826 162.518 654.953 162.061 654.953C161.604 654.953 161.257 654.826 161.02 654.572C160.791 654.318 160.677 654.001 160.677 653.62ZM169.208 657.264L169.284 658.99C170.334 657.67 171.705 657.01 173.397 657.01C176.3 657.01 177.765 658.647 177.79 661.923V671H175.441V661.91C175.433 660.92 175.204 660.188 174.756 659.714C174.316 659.24 173.626 659.003 172.687 659.003C171.925 659.003 171.256 659.206 170.681 659.612C170.105 660.019 169.657 660.552 169.335 661.212V671H166.986V657.264H169.208ZM185.864 667.813L189.267 657.264H191.666L186.74 671H184.95L179.974 657.264H182.373L185.864 667.813ZM199.448 671.254C197.586 671.254 196.071 670.645 194.903 669.426C193.735 668.199 193.151 666.561 193.151 664.513V664.081C193.151 662.718 193.41 661.504 193.926 660.438C194.451 659.363 195.178 658.525 196.109 657.924C197.049 657.314 198.064 657.01 199.156 657.01C200.942 657.01 202.33 657.598 203.32 658.774C204.311 659.951 204.806 661.635 204.806 663.827V664.805H195.5C195.534 666.159 195.927 667.255 196.681 668.093C197.442 668.922 198.407 669.337 199.575 669.337C200.405 669.337 201.107 669.168 201.683 668.829C202.258 668.491 202.762 668.042 203.193 667.483L204.628 668.601C203.477 670.369 201.75 671.254 199.448 671.254ZM199.156 658.939C198.208 658.939 197.413 659.286 196.77 659.98C196.126 660.666 195.729 661.631 195.576 662.875H202.457V662.697C202.389 661.504 202.068 660.581 201.492 659.93C200.917 659.27 200.138 658.939 199.156 658.939ZM214.175 659.371C213.819 659.312 213.434 659.282 213.02 659.282C211.479 659.282 210.434 659.938 209.884 661.25V671H207.535V657.264H209.82L209.858 658.851C210.629 657.623 211.72 657.01 213.134 657.01C213.591 657.01 213.938 657.069 214.175 657.188V659.371ZM220.167 653.938V657.264H222.731V659.079H220.167V667.598C220.167 668.148 220.281 668.562 220.51 668.842C220.738 669.113 221.128 669.248 221.678 669.248C221.949 669.248 222.321 669.197 222.795 669.096V671C222.177 671.169 221.576 671.254 220.992 671.254C219.943 671.254 219.151 670.937 218.618 670.302C218.085 669.667 217.818 668.766 217.818 667.598V659.079H215.317V657.264H217.818V653.938H220.167ZM231.187 671.254C229.325 671.254 227.81 670.645 226.642 669.426C225.474 668.199 224.89 666.561 224.89 664.513V664.081C224.89 662.718 225.148 661.504 225.664 660.438C226.189 659.363 226.917 658.525 227.848 657.924C228.787 657.314 229.803 657.01 230.895 657.01C232.68 657.01 234.068 657.598 235.059 658.774C236.049 659.951 236.544 661.635 236.544 663.827V664.805H227.238C227.272 666.159 227.666 667.255 228.419 668.093C229.181 668.922 230.146 669.337 231.313 669.337C232.143 669.337 232.845 669.168 233.421 668.829C233.996 668.491 234.5 668.042 234.932 667.483L236.366 668.601C235.215 670.369 233.489 671.254 231.187 671.254ZM230.895 658.939C229.947 658.939 229.151 659.286 228.508 659.98C227.865 660.666 227.467 661.631 227.314 662.875H234.195V662.697C234.128 661.504 233.806 660.581 233.23 659.93C232.655 659.27 231.876 658.939 230.895 658.939ZM245.913 659.371C245.558 659.312 245.173 659.282 244.758 659.282C243.217 659.282 242.172 659.938 241.622 661.25V671H239.273V657.264H241.559L241.597 658.851C242.367 657.623 243.459 657.01 244.872 657.01C245.329 657.01 245.676 657.069 245.913 657.188V659.371ZM253.505 663.624C253.505 665.511 253.255 667.323 252.756 669.058C252.265 670.784 251.507 672.38 250.483 673.844C249.468 675.308 248.401 676.349 247.284 676.967L246.789 675.532C248.092 674.534 249.138 672.985 249.925 670.886C250.72 668.778 251.127 666.442 251.144 663.878V663.472C251.144 661.694 250.957 660.044 250.585 658.521C250.213 656.989 249.692 655.618 249.023 654.407C248.363 653.197 247.618 652.253 246.789 651.576L247.284 650.142C248.401 650.759 249.464 651.792 250.471 653.239C251.486 654.687 252.244 656.282 252.743 658.025C253.251 659.769 253.505 661.635 253.505 663.624Z" fill="black"/>
<line x1="301" y1="573.5" x2="254" y2="573.5" stroke="black"/>
<line x1="201" y1="573.5" x2="64" y2="573.5" stroke="black"/>
<line x1="63.5" y1="573" x2="63.5" y2="379" stroke="black"/>
<line x1="301" y1="449.5" x2="64" y2="449.5" stroke="black"/>
<path d="M6.13184 359.173L6.4873 361.61L7.00781 359.414L10.6641 346.516H12.7207L16.2881 359.414L16.7959 361.648L17.1895 359.16L20.0586 346.516H22.5088L18.0273 365H15.8057L11.9971 351.53L11.7051 350.121L11.4131 351.53L7.46484 365H5.24316L0.774414 346.516H3.21191L6.13184 359.173ZM31.2178 353.371C30.8623 353.312 30.4772 353.282 30.0625 353.282C28.5221 353.282 27.4769 353.938 26.9268 355.25V365H24.5781V351.264H26.8633L26.9014 352.851C27.6715 351.623 28.7633 351.01 30.1768 351.01C30.6338 351.01 30.9808 351.069 31.2178 351.188V353.371ZM35.9404 365H33.5918V351.264H35.9404V365ZM33.4014 347.62C33.4014 347.239 33.5156 346.918 33.7441 346.655C33.9811 346.393 34.3281 346.262 34.7852 346.262C35.2422 346.262 35.5892 346.393 35.8262 346.655C36.0632 346.918 36.1816 347.239 36.1816 347.62C36.1816 348.001 36.0632 348.318 35.8262 348.572C35.5892 348.826 35.2422 348.953 34.7852 348.953C34.3281 348.953 33.9811 348.826 33.7441 348.572C33.5156 348.318 33.4014 348.001 33.4014 347.62ZM42.8975 347.938V351.264H45.4619V353.079H42.8975V361.598C42.8975 362.148 43.0117 362.562 43.2402 362.842C43.4688 363.113 43.8581 363.248 44.4082 363.248C44.679 363.248 45.0514 363.197 45.5254 363.096V365C44.9076 365.169 44.3066 365.254 43.7227 365.254C42.6732 365.254 41.8818 364.937 41.3486 364.302C40.8154 363.667 40.5488 362.766 40.5488 361.598V353.079H38.0479V351.264H40.5488V347.938H42.8975ZM53.917 365.254C52.055 365.254 50.54 364.645 49.3721 363.426C48.2041 362.199 47.6201 360.561 47.6201 358.513V358.081C47.6201 356.718 47.8783 355.504 48.3945 354.438C48.9193 353.363 49.6471 352.525 50.5781 351.924C51.5176 351.314 52.5332 351.01 53.625 351.01C55.4108 351.01 56.7988 351.598 57.7891 352.774C58.7793 353.951 59.2744 355.635 59.2744 357.827V358.805H49.9688C50.0026 360.159 50.3962 361.255 51.1494 362.093C51.9111 362.922 52.876 363.337 54.0439 363.337C54.8734 363.337 55.5758 363.168 56.1514 362.829C56.7269 362.491 57.2305 362.042 57.6621 361.483L59.0967 362.601C57.9456 364.369 56.2191 365.254 53.917 365.254ZM53.625 352.939C52.6771 352.939 51.8815 353.286 51.2383 353.98C50.5951 354.666 50.1973 355.631 50.0449 356.875H56.9258V356.697C56.8581 355.504 56.5365 354.581 55.9609 353.93C55.3854 353.27 54.6068 352.939 53.625 352.939ZM62.4736 366.587H60.4551L68.1738 346.516H70.1797L62.4736 366.587ZM79.8662 357.522H75.5244V365H73.0742V346.516H79.1934C81.2754 346.516 82.875 346.99 83.9922 347.938C85.1178 348.885 85.6807 350.265 85.6807 352.076C85.6807 353.227 85.3675 354.23 84.7412 355.085C84.1234 355.94 83.2601 356.579 82.1514 357.002L86.4932 364.848V365H83.8779L79.8662 357.522ZM75.5244 355.529H79.2695C80.4798 355.529 81.4404 355.216 82.1514 354.59C82.8708 353.964 83.2305 353.126 83.2305 352.076C83.2305 350.934 82.8877 350.058 82.2021 349.448C81.5251 348.839 80.5433 348.53 79.2568 348.521H75.5244V355.529ZM94.4404 365.254C92.5785 365.254 91.0635 364.645 89.8955 363.426C88.7275 362.199 88.1436 360.561 88.1436 358.513V358.081C88.1436 356.718 88.4017 355.504 88.918 354.438C89.4427 353.363 90.1706 352.525 91.1016 351.924C92.041 351.314 93.0566 351.01 94.1484 351.01C95.9342 351.01 97.3223 351.598 98.3125 352.774C99.3027 353.951 99.7979 355.635 99.7979 357.827V358.805H90.4922C90.526 360.159 90.9196 361.255 91.6729 362.093C92.4346 362.922 93.3994 363.337 94.5674 363.337C95.3968 363.337 96.0993 363.168 96.6748 362.829C97.2503 362.491 97.7539 362.042 98.1855 361.483L99.6201 362.601C98.4691 364.369 96.7425 365.254 94.4404 365.254ZM94.1484 352.939C93.2005 352.939 92.4049 353.286 91.7617 353.98C91.1185 354.666 90.7207 355.631 90.5684 356.875H97.4492V356.697C97.3815 355.504 97.0599 354.581 96.4844 353.93C95.9089 353.27 95.1302 352.939 94.1484 352.939ZM111.008 365C110.872 364.729 110.762 364.247 110.678 363.553C109.586 364.687 108.283 365.254 106.768 365.254C105.413 365.254 104.3 364.873 103.429 364.111C102.565 363.341 102.134 362.368 102.134 361.191C102.134 359.761 102.675 358.652 103.759 357.865C104.851 357.07 106.382 356.672 108.354 356.672H110.64V355.593C110.64 354.772 110.394 354.12 109.903 353.638C109.412 353.147 108.689 352.901 107.732 352.901C106.895 352.901 106.192 353.113 105.625 353.536C105.058 353.959 104.774 354.471 104.774 355.072H102.413C102.413 354.387 102.654 353.727 103.137 353.092C103.628 352.449 104.288 351.941 105.117 351.568C105.955 351.196 106.873 351.01 107.872 351.01C109.455 351.01 110.695 351.408 111.592 352.203C112.489 352.99 112.954 354.078 112.988 355.466V361.788C112.988 363.049 113.149 364.052 113.471 364.797V365H111.008ZM107.11 363.21C107.847 363.21 108.545 363.02 109.205 362.639C109.865 362.258 110.343 361.763 110.64 361.153V358.335H108.799C105.921 358.335 104.482 359.177 104.482 360.861C104.482 361.598 104.728 362.173 105.219 362.588C105.71 363.003 106.34 363.21 107.11 363.21ZM116.099 358.018C116.099 355.91 116.598 354.217 117.597 352.939C118.595 351.653 119.903 351.01 121.52 351.01C123.128 351.01 124.401 351.56 125.341 352.66V345.5H127.689V365H125.531L125.417 363.527C124.478 364.678 123.17 365.254 121.494 365.254C119.903 365.254 118.604 364.602 117.597 363.299C116.598 361.995 116.099 360.294 116.099 358.195V358.018ZM118.447 358.284C118.447 359.841 118.769 361.06 119.412 361.94C120.055 362.821 120.944 363.261 122.078 363.261C123.568 363.261 124.655 362.592 125.341 361.255V354.945C124.638 353.65 123.559 353.003 122.104 353.003C120.952 353.003 120.055 353.447 119.412 354.336C118.769 355.225 118.447 356.541 118.447 358.284Z" fill="black"/>
<line x1="70.0923" y1="340.5" x2="131.915" y2="340.5" stroke="black"/>
<circle cx="249" cy="573" r="4.5" stroke="black" stroke-width="2"/>
<path d="M175 535.662L243.939 572.5L175 609.338V535.662Z" fill="white" stroke="black"/>
<path d="M289.646 6.67188L295.125 22.1406L300.574 6.67188H306.346V28H301.937V22.1699L302.376 12.1064L296.619 28H293.602L287.859 12.1211L288.299 22.1699V28H283.904V6.67188H289.646ZM317.2 28.293C314.876 28.293 312.981 27.5801 311.517 26.1543C310.062 24.7285 309.334 22.8291 309.334 20.4561V20.0459C309.334 18.4541 309.642 17.0332 310.257 15.7832C310.872 14.5234 311.741 13.5566 312.864 12.8828C313.997 12.1992 315.286 11.8574 316.731 11.8574C318.899 11.8574 320.604 12.541 321.844 13.9082C323.094 15.2754 323.719 17.2139 323.719 19.7236V21.4521H313.626C313.763 22.4873 314.173 23.3174 314.856 23.9424C315.55 24.5674 316.424 24.8799 317.479 24.8799C319.109 24.8799 320.384 24.2891 321.302 23.1074L323.382 25.4365C322.747 26.335 321.888 27.0381 320.804 27.5459C319.72 28.0439 318.519 28.293 317.2 28.293ZM316.717 15.2852C315.877 15.2852 315.193 15.5684 314.666 16.1348C314.148 16.7012 313.816 17.5117 313.67 18.5664H319.559V18.2295C319.539 17.292 319.285 16.5693 318.797 16.0615C318.309 15.5439 317.615 15.2852 316.717 15.2852ZM330.105 12.1504L330.237 13.9229C331.36 12.5459 332.879 11.8574 334.793 11.8574C336.834 11.8574 338.235 12.6631 338.997 14.2744C340.11 12.6631 341.697 11.8574 343.758 11.8574C345.477 11.8574 346.756 12.3604 347.596 13.3662C348.436 14.3623 348.855 15.8662 348.855 17.8779V28H344.607V17.8926C344.607 16.9941 344.432 16.3398 344.08 15.9297C343.729 15.5098 343.108 15.2998 342.22 15.2998C340.95 15.2998 340.071 15.9053 339.583 17.1162L339.598 28H335.364V17.9072C335.364 16.9893 335.184 16.3252 334.822 15.915C334.461 15.5049 333.846 15.2998 332.977 15.2998C331.775 15.2998 330.906 15.7979 330.369 16.7939V28H326.136V12.1504H330.105ZM351.463 19.9287C351.463 18.3564 351.766 16.9551 352.371 15.7246C352.977 14.4941 353.846 13.542 354.979 12.8682C356.121 12.1943 357.444 11.8574 358.948 11.8574C361.087 11.8574 362.83 12.5117 364.178 13.8203C365.535 15.1289 366.292 16.9062 366.448 19.1523L366.478 20.2363C366.478 22.668 365.799 24.6211 364.441 26.0957C363.084 27.5605 361.263 28.293 358.978 28.293C356.692 28.293 354.866 27.5605 353.499 26.0957C352.142 24.6309 351.463 22.6387 351.463 20.1191V19.9287ZM355.696 20.2363C355.696 21.7402 355.979 22.8926 356.546 23.6934C357.112 24.4844 357.923 24.8799 358.978 24.8799C360.003 24.8799 360.804 24.4893 361.38 23.708C361.956 22.917 362.244 21.6572 362.244 19.9287C362.244 18.4541 361.956 17.3115 361.38 16.501C360.804 15.6904 359.993 15.2852 358.948 15.2852C357.913 15.2852 357.112 15.6904 356.546 16.501C355.979 17.3018 355.696 18.5469 355.696 20.2363ZM377.991 16.1201C377.415 16.042 376.907 16.0029 376.468 16.0029C374.866 16.0029 373.816 16.5449 373.318 17.6289V28H369.085V12.1504H373.084L373.201 14.04C374.051 12.585 375.228 11.8574 376.731 11.8574C377.2 11.8574 377.64 11.9209 378.05 12.0479L377.991 16.1201ZM386.224 22.0088L389.153 12.1504H393.694L387.322 30.4609L386.971 31.2959C386.023 33.3662 384.461 34.4014 382.283 34.4014C381.668 34.4014 381.043 34.3086 380.408 34.123V30.915L381.053 30.9297C381.854 30.9297 382.449 30.8076 382.84 30.5635C383.24 30.3193 383.553 29.9141 383.777 29.3477L384.275 28.0439L378.724 12.1504H383.279L386.224 22.0088ZM419.856 20.8955C419.69 23.1904 418.841 24.9971 417.308 26.3154C415.784 27.6338 413.772 28.293 411.272 28.293C408.538 28.293 406.385 27.375 404.812 25.5391C403.25 23.6934 402.469 21.1641 402.469 17.9512V16.6475C402.469 14.5967 402.83 12.79 403.553 11.2275C404.275 9.66504 405.306 8.46875 406.644 7.63867C407.991 6.79883 409.554 6.37891 411.331 6.37891C413.792 6.37891 415.774 7.03809 417.278 8.35645C418.782 9.6748 419.651 11.5254 419.886 13.9082H415.491C415.384 12.5312 414.998 11.5352 414.334 10.9199C413.68 10.2949 412.679 9.98242 411.331 9.98242C409.866 9.98242 408.768 10.5098 408.035 11.5645C407.312 12.6094 406.941 14.2354 406.922 16.4424V18.0537C406.922 20.3584 407.269 22.043 407.962 23.1074C408.665 24.1719 409.769 24.7041 411.272 24.7041C412.63 24.7041 413.641 24.3965 414.305 23.7812C414.979 23.1562 415.364 22.1943 415.462 20.8955H419.856ZM429.759 28.293C427.435 28.293 425.54 27.5801 424.075 26.1543C422.62 24.7285 421.893 22.8291 421.893 20.4561V20.0459C421.893 18.4541 422.2 17.0332 422.815 15.7832C423.431 14.5234 424.3 13.5566 425.423 12.8828C426.556 12.1992 427.845 11.8574 429.29 11.8574C431.458 11.8574 433.162 12.541 434.402 13.9082C435.652 15.2754 436.277 17.2139 436.277 19.7236V21.4521H426.185C426.321 22.4873 426.731 23.3174 427.415 23.9424C428.108 24.5674 428.982 24.8799 430.037 24.8799C431.668 24.8799 432.942 24.2891 433.86 23.1074L435.94 25.4365C435.306 26.335 434.446 27.0381 433.362 27.5459C432.278 28.0439 431.077 28.293 429.759 28.293ZM429.275 15.2852C428.436 15.2852 427.752 15.5684 427.225 16.1348C426.707 16.7012 426.375 17.5117 426.229 18.5664H432.117V18.2295C432.098 17.292 431.844 16.5693 431.355 16.0615C430.867 15.5439 430.174 15.2852 429.275 15.2852ZM443.162 28H438.914V5.5H443.162V28ZM451.131 28H446.883V5.5H451.131V28ZM479.124 20.8955C478.958 23.1904 478.108 24.9971 476.575 26.3154C475.052 27.6338 473.04 28.293 470.54 28.293C467.806 28.293 465.652 27.375 464.08 25.5391C462.518 23.6934 461.736 21.1641 461.736 17.9512V16.6475C461.736 14.5967 462.098 12.79 462.82 11.2275C463.543 9.66504 464.573 8.46875 465.911 7.63867C467.259 6.79883 468.821 6.37891 470.599 6.37891C473.06 6.37891 475.042 7.03809 476.546 8.35645C478.05 9.6748 478.919 11.5254 479.153 13.9082H474.759C474.651 12.5312 474.266 11.5352 473.602 10.9199C472.947 10.2949 471.946 9.98242 470.599 9.98242C469.134 9.98242 468.035 10.5098 467.303 11.5645C466.58 12.6094 466.209 14.2354 466.189 16.4424V18.0537C466.189 20.3584 466.536 22.043 467.229 23.1074C467.933 24.1719 469.036 24.7041 470.54 24.7041C471.897 24.7041 472.908 24.3965 473.572 23.7812C474.246 23.1562 474.632 22.1943 474.729 20.8955H479.124ZM486.199 28H481.951V12.1504H486.199V28ZM481.702 8.04883C481.702 7.41406 481.912 6.8916 482.332 6.48145C482.762 6.07129 483.343 5.86621 484.075 5.86621C484.798 5.86621 485.374 6.07129 485.804 6.48145C486.233 6.8916 486.448 7.41406 486.448 8.04883C486.448 8.69336 486.229 9.2207 485.789 9.63086C485.359 10.041 484.788 10.2461 484.075 10.2461C483.362 10.2461 482.786 10.041 482.347 9.63086C481.917 9.2207 481.702 8.69336 481.702 8.04883ZM498.606 16.1201C498.03 16.042 497.522 16.0029 497.083 16.0029C495.481 16.0029 494.432 16.5449 493.934 17.6289V28H489.7V12.1504H493.699L493.816 14.04C494.666 12.585 495.843 11.8574 497.347 11.8574C497.815 11.8574 498.255 11.9209 498.665 12.0479L498.606 16.1201ZM506.956 24.8799C507.737 24.8799 508.372 24.665 508.86 24.2354C509.349 23.8057 509.603 23.2344 509.622 22.5215H513.592C513.582 23.5957 513.289 24.582 512.713 25.4805C512.137 26.3691 511.346 27.0625 510.34 27.5605C509.344 28.0488 508.24 28.293 507.029 28.293C504.764 28.293 502.977 27.5752 501.668 26.1396C500.359 24.6943 499.705 22.7021 499.705 20.1631V19.8848C499.705 17.4434 500.354 15.4951 501.653 14.04C502.952 12.585 504.734 11.8574 507 11.8574C508.982 11.8574 510.569 12.4238 511.761 13.5566C512.962 14.6797 513.572 16.1787 513.592 18.0537H509.622C509.603 17.2334 509.349 16.5693 508.86 16.0615C508.372 15.5439 507.728 15.2852 506.927 15.2852C505.94 15.2852 505.193 15.6465 504.686 16.3691C504.188 17.082 503.938 18.2441 503.938 19.8555V20.2949C503.938 21.9258 504.188 23.0977 504.686 23.8105C505.184 24.5234 505.94 24.8799 506.956 24.8799ZM525.501 26.3887C524.456 27.6582 523.011 28.293 521.165 28.293C519.466 28.293 518.167 27.8047 517.269 26.8281C516.38 25.8516 515.926 24.4209 515.906 22.5361V12.1504H520.14V22.3896C520.14 24.04 520.892 24.8652 522.396 24.8652C523.831 24.8652 524.817 24.3672 525.354 23.3711V12.1504H529.603V28H525.618L525.501 26.3887ZM537.264 28H533.016V12.1504H537.264V28ZM532.767 8.04883C532.767 7.41406 532.977 6.8916 533.396 6.48145C533.826 6.07129 534.407 5.86621 535.14 5.86621C535.862 5.86621 536.438 6.07129 536.868 6.48145C537.298 6.8916 537.513 7.41406 537.513 8.04883C537.513 8.69336 537.293 9.2207 536.854 9.63086C536.424 10.041 535.853 10.2461 535.14 10.2461C534.427 10.2461 533.851 10.041 533.411 9.63086C532.981 9.2207 532.767 8.69336 532.767 8.04883ZM545.833 8.25391V12.1504H548.543V15.2559H545.833V23.166C545.833 23.752 545.945 24.1719 546.17 24.4258C546.395 24.6797 546.824 24.8066 547.459 24.8066C547.928 24.8066 548.343 24.7725 548.704 24.7041V27.9121C547.874 28.166 547.02 28.293 546.141 28.293C543.172 28.293 541.658 26.7939 541.6 23.7959V15.2559H539.285V12.1504H541.6V8.25391H545.833Z" fill="black"/>
<path d="M477 216.5H552" stroke="black"/>
<path d="M193.836 581H191.763L183.889 568.947V581H181.815V565.359H183.889L191.784 577.466V565.359H193.836V581ZM209.53 573.685C209.53 575.217 209.272 576.556 208.757 577.702C208.241 578.841 207.511 579.711 206.565 580.312C205.62 580.914 204.517 581.215 203.257 581.215C202.025 581.215 200.933 580.914 199.98 580.312C199.028 579.704 198.287 578.841 197.757 577.724C197.234 576.599 196.965 575.299 196.951 573.824V572.696C196.951 571.192 197.213 569.864 197.735 568.711C198.258 567.558 198.996 566.677 199.948 566.068C200.908 565.452 202.004 565.145 203.235 565.145C204.489 565.145 205.591 565.449 206.544 566.058C207.504 566.659 208.241 567.536 208.757 568.689C209.272 569.835 209.53 571.171 209.53 572.696V573.685ZM207.479 572.675C207.479 570.82 207.106 569.398 206.361 568.41C205.617 567.415 204.575 566.917 203.235 566.917C201.932 566.917 200.904 567.415 200.152 568.41C199.408 569.398 199.024 570.773 199.003 572.535V573.685C199.003 575.482 199.379 576.896 200.131 577.928C200.89 578.952 201.932 579.464 203.257 579.464C204.589 579.464 205.62 578.98 206.351 578.014C207.081 577.04 207.457 575.647 207.479 573.835V572.675ZM223.13 567.057H218.103V581H216.051V567.057H211.034V565.359H223.13V567.057Z" fill="black"/>
<line x1="654.5" y1="128" x2="654.5" y2="151" stroke="black"/>
<line x1="653.94" y1="150.563" x2="718.999" y2="150.47" stroke="black"/>
<line x1="728" y1="150.5" x2="741" y2="150.5" stroke="black"/>
<path d="M741 150V554" stroke="black"/>
<line x1="741" y1="554.5" x2="380" y2="554.5" stroke="black"/>
</svg>
