<svg width="660" height="491" viewBox="0 0 660 491" fill="none" xmlns="http://www.w3.org/2000/svg">
<line x1="207" y1="458.5" x2="42" y2="458.5" stroke="black"/>
<path d="M28.2715 463H27.1816V455.775L24.9961 456.578V455.594L28.1016 454.428H28.2715V463Z" fill="black"/>
<path d="M47.8125 448.057H44.1152V451.08H48.4102V452H42.9902V443.469H48.3516V444.395H44.1152V447.137H47.8125V448.057ZM56.3672 452H55.2363L50.9414 445.426V452H49.8105V443.469H50.9414L55.248 450.072V443.469H56.3672V452ZM63.1816 449.773H59.6074L58.8047 452H57.6445L60.9023 443.469H61.8867L65.1504 452H63.9961L63.1816 449.773ZM59.9473 448.848H62.8477L61.3945 444.857L59.9473 448.848ZM66.2988 452V443.469H69.0879C70.0137 443.469 70.709 443.66 71.1738 444.043C71.6426 444.426 71.877 444.992 71.877 445.742C71.877 446.141 71.7637 446.494 71.5371 446.803C71.3105 447.107 71.002 447.344 70.6113 447.512C71.0723 447.641 71.4355 447.887 71.7012 448.25C71.9707 448.609 72.1055 449.039 72.1055 449.539C72.1055 450.305 71.8574 450.906 71.3613 451.344C70.8652 451.781 70.1641 452 69.2578 452H66.2988ZM67.4238 448.01V451.08H69.2812C69.8047 451.08 70.2168 450.945 70.5176 450.676C70.8223 450.402 70.9746 450.027 70.9746 449.551C70.9746 448.523 70.416 448.01 69.2988 448.01H67.4238ZM67.4238 447.107H69.123C69.6152 447.107 70.0078 446.984 70.3008 446.738C70.5977 446.492 70.7461 446.158 70.7461 445.736C70.7461 445.268 70.6094 444.928 70.3359 444.717C70.0625 444.502 69.6465 444.395 69.0879 444.395H67.4238V447.107ZM74.9062 451.08H78.9492V452H73.7754V443.469H74.9062V451.08ZM85.0547 448.057H81.3574V451.08H85.6523V452H80.2324V443.469H85.5938V444.395H81.3574V447.137H85.0547V448.057Z" fill="black"/>
<rect x="207" y="35" width="453" height="456" fill="#E6F0FF"/>
<line x1="206" y1="72.5" x2="130" y2="72.5" stroke="black"/>
<line x1="206" y1="112.5" x2="130" y2="112.5" stroke="black"/>
<line x1="206" y1="92.5" x2="130" y2="92.5" stroke="black"/>
<line x1="206" y1="52.5" x2="130" y2="52.5" stroke="black"/>
<line x1="206" y1="151.5" x2="130" y2="151.5" stroke="black"/>
<line x1="206" y1="191.5" x2="130" y2="191.5" stroke="black"/>
<line x1="206" y1="171.5" x2="130" y2="171.5" stroke="black"/>
<line x1="206" y1="131.5" x2="130" y2="131.5" stroke="black"/>
<path d="M6.14062 118.736C6.14062 119.15 6.03711 119.518 5.83008 119.838C5.62305 120.158 5.33789 120.414 4.97461 120.605C5.38867 120.805 5.7168 121.08 5.95898 121.432C6.20117 121.779 6.32227 122.189 6.32227 122.662C6.32227 123.42 6.06445 124.02 5.54883 124.461C5.0332 124.898 4.33203 125.117 3.44531 125.117C2.55859 125.117 1.85547 124.896 1.33594 124.455C0.816406 124.014 0.556641 123.416 0.556641 122.662C0.556641 122.189 0.677734 121.777 0.919922 121.426C1.16211 121.074 1.48828 120.801 1.89844 120.605C1.53516 120.414 1.25 120.158 1.04297 119.838C0.839844 119.518 0.738281 119.15 0.738281 118.736C0.738281 118.01 0.980469 117.432 1.46484 117.002C1.94922 116.568 2.60742 116.352 3.43945 116.352C4.26758 116.352 4.92383 116.566 5.4082 116.996C5.89648 117.422 6.14062 118.002 6.14062 118.736ZM4.62305 122.539C4.62305 122.168 4.51562 121.871 4.30078 121.648C4.08594 121.426 3.79688 121.314 3.43359 121.314C3.07422 121.314 2.78711 121.426 2.57227 121.648C2.35742 121.867 2.25 122.164 2.25 122.539C2.25 122.902 2.35547 123.195 2.56641 123.418C2.77734 123.641 3.07031 123.752 3.44531 123.752C3.8125 123.752 4.09961 123.645 4.30664 123.43C4.51758 123.215 4.62305 122.918 4.62305 122.539ZM4.44727 118.818C4.44727 118.486 4.35938 118.221 4.18359 118.021C4.00781 117.818 3.75977 117.717 3.43945 117.717C3.12305 117.717 2.87695 117.814 2.70117 118.01C2.52539 118.205 2.4375 118.475 2.4375 118.818C2.4375 119.158 2.52539 119.432 2.70117 119.639C2.87695 119.846 3.125 119.949 3.44531 119.949C3.76562 119.949 4.01172 119.846 4.18359 119.639C4.35938 119.432 4.44727 119.158 4.44727 118.818ZM10.834 122.029H7.53516V120.664H10.834V122.029ZM17.9062 121.889C17.9062 122.904 17.6895 123.697 17.2559 124.268C16.8223 124.834 16.2168 125.117 15.4395 125.117C14.752 125.117 14.2031 124.854 13.793 124.326L13.7168 125H12.1934V116H13.8867V119.229C14.2773 118.771 14.791 118.543 15.4277 118.543C16.2012 118.543 16.8066 118.828 17.2441 119.398C17.6855 119.965 17.9062 120.764 17.9062 121.795V121.889ZM16.2129 121.766C16.2129 121.125 16.1113 120.658 15.9082 120.365C15.7051 120.068 15.4023 119.92 15 119.92C14.4609 119.92 14.0898 120.141 13.8867 120.582V123.084C14.0938 123.529 14.4688 123.752 15.0117 123.752C15.5586 123.752 15.918 123.482 16.0898 122.943C16.1719 122.686 16.2129 122.293 16.2129 121.766ZM20.7422 125H19.043V118.66H20.7422V125ZM18.9434 117.02C18.9434 116.766 19.0273 116.557 19.1953 116.393C19.3672 116.229 19.5996 116.146 19.8926 116.146C20.1816 116.146 20.4121 116.229 20.584 116.393C20.7559 116.557 20.8418 116.766 20.8418 117.02C20.8418 117.277 20.7539 117.488 20.5781 117.652C20.4062 117.816 20.1777 117.898 19.8926 117.898C19.6074 117.898 19.377 117.816 19.2012 117.652C19.0293 117.488 18.9434 117.277 18.9434 117.02ZM24.1699 117.102V118.66H25.2539V119.902H24.1699V123.066C24.1699 123.301 24.2148 123.469 24.3047 123.57C24.3945 123.672 24.5664 123.723 24.8203 123.723C25.0078 123.723 25.1738 123.709 25.3184 123.682V124.965C24.9863 125.066 24.6445 125.117 24.293 125.117C23.1055 125.117 22.5 124.518 22.4766 123.318V119.902H21.5508V118.66H22.4766V117.102H24.1699ZM28.9219 121.783C28.9219 120.795 29.1426 120.008 29.584 119.422C30.0293 118.836 30.6367 118.543 31.4062 118.543C32.0234 118.543 32.5332 118.773 32.9355 119.234V116H34.6348V125H33.1055L33.0234 124.326C32.6016 124.854 32.0586 125.117 31.3945 125.117C30.6484 125.117 30.0488 124.824 29.5957 124.238C29.1465 123.648 28.9219 122.83 28.9219 121.783ZM30.6152 121.906C30.6152 122.5 30.7188 122.955 30.9258 123.271C31.1328 123.588 31.4336 123.746 31.8281 123.746C32.3516 123.746 32.7207 123.525 32.9355 123.084V120.582C32.7246 120.141 32.3594 119.92 31.8398 119.92C31.0234 119.92 30.6152 120.582 30.6152 121.906ZM39.6211 125C39.543 124.848 39.4863 124.658 39.4512 124.432C39.041 124.889 38.5078 125.117 37.8516 125.117C37.2305 125.117 36.7148 124.938 36.3047 124.578C35.8984 124.219 35.6953 123.766 35.6953 123.219C35.6953 122.547 35.9434 122.031 36.4395 121.672C36.9395 121.312 37.6602 121.131 38.6016 121.127H39.3809V120.764C39.3809 120.471 39.3047 120.236 39.1523 120.061C39.0039 119.885 38.7676 119.797 38.4434 119.797C38.1582 119.797 37.9336 119.865 37.7695 120.002C37.6094 120.139 37.5293 120.326 37.5293 120.564H35.8359C35.8359 120.197 35.9492 119.857 36.1758 119.545C36.4023 119.232 36.7227 118.988 37.1367 118.812C37.5508 118.633 38.0156 118.543 38.5312 118.543C39.3125 118.543 39.9316 118.74 40.3887 119.135C40.8496 119.525 41.0801 120.076 41.0801 120.787V123.535C41.084 124.137 41.168 124.592 41.332 124.9V125H39.6211ZM38.2207 123.822C38.4707 123.822 38.7012 123.768 38.9121 123.658C39.123 123.545 39.2793 123.395 39.3809 123.207V122.117H38.748C37.9004 122.117 37.4492 122.41 37.3945 122.996L37.3887 123.096C37.3887 123.307 37.4629 123.48 37.6113 123.617C37.7598 123.754 37.9629 123.822 38.2207 123.822ZM44.4082 117.102V118.66H45.4922V119.902H44.4082V123.066C44.4082 123.301 44.4531 123.469 44.543 123.57C44.6328 123.672 44.8047 123.723 45.0586 123.723C45.2461 123.723 45.4121 123.709 45.5566 123.682V124.965C45.2246 125.066 44.8828 125.117 44.5312 125.117C43.3438 125.117 42.7383 124.518 42.7148 123.318V119.902H41.7891V118.66H42.7148V117.102H44.4082ZM50.1094 125C50.0312 124.848 49.9746 124.658 49.9395 124.432C49.5293 124.889 48.9961 125.117 48.3398 125.117C47.7188 125.117 47.2031 124.938 46.793 124.578C46.3867 124.219 46.1836 123.766 46.1836 123.219C46.1836 122.547 46.4316 122.031 46.9277 121.672C47.4277 121.312 48.1484 121.131 49.0898 121.127H49.8691V120.764C49.8691 120.471 49.793 120.236 49.6406 120.061C49.4922 119.885 49.2559 119.797 48.9316 119.797C48.6465 119.797 48.4219 119.865 48.2578 120.002C48.0977 120.139 48.0176 120.326 48.0176 120.564H46.3242C46.3242 120.197 46.4375 119.857 46.6641 119.545C46.8906 119.232 47.2109 118.988 47.625 118.812C48.0391 118.633 48.5039 118.543 49.0195 118.543C49.8008 118.543 50.4199 118.74 50.877 119.135C51.3379 119.525 51.5684 120.076 51.5684 120.787V123.535C51.5723 124.137 51.6562 124.592 51.8203 124.9V125H50.1094ZM48.709 123.822C48.959 123.822 49.1895 123.768 49.4004 123.658C49.6113 123.545 49.7676 123.395 49.8691 123.207V122.117H49.2363C48.3887 122.117 47.9375 122.41 47.8828 122.996L47.877 123.096C47.877 123.307 47.9512 123.48 48.0996 123.617C48.248 123.754 48.4512 123.822 48.709 123.822ZM52.9512 124.168C52.9512 123.898 53.041 123.68 53.2207 123.512C53.4043 123.344 53.6328 123.26 53.9062 123.26C54.1836 123.26 54.4121 123.344 54.5918 123.512C54.7754 123.68 54.8672 123.898 54.8672 124.168C54.8672 124.434 54.7773 124.65 54.5977 124.818C54.418 124.982 54.1875 125.064 53.9062 125.064C53.6289 125.064 53.4004 124.982 53.2207 124.818C53.041 124.65 52.9512 124.434 52.9512 124.168ZM52.9512 119.369C52.9512 119.1 53.041 118.881 53.2207 118.713C53.4043 118.545 53.6328 118.461 53.9062 118.461C54.1836 118.461 54.4121 118.545 54.5918 118.713C54.7754 118.881 54.8672 119.1 54.8672 119.369C54.8672 119.635 54.7773 119.852 54.5977 120.02C54.418 120.184 54.1875 120.266 53.9062 120.266C53.6289 120.266 53.4004 120.184 53.2207 120.02C53.041 119.852 52.9512 119.635 52.9512 119.369ZM63.8789 122.135H65.0625V123.02H63.8789V125H62.7891V123.02H58.9043V122.381L62.7246 116.469H63.8789V122.135ZM60.1348 122.135H62.7891V117.951L62.6602 118.186L60.1348 122.135ZM71.6309 125H66.041V124.221L68.9941 120.939C69.4316 120.443 69.7324 120.041 69.8965 119.732C70.0645 119.42 70.1484 119.098 70.1484 118.766C70.1484 118.32 70.0137 117.955 69.7441 117.67C69.4746 117.385 69.1152 117.242 68.666 117.242C68.127 117.242 67.707 117.396 67.4062 117.705C67.1094 118.01 66.9609 118.436 66.9609 118.982H65.877C65.877 118.197 66.1289 117.562 66.6328 117.078C67.1406 116.594 67.8184 116.352 68.666 116.352C69.459 116.352 70.0859 116.561 70.5469 116.979C71.0078 117.393 71.2383 117.945 71.2383 118.637C71.2383 119.477 70.7031 120.477 69.6328 121.637L67.3477 124.115H71.6309V125Z" fill="black"/>
<line x1="206" y1="249.5" x2="130" y2="249.5" stroke="black"/>
<line x1="206" y1="289.5" x2="130" y2="289.5" stroke="black"/>
<line x1="206" y1="269.5" x2="130" y2="269.5" stroke="black"/>
<line x1="206" y1="229.5" x2="130" y2="229.5" stroke="black"/>
<line x1="206" y1="345.5" x2="130" y2="345.5" stroke="black"/>
<line x1="206" y1="382.5" x2="130" y2="382.5" stroke="black"/>
<line x1="206" y1="322.5" x2="130" y2="322.5" stroke="black"/>
<path d="M5.58984 247.789H6.55664V249.154H5.58984V251H3.89648V249.154H0.398438L0.322266 248.088L3.87891 242.469H5.58984V247.789ZM2.00977 247.789H3.89648V244.777L3.78516 244.971L2.00977 247.789ZM10.834 248.029H7.53516V246.664H10.834V248.029ZM17.9062 247.889C17.9062 248.904 17.6895 249.697 17.2559 250.268C16.8223 250.834 16.2168 251.117 15.4395 251.117C14.752 251.117 14.2031 250.854 13.793 250.326L13.7168 251H12.1934V242H13.8867V245.229C14.2773 244.771 14.791 244.543 15.4277 244.543C16.2012 244.543 16.8066 244.828 17.2441 245.398C17.6855 245.965 17.9062 246.764 17.9062 247.795V247.889ZM16.2129 247.766C16.2129 247.125 16.1113 246.658 15.9082 246.365C15.7051 246.068 15.4023 245.92 15 245.92C14.4609 245.92 14.0898 246.141 13.8867 246.582V249.084C14.0938 249.529 14.4688 249.752 15.0117 249.752C15.5586 249.752 15.918 249.482 16.0898 248.943C16.1719 248.686 16.2129 248.293 16.2129 247.766ZM20.7422 251H19.043V244.66H20.7422V251ZM18.9434 243.02C18.9434 242.766 19.0273 242.557 19.1953 242.393C19.3672 242.229 19.5996 242.146 19.8926 242.146C20.1816 242.146 20.4121 242.229 20.584 242.393C20.7559 242.557 20.8418 242.766 20.8418 243.02C20.8418 243.277 20.7539 243.488 20.5781 243.652C20.4062 243.816 20.1777 243.898 19.8926 243.898C19.6074 243.898 19.377 243.816 19.2012 243.652C19.0293 243.488 18.9434 243.277 18.9434 243.02ZM24.1699 243.102V244.66H25.2539V245.902H24.1699V249.066C24.1699 249.301 24.2148 249.469 24.3047 249.57C24.3945 249.672 24.5664 249.723 24.8203 249.723C25.0078 249.723 25.1738 249.709 25.3184 249.682V250.965C24.9863 251.066 24.6445 251.117 24.293 251.117C23.1055 251.117 22.5 250.518 22.4766 249.318V245.902H21.5508V244.66H22.4766V243.102H24.1699ZM32.748 246.248C32.5176 246.217 32.3145 246.201 32.1387 246.201C31.498 246.201 31.0781 246.418 30.8789 246.852V251H29.1855V244.66H30.7852L30.832 245.416C31.1719 244.834 31.6426 244.543 32.2441 244.543C32.4316 244.543 32.6074 244.568 32.7715 244.619L32.748 246.248ZM33.0938 247.771C33.0938 247.143 33.2148 246.582 33.457 246.09C33.6992 245.598 34.0469 245.217 34.5 244.947C34.957 244.678 35.4863 244.543 36.0879 244.543C36.9434 244.543 37.6406 244.805 38.1797 245.328C38.7227 245.852 39.0254 246.562 39.0879 247.461L39.0996 247.895C39.0996 248.867 38.8281 249.648 38.2852 250.238C37.7422 250.824 37.0137 251.117 36.0996 251.117C35.1855 251.117 34.4551 250.824 33.9082 250.238C33.3652 249.652 33.0938 248.855 33.0938 247.848V247.771ZM34.7871 247.895C34.7871 248.496 34.9004 248.957 35.127 249.277C35.3535 249.594 35.6777 249.752 36.0996 249.752C36.5098 249.752 36.8301 249.596 37.0605 249.283C37.291 248.967 37.4062 248.463 37.4062 247.771C37.4062 247.182 37.291 246.725 37.0605 246.4C36.8301 246.076 36.5059 245.914 36.0879 245.914C35.6738 245.914 35.3535 246.076 35.127 246.4C34.9004 246.721 34.7871 247.219 34.7871 247.895ZM45.6562 248.697L46.4883 244.66H48.123L46.5059 251H45.0879L43.8867 247.01L42.6855 251H41.2734L39.6562 244.66H41.291L42.1172 248.691L43.2773 244.66H44.502L45.6562 248.697ZM55.6289 251C55.5508 250.848 55.4941 250.658 55.459 250.432C55.0488 250.889 54.5156 251.117 53.8594 251.117C53.2383 251.117 52.7227 250.938 52.3125 250.578C51.9062 250.219 51.7031 249.766 51.7031 249.219C51.7031 248.547 51.9512 248.031 52.4473 247.672C52.9473 247.312 53.668 247.131 54.6094 247.127H55.3887V246.764C55.3887 246.471 55.3125 246.236 55.1602 246.061C55.0117 245.885 54.7754 245.797 54.4512 245.797C54.166 245.797 53.9414 245.865 53.7773 246.002C53.6172 246.139 53.5371 246.326 53.5371 246.564H51.8438C51.8438 246.197 51.957 245.857 52.1836 245.545C52.4102 245.232 52.7305 244.988 53.1445 244.812C53.5586 244.633 54.0234 244.543 54.5391 244.543C55.3203 244.543 55.9395 244.74 56.3965 245.135C56.8574 245.525 57.0879 246.076 57.0879 246.787V249.535C57.0918 250.137 57.1758 250.592 57.3398 250.9V251H55.6289ZM54.2285 249.822C54.4785 249.822 54.709 249.768 54.9199 249.658C55.1309 249.545 55.2871 249.395 55.3887 249.207V248.117H54.7559C53.9082 248.117 53.457 248.41 53.4023 248.996L53.3965 249.096C53.3965 249.307 53.4707 249.48 53.6191 249.617C53.7676 249.754 53.9707 249.822 54.2285 249.822ZM58.125 247.783C58.125 246.795 58.3457 246.008 58.7871 245.422C59.2324 244.836 59.8398 244.543 60.6094 244.543C61.2266 244.543 61.7363 244.773 62.1387 245.234V242H63.8379V251H62.3086L62.2266 250.326C61.8047 250.854 61.2617 251.117 60.5977 251.117C59.8516 251.117 59.252 250.824 58.7988 250.238C58.3496 249.648 58.125 248.83 58.125 247.783ZM59.8184 247.906C59.8184 248.5 59.9219 248.955 60.1289 249.271C60.3359 249.588 60.6367 249.746 61.0312 249.746C61.5547 249.746 61.9238 249.525 62.1387 249.084V246.582C61.9277 246.141 61.5625 245.92 61.043 245.92C60.2266 245.92 59.8184 246.582 59.8184 247.906ZM64.8867 247.783C64.8867 246.795 65.1074 246.008 65.5488 245.422C65.9941 244.836 66.6016 244.543 67.3711 244.543C67.9883 244.543 68.498 244.773 68.9004 245.234V242H70.5996V251H69.0703L68.9883 250.326C68.5664 250.854 68.0234 251.117 67.3594 251.117C66.6133 251.117 66.0137 250.824 65.5605 250.238C65.1113 249.648 64.8867 248.83 64.8867 247.783ZM66.5801 247.906C66.5801 248.5 66.6836 248.955 66.8906 249.271C67.0977 249.588 67.3984 249.746 67.793 249.746C68.3164 249.746 68.6855 249.525 68.9004 249.084V246.582C68.6895 246.141 68.3242 245.92 67.8047 245.92C66.9883 245.92 66.5801 246.582 66.5801 247.906ZM75.4746 246.248C75.2441 246.217 75.041 246.201 74.8652 246.201C74.2246 246.201 73.8047 246.418 73.6055 246.852V251H71.9121V244.66H73.5117L73.5586 245.416C73.8984 244.834 74.3691 244.543 74.9707 244.543C75.1582 244.543 75.334 244.568 75.498 244.619L75.4746 246.248ZM79.0957 251.117C78.166 251.117 77.4082 250.832 76.8223 250.262C76.2402 249.691 75.9492 248.932 75.9492 247.982V247.818C75.9492 247.182 76.0723 246.613 76.3184 246.113C76.5645 245.609 76.9121 245.223 77.3613 244.953C77.8145 244.68 78.3301 244.543 78.9082 244.543C79.7754 244.543 80.457 244.816 80.9531 245.363C81.4531 245.91 81.7031 246.686 81.7031 247.689V248.381H77.666C77.7207 248.795 77.8848 249.127 78.1582 249.377C78.4355 249.627 78.7852 249.752 79.207 249.752C79.8594 249.752 80.3691 249.516 80.7363 249.043L81.5684 249.975C81.3145 250.334 80.9707 250.615 80.5371 250.818C80.1035 251.018 79.623 251.117 79.0957 251.117ZM78.9023 245.914C78.5664 245.914 78.293 246.027 78.082 246.254C77.875 246.48 77.7422 246.805 77.6836 247.227H80.0391V247.092C80.0312 246.717 79.9297 246.428 79.7344 246.225C79.5391 246.018 79.2617 245.914 78.9023 245.914ZM86.1035 249.248C86.1035 249.041 86 248.879 85.793 248.762C85.5898 248.641 85.2617 248.533 84.8086 248.439C83.3008 248.123 82.5469 247.482 82.5469 246.518C82.5469 245.955 82.7793 245.486 83.2441 245.111C83.7129 244.732 84.3242 244.543 85.0781 244.543C85.8828 244.543 86.5254 244.732 87.0059 245.111C87.4902 245.49 87.7324 245.982 87.7324 246.588H86.0391C86.0391 246.346 85.9609 246.146 85.8047 245.99C85.6484 245.83 85.4043 245.75 85.0723 245.75C84.7871 245.75 84.5664 245.814 84.4102 245.943C84.2539 246.072 84.1758 246.236 84.1758 246.436C84.1758 246.623 84.2637 246.775 84.4395 246.893C84.6191 247.006 84.9199 247.105 85.3418 247.191C85.7637 247.273 86.1191 247.367 86.4082 247.473C87.3027 247.801 87.75 248.369 87.75 249.178C87.75 249.756 87.502 250.225 87.0059 250.584C86.5098 250.939 85.8691 251.117 85.084 251.117C84.5527 251.117 84.0801 251.023 83.666 250.836C83.2559 250.645 82.9336 250.385 82.6992 250.057C82.4648 249.725 82.3477 249.367 82.3477 248.984H83.9531C83.9688 249.285 84.0801 249.516 84.2871 249.676C84.4941 249.836 84.7715 249.916 85.1191 249.916C85.4434 249.916 85.6875 249.855 85.8516 249.734C86.0195 249.609 86.1035 249.447 86.1035 249.248ZM92.2793 249.248C92.2793 249.041 92.1758 248.879 91.9688 248.762C91.7656 248.641 91.4375 248.533 90.9844 248.439C89.4766 248.123 88.7227 247.482 88.7227 246.518C88.7227 245.955 88.9551 245.486 89.4199 245.111C89.8887 244.732 90.5 244.543 91.2539 244.543C92.0586 244.543 92.7012 244.732 93.1816 245.111C93.666 245.49 93.9082 245.982 93.9082 246.588H92.2148C92.2148 246.346 92.1367 246.146 91.9805 245.99C91.8242 245.83 91.5801 245.75 91.248 245.75C90.9629 245.75 90.7422 245.814 90.5859 245.943C90.4297 246.072 90.3516 246.236 90.3516 246.436C90.3516 246.623 90.4395 246.775 90.6152 246.893C90.7949 247.006 91.0957 247.105 91.5176 247.191C91.9395 247.273 92.2949 247.367 92.584 247.473C93.4785 247.801 93.9258 248.369 93.9258 249.178C93.9258 249.756 93.6777 250.225 93.1816 250.584C92.6855 250.939 92.0449 251.117 91.2598 251.117C90.7285 251.117 90.2559 251.023 89.8418 250.836C89.4316 250.645 89.1094 250.385 88.875 250.057C88.6406 249.725 88.5234 249.367 88.5234 248.984H90.1289C90.1445 249.285 90.2559 249.516 90.4629 249.676C90.6699 249.836 90.9473 249.916 91.2949 249.916C91.6191 249.916 91.8633 249.855 92.0273 249.734C92.1953 249.609 92.2793 249.447 92.2793 249.248ZM0.779297 261.537C0.779297 260.654 0.896484 259.807 1.13086 258.994C1.36914 258.182 1.72266 257.443 2.19141 256.779C2.66016 256.115 3.14648 255.646 3.65039 255.373L3.87305 256.088C3.30273 256.525 2.83398 257.193 2.4668 258.092C2.10352 258.99 1.9043 259.996 1.86914 261.109L1.86328 261.607C1.86328 263.115 2.13867 264.424 2.68945 265.533C3.02148 266.197 3.41602 266.717 3.87305 267.092L3.65039 267.754C3.13086 267.465 2.63477 266.98 2.16211 266.301C1.24023 264.973 0.779297 263.385 0.779297 261.537ZM8.83594 265C8.77344 264.875 8.72266 264.652 8.68359 264.332C8.17969 264.855 7.57812 265.117 6.87891 265.117C6.25391 265.117 5.74023 264.941 5.33789 264.59C4.93945 264.234 4.74023 263.785 4.74023 263.242C4.74023 262.582 4.99023 262.07 5.49023 261.707C5.99414 261.34 6.70117 261.156 7.61133 261.156H8.66602V260.658C8.66602 260.279 8.55273 259.979 8.32617 259.756C8.09961 259.529 7.76562 259.416 7.32422 259.416C6.9375 259.416 6.61328 259.514 6.35156 259.709C6.08984 259.904 5.95898 260.141 5.95898 260.418H4.86914C4.86914 260.102 4.98047 259.797 5.20312 259.504C5.42969 259.207 5.73438 258.973 6.11719 258.801C6.50391 258.629 6.92773 258.543 7.38867 258.543C8.11914 258.543 8.69141 258.727 9.10547 259.094C9.51953 259.457 9.73438 259.959 9.75 260.6V263.518C9.75 264.1 9.82422 264.562 9.97266 264.906V265H8.83594ZM7.03711 264.174C7.37695 264.174 7.69922 264.086 8.00391 263.91C8.30859 263.734 8.5293 263.506 8.66602 263.225V261.924H7.81641C6.48828 261.924 5.82422 262.312 5.82422 263.09C5.82422 263.43 5.9375 263.695 6.16406 263.887C6.39062 264.078 6.68164 264.174 7.03711 264.174ZM15.1406 263.318C15.1406 263.025 15.0293 262.799 14.8066 262.639C14.5879 262.475 14.2031 262.334 13.6523 262.217C13.1055 262.1 12.6699 261.959 12.3457 261.795C12.0254 261.631 11.7871 261.436 11.6309 261.209C11.4785 260.982 11.4023 260.713 11.4023 260.4C11.4023 259.881 11.6211 259.441 12.0586 259.082C12.5 258.723 13.0625 258.543 13.7461 258.543C14.4648 258.543 15.0469 258.729 15.4922 259.1C15.9414 259.471 16.166 259.945 16.166 260.523H15.0762C15.0762 260.227 14.9492 259.971 14.6953 259.756C14.4453 259.541 14.1289 259.434 13.7461 259.434C13.3516 259.434 13.043 259.52 12.8203 259.691C12.5977 259.863 12.4863 260.088 12.4863 260.365C12.4863 260.627 12.5898 260.824 12.7969 260.957C13.0039 261.09 13.377 261.217 13.916 261.338C14.459 261.459 14.8984 261.604 15.2344 261.771C15.5703 261.939 15.8184 262.143 15.9785 262.381C16.1426 262.615 16.2246 262.902 16.2246 263.242C16.2246 263.809 15.998 264.264 15.5449 264.607C15.0918 264.947 14.5039 265.117 13.7812 265.117C13.2734 265.117 12.8242 265.027 12.4336 264.848C12.043 264.668 11.7363 264.418 11.5137 264.098C11.2949 263.773 11.1855 263.424 11.1855 263.049H12.2695C12.2891 263.412 12.4336 263.701 12.7031 263.916C12.9766 264.127 13.3359 264.232 13.7812 264.232C14.1914 264.232 14.5195 264.15 14.7656 263.986C15.0156 263.818 15.1406 263.596 15.1406 263.318ZM23.9121 261.549H21.9082V265H20.7773V256.469H23.6016C24.5625 256.469 25.3008 256.688 25.8164 257.125C26.3359 257.562 26.5957 258.199 26.5957 259.035C26.5957 259.566 26.4512 260.029 26.1621 260.424C25.877 260.818 25.4785 261.113 24.9668 261.309L26.9707 264.93V265H25.7637L23.9121 261.549ZM21.9082 260.629H23.6367C24.1953 260.629 24.6387 260.484 24.9668 260.195C25.2988 259.906 25.4648 259.52 25.4648 259.035C25.4648 258.508 25.3066 258.104 24.9902 257.822C24.6777 257.541 24.2246 257.398 23.6309 257.395H21.9082V260.629ZM32.8887 262.773H29.3145L28.5117 265H27.3516L30.6094 256.469H31.5938L34.8574 265H33.7031L32.8887 262.773ZM29.6543 261.848H32.5547L31.1016 257.857L29.6543 261.848ZM38.5195 261.197C37.5547 260.92 36.8516 260.58 36.4102 260.178C35.9727 259.771 35.7539 259.271 35.7539 258.678C35.7539 258.006 36.0215 257.451 36.5566 257.014C37.0957 256.572 37.7949 256.352 38.6543 256.352C39.2402 256.352 39.7617 256.465 40.2188 256.691C40.6797 256.918 41.0352 257.23 41.2852 257.629C41.5391 258.027 41.666 258.463 41.666 258.936H40.5352C40.5352 258.42 40.3711 258.016 40.043 257.723C39.7148 257.426 39.252 257.277 38.6543 257.277C38.0996 257.277 37.666 257.4 37.3535 257.646C37.0449 257.889 36.8906 258.227 36.8906 258.66C36.8906 259.008 37.0371 259.303 37.3301 259.545C37.627 259.783 38.1289 260.002 38.8359 260.201C39.5469 260.4 40.1016 260.621 40.5 260.863C40.9023 261.102 41.1992 261.381 41.3906 261.701C41.5859 262.021 41.6836 262.398 41.6836 262.832C41.6836 263.523 41.4141 264.078 40.875 264.496C40.3359 264.91 39.6152 265.117 38.7129 265.117C38.127 265.117 37.5801 265.006 37.0723 264.783C36.5645 264.557 36.1719 264.248 35.8945 263.857C35.6211 263.467 35.4844 263.023 35.4844 262.527H36.6152C36.6152 263.043 36.8047 263.451 37.1836 263.752C37.5664 264.049 38.0762 264.197 38.7129 264.197C39.3066 264.197 39.7617 264.076 40.0781 263.834C40.3945 263.592 40.5527 263.262 40.5527 262.844C40.5527 262.426 40.4062 262.104 40.1133 261.877C39.8203 261.646 39.2891 261.42 38.5195 261.197ZM47.1152 265H46.0312V258.66H47.1152V265ZM45.9434 256.979C45.9434 256.803 45.9961 256.654 46.1016 256.533C46.2109 256.412 46.3711 256.352 46.582 256.352C46.793 256.352 46.9531 256.412 47.0625 256.533C47.1719 256.654 47.2266 256.803 47.2266 256.979C47.2266 257.154 47.1719 257.301 47.0625 257.418C46.9531 257.535 46.793 257.594 46.582 257.594C46.3711 257.594 46.2109 257.535 46.1016 257.418C45.9961 257.301 45.9434 257.154 45.9434 256.979ZM52.5469 263.318C52.5469 263.025 52.4355 262.799 52.2129 262.639C51.9941 262.475 51.6094 262.334 51.0586 262.217C50.5117 262.1 50.0762 261.959 49.752 261.795C49.4316 261.631 49.1934 261.436 49.0371 261.209C48.8848 260.982 48.8086 260.713 48.8086 260.4C48.8086 259.881 49.0273 259.441 49.4648 259.082C49.9062 258.723 50.4688 258.543 51.1523 258.543C51.8711 258.543 52.4531 258.729 52.8984 259.1C53.3477 259.471 53.5723 259.945 53.5723 260.523H52.4824C52.4824 260.227 52.3555 259.971 52.1016 259.756C51.8516 259.541 51.5352 259.434 51.1523 259.434C50.7578 259.434 50.4492 259.52 50.2266 259.691C50.0039 259.863 49.8926 260.088 49.8926 260.365C49.8926 260.627 49.9961 260.824 50.2031 260.957C50.4102 261.09 50.7832 261.217 51.3223 261.338C51.8652 261.459 52.3047 261.604 52.6406 261.771C52.9766 261.939 53.2246 262.143 53.3848 262.381C53.5488 262.615 53.6309 262.902 53.6309 263.242C53.6309 263.809 53.4043 264.264 52.9512 264.607C52.498 264.947 51.9102 265.117 51.1875 265.117C50.6797 265.117 50.2305 265.027 49.8398 264.848C49.4492 264.668 49.1426 264.418 48.9199 264.098C48.7012 263.773 48.5918 263.424 48.5918 263.049H49.6758C49.6953 263.412 49.8398 263.701 50.1094 263.916C50.3828 264.127 50.7422 264.232 51.1875 264.232C51.5977 264.232 51.9258 264.15 52.1719 263.986C52.4219 263.818 52.5469 263.596 52.5469 263.318ZM60.6504 265.117C59.791 265.117 59.0918 264.836 58.5527 264.273C58.0137 263.707 57.7441 262.951 57.7441 262.006V261.807C57.7441 261.178 57.8633 260.617 58.1016 260.125C58.3438 259.629 58.6797 259.242 59.1094 258.965C59.543 258.684 60.0117 258.543 60.5156 258.543C61.3398 258.543 61.9805 258.814 62.4375 259.357C62.8945 259.9 63.123 260.678 63.123 261.689V262.141H58.8281C58.8438 262.766 59.0254 263.271 59.373 263.658C59.7246 264.041 60.1699 264.232 60.709 264.232C61.0918 264.232 61.416 264.154 61.6816 263.998C61.9473 263.842 62.1797 263.635 62.3789 263.377L63.041 263.893C62.5098 264.709 61.7129 265.117 60.6504 265.117ZM60.5156 259.434C60.0781 259.434 59.7109 259.594 59.4141 259.914C59.1172 260.23 58.9336 260.676 58.8633 261.25H62.0391V261.168C62.0078 260.617 61.8594 260.191 61.5938 259.891C61.3281 259.586 60.9688 259.434 60.5156 259.434ZM65.4082 258.66L65.4434 259.457C65.9277 258.848 66.5605 258.543 67.3418 258.543C68.6816 258.543 69.3574 259.299 69.3691 260.811V265H68.2852V260.805C68.2812 260.348 68.1758 260.01 67.9688 259.791C67.7656 259.572 67.4473 259.463 67.0137 259.463C66.6621 259.463 66.3535 259.557 66.0879 259.744C65.8223 259.932 65.6152 260.178 65.4668 260.482V265H64.3828V258.66H65.4082ZM74.918 265C74.8555 264.875 74.8047 264.652 74.7656 264.332C74.2617 264.855 73.6602 265.117 72.9609 265.117C72.3359 265.117 71.8223 264.941 71.4199 264.59C71.0215 264.234 70.8223 263.785 70.8223 263.242C70.8223 262.582 71.0723 262.07 71.5723 261.707C72.0762 261.34 72.7832 261.156 73.6934 261.156H74.748V260.658C74.748 260.279 74.6348 259.979 74.4082 259.756C74.1816 259.529 73.8477 259.416 73.4062 259.416C73.0195 259.416 72.6953 259.514 72.4336 259.709C72.1719 259.904 72.041 260.141 72.041 260.418H70.9512C70.9512 260.102 71.0625 259.797 71.2852 259.504C71.5117 259.207 71.8164 258.973 72.1992 258.801C72.5859 258.629 73.0098 258.543 73.4707 258.543C74.2012 258.543 74.7734 258.727 75.1875 259.094C75.6016 259.457 75.8164 259.959 75.832 260.6V263.518C75.832 264.1 75.9062 264.562 76.0547 264.906V265H74.918ZM73.1191 264.174C73.459 264.174 73.7812 264.086 74.0859 263.91C74.3906 263.734 74.6113 263.506 74.748 263.225V261.924H73.8984C72.5703 261.924 71.9062 262.312 71.9062 263.09C71.9062 263.43 72.0195 263.695 72.2461 263.887C72.4727 264.078 72.7637 264.174 73.1191 264.174ZM82.8984 261.9C82.8984 262.869 82.6758 263.648 82.2305 264.238C81.7852 264.824 81.1875 265.117 80.4375 265.117C79.6367 265.117 79.0176 264.834 78.5801 264.268L78.5273 265H77.5312V256H78.6152V259.357C79.0527 258.814 79.6562 258.543 80.4258 258.543C81.1953 258.543 81.7988 258.834 82.2363 259.416C82.6777 259.998 82.8984 260.795 82.8984 261.807V261.9ZM81.8145 261.777C81.8145 261.039 81.6719 260.469 81.3867 260.066C81.1016 259.664 80.6914 259.463 80.1562 259.463C79.4414 259.463 78.9277 259.795 78.6152 260.459V263.201C78.9473 263.865 79.4648 264.197 80.168 264.197C80.6875 264.197 81.0918 263.996 81.3809 263.594C81.6699 263.191 81.8145 262.586 81.8145 261.777ZM85.4473 265H84.3633V256H85.4473V265ZM89.8184 265.117C88.959 265.117 88.2598 264.836 87.7207 264.273C87.1816 263.707 86.9121 262.951 86.9121 262.006V261.807C86.9121 261.178 87.0312 260.617 87.2695 260.125C87.5117 259.629 87.8477 259.242 88.2773 258.965C88.7109 258.684 89.1797 258.543 89.6836 258.543C90.5078 258.543 91.1484 258.814 91.6055 259.357C92.0625 259.9 92.291 260.678 92.291 261.689V262.141H87.9961C88.0117 262.766 88.1934 263.271 88.541 263.658C88.8926 264.041 89.3379 264.232 89.877 264.232C90.2598 264.232 90.584 264.154 90.8496 263.998C91.1152 263.842 91.3477 263.635 91.5469 263.377L92.209 263.893C91.6777 264.709 90.8809 265.117 89.8184 265.117ZM89.6836 259.434C89.2461 259.434 88.8789 259.594 88.582 259.914C88.2852 260.23 88.1016 260.676 88.0312 261.25H91.207V261.168C91.1758 260.617 91.0273 260.191 90.7617 259.891C90.4961 259.586 90.1367 259.434 89.6836 259.434ZM93.2871 261.777C93.2871 260.805 93.5176 260.023 93.9785 259.434C94.4395 258.84 95.043 258.543 95.7891 258.543C96.5312 258.543 97.1191 258.797 97.5527 259.305V256H98.6367V265H97.6406L97.5879 264.32C97.1543 264.852 96.5508 265.117 95.7773 265.117C95.043 265.117 94.4434 264.816 93.9785 264.215C93.5176 263.613 93.2871 262.828 93.2871 261.859V261.777ZM94.3711 261.9C94.3711 262.619 94.5195 263.182 94.8164 263.588C95.1133 263.994 95.5234 264.197 96.0469 264.197C96.7344 264.197 97.2363 263.889 97.5527 263.271V260.359C97.2285 259.762 96.7305 259.463 96.0586 259.463C95.5273 259.463 95.1133 259.668 94.8164 260.078C94.5195 260.488 94.3711 261.096 94.3711 261.9ZM102.826 261.596C102.826 262.467 102.711 263.303 102.48 264.104C102.254 264.9 101.904 265.637 101.432 266.312C100.963 266.988 100.471 267.469 99.9551 267.754L99.7266 267.092C100.328 266.631 100.811 265.916 101.174 264.947C101.541 263.975 101.729 262.896 101.736 261.713V261.525C101.736 260.705 101.65 259.943 101.479 259.24C101.307 258.533 101.066 257.9 100.758 257.342C100.453 256.783 100.109 256.348 99.7266 256.035L99.9551 255.373C100.471 255.658 100.961 256.135 101.426 256.803C101.895 257.471 102.244 258.207 102.475 259.012C102.709 259.816 102.826 260.678 102.826 261.596Z" fill="black"/>
<line x1="207" y1="427.5" x2="42" y2="427.5" stroke="black"/>
<rect x="227" y="57" width="22" height="22" fill="#BBBBBB"/>
<rect x="253" y="57" width="22" height="22" fill="#BBBBBB"/>
<rect x="227" y="83" width="22" height="22" fill="#BBBBBB"/>
<rect x="253" y="83" width="22" height="22" fill="#BBBBBB"/>
<rect x="279" y="57" width="22" height="22" fill="#BBBBBB"/>
<rect x="305" y="57" width="22" height="22" fill="#BBBBBB"/>
<rect x="279" y="83" width="22" height="22" fill="#BBBBBB"/>
<rect x="305" y="83" width="22" height="22" fill="#BBBBBB"/>
<rect x="331" y="57" width="22" height="22" fill="#BBBBBB"/>
<rect x="357" y="57" width="22" height="22" fill="#BBBBBB"/>
<rect x="331" y="83" width="22" height="22" fill="#BBBBBB"/>
<rect x="357" y="83" width="22" height="22" fill="#BBBBBB"/>
<rect x="383" y="57" width="22" height="22" fill="#BBBBBB"/>
<rect x="409" y="57" width="22" height="22" fill="#BBBBBB"/>
<rect x="383" y="83" width="22" height="22" fill="#BBBBBB"/>
<rect x="409" y="83" width="22" height="22" fill="#BBBBBB"/>
<rect x="435" y="57" width="22" height="22" fill="#BBBBBB"/>
<rect x="461" y="57" width="22" height="22" fill="#BBBBBB"/>
<rect x="435" y="83" width="22" height="22" fill="#BBBBBB"/>
<rect x="461" y="83" width="22" height="22" fill="#BBBBBB"/>
<rect x="487" y="57" width="22" height="22" fill="#BBBBBB"/>
<rect x="513" y="57" width="22" height="22" fill="#BBBBBB"/>
<rect x="487" y="83" width="22" height="22" fill="#BBBBBB"/>
<rect x="513" y="83" width="22" height="22" fill="#BBBBBB"/>
<rect x="539" y="57" width="22" height="22" fill="#BBBBBB"/>
<rect x="565" y="57" width="22" height="22" fill="#BBBBBB"/>
<rect x="539" y="83" width="22" height="22" fill="#BBBBBB"/>
<rect x="565" y="83" width="22" height="22" fill="#BBBBBB"/>
<rect x="591" y="57" width="22" height="22" fill="#BBBBBB"/>
<rect x="617" y="57" width="22" height="22" fill="#BBBBBB"/>
<rect x="591" y="83" width="22" height="22" fill="#BBBBBB"/>
<rect x="617" y="83" width="22" height="22" fill="#BBBBBB"/>
<rect x="227" y="109" width="22" height="22" fill="#BBBBBB"/>
<rect x="253" y="109" width="22" height="22" fill="#BBBBBB"/>
<rect x="227" y="135" width="22" height="22" fill="#BBBBBB"/>
<rect x="253" y="135" width="22" height="22" fill="#BBBBBB"/>
<rect x="279" y="109" width="22" height="22" fill="#BBBBBB"/>
<rect x="305" y="109" width="22" height="22" fill="#BBBBBB"/>
<rect x="279" y="135" width="22" height="22" fill="#BBBBBB"/>
<rect x="305" y="135" width="22" height="22" fill="#BBBBBB"/>
<rect x="331" y="109" width="22" height="22" fill="#BBBBBB"/>
<rect x="357" y="109" width="22" height="22" fill="#BBBBBB"/>
<rect x="331" y="135" width="22" height="22" fill="#BBBBBB"/>
<rect x="357" y="135" width="22" height="22" fill="#BBBBBB"/>
<rect x="383" y="109" width="22" height="22" fill="#BBBBBB"/>
<rect x="409" y="109" width="22" height="22" fill="#BBBBBB"/>
<rect x="383" y="135" width="22" height="22" fill="#BBBBBB"/>
<rect x="409" y="135" width="22" height="22" fill="#BBBBBB"/>
<rect x="435" y="109" width="22" height="22" fill="#BBBBBB"/>
<rect x="461" y="109" width="22" height="22" fill="#BBBBBB"/>
<rect x="435" y="135" width="22" height="22" fill="#BBBBBB"/>
<rect x="461" y="135" width="22" height="22" fill="#BBBBBB"/>
<rect x="487" y="109" width="22" height="22" fill="#BBBBBB"/>
<rect x="513" y="109" width="22" height="22" fill="#BBBBBB"/>
<rect x="487" y="135" width="22" height="22" fill="#BBBBBB"/>
<rect x="513" y="135" width="22" height="22" fill="#BBBBBB"/>
<rect x="539" y="109" width="22" height="22" fill="#BBBBBB"/>
<rect x="565" y="109" width="22" height="22" fill="#BBBBBB"/>
<rect x="539" y="135" width="22" height="22" fill="#BBBBBB"/>
<rect x="565" y="135" width="22" height="22" fill="#BBBBBB"/>
<rect x="591" y="109" width="22" height="22" fill="#BBBBBB"/>
<rect x="617" y="109" width="22" height="22" fill="#BBBBBB"/>
<rect x="591" y="135" width="22" height="22" fill="#BBBBBB"/>
<rect x="617" y="135" width="22" height="22" fill="#BBBBBB"/>
<rect x="227" y="369" width="22" height="22" fill="#BBBBBB"/>
<rect x="253" y="369" width="22" height="22" fill="#BBBBBB"/>
<rect x="227" y="395" width="22" height="22" fill="#BBBBBB"/>
<rect x="253" y="395" width="22" height="22" fill="#BBBBBB"/>
<rect x="279" y="369" width="22" height="22" fill="#BBBBBB"/>
<rect x="305" y="369" width="22" height="22" fill="#BBBBBB"/>
<rect x="279" y="395" width="22" height="22" fill="#BBBBBB"/>
<rect x="305" y="395" width="22" height="22" fill="#BBBBBB"/>
<rect x="331" y="369" width="22" height="22" fill="#BBBBBB"/>
<rect x="357" y="369" width="22" height="22" fill="#BBBBBB"/>
<rect x="331" y="395" width="22" height="22" fill="#BBBBBB"/>
<rect x="357" y="395" width="22" height="22" fill="#BBBBBB"/>
<rect x="383" y="369" width="22" height="22" fill="#BBBBBB"/>
<rect x="409" y="369" width="22" height="22" fill="#BBBBBB"/>
<rect x="383" y="395" width="22" height="22" fill="#BBBBBB"/>
<rect x="409" y="395" width="22" height="22" fill="#BBBBBB"/>
<rect x="435" y="369" width="22" height="22" fill="#BBBBBB"/>
<rect x="461" y="369" width="22" height="22" fill="#BBBBBB"/>
<rect x="435" y="395" width="22" height="22" fill="#BBBBBB"/>
<rect x="461" y="395" width="22" height="22" fill="#BBBBBB"/>
<rect x="487" y="369" width="22" height="22" fill="#BBBBBB"/>
<rect x="513" y="369" width="22" height="22" fill="#BBBBBB"/>
<rect x="487" y="395" width="22" height="22" fill="#BBBBBB"/>
<rect x="513" y="395" width="22" height="22" fill="#BBBBBB"/>
<rect x="539" y="369" width="22" height="22" fill="#BBBBBB"/>
<rect x="565" y="369" width="22" height="22" fill="#BBBBBB"/>
<rect x="539" y="395" width="22" height="22" fill="#BBBBBB"/>
<rect x="565" y="395" width="22" height="22" fill="#BBBBBB"/>
<rect x="591" y="369" width="22" height="22" fill="#BBBBBB"/>
<rect x="617" y="369" width="22" height="22" fill="#BBBBBB"/>
<rect x="591" y="395" width="22" height="22" fill="#BBBBBB"/>
<rect x="617" y="395" width="22" height="22" fill="#BBBBBB"/>
<rect x="227" y="421" width="22" height="22" fill="#BBBBBB"/>
<rect x="253" y="421" width="22" height="22" fill="#BBBBBB"/>
<rect x="279" y="421" width="22" height="22" fill="#BBBBBB"/>
<rect x="305" y="421" width="22" height="22" fill="#BBBBBB"/>
<rect x="331" y="421" width="22" height="22" fill="#BBBBBB"/>
<rect x="357" y="421" width="22" height="22" fill="#BBBBBB"/>
<rect x="383" y="421" width="22" height="22" fill="#BBBBBB"/>
<rect x="409" y="421" width="22" height="22" fill="#BBBBBB"/>
<rect x="435" y="421" width="22" height="22" fill="#BBBBBB"/>
<rect x="461" y="421" width="22" height="22" fill="#BBBBBB"/>
<rect x="487" y="421" width="22" height="22" fill="#BBBBBB"/>
<rect x="513" y="421" width="22" height="22" fill="#BBBBBB"/>
<rect x="539" y="421" width="22" height="22" fill="#BBBBBB"/>
<rect x="565" y="421" width="22" height="22" fill="#BBBBBB"/>
<rect x="591" y="421" width="22" height="22" fill="#BBBBBB"/>
<rect x="617" y="421" width="22" height="22" fill="#BBBBBB"/>
<rect x="227" y="265" width="22" height="22" fill="#BBBBBB"/>
<rect x="253" y="265" width="22" height="22" fill="#BBBBBB"/>
<rect x="227" y="291" width="22" height="22" fill="#BBBBBB"/>
<rect x="253" y="291" width="22" height="22" fill="#BBBBBB"/>
<rect x="279" y="265" width="22" height="22" fill="#BBBBBB"/>
<rect x="305" y="265" width="22" height="22" fill="#BBBBBB"/>
<rect x="279" y="291" width="22" height="22" fill="#BBBBBB"/>
<rect x="305" y="291" width="22" height="22" fill="#BBBBBB"/>
<rect x="331" y="265" width="22" height="22" fill="#BBBBBB"/>
<rect x="357" y="265" width="22" height="22" fill="#BBBBBB"/>
<rect x="331" y="291" width="22" height="22" fill="#BBBBBB"/>
<rect x="357" y="291" width="22" height="22" fill="#BBBBBB"/>
<rect x="383" y="265" width="22" height="22" fill="#BBBBBB"/>
<rect x="409" y="265" width="22" height="22" fill="#BBBBBB"/>
<rect x="383" y="291" width="22" height="22" fill="#BBBBBB"/>
<rect x="409" y="291" width="22" height="22" fill="#BBBBBB"/>
<rect x="435" y="265" width="22" height="22" fill="#BBBBBB"/>
<rect x="461" y="265" width="22" height="22" fill="#BBBBBB"/>
<rect x="435" y="291" width="22" height="22" fill="#BBBBBB"/>
<rect x="461" y="291" width="22" height="22" fill="#BBBBBB"/>
<rect x="487" y="265" width="22" height="22" fill="#BBBBBB"/>
<rect x="513" y="265" width="22" height="22" fill="#BBBBBB"/>
<rect x="487" y="291" width="22" height="22" fill="#BBBBBB"/>
<rect x="513" y="291" width="22" height="22" fill="#BBBBBB"/>
<rect x="539" y="265" width="22" height="22" fill="#BBBBBB"/>
<rect x="565" y="265" width="22" height="22" fill="#BBBBBB"/>
<rect x="539" y="291" width="22" height="22" fill="#BBBBBB"/>
<rect x="565" y="291" width="22" height="22" fill="#BBBBBB"/>
<rect x="591" y="265" width="22" height="22" fill="#BBBBBB"/>
<rect x="617" y="265" width="22" height="22" fill="#BBBBBB"/>
<rect x="591" y="291" width="22" height="22" fill="#BBBBBB"/>
<rect x="617" y="291" width="22" height="22" fill="#BBBBBB"/>
<rect x="227" y="317" width="22" height="22" fill="#BBBBBB"/>
<rect x="253" y="317" width="22" height="22" fill="#BBBBBB"/>
<rect x="227" y="343" width="22" height="22" fill="#BBBBBB"/>
<rect x="253" y="343" width="22" height="22" fill="#BBBBBB"/>
<rect x="279" y="317" width="22" height="22" fill="#BBBBBB"/>
<rect x="305" y="317" width="22" height="22" fill="#BBBBBB"/>
<rect x="279" y="343" width="22" height="22" fill="#BBBBBB"/>
<rect x="305" y="343" width="22" height="22" fill="#BBBBBB"/>
<rect x="331" y="317" width="22" height="22" fill="#BBBBBB"/>
<rect x="357" y="317" width="22" height="22" fill="#BBBBBB"/>
<rect x="331" y="343" width="22" height="22" fill="#BBBBBB"/>
<rect x="357" y="343" width="22" height="22" fill="#BBBBBB"/>
<rect x="383" y="317" width="22" height="22" fill="#BBBBBB"/>
<rect x="409" y="317" width="22" height="22" fill="#BBBBBB"/>
<rect x="383" y="343" width="22" height="22" fill="#BBBBBB"/>
<rect x="409" y="343" width="22" height="22" fill="#BBBBBB"/>
<rect x="435" y="317" width="22" height="22" fill="#BBBBBB"/>
<rect x="461" y="317" width="22" height="22" fill="#BBBBBB"/>
<rect x="435" y="343" width="22" height="22" fill="#BBBBBB"/>
<rect x="461" y="343" width="22" height="22" fill="#BBBBBB"/>
<rect x="487" y="317" width="22" height="22" fill="#BBBBBB"/>
<rect x="513" y="317" width="22" height="22" fill="#BBBBBB"/>
<rect x="487" y="343" width="22" height="22" fill="#BBBBBB"/>
<rect x="513" y="343" width="22" height="22" fill="#BBBBBB"/>
<rect x="539" y="317" width="22" height="22" fill="#BBBBBB"/>
<rect x="565" y="317" width="22" height="22" fill="#BBBBBB"/>
<rect x="539" y="343" width="22" height="22" fill="#BBBBBB"/>
<rect x="565" y="343" width="22" height="22" fill="#BBBBBB"/>
<rect x="591" y="317" width="22" height="22" fill="#BBBBBB"/>
<rect x="617" y="317" width="22" height="22" fill="#BBBBBB"/>
<rect x="591" y="343" width="22" height="22" fill="#BBBBBB"/>
<rect x="617" y="343" width="22" height="22" fill="#BBBBBB"/>
<rect x="227" y="161" width="22" height="22" fill="#BBBBBB"/>
<rect x="253" y="161" width="22" height="22" fill="#BBBBBB"/>
<rect x="227" y="187" width="22" height="22" fill="#BBBBBB"/>
<rect x="253" y="187" width="22" height="22" fill="#BBBBBB"/>
<rect x="279" y="161" width="22" height="22" fill="#BBBBBB"/>
<rect x="305" y="161" width="22" height="22" fill="#BBBBBB"/>
<rect x="279" y="187" width="22" height="22" fill="#BBBBBB"/>
<rect x="305" y="187" width="22" height="22" fill="#BBBBBB"/>
<rect x="331" y="161" width="22" height="22" fill="#BBBBBB"/>
<rect x="357" y="161" width="22" height="22" fill="#BBBBBB"/>
<rect x="331" y="187" width="22" height="22" fill="#BBBBBB"/>
<rect x="357" y="187" width="22" height="22" fill="#BBBBBB"/>
<rect x="383" y="161" width="22" height="22" fill="#BBBBBB"/>
<rect x="409" y="161" width="22" height="22" fill="#BBBBBB"/>
<rect x="383" y="187" width="22" height="22" fill="#BBBBBB"/>
<rect x="409" y="187" width="22" height="22" fill="#BBBBBB"/>
<rect x="435" y="161" width="22" height="22" fill="#BBBBBB"/>
<rect x="461" y="161" width="22" height="22" fill="#BBBBBB"/>
<rect x="435" y="187" width="22" height="22" fill="#BBBBBB"/>
<rect x="461" y="187" width="22" height="22" fill="#BBBBBB"/>
<rect x="487" y="161" width="22" height="22" fill="#BBBBBB"/>
<rect x="513" y="161" width="22" height="22" fill="#BBBBBB"/>
<rect x="487" y="187" width="22" height="22" fill="#BBBBBB"/>
<rect x="513" y="187" width="22" height="22" fill="#BBBBBB"/>
<rect x="539" y="161" width="22" height="22" fill="#BBBBBB"/>
<rect x="565" y="161" width="22" height="22" fill="#BBBBBB"/>
<rect x="539" y="187" width="22" height="22" fill="#BBBBBB"/>
<rect x="565" y="187" width="22" height="22" fill="#BBBBBB"/>
<rect x="591" y="161" width="22" height="22" fill="#BBBBBB"/>
<rect x="617" y="161" width="22" height="22" fill="#BBBBBB"/>
<rect x="591" y="187" width="22" height="22" fill="#BBBBBB"/>
<rect x="617" y="187" width="22" height="22" fill="#BBBBBB"/>
<rect x="227" y="213" width="22" height="22" fill="#BBBBBB"/>
<rect x="253" y="213" width="22" height="22" fill="#BBBBBB"/>
<rect x="227" y="239" width="22" height="22" fill="#BBBBBB"/>
<rect x="253" y="239" width="22" height="22" fill="#BBBBBB"/>
<rect x="279" y="213" width="22" height="22" fill="#BBBBBB"/>
<rect x="305" y="213" width="22" height="22" fill="#BBBBBB"/>
<rect x="279" y="239" width="22" height="22" fill="#BBBBBB"/>
<rect x="305" y="239" width="22" height="22" fill="#BBBBBB"/>
<rect x="331" y="213" width="22" height="22" fill="#BBBBBB"/>
<rect x="357" y="213" width="22" height="22" fill="#BBBBBB"/>
<rect x="331" y="239" width="22" height="22" fill="#BBBBBB"/>
<rect x="357" y="239" width="22" height="22" fill="#BBBBBB"/>
<rect x="383" y="213" width="22" height="22" fill="#BBBBBB"/>
<rect x="409" y="213" width="22" height="22" fill="#BBBBBB"/>
<rect x="383" y="239" width="22" height="22" fill="#BBBBBB"/>
<rect x="409" y="239" width="22" height="22" fill="#BBBBBB"/>
<rect x="435" y="213" width="22" height="22" fill="#BBBBBB"/>
<rect x="461" y="213" width="22" height="22" fill="#BBBBBB"/>
<rect x="435" y="239" width="22" height="22" fill="#BBBBBB"/>
<rect x="461" y="239" width="22" height="22" fill="#BBBBBB"/>
<rect x="487" y="213" width="22" height="22" fill="#BBBBBB"/>
<rect x="513" y="213" width="22" height="22" fill="#BBBBBB"/>
<rect x="487" y="239" width="22" height="22" fill="#BBBBBB"/>
<rect x="513" y="239" width="22" height="22" fill="#BBBBBB"/>
<rect x="539" y="213" width="22" height="22" fill="#BBBBBB"/>
<rect x="565" y="213" width="22" height="22" fill="#BBBBBB"/>
<rect x="539" y="239" width="22" height="22" fill="#BBBBBB"/>
<rect x="565" y="239" width="22" height="22" fill="#BBBBBB"/>
<rect x="591" y="213" width="22" height="22" fill="#BBBBBB"/>
<rect x="617" y="213" width="22" height="22" fill="#BBBBBB"/>
<rect x="591" y="239" width="22" height="22" fill="#BBBBBB"/>
<path d="M119.059 52.3613C119.059 53.6309 118.842 54.5742 118.408 55.1914C117.975 55.8086 117.297 56.1172 116.375 56.1172C115.465 56.1172 114.791 55.8164 114.354 55.2148C113.916 54.6094 113.689 53.707 113.674 52.5078V51.0605C113.674 49.8066 113.891 48.875 114.324 48.2656C114.758 47.6562 115.438 47.3516 116.363 47.3516C117.281 47.3516 117.957 47.6465 118.391 48.2363C118.824 48.8223 119.047 49.7285 119.059 50.9551V52.3613ZM117.975 50.8789C117.975 49.9609 117.846 49.293 117.588 48.875C117.33 48.4531 116.922 48.2422 116.363 48.2422C115.809 48.2422 115.404 48.4512 115.15 48.8691C114.896 49.2871 114.766 49.9297 114.758 50.7969V52.5312C114.758 53.4531 114.891 54.1348 115.156 54.5762C115.426 55.0137 115.832 55.2324 116.375 55.2324C116.91 55.2324 117.307 55.0254 117.564 54.6113C117.826 54.1973 117.963 53.5449 117.975 52.6543V50.8789Z" fill="black"/>
<path d="M119.059 72.3613C119.059 73.6309 118.842 74.5742 118.408 75.1914C117.975 75.8086 117.297 76.1172 116.375 76.1172C115.465 76.1172 114.791 75.8164 114.354 75.2148C113.916 74.6094 113.689 73.707 113.674 72.5078V71.0605C113.674 69.8066 113.891 68.875 114.324 68.2656C114.758 67.6562 115.438 67.3516 116.363 67.3516C117.281 67.3516 117.957 67.6465 118.391 68.2363C118.824 68.8223 119.047 69.7285 119.059 70.9551V72.3613ZM117.975 70.8789C117.975 69.9609 117.846 69.293 117.588 68.875C117.33 68.4531 116.922 68.2422 116.363 68.2422C115.809 68.2422 115.404 68.4512 115.15 68.8691C114.896 69.2871 114.766 69.9297 114.758 70.7969V72.5312C114.758 73.4531 114.891 74.1348 115.156 74.5762C115.426 75.0137 115.832 75.2324 116.375 75.2324C116.91 75.2324 117.307 75.0254 117.564 74.6113C117.826 74.1973 117.963 73.5449 117.975 72.6543V70.8789Z" fill="black"/>
<path d="M120.059 112.361C120.059 113.631 119.842 114.574 119.408 115.191C118.975 115.809 118.297 116.117 117.375 116.117C116.465 116.117 115.791 115.816 115.354 115.215C114.916 114.609 114.689 113.707 114.674 112.508V111.061C114.674 109.807 114.891 108.875 115.324 108.266C115.758 107.656 116.438 107.352 117.363 107.352C118.281 107.352 118.957 107.646 119.391 108.236C119.824 108.822 120.047 109.729 120.059 110.955V112.361ZM118.975 110.879C118.975 109.961 118.846 109.293 118.588 108.875C118.33 108.453 117.922 108.242 117.363 108.242C116.809 108.242 116.404 108.451 116.15 108.869C115.896 109.287 115.766 109.93 115.758 110.797V112.531C115.758 113.453 115.891 114.135 116.156 114.576C116.426 115.014 116.832 115.232 117.375 115.232C117.91 115.232 118.307 115.025 118.564 114.611C118.826 114.197 118.963 113.545 118.975 112.654V110.879Z" fill="black"/>
<path d="M117.271 96H116.182V88.7754L113.996 89.5781V88.5938L117.102 87.4277H117.271V96Z" fill="black"/>
<path d="M118.271 134H117.182V126.775L114.996 127.578V126.594L118.102 125.428H118.271V134Z" fill="black"/>
<path d="M120.059 150.361C120.059 151.631 119.842 152.574 119.408 153.191C118.975 153.809 118.297 154.117 117.375 154.117C116.465 154.117 115.791 153.816 115.354 153.215C114.916 152.609 114.689 151.707 114.674 150.508V149.061C114.674 147.807 114.891 146.875 115.324 146.266C115.758 145.656 116.438 145.352 117.363 145.352C118.281 145.352 118.957 145.646 119.391 146.236C119.824 146.822 120.047 147.729 120.059 148.955V150.361ZM118.975 148.879C118.975 147.961 118.846 147.293 118.588 146.875C118.33 146.453 117.922 146.242 117.363 146.242C116.809 146.242 116.404 146.451 116.15 146.869C115.896 147.287 115.766 147.93 115.758 148.797V150.531C115.758 151.453 115.891 152.135 116.156 152.576C116.426 153.014 116.832 153.232 117.375 153.232C117.91 153.232 118.307 153.025 118.564 152.611C118.826 152.197 118.963 151.545 118.975 150.654V148.879Z" fill="black"/>
<path d="M121.059 190.361C121.059 191.631 120.842 192.574 120.408 193.191C119.975 193.809 119.297 194.117 118.375 194.117C117.465 194.117 116.791 193.816 116.354 193.215C115.916 192.609 115.689 191.707 115.674 190.508V189.061C115.674 187.807 115.891 186.875 116.324 186.266C116.758 185.656 117.438 185.352 118.363 185.352C119.281 185.352 119.957 185.646 120.391 186.236C120.824 186.822 121.047 187.729 121.059 188.955V190.361ZM119.975 188.879C119.975 187.961 119.846 187.293 119.588 186.875C119.33 186.453 118.922 186.242 118.363 186.242C117.809 186.242 117.404 186.451 117.15 186.869C116.896 187.287 116.766 187.93 116.758 188.797V190.531C116.758 191.453 116.891 192.135 117.156 192.576C117.426 193.014 117.832 193.232 118.375 193.232C118.91 193.232 119.307 193.025 119.564 192.611C119.826 192.197 119.963 191.545 119.975 190.654V188.879Z" fill="black"/>
<path d="M118.271 174H117.182V166.775L114.996 167.578V166.594L118.102 165.428H118.271V174Z" fill="black"/>
<path d="M28.2715 429H27.1816V421.775L24.9961 422.578V421.594L28.1016 420.428H28.2715V429Z" fill="black"/>
<path d="M118.059 247.361C118.059 248.631 117.842 249.574 117.408 250.191C116.975 250.809 116.297 251.117 115.375 251.117C114.465 251.117 113.791 250.816 113.354 250.215C112.916 249.609 112.689 248.707 112.674 247.508V246.061C112.674 244.807 112.891 243.875 113.324 243.266C113.758 242.656 114.438 242.352 115.363 242.352C116.281 242.352 116.957 242.646 117.391 243.236C117.824 243.822 118.047 244.729 118.059 245.955V247.361ZM116.975 245.879C116.975 244.961 116.846 244.293 116.588 243.875C116.33 243.453 115.922 243.242 115.363 243.242C114.809 243.242 114.404 243.451 114.15 243.869C113.896 244.287 113.766 244.93 113.758 245.797V247.531C113.758 248.453 113.891 249.135 114.156 249.576C114.426 250.014 114.832 250.232 115.375 250.232C115.91 250.232 116.307 250.025 116.564 249.611C116.826 249.197 116.963 248.545 116.975 247.654V245.879Z" fill="black"/>
<path d="M119.059 289.361C119.059 290.631 118.842 291.574 118.408 292.191C117.975 292.809 117.297 293.117 116.375 293.117C115.465 293.117 114.791 292.816 114.354 292.215C113.916 291.609 113.689 290.707 113.674 289.508V288.061C113.674 286.807 113.891 285.875 114.324 285.266C114.758 284.656 115.438 284.352 116.363 284.352C117.281 284.352 117.957 284.646 118.391 285.236C118.824 285.822 119.047 286.729 119.059 287.955V289.361ZM117.975 287.879C117.975 286.961 117.846 286.293 117.588 285.875C117.33 285.453 116.922 285.242 116.363 285.242C115.809 285.242 115.404 285.451 115.15 285.869C114.896 286.287 114.766 286.93 114.758 287.797V289.531C114.758 290.453 114.891 291.135 115.156 291.576C115.426 292.014 115.832 292.232 116.375 292.232C116.91 292.232 117.307 292.025 117.564 291.611C117.826 291.197 117.963 290.545 117.975 289.654V287.879Z" fill="black"/>
<path d="M118.059 346.361C118.059 347.631 117.842 348.574 117.408 349.191C116.975 349.809 116.297 350.117 115.375 350.117C114.465 350.117 113.791 349.816 113.354 349.215C112.916 348.609 112.689 347.707 112.674 346.508V345.061C112.674 343.807 112.891 342.875 113.324 342.266C113.758 341.656 114.438 341.352 115.363 341.352C116.281 341.352 116.957 341.646 117.391 342.236C117.824 342.822 118.047 343.729 118.059 344.955V346.361ZM116.975 344.879C116.975 343.961 116.846 343.293 116.588 342.875C116.33 342.453 115.922 342.242 115.363 342.242C114.809 342.242 114.404 342.451 114.15 342.869C113.896 343.287 113.766 343.93 113.758 344.797V346.531C113.758 347.453 113.891 348.135 114.156 348.576C114.426 349.014 114.832 349.232 115.375 349.232C115.91 349.232 116.307 349.025 116.564 348.611C116.826 348.197 116.963 347.545 116.975 346.654V344.879Z" fill="black"/>
<path d="M116.271 271H115.182V263.775L112.996 264.578V263.594L116.102 262.428H116.271V271Z" fill="black"/>
<path d="M116.271 231H115.182V223.775L112.996 224.578V223.594L116.102 222.428H116.271V231Z" fill="black"/>
<path d="M116.271 326H115.182V318.775L112.996 319.578V318.594L116.102 317.428H116.271V326Z" fill="black"/>
<path d="M46.1191 417.034H44.1152V420.485H42.9844V411.954H45.8086C46.7695 411.954 47.5078 412.173 48.0234 412.61C48.543 413.048 48.8027 413.684 48.8027 414.52C48.8027 415.052 48.6582 415.514 48.3691 415.909C48.084 416.303 47.6855 416.598 47.1738 416.794L49.1777 420.415V420.485H47.9707L46.1191 417.034ZM44.1152 416.114H45.8438C46.4023 416.114 46.8457 415.969 47.1738 415.68C47.5059 415.391 47.6719 415.005 47.6719 414.52C47.6719 413.993 47.5137 413.589 47.1973 413.307C46.8848 413.026 46.4316 412.884 45.8379 412.88H44.1152V416.114ZM55.207 416.542H51.5098V419.565H55.8047V420.485H50.3848V411.954H55.7461V412.88H51.5098V415.622H55.207V416.542ZM61.916 418.259H58.3418L57.5391 420.485H56.3789L59.6367 411.954H60.6211L63.8848 420.485H62.7305L61.916 418.259ZM58.6816 417.333H61.582L60.1289 413.343L58.6816 417.333ZM65.0332 420.485V411.954H67.4414C68.1836 411.954 68.8398 412.118 69.4102 412.446C69.9805 412.774 70.4199 413.241 70.7285 413.846C71.041 414.452 71.1992 415.147 71.2031 415.932V416.477C71.2031 417.282 71.0469 417.987 70.7344 418.593C70.4258 419.198 69.9824 419.663 69.4043 419.987C68.8301 420.311 68.1602 420.477 67.3945 420.485H65.0332ZM66.1582 412.88V419.565H67.3418C68.209 419.565 68.8828 419.296 69.3633 418.757C69.8477 418.218 70.0898 417.45 70.0898 416.454V415.956C70.0898 414.987 69.8613 414.235 69.4043 413.7C68.9512 413.161 68.3066 412.887 67.4707 412.88H66.1582ZM75.9316 421.218H75L78.5625 411.954H79.4883L75.9316 421.218ZM85.6465 417.796L85.8105 418.921L86.0508 417.907L87.7383 411.954H88.6875L90.334 417.907L90.5684 418.938L90.75 417.79L92.0742 411.954H93.2051L91.1367 420.485H90.1113L88.3535 414.268L88.2188 413.618L88.084 414.268L86.2617 420.485H85.2363L83.1738 411.954H84.2988L85.6465 417.796ZM97.5879 417.034H95.584V420.485H94.4531V411.954H97.2773C98.2383 411.954 98.9766 412.173 99.4922 412.61C100.012 413.048 100.271 413.684 100.271 414.52C100.271 415.052 100.127 415.514 99.8379 415.909C99.5527 416.303 99.1543 416.598 98.6426 416.794L100.646 420.415V420.485H99.4395L97.5879 417.034ZM95.584 416.114H97.3125C97.8711 416.114 98.3145 415.969 98.6426 415.68C98.9746 415.391 99.1406 415.005 99.1406 414.52C99.1406 413.993 98.9824 413.589 98.666 413.307C98.3535 413.026 97.9004 412.884 97.3066 412.88H95.584V416.114ZM103.061 420.485H101.936V411.954H103.061V420.485ZM110.842 412.88H108.1V420.485H106.98V412.88H104.244V411.954H110.842V412.88ZM116.93 416.542H113.232V419.565H117.527V420.485H112.107V411.954H117.469V412.88H113.232V415.622H116.93V416.542Z" fill="black"/>
<path d="M133.92 314.877H132.52V318H130.762V309.469H133.932C134.939 309.469 135.717 309.693 136.264 310.143C136.811 310.592 137.084 311.227 137.084 312.047C137.084 312.629 136.957 313.115 136.703 313.506C136.453 313.893 136.072 314.201 135.561 314.432L137.406 317.918V318H135.52L133.92 314.877ZM132.52 313.453H133.938C134.379 313.453 134.721 313.342 134.963 313.119C135.205 312.893 135.326 312.582 135.326 312.188C135.326 311.785 135.211 311.469 134.98 311.238C134.754 311.008 134.404 310.893 133.932 310.893H132.52V313.453ZM143.242 316.242H140.16L139.574 318H137.705L140.881 309.469H142.51L145.703 318H143.834L143.242 316.242ZM140.635 314.818H142.768L141.695 311.625L140.635 314.818ZM150.924 315.762C150.924 315.43 150.807 315.176 150.572 315C150.338 314.82 149.916 314.633 149.307 314.438C148.697 314.238 148.215 314.043 147.859 313.852C146.891 313.328 146.406 312.623 146.406 311.736C146.406 311.275 146.535 310.865 146.793 310.506C147.055 310.143 147.428 309.859 147.912 309.656C148.4 309.453 148.947 309.352 149.553 309.352C150.162 309.352 150.705 309.463 151.182 309.686C151.658 309.904 152.027 310.215 152.289 310.617C152.555 311.02 152.688 311.477 152.688 311.988H150.93C150.93 311.598 150.807 311.295 150.561 311.08C150.314 310.861 149.969 310.752 149.523 310.752C149.094 310.752 148.76 310.844 148.521 311.027C148.283 311.207 148.164 311.445 148.164 311.742C148.164 312.02 148.303 312.252 148.58 312.439C148.861 312.627 149.273 312.803 149.816 312.967C150.816 313.268 151.545 313.641 152.002 314.086C152.459 314.531 152.688 315.086 152.688 315.75C152.688 316.488 152.408 317.068 151.85 317.49C151.291 317.908 150.539 318.117 149.594 318.117C148.938 318.117 148.34 317.998 147.801 317.76C147.262 317.518 146.85 317.188 146.564 316.77C146.283 316.352 146.143 315.867 146.143 315.316H147.906C147.906 316.258 148.469 316.729 149.594 316.729C150.012 316.729 150.338 316.645 150.572 316.477C150.807 316.305 150.924 316.066 150.924 315.762Z" fill="black"/>
<path d="M137.266 338.293C137.16 339.195 136.826 339.893 136.264 340.385C135.705 340.873 134.961 341.117 134.031 341.117C133.023 341.117 132.215 340.756 131.605 340.033C131 339.311 130.697 338.344 130.697 337.133V336.312C130.697 335.52 130.838 334.822 131.119 334.221C131.404 333.619 131.807 333.158 132.326 332.838C132.846 332.514 133.447 332.352 134.131 332.352C135.037 332.352 135.764 332.605 136.311 333.113C136.857 333.617 137.176 334.316 137.266 335.211H136.135C136.037 334.531 135.824 334.039 135.496 333.734C135.172 333.43 134.717 333.277 134.131 333.277C133.412 333.277 132.848 333.543 132.438 334.074C132.031 334.605 131.828 335.361 131.828 336.342V337.168C131.828 338.094 132.021 338.83 132.408 339.377C132.795 339.924 133.336 340.197 134.031 340.197C134.656 340.197 135.135 340.057 135.467 339.775C135.803 339.49 136.025 338.996 136.135 338.293H137.266ZM143.518 338.773H139.943L139.141 341H137.98L141.238 332.469H142.223L145.486 341H144.332L143.518 338.773ZM140.283 337.848H143.184L141.73 333.857L140.283 337.848ZM149.148 337.197C148.184 336.92 147.48 336.58 147.039 336.178C146.602 335.771 146.383 335.271 146.383 334.678C146.383 334.006 146.65 333.451 147.186 333.014C147.725 332.572 148.424 332.352 149.283 332.352C149.869 332.352 150.391 332.465 150.848 332.691C151.309 332.918 151.664 333.23 151.914 333.629C152.168 334.027 152.295 334.463 152.295 334.936H151.164C151.164 334.42 151 334.016 150.672 333.723C150.344 333.426 149.881 333.277 149.283 333.277C148.729 333.277 148.295 333.4 147.982 333.646C147.674 333.889 147.52 334.227 147.52 334.66C147.52 335.008 147.666 335.303 147.959 335.545C148.256 335.783 148.758 336.002 149.465 336.201C150.176 336.4 150.73 336.621 151.129 336.863C151.531 337.102 151.828 337.381 152.02 337.701C152.215 338.021 152.312 338.398 152.312 338.832C152.312 339.523 152.043 340.078 151.504 340.496C150.965 340.91 150.244 341.117 149.342 341.117C148.756 341.117 148.209 341.006 147.701 340.783C147.193 340.557 146.801 340.248 146.523 339.857C146.25 339.467 146.113 339.023 146.113 338.527H147.244C147.244 339.043 147.434 339.451 147.812 339.752C148.195 340.049 148.705 340.197 149.342 340.197C149.936 340.197 150.391 340.076 150.707 339.834C151.023 339.592 151.182 339.262 151.182 338.844C151.182 338.426 151.035 338.104 150.742 337.877C150.449 337.646 149.918 337.42 149.148 337.197Z" fill="black"/>
<rect x="617" y="239" width="22" height="22" fill="#BBBBBB"/>
<path d="M231.479 5.35938L236.593 18.1211L241.706 5.35938H244.381V21H242.318V14.9092L242.512 8.33496L237.377 21H235.798L230.674 8.36719L230.878 14.9092V21H228.815V5.35938H231.479ZM252.534 21.2148C250.959 21.2148 249.677 20.6992 248.688 19.668C247.7 18.6296 247.206 17.2438 247.206 15.5107V15.1455C247.206 13.9925 247.424 12.9648 247.861 12.0625C248.305 11.153 248.921 10.444 249.709 9.93555C250.504 9.41992 251.363 9.16211 252.287 9.16211C253.798 9.16211 254.973 9.65983 255.811 10.6553C256.648 11.6507 257.067 13.0758 257.067 14.9307V15.7578H249.193C249.222 16.9036 249.555 17.8311 250.192 18.54C250.837 19.2419 251.653 19.5928 252.642 19.5928C253.343 19.5928 253.938 19.4495 254.425 19.1631C254.912 18.8766 255.338 18.4971 255.703 18.0244L256.917 18.9697C255.943 20.4665 254.482 21.2148 252.534 21.2148ZM252.287 10.7949C251.485 10.7949 250.812 11.0885 250.268 11.6758C249.723 12.2559 249.387 13.0723 249.258 14.125H255.08V13.9746C255.023 12.9648 254.751 12.1842 254.264 11.6328C253.777 11.0742 253.118 10.7949 252.287 10.7949ZM261.246 9.37695L261.3 10.666C262.152 9.66341 263.301 9.16211 264.748 9.16211C266.374 9.16211 267.48 9.78516 268.067 11.0312C268.454 10.4727 268.955 10.0215 269.571 9.67773C270.194 9.33398 270.928 9.16211 271.773 9.16211C274.323 9.16211 275.619 10.512 275.662 13.2119V21H273.675V13.3301C273.675 12.4993 273.485 11.8799 273.105 11.4717C272.726 11.0563 272.089 10.8486 271.193 10.8486C270.456 10.8486 269.843 11.0706 269.356 11.5146C268.869 11.9515 268.587 12.5423 268.508 13.2871V21H266.51V13.3838C266.51 11.6937 265.683 10.8486 264.028 10.8486C262.725 10.8486 261.833 11.4036 261.354 12.5137V21H259.366V9.37695H261.246ZM278.144 15.0811C278.144 13.9424 278.366 12.9183 278.81 12.0088C279.261 11.0993 279.884 10.3975 280.679 9.90332C281.481 9.40918 282.394 9.16211 283.418 9.16211C285.001 9.16211 286.279 9.70996 287.253 10.8057C288.234 11.9014 288.725 13.3587 288.725 15.1777V15.3174C288.725 16.4489 288.506 17.4658 288.069 18.3682C287.64 19.2633 287.02 19.9616 286.211 20.4629C285.409 20.9642 284.485 21.2148 283.439 21.2148C281.864 21.2148 280.586 20.667 279.604 19.5713C278.631 18.4756 278.144 17.0254 278.144 15.2207V15.0811ZM280.142 15.3174C280.142 16.6064 280.439 17.6413 281.033 18.4219C281.635 19.2025 282.437 19.5928 283.439 19.5928C284.449 19.5928 285.251 19.1989 285.846 18.4111C286.44 17.6162 286.737 16.5062 286.737 15.0811C286.737 13.8063 286.433 12.7751 285.824 11.9873C285.223 11.1924 284.421 10.7949 283.418 10.7949C282.437 10.7949 281.646 11.1852 281.044 11.9658C280.442 12.7464 280.142 13.8636 280.142 15.3174ZM296.835 11.1602C296.534 11.11 296.208 11.085 295.857 11.085C294.554 11.085 293.67 11.64 293.204 12.75V21H291.217V9.37695H293.15L293.183 10.7197C293.834 9.68132 294.758 9.16211 295.954 9.16211C296.341 9.16211 296.634 9.21224 296.835 9.3125V11.1602ZM302.668 18.0889L305.375 9.37695H307.502L302.829 22.7939C302.106 24.7275 300.956 25.6943 299.381 25.6943L299.005 25.6621L298.264 25.5225V23.9111L298.801 23.9541C299.474 23.9541 299.997 23.818 300.369 23.5459C300.749 23.2738 301.06 22.776 301.304 22.0527L301.744 20.8711L297.598 9.37695H299.768L302.668 18.0889ZM315.054 21V5.35938H320.167C321.864 5.35938 323.139 5.71029 323.991 6.41211C324.851 7.11393 325.28 8.15234 325.28 9.52734C325.28 10.2578 325.073 10.9059 324.657 11.4717C324.242 12.0303 323.676 12.4635 322.96 12.7715C323.805 13.0078 324.471 13.459 324.958 14.125C325.452 14.7839 325.699 15.5716 325.699 16.4883C325.699 17.8919 325.244 18.9948 324.335 19.7969C323.425 20.599 322.14 21 320.479 21H315.054ZM317.116 13.6846V19.3135H320.521C321.481 19.3135 322.237 19.0664 322.788 18.5723C323.347 18.071 323.626 17.3835 323.626 16.5098C323.626 14.6263 322.602 13.6846 320.554 13.6846H317.116ZM317.116 12.0303H320.231C321.134 12.0303 321.854 11.8047 322.391 11.3535C322.935 10.9023 323.207 10.29 323.207 9.5166C323.207 8.65723 322.956 8.03418 322.455 7.64746C321.954 7.25358 321.191 7.05664 320.167 7.05664H317.116V12.0303ZM335.625 21C335.51 20.7708 335.417 20.3626 335.346 19.7754C334.422 20.735 333.319 21.2148 332.037 21.2148C330.891 21.2148 329.95 20.8926 329.212 20.248C328.481 19.5964 328.116 18.7728 328.116 17.7773C328.116 16.5671 328.575 15.6289 329.491 14.9629C330.415 14.2897 331.711 13.9531 333.38 13.9531H335.313V13.04C335.313 12.3454 335.106 11.7939 334.69 11.3857C334.275 10.9704 333.663 10.7627 332.854 10.7627C332.145 10.7627 331.55 10.9417 331.07 11.2998C330.59 11.6579 330.351 12.0911 330.351 12.5996H328.353C328.353 12.0195 328.557 11.4609 328.965 10.9238C329.38 10.3796 329.939 9.94987 330.641 9.63477C331.35 9.31966 332.127 9.16211 332.972 9.16211C334.311 9.16211 335.36 9.4987 336.119 10.1719C336.878 10.8379 337.272 11.7581 337.301 12.9326V18.2822C337.301 19.3493 337.437 20.1979 337.709 20.8281V21H335.625ZM332.327 19.4854C332.95 19.4854 333.541 19.3242 334.1 19.002C334.658 18.6797 335.063 18.2607 335.313 17.7451V15.3604H333.756C331.321 15.3604 330.104 16.0729 330.104 17.498C330.104 18.1211 330.311 18.6081 330.727 18.959C331.142 19.3099 331.675 19.4854 332.327 19.4854ZM342.296 9.37695L342.36 10.8379C343.248 9.7207 344.409 9.16211 345.841 9.16211C348.297 9.16211 349.536 10.5479 349.558 13.3193V21H347.57V13.3086C347.563 12.4707 347.37 11.8512 346.99 11.4502C346.618 11.0492 346.034 10.8486 345.239 10.8486C344.595 10.8486 344.029 11.0205 343.542 11.3643C343.055 11.708 342.675 12.1592 342.403 12.7178V21H340.416V9.37695H342.296ZM355.799 15.6182L354.553 16.918V21H352.565V4.5H354.553V14.4795L355.616 13.2012L359.236 9.37695H361.653L357.131 14.2324L362.18 21H359.849L355.799 15.6182ZM379.453 18.2607L381.688 9.37695H383.675L380.291 21H378.68L375.854 12.1914L373.104 21H371.493L368.12 9.37695H370.097L372.385 18.0781L375.092 9.37695H376.692L379.453 18.2607ZM387.864 21H385.877V9.37695H387.864V21ZM385.716 6.29395C385.716 5.97168 385.812 5.69954 386.006 5.47754C386.206 5.25553 386.5 5.14453 386.887 5.14453C387.273 5.14453 387.567 5.25553 387.768 5.47754C387.968 5.69954 388.068 5.97168 388.068 6.29395C388.068 6.61621 387.968 6.88477 387.768 7.09961C387.567 7.31445 387.273 7.42188 386.887 7.42188C386.5 7.42188 386.206 7.31445 386.006 7.09961C385.812 6.88477 385.716 6.61621 385.716 6.29395ZM393.751 6.5625V9.37695H395.921V10.9131H393.751V18.1211C393.751 18.5866 393.848 18.9375 394.041 19.1738C394.234 19.403 394.564 19.5176 395.029 19.5176C395.258 19.5176 395.574 19.4746 395.975 19.3887V21C395.452 21.1432 394.943 21.2148 394.449 21.2148C393.561 21.2148 392.892 20.9463 392.44 20.4092C391.989 19.8721 391.764 19.1094 391.764 18.1211V10.9131H389.647V9.37695H391.764V6.5625H393.751ZM400.239 10.7842C401.12 9.7028 402.266 9.16211 403.677 9.16211C406.133 9.16211 407.372 10.5479 407.394 13.3193V21H405.406V13.3086C405.399 12.4707 405.206 11.8512 404.826 11.4502C404.454 11.0492 403.87 10.8486 403.075 10.8486C402.431 10.8486 401.865 11.0205 401.378 11.3643C400.891 11.708 400.511 12.1592 400.239 12.7178V21H398.252V4.5H400.239V10.7842ZM425.87 21H415.622V19.5713L421.036 13.5557C421.838 12.6462 422.39 11.9085 422.69 11.3428C422.998 10.7699 423.152 10.179 423.152 9.57031C423.152 8.75391 422.905 8.08431 422.411 7.56152C421.917 7.03874 421.258 6.77734 420.435 6.77734C419.446 6.77734 418.676 7.06022 418.125 7.62598C417.581 8.18457 417.309 8.96517 417.309 9.96777H415.321C415.321 8.52832 415.783 7.36458 416.707 6.47656C417.638 5.58854 418.881 5.14453 420.435 5.14453C421.888 5.14453 423.038 5.52767 423.883 6.29395C424.728 7.05306 425.15 8.06641 425.15 9.33398C425.15 10.8737 424.169 12.707 422.207 14.834L418.018 19.3779H425.87V21ZM428.889 13.1582L429.684 5.35938H437.697V7.19629H431.37L430.897 11.4609C431.664 11.0098 432.534 10.7842 433.508 10.7842C434.933 10.7842 436.064 11.2568 436.902 12.2021C437.74 13.1403 438.159 14.4115 438.159 16.0156C438.159 17.627 437.722 18.8981 436.849 19.8291C435.982 20.7529 434.768 21.2148 433.207 21.2148C431.825 21.2148 430.697 20.8317 429.823 20.0654C428.95 19.2992 428.452 18.2393 428.33 16.8857H430.21C430.332 17.7809 430.65 18.4577 431.166 18.916C431.682 19.3672 432.362 19.5928 433.207 19.5928C434.131 19.5928 434.854 19.2777 435.377 18.6475C435.907 18.0173 436.172 17.1471 436.172 16.0371C436.172 14.9915 435.885 14.1536 435.312 13.5234C434.747 12.8861 433.991 12.5674 433.046 12.5674C432.179 12.5674 431.499 12.7572 431.005 13.1367L430.479 13.5664L428.889 13.1582ZM448.128 5.34863V7.03516H447.763C446.216 7.0638 444.984 7.52214 444.067 8.41016C443.151 9.29818 442.621 10.5479 442.478 12.1592C443.301 11.2139 444.425 10.7412 445.851 10.7412C447.211 10.7412 448.296 11.221 449.105 12.1807C449.922 13.1403 450.33 14.3792 450.33 15.8975C450.33 17.5088 449.89 18.7979 449.009 19.7646C448.135 20.7314 446.961 21.2148 445.485 21.2148C443.989 21.2148 442.775 20.6419 441.844 19.4961C440.913 18.3431 440.447 16.8607 440.447 15.0488V14.2861C440.447 11.4072 441.06 9.20866 442.284 7.69043C443.516 6.16504 445.346 5.38444 447.773 5.34863H448.128ZM445.518 12.3955C444.837 12.3955 444.211 12.5996 443.638 13.0078C443.065 13.416 442.667 13.9281 442.445 14.5439V15.2744C442.445 16.5635 442.735 17.6019 443.315 18.3896C443.896 19.1774 444.619 19.5713 445.485 19.5713C446.381 19.5713 447.082 19.2419 447.591 18.583C448.106 17.9242 448.364 17.0612 448.364 15.9941C448.364 14.9199 448.103 14.0534 447.58 13.3945C447.064 12.7285 446.377 12.3955 445.518 12.3955ZM465.52 21C465.405 20.7708 465.312 20.3626 465.24 19.7754C464.316 20.735 463.214 21.2148 461.932 21.2148C460.786 21.2148 459.844 20.8926 459.106 20.248C458.376 19.5964 458.011 18.7728 458.011 17.7773C458.011 16.5671 458.469 15.6289 459.386 14.9629C460.31 14.2897 461.606 13.9531 463.274 13.9531H465.208V13.04C465.208 12.3454 465 11.7939 464.585 11.3857C464.17 10.9704 463.557 10.7627 462.748 10.7627C462.039 10.7627 461.445 10.9417 460.965 11.2998C460.485 11.6579 460.245 12.0911 460.245 12.5996H458.247C458.247 12.0195 458.451 11.4609 458.859 10.9238C459.275 10.3796 459.833 9.94987 460.535 9.63477C461.244 9.31966 462.021 9.16211 462.866 9.16211C464.205 9.16211 465.255 9.4987 466.014 10.1719C466.773 10.8379 467.167 11.7581 467.195 12.9326V18.2822C467.195 19.3493 467.331 20.1979 467.604 20.8281V21H465.52ZM462.222 19.4854C462.845 19.4854 463.436 19.3242 463.994 19.002C464.553 18.6797 464.957 18.2607 465.208 17.7451V15.3604H463.65C461.215 15.3604 459.998 16.0729 459.998 17.498C459.998 18.1211 460.206 18.6081 460.621 18.959C461.036 19.3099 461.57 19.4854 462.222 19.4854ZM469.827 15.0918C469.827 13.3086 470.25 11.8763 471.095 10.7949C471.94 9.70638 473.046 9.16211 474.414 9.16211C475.775 9.16211 476.853 9.6276 477.647 10.5586V4.5H479.635V21H477.809L477.712 19.7539C476.917 20.7279 475.811 21.2148 474.393 21.2148C473.046 21.2148 471.947 20.6634 471.095 19.5605C470.25 18.4577 469.827 17.0182 469.827 15.2422V15.0918ZM471.814 15.3174C471.814 16.6351 472.087 17.6663 472.631 18.4111C473.175 19.1559 473.927 19.5283 474.887 19.5283C476.147 19.5283 477.067 18.9626 477.647 17.8311V12.4922C477.053 11.3965 476.14 10.8486 474.908 10.8486C473.934 10.8486 473.175 11.2246 472.631 11.9766C472.087 12.7285 471.814 13.8421 471.814 15.3174ZM482.245 15.0918C482.245 13.3086 482.668 11.8763 483.513 10.7949C484.358 9.70638 485.464 9.16211 486.832 9.16211C488.193 9.16211 489.271 9.6276 490.065 10.5586V4.5H492.053V21H490.227L490.13 19.7539C489.335 20.7279 488.229 21.2148 486.811 21.2148C485.464 21.2148 484.365 20.6634 483.513 19.5605C482.668 18.4577 482.245 17.0182 482.245 15.2422V15.0918ZM484.232 15.3174C484.232 16.6351 484.505 17.6663 485.049 18.4111C485.593 19.1559 486.345 19.5283 487.305 19.5283C488.565 19.5283 489.485 18.9626 490.065 17.8311V12.4922C489.471 11.3965 488.558 10.8486 487.326 10.8486C486.352 10.8486 485.593 11.2246 485.049 11.9766C484.505 12.7285 484.232 13.8421 484.232 15.3174ZM500.765 11.1602C500.464 11.11 500.138 11.085 499.787 11.085C498.484 11.085 497.599 11.64 497.134 12.75V21H495.146V9.37695H497.08L497.112 10.7197C497.764 9.68132 498.688 9.16211 499.884 9.16211C500.271 9.16211 500.564 9.21224 500.765 9.3125V11.1602ZM507.21 21.2148C505.634 21.2148 504.353 20.6992 503.364 19.668C502.376 18.6296 501.882 17.2438 501.882 15.5107V15.1455C501.882 13.9925 502.1 12.9648 502.537 12.0625C502.981 11.153 503.597 10.444 504.385 9.93555C505.18 9.41992 506.039 9.16211 506.963 9.16211C508.474 9.16211 509.648 9.65983 510.486 10.6553C511.324 11.6507 511.743 13.0758 511.743 14.9307V15.7578H503.869C503.898 16.9036 504.231 17.8311 504.868 18.54C505.513 19.2419 506.329 19.5928 507.317 19.5928C508.019 19.5928 508.614 19.4495 509.101 19.1631C509.588 18.8766 510.014 18.4971 510.379 18.0244L511.593 18.9697C510.619 20.4665 509.158 21.2148 507.21 21.2148ZM506.963 10.7949C506.161 10.7949 505.488 11.0885 504.943 11.6758C504.399 12.2559 504.062 13.0723 503.934 14.125H509.756V13.9746C509.699 12.9648 509.426 12.1842 508.939 11.6328C508.452 11.0742 507.794 10.7949 506.963 10.7949ZM520.82 17.917C520.82 17.3799 520.616 16.9645 520.208 16.6709C519.807 16.3701 519.102 16.1123 518.092 15.8975C517.089 15.6826 516.291 15.4248 515.696 15.124C515.109 14.8232 514.672 14.4652 514.386 14.0498C514.106 13.6344 513.967 13.1403 513.967 12.5674C513.967 11.6149 514.368 10.8092 515.17 10.1504C515.979 9.49154 517.01 9.16211 518.264 9.16211C519.581 9.16211 520.648 9.50228 521.465 10.1826C522.288 10.863 522.7 11.7331 522.7 12.793H520.702C520.702 12.2487 520.469 11.7796 520.004 11.3857C519.546 10.9919 518.965 10.7949 518.264 10.7949C517.54 10.7949 516.975 10.9525 516.566 11.2676C516.158 11.5827 515.954 11.9945 515.954 12.5029C515.954 12.9827 516.144 13.3444 516.523 13.5879C516.903 13.8314 517.587 14.0641 518.575 14.2861C519.571 14.5081 520.376 14.7731 520.992 15.0811C521.608 15.389 522.063 15.7614 522.356 16.1982C522.657 16.6279 522.808 17.1543 522.808 17.7773C522.808 18.8158 522.392 19.6501 521.562 20.2803C520.731 20.9033 519.653 21.2148 518.328 21.2148C517.397 21.2148 516.574 21.0501 515.857 20.7207C515.141 20.3913 514.579 19.9329 514.171 19.3457C513.77 18.7513 513.569 18.1104 513.569 17.4229H515.557C515.592 18.0889 515.857 18.6188 516.352 19.0127C516.853 19.3994 517.512 19.5928 518.328 19.5928C519.08 19.5928 519.682 19.4424 520.133 19.1416C520.591 18.8337 520.82 18.4255 520.82 17.917ZM532.164 17.917C532.164 17.3799 531.96 16.9645 531.552 16.6709C531.151 16.3701 530.445 16.1123 529.436 15.8975C528.433 15.6826 527.634 15.4248 527.04 15.124C526.453 14.8232 526.016 14.4652 525.729 14.0498C525.45 13.6344 525.311 13.1403 525.311 12.5674C525.311 11.6149 525.712 10.8092 526.514 10.1504C527.323 9.49154 528.354 9.16211 529.607 9.16211C530.925 9.16211 531.992 9.50228 532.809 10.1826C533.632 10.863 534.044 11.7331 534.044 12.793H532.046C532.046 12.2487 531.813 11.7796 531.348 11.3857C530.889 10.9919 530.309 10.7949 529.607 10.7949C528.884 10.7949 528.318 10.9525 527.91 11.2676C527.502 11.5827 527.298 11.9945 527.298 12.5029C527.298 12.9827 527.488 13.3444 527.867 13.5879C528.247 13.8314 528.931 14.0641 529.919 14.2861C530.914 14.5081 531.72 14.7731 532.336 15.0811C532.952 15.389 533.407 15.7614 533.7 16.1982C534.001 16.6279 534.151 17.1543 534.151 17.7773C534.151 18.8158 533.736 19.6501 532.905 20.2803C532.075 20.9033 530.997 21.2148 529.672 21.2148C528.741 21.2148 527.917 21.0501 527.201 20.7207C526.485 20.3913 525.923 19.9329 525.515 19.3457C525.114 18.7513 524.913 18.1104 524.913 17.4229H526.9C526.936 18.0889 527.201 18.6188 527.695 19.0127C528.197 19.3994 528.855 19.5928 529.672 19.5928C530.424 19.5928 531.025 19.4424 531.477 19.1416C531.935 18.8337 532.164 18.4255 532.164 17.917ZM544.356 21H542.369V4.5H544.356V21ZM547.021 15.0811C547.021 13.9424 547.243 12.9183 547.687 12.0088C548.138 11.0993 548.761 10.3975 549.556 9.90332C550.358 9.40918 551.271 9.16211 552.295 9.16211C553.878 9.16211 555.156 9.70996 556.13 10.8057C557.111 11.9014 557.602 13.3587 557.602 15.1777V15.3174C557.602 16.4489 557.383 17.4658 556.946 18.3682C556.517 19.2633 555.897 19.9616 555.088 20.4629C554.286 20.9642 553.362 21.2148 552.316 21.2148C550.741 21.2148 549.463 20.667 548.481 19.5713C547.507 18.4756 547.021 17.0254 547.021 15.2207V15.0811ZM549.019 15.3174C549.019 16.6064 549.316 17.6413 549.91 18.4219C550.512 19.2025 551.314 19.5928 552.316 19.5928C553.326 19.5928 554.128 19.1989 554.723 18.4111C555.317 17.6162 555.614 16.5062 555.614 15.0811C555.614 13.8063 555.31 12.7751 554.701 11.9873C554.1 11.1924 553.298 10.7949 552.295 10.7949C551.314 10.7949 550.522 11.1852 549.921 11.9658C549.319 12.7464 549.019 13.8636 549.019 15.3174ZM564.756 19.5928C565.465 19.5928 566.084 19.3779 566.614 18.9482C567.144 18.5186 567.438 17.9814 567.495 17.3369H569.375C569.339 18.0029 569.11 18.6367 568.688 19.2383C568.265 19.8398 567.699 20.3197 566.99 20.6777C566.288 21.0358 565.544 21.2148 564.756 21.2148C563.173 21.2148 561.913 20.6885 560.975 19.6357C560.044 18.5758 559.578 17.1292 559.578 15.2959V14.9629C559.578 13.8314 559.786 12.8252 560.201 11.9443C560.617 11.0635 561.211 10.3796 561.984 9.89258C562.765 9.4056 563.685 9.16211 564.745 9.16211C566.049 9.16211 567.13 9.55241 567.989 10.333C568.856 11.1136 569.318 12.127 569.375 13.373H567.495C567.438 12.6211 567.151 12.0052 566.636 11.5254C566.127 11.0384 565.497 10.7949 564.745 10.7949C563.735 10.7949 562.951 11.1602 562.393 11.8906C561.841 12.6139 561.565 13.6631 561.565 15.0381V15.4141C561.565 16.7533 561.841 17.7845 562.393 18.5078C562.944 19.2311 563.732 19.5928 564.756 19.5928ZM578.785 21C578.671 20.7708 578.577 20.3626 578.506 19.7754C577.582 20.735 576.479 21.2148 575.197 21.2148C574.051 21.2148 573.11 20.8926 572.372 20.248C571.642 19.5964 571.276 18.7728 571.276 17.7773C571.276 16.5671 571.735 15.6289 572.651 14.9629C573.575 14.2897 574.871 13.9531 576.54 13.9531H578.474V13.04C578.474 12.3454 578.266 11.7939 577.851 11.3857C577.435 10.9704 576.823 10.7627 576.014 10.7627C575.305 10.7627 574.71 10.9417 574.23 11.2998C573.751 11.6579 573.511 12.0911 573.511 12.5996H571.513C571.513 12.0195 571.717 11.4609 572.125 10.9238C572.54 10.3796 573.099 9.94987 573.801 9.63477C574.51 9.31966 575.287 9.16211 576.132 9.16211C577.471 9.16211 578.52 9.4987 579.279 10.1719C580.038 10.8379 580.432 11.7581 580.461 12.9326V18.2822C580.461 19.3493 580.597 20.1979 580.869 20.8281V21H578.785ZM575.487 19.4854C576.11 19.4854 576.701 19.3242 577.26 19.002C577.818 18.6797 578.223 18.2607 578.474 17.7451V15.3604H576.916C574.481 15.3604 573.264 16.0729 573.264 17.498C573.264 18.1211 573.471 18.6081 573.887 18.959C574.302 19.3099 574.836 19.4854 575.487 19.4854ZM586.272 6.5625V9.37695H588.442V10.9131H586.272V18.1211C586.272 18.5866 586.369 18.9375 586.562 19.1738C586.756 19.403 587.085 19.5176 587.551 19.5176C587.78 19.5176 588.095 19.4746 588.496 19.3887V21C587.973 21.1432 587.465 21.2148 586.971 21.2148C586.083 21.2148 585.413 20.9463 584.962 20.4092C584.511 19.8721 584.285 19.1094 584.285 18.1211V10.9131H582.169V9.37695H584.285V6.5625H586.272ZM592.933 21H590.945V9.37695H592.933V21ZM590.784 6.29395C590.784 5.97168 590.881 5.69954 591.074 5.47754C591.275 5.25553 591.568 5.14453 591.955 5.14453C592.342 5.14453 592.635 5.25553 592.836 5.47754C593.036 5.69954 593.137 5.97168 593.137 6.29395C593.137 6.61621 593.036 6.88477 592.836 7.09961C592.635 7.31445 592.342 7.42188 591.955 7.42188C591.568 7.42188 591.275 7.31445 591.074 7.09961C590.881 6.88477 590.784 6.61621 590.784 6.29395ZM595.597 15.0811C595.597 13.9424 595.819 12.9183 596.263 12.0088C596.714 11.0993 597.337 10.3975 598.132 9.90332C598.934 9.40918 599.847 9.16211 600.871 9.16211C602.454 9.16211 603.732 9.70996 604.706 10.8057C605.687 11.9014 606.178 13.3587 606.178 15.1777V15.3174C606.178 16.4489 605.959 17.4658 605.522 18.3682C605.093 19.2633 604.473 19.9616 603.664 20.4629C602.862 20.9642 601.938 21.2148 600.893 21.2148C599.317 21.2148 598.039 20.667 597.058 19.5713C596.084 18.4756 595.597 17.0254 595.597 15.2207V15.0811ZM597.595 15.3174C597.595 16.6064 597.892 17.6413 598.486 18.4219C599.088 19.2025 599.89 19.5928 600.893 19.5928C601.902 19.5928 602.704 19.1989 603.299 18.4111C603.893 17.6162 604.19 16.5062 604.19 15.0811C604.19 13.8063 603.886 12.7751 603.277 11.9873C602.676 11.1924 601.874 10.7949 600.871 10.7949C599.89 10.7949 599.099 11.1852 598.497 11.9658C597.896 12.7464 597.595 13.8636 597.595 15.3174ZM610.55 9.37695L610.614 10.8379C611.502 9.7207 612.662 9.16211 614.095 9.16211C616.551 9.16211 617.79 10.5479 617.812 13.3193V21H615.824V13.3086C615.817 12.4707 615.624 11.8512 615.244 11.4502C614.872 11.0492 614.288 10.8486 613.493 10.8486C612.849 10.8486 612.283 11.0205 611.796 11.3643C611.309 11.708 610.929 12.1592 610.657 12.7178V21H608.67V9.37695H610.55ZM627.576 17.917C627.576 17.3799 627.372 16.9645 626.964 16.6709C626.563 16.3701 625.857 16.1123 624.848 15.8975C623.845 15.6826 623.047 15.4248 622.452 15.124C621.865 14.8232 621.428 14.4652 621.142 14.0498C620.862 13.6344 620.723 13.1403 620.723 12.5674C620.723 11.6149 621.124 10.8092 621.926 10.1504C622.735 9.49154 623.766 9.16211 625.02 9.16211C626.337 9.16211 627.404 9.50228 628.221 10.1826C629.044 10.863 629.456 11.7331 629.456 12.793H627.458C627.458 12.2487 627.225 11.7796 626.76 11.3857C626.301 10.9919 625.721 10.7949 625.02 10.7949C624.296 10.7949 623.73 10.9525 623.322 11.2676C622.914 11.5827 622.71 11.9945 622.71 12.5029C622.71 12.9827 622.9 13.3444 623.279 13.5879C623.659 13.8314 624.343 14.0641 625.331 14.2861C626.326 14.5081 627.132 14.7731 627.748 15.0811C628.364 15.389 628.819 15.7614 629.112 16.1982C629.413 16.6279 629.563 17.1543 629.563 17.7773C629.563 18.8158 629.148 19.6501 628.317 20.2803C627.487 20.9033 626.409 21.2148 625.084 21.2148C624.153 21.2148 623.329 21.0501 622.613 20.7207C621.897 20.3913 621.335 19.9329 620.927 19.3457C620.526 18.7513 620.325 18.1104 620.325 17.4229H622.312C622.348 18.0889 622.613 18.6188 623.107 19.0127C623.609 19.3994 624.268 19.5928 625.084 19.5928C625.836 19.5928 626.438 19.4424 626.889 19.1416C627.347 18.8337 627.576 18.4255 627.576 17.917Z" fill="black"/>
<path d="M82.5 409L116.5 409" stroke="black"/>
<rect x="224" y="316" width="418" height="24" stroke="#488DFF" stroke-width="2" stroke-dasharray="7 7"/>
<rect x="227" y="447" width="22" height="22" fill="#BBBBBB"/>
<rect x="253" y="447" width="22" height="22" fill="#BBBBBB"/>
<rect x="279" y="447" width="22" height="22" fill="#BBBBBB"/>
<rect x="305" y="447" width="22" height="22" fill="#BBBBBB"/>
<rect x="331" y="447" width="22" height="22" fill="#BBBBBB"/>
<rect x="357" y="447" width="22" height="22" fill="#BBBBBB"/>
<rect x="383" y="447" width="22" height="22" fill="#BBBBBB"/>
<rect x="409" y="447" width="22" height="22" fill="#BBBBBB"/>
<rect x="435" y="447" width="22" height="22" fill="#BBBBBB"/>
<rect x="461" y="447" width="22" height="22" fill="#BBBBBB"/>
<rect x="487" y="447" width="22" height="22" fill="#BBBBBB"/>
<rect x="513" y="447" width="22" height="22" fill="#BBBBBB"/>
<rect x="539" y="447" width="22" height="22" fill="#BBBBBB"/>
<rect x="565" y="447" width="22" height="22" fill="#BBBBBB"/>
<rect x="591" y="447" width="22" height="22" fill="#BBBBBB"/>
<rect x="617" y="447" width="22" height="22" fill="#BBBBBB"/>
</svg>
