<svg width="790" height="430" viewBox="0 0 790 430" fill="none" xmlns="http://www.w3.org/2000/svg">
<path d="M364.5 5H784.5V425H364.5V5Z" fill="white" stroke="#488DFF" stroke-width="10"/>
<path d="M515.793 206H493.377V201.553L503.956 190.277C505.409 188.69 506.479 187.305 507.168 186.122C507.872 184.939 508.224 183.816 508.224 182.753C508.224 181.3 507.857 180.162 507.123 179.339C506.389 178.5 505.341 178.081 503.979 178.081C502.511 178.081 501.351 178.59 500.497 179.608C499.659 180.612 499.239 181.937 499.239 183.584H492.726C492.726 181.592 493.197 179.773 494.141 178.126C495.099 176.479 496.447 175.191 498.184 174.263C499.921 173.319 501.89 172.848 504.091 172.848C507.46 172.848 510.073 173.656 511.93 175.273C513.801 176.891 514.737 179.174 514.737 182.124C514.737 183.741 514.318 185.388 513.479 187.065C512.641 188.743 511.203 190.697 509.167 192.928L501.732 200.767H515.793V206ZM520.757 189.918L522.644 173.297H540.972V178.71H527.967L527.158 185.74C528.701 184.917 530.34 184.505 532.077 184.505C535.192 184.505 537.632 185.471 539.399 187.402C541.166 189.334 542.05 192.037 542.05 195.511C542.05 197.622 541.601 199.516 540.702 201.193C539.819 202.855 538.546 204.151 536.884 205.079C535.222 205.993 533.26 206.449 530.999 206.449C529.022 206.449 527.188 206.052 525.496 205.259C523.804 204.45 522.464 203.32 521.476 201.867C520.502 200.415 519.986 198.76 519.926 196.903H526.35C526.484 198.266 526.956 199.329 527.765 200.093C528.588 200.841 529.659 201.216 530.977 201.216C532.444 201.216 533.575 200.692 534.368 199.644C535.162 198.58 535.559 197.083 535.559 195.151C535.559 193.295 535.102 191.872 534.188 190.884C533.275 189.896 531.98 189.401 530.303 189.401C528.76 189.401 527.51 189.806 526.552 190.614L525.923 191.198L520.757 189.918ZM563.814 172.96V178.306H563.186C560.251 178.351 557.885 179.114 556.088 180.597C554.306 182.079 553.235 184.138 552.876 186.773C554.613 185.007 556.807 184.123 559.457 184.123C562.302 184.123 564.563 185.141 566.24 187.178C567.917 189.214 568.756 191.895 568.756 195.219C568.756 197.345 568.292 199.269 567.363 200.991C566.45 202.713 565.147 204.053 563.455 205.012C561.778 205.97 559.876 206.449 557.75 206.449C554.306 206.449 551.521 205.251 549.395 202.855C547.283 200.46 546.228 197.263 546.228 193.265V190.929C546.228 187.38 546.894 184.25 548.227 181.54C549.574 178.815 551.498 176.711 553.999 175.229C556.515 173.731 559.427 172.975 562.736 172.96H563.814ZM557.48 189.334C556.432 189.334 555.481 189.611 554.628 190.165C553.774 190.704 553.146 191.423 552.741 192.321V194.298C552.741 196.469 553.168 198.169 554.021 199.396C554.875 200.609 556.073 201.216 557.615 201.216C559.008 201.216 560.131 200.669 560.984 199.576C561.853 198.468 562.287 197.038 562.287 195.286C562.287 193.504 561.853 192.067 560.984 190.974C560.116 189.881 558.948 189.334 557.48 189.334ZM585.512 194.612H572.866V189.379H585.512V194.612ZM591.149 206V173.297H602.604C606.573 173.297 609.582 174.061 611.634 175.588C613.685 177.1 614.711 179.324 614.711 182.259C614.711 183.861 614.299 185.276 613.476 186.504C612.652 187.717 611.507 188.608 610.039 189.177C611.716 189.596 613.034 190.442 613.992 191.715C614.965 192.988 615.452 194.545 615.452 196.387C615.452 199.531 614.449 201.912 612.442 203.529C610.436 205.146 607.576 205.97 603.862 206H591.149ZM597.888 191.76V200.587H603.66C605.247 200.587 606.483 200.213 607.366 199.464C608.265 198.7 608.714 197.652 608.714 196.319C608.714 193.325 607.164 191.805 604.064 191.76H597.888ZM597.888 186.998H602.874C606.273 186.938 607.973 185.583 607.973 182.933C607.973 181.45 607.538 180.387 606.67 179.743C605.816 179.084 604.461 178.755 602.604 178.755H597.888V186.998ZM627.693 206H620.955V173.297H627.693V206ZM657.903 178.755H647.886V206H641.147V178.755H631.265V173.297H657.903V178.755ZM489.244 227.297L497.645 251.016L506 227.297H514.85V260H508.089V251.061L508.763 235.63L499.936 260H495.309L486.504 235.652L487.178 251.061V260H480.439V227.297H489.244ZM540.41 245.827H527.473V254.587H542.656V260H520.734V227.297H542.611V232.755H527.473V240.549H540.41V245.827ZM555.414 227.297L563.814 251.016L572.17 227.297H581.02V260H574.259V251.061L574.933 235.63L566.105 260H561.479L552.674 235.652L553.348 251.061V260H546.609V227.297H555.414ZM613.768 244.39C613.768 247.609 613.199 250.432 612.061 252.857C610.923 255.283 609.29 257.155 607.164 258.473C605.053 259.79 602.627 260.449 599.887 260.449C597.176 260.449 594.758 259.798 592.632 258.495C590.506 257.192 588.858 255.336 587.69 252.925C586.522 250.499 585.931 247.714 585.916 244.569V242.952C585.916 239.733 586.493 236.903 587.646 234.462C588.813 232.006 590.453 230.127 592.564 228.824C594.691 227.507 597.117 226.848 599.842 226.848C602.567 226.848 604.985 227.507 607.097 228.824C609.223 230.127 610.863 232.006 612.016 234.462C613.184 236.903 613.768 239.725 613.768 242.93V244.39ZM606.939 242.907C606.939 239.478 606.326 236.873 605.098 235.091C603.87 233.309 602.118 232.418 599.842 232.418C597.581 232.418 595.836 233.301 594.608 235.068C593.381 236.82 592.759 239.396 592.744 242.795V244.39C592.744 247.729 593.358 250.319 594.586 252.161C595.814 254.003 597.581 254.924 599.887 254.924C602.148 254.924 603.885 254.04 605.098 252.273C606.311 250.492 606.924 247.901 606.939 244.502V242.907ZM630.771 248.028H625.402V260H618.664V227.297H630.815C634.679 227.297 637.659 228.158 639.755 229.88C641.851 231.602 642.899 234.035 642.899 237.18C642.899 239.411 642.413 241.275 641.439 242.772C640.481 244.255 639.021 245.438 637.06 246.321L644.135 259.686V260H636.902L630.771 248.028ZM625.402 242.57H630.838C632.53 242.57 633.84 242.144 634.769 241.29C635.697 240.422 636.161 239.231 636.161 237.719C636.161 236.176 635.719 234.964 634.836 234.08C633.967 233.197 632.627 232.755 630.815 232.755H625.402V242.57ZM658.24 242.031L665.046 227.297H672.413L661.677 248.141V260H654.826V248.141L644.09 227.297H651.479L658.24 242.031Z" fill="#488DFF"/>
<line x1="360" y1="37.5" x2="239" y2="37.5" stroke="#488DFF" stroke-width="5"/>
<line x1="360" y1="67.5" x2="239" y2="67.5" stroke="#488DFF" stroke-width="5"/>
<path d="M360 52L239 52" stroke="#488DFF" stroke-width="5"/>
<path d="M360 82L239 82" stroke="#488DFF" stroke-width="5"/>
<line x1="360" y1="96.5" x2="239" y2="96.5" stroke="#488DFF" stroke-width="5"/>
<line x1="360" y1="126.5" x2="239" y2="126.5" stroke="#488DFF" stroke-width="5"/>
<path d="M360 111L239 111" stroke="#488DFF" stroke-width="5"/>
<path d="M360 141L239 141" stroke="#488DFF" stroke-width="5"/>
<path d="M360 230L239 230" stroke="#488DFF" stroke-width="5"/>
<path d="M360 307H239" stroke="#488DFF" stroke-width="5"/>
<path d="M360 385H239" stroke="#488DFF" stroke-width="5"/>
<path d="M40.9102 85.3848C40.9102 86.3509 40.6686 87.2077 40.1855 87.9551C39.7025 88.7025 39.0371 89.2995 38.1895 89.7461C39.1556 90.2109 39.9212 90.8535 40.4863 91.6738C41.0514 92.485 41.334 93.4421 41.334 94.5449C41.334 96.3132 40.7324 97.7122 39.5293 98.7422C38.3262 99.763 36.6901 100.273 34.6211 100.273C32.5521 100.273 30.9115 99.7585 29.6992 98.7285C28.487 97.6986 27.8809 96.304 27.8809 94.5449C27.8809 93.4421 28.1634 92.4805 28.7285 91.6602C29.2936 90.8398 30.0547 90.2018 31.0117 89.7461C30.1641 89.2995 29.4987 88.7025 29.0156 87.9551C28.5417 87.2077 28.3047 86.3509 28.3047 85.3848C28.3047 83.6895 28.8698 82.3405 30 81.3379C31.1302 80.3262 32.666 79.8203 34.6074 79.8203C36.5397 79.8203 38.071 80.3216 39.2012 81.3242C40.3405 82.3177 40.9102 83.6712 40.9102 85.3848ZM37.3691 94.2578C37.3691 93.3919 37.1185 92.6992 36.6172 92.1797C36.1159 91.6602 35.4414 91.4004 34.5938 91.4004C33.7552 91.4004 33.0853 91.6602 32.584 92.1797C32.0827 92.6901 31.832 93.3828 31.832 94.2578C31.832 95.1055 32.0781 95.7891 32.5703 96.3086C33.0625 96.8281 33.7461 97.0879 34.6211 97.0879C35.4779 97.0879 36.1478 96.8372 36.6309 96.3359C37.123 95.8346 37.3691 95.1419 37.3691 94.2578ZM36.959 85.5762C36.959 84.8014 36.7539 84.1816 36.3438 83.7168C35.9336 83.2428 35.3548 83.0059 34.6074 83.0059C33.8691 83.0059 33.2949 83.2337 32.8848 83.6895C32.4746 84.1452 32.2695 84.7741 32.2695 85.5762C32.2695 86.3691 32.4746 87.0072 32.8848 87.4902C33.2949 87.9733 33.8737 88.2148 34.6211 88.2148C35.3685 88.2148 35.9427 87.9733 36.3438 87.4902C36.7539 87.0072 36.959 86.3691 36.959 85.5762ZM51.8613 93.0684H44.1641V89.8828H51.8613V93.0684ZM55.293 100V80.0938H62.2656C64.681 80.0938 66.513 80.5586 67.7617 81.4883C69.0104 82.4089 69.6348 83.7624 69.6348 85.5488C69.6348 86.5241 69.3841 87.3854 68.8828 88.1328C68.3815 88.8711 67.6842 89.4134 66.791 89.7598C67.8118 90.015 68.6139 90.5299 69.1973 91.3047C69.7897 92.0794 70.0859 93.0273 70.0859 94.1484C70.0859 96.0625 69.4753 97.5117 68.2539 98.4961C67.0326 99.4805 65.2917 99.9818 63.0312 100H55.293ZM59.3945 91.332V96.7051H62.9082C63.8743 96.7051 64.6263 96.4772 65.1641 96.0215C65.7109 95.5566 65.9844 94.9186 65.9844 94.1074C65.9844 92.2845 65.041 91.3594 63.1543 91.332H59.3945ZM59.3945 88.4336H62.4297C64.4987 88.3971 65.5332 87.5723 65.5332 85.959C65.5332 85.0566 65.2689 84.4095 64.7402 84.0176C64.2207 83.6165 63.3958 83.416 62.2656 83.416H59.3945V88.4336ZM77.5371 100H73.4355V80.0938H77.5371V100ZM95.9258 83.416H89.8281V100H85.7266V83.416H79.7109V80.0938H95.9258V83.416ZM115.668 95.8984H108.477L107.109 100H102.748L110.158 80.0938H113.959L121.41 100H117.049L115.668 95.8984ZM109.584 92.5762H114.561L112.059 85.125L109.584 92.5762ZM123.27 100V80.0938H129.395C131.145 80.0938 132.708 80.4902 134.084 81.2832C135.469 82.0671 136.549 83.1882 137.324 84.6465C138.099 86.0957 138.486 87.7454 138.486 89.5957V90.5117C138.486 92.362 138.104 94.0072 137.338 95.4473C136.581 96.8874 135.51 98.0039 134.125 98.7969C132.74 99.5898 131.176 99.9909 129.436 100H123.27ZM127.371 83.416V96.7051H129.354C130.958 96.7051 132.184 96.181 133.031 95.1328C133.879 94.0846 134.312 92.5853 134.33 90.6348V89.582C134.33 87.5586 133.911 86.0273 133.072 84.9883C132.234 83.9401 131.008 83.416 129.395 83.416H127.371ZM141.48 100V80.0938H147.605C149.355 80.0938 150.919 80.4902 152.295 81.2832C153.68 82.0671 154.76 83.1882 155.535 84.6465C156.31 86.0957 156.697 87.7454 156.697 89.5957V90.5117C156.697 92.362 156.314 94.0072 155.549 95.4473C154.792 96.8874 153.721 98.0039 152.336 98.7969C150.951 99.5898 149.387 99.9909 147.646 100H141.48ZM145.582 83.416V96.7051H147.564C149.169 96.7051 150.395 96.181 151.242 95.1328C152.09 94.0846 152.523 92.5853 152.541 90.6348V89.582C152.541 87.5586 152.122 86.0273 151.283 84.9883C150.445 83.9401 149.219 83.416 147.605 83.416H145.582ZM167.061 92.7129H163.793V100H159.691V80.0938H167.088C169.439 80.0938 171.253 80.6178 172.529 81.666C173.805 82.7142 174.443 84.1953 174.443 86.1094C174.443 87.4674 174.147 88.6022 173.555 89.5137C172.971 90.416 172.083 91.1361 170.889 91.6738L175.195 99.8086V100H170.793L167.061 92.7129ZM163.793 89.3906H167.102C168.132 89.3906 168.929 89.1309 169.494 88.6113C170.059 88.0827 170.342 87.3581 170.342 86.4375C170.342 85.4987 170.073 84.7604 169.535 84.2227C169.007 83.6849 168.191 83.416 167.088 83.416H163.793V89.3906ZM189.551 91.373H181.676V96.7051H190.918V100H177.574V80.0938H190.891V83.416H181.676V88.1602H189.551V91.373ZM203.646 94.7773C203.646 94.0026 203.373 93.4102 202.826 93C202.279 92.5807 201.295 92.1432 199.873 91.6875C198.451 91.2227 197.326 90.7669 196.496 90.3203C194.236 89.099 193.105 87.4538 193.105 85.3848C193.105 84.3092 193.406 83.3522 194.008 82.5137C194.618 81.666 195.489 81.0052 196.619 80.5312C197.758 80.0573 199.035 79.8203 200.447 79.8203C201.869 79.8203 203.136 80.0801 204.248 80.5996C205.36 81.11 206.221 81.8346 206.832 82.7734C207.452 83.7122 207.762 84.7786 207.762 85.9727H203.66C203.66 85.0612 203.373 84.3548 202.799 83.8535C202.225 83.3431 201.418 83.0879 200.379 83.0879C199.376 83.0879 198.597 83.3021 198.041 83.7305C197.485 84.1497 197.207 84.7057 197.207 85.3984C197.207 86.0456 197.531 86.5879 198.178 87.0254C198.834 87.4629 199.796 87.873 201.062 88.2559C203.396 88.9577 205.096 89.8281 206.162 90.8672C207.229 91.9062 207.762 93.2005 207.762 94.75C207.762 96.4727 207.11 97.8262 205.807 98.8105C204.503 99.7858 202.749 100.273 200.543 100.273C199.012 100.273 197.617 99.9954 196.359 99.4395C195.102 98.8743 194.14 98.1042 193.475 97.1289C192.818 96.1536 192.49 95.0234 192.49 93.7383H196.605C196.605 95.9349 197.918 97.0332 200.543 97.0332C201.518 97.0332 202.279 96.8372 202.826 96.4453C203.373 96.0443 203.646 95.4883 203.646 94.7773ZM220.873 94.7773C220.873 94.0026 220.6 93.4102 220.053 93C219.506 92.5807 218.521 92.1432 217.1 91.6875C215.678 91.2227 214.552 90.7669 213.723 90.3203C211.462 89.099 210.332 87.4538 210.332 85.3848C210.332 84.3092 210.633 83.3522 211.234 82.5137C211.845 81.666 212.715 81.0052 213.846 80.5312C214.985 80.0573 216.261 79.8203 217.674 79.8203C219.096 79.8203 220.363 80.0801 221.475 80.5996C222.587 81.11 223.448 81.8346 224.059 82.7734C224.678 83.7122 224.988 84.7786 224.988 85.9727H220.887C220.887 85.0612 220.6 84.3548 220.025 83.8535C219.451 83.3431 218.645 83.0879 217.605 83.0879C216.603 83.0879 215.824 83.3021 215.268 83.7305C214.712 84.1497 214.434 84.7057 214.434 85.3984C214.434 86.0456 214.757 86.5879 215.404 87.0254C216.061 87.4629 217.022 87.873 218.289 88.2559C220.622 88.9577 222.322 89.8281 223.389 90.8672C224.455 91.9062 224.988 93.2005 224.988 94.75C224.988 96.4727 224.337 97.8262 223.033 98.8105C221.73 99.7858 219.975 100.273 217.77 100.273C216.238 100.273 214.844 99.9954 213.586 99.4395C212.328 98.8743 211.367 98.1042 210.701 97.1289C210.045 96.1536 209.717 95.0234 209.717 93.7383H213.832C213.832 95.9349 215.145 97.0332 217.77 97.0332C218.745 97.0332 219.506 96.8372 220.053 96.4453C220.6 96.0443 220.873 95.4883 220.873 94.7773Z" fill="#488DFF"/>
<path d="M158.133 239V219.094H164.258C166.008 219.094 167.571 219.49 168.947 220.283C170.333 221.067 171.413 222.188 172.188 223.646C172.962 225.096 173.35 226.745 173.35 228.596V229.512C173.35 231.362 172.967 233.007 172.201 234.447C171.445 235.887 170.374 237.004 168.988 237.797C167.603 238.59 166.04 238.991 164.299 239H158.133ZM162.234 222.416V235.705H164.217C165.821 235.705 167.047 235.181 167.895 234.133C168.742 233.085 169.175 231.585 169.193 229.635V228.582C169.193 226.559 168.774 225.027 167.936 223.988C167.097 222.94 165.871 222.416 164.258 222.416H162.234ZM187.281 234.898H180.09L178.723 239H174.361L181.771 219.094H185.572L193.023 239H188.662L187.281 234.898ZM181.197 231.576H186.174L183.672 224.125L181.197 231.576ZM208.227 222.416H202.129V239H198.027V222.416H192.012V219.094H208.227V222.416ZM220.176 234.898H212.984L211.617 239H207.256L214.666 219.094H218.467L225.918 239H221.557L220.176 234.898ZM214.092 231.576H219.068L216.566 224.125L214.092 231.576Z" fill="#488DFF"/>
<path d="M136.34 308.373H128.465V313.705H137.707V317H124.363V297.094H137.68V300.416H128.465V305.16H136.34V308.373ZM156.301 317H152.199L144.215 303.902V317H140.113V297.094H144.215L152.213 310.219V297.094H156.301V317ZM171.367 312.898H164.176L162.809 317H158.447L165.857 297.094H169.658L177.109 317H172.748L171.367 312.898ZM165.283 309.576H170.26L167.758 302.125L165.283 309.576ZM178.969 317V297.094H185.941C188.357 297.094 190.189 297.559 191.438 298.488C192.686 299.409 193.311 300.762 193.311 302.549C193.311 303.524 193.06 304.385 192.559 305.133C192.057 305.871 191.36 306.413 190.467 306.76C191.488 307.015 192.29 307.53 192.873 308.305C193.465 309.079 193.762 310.027 193.762 311.148C193.762 313.062 193.151 314.512 191.93 315.496C190.708 316.48 188.967 316.982 186.707 317H178.969ZM183.07 308.332V313.705H186.584C187.55 313.705 188.302 313.477 188.84 313.021C189.387 312.557 189.66 311.919 189.66 311.107C189.66 309.285 188.717 308.359 186.83 308.332H183.07ZM183.07 305.434H186.105C188.174 305.397 189.209 304.572 189.209 302.959C189.209 302.057 188.945 301.41 188.416 301.018C187.896 300.617 187.072 300.416 185.941 300.416H183.07V305.434ZM200.953 313.705H209.662V317H196.852V297.094H200.953V313.705ZM224.004 308.373H216.129V313.705H225.371V317H212.027V297.094H225.344V300.416H216.129V305.16H224.004V308.373Z" fill="#488DFF"/>
<path d="M56.8105 387.713H53.543V395H49.4414V375.094H56.8379C59.1895 375.094 61.0033 375.618 62.2793 376.666C63.5553 377.714 64.1934 379.195 64.1934 381.109C64.1934 382.467 63.8971 383.602 63.3047 384.514C62.7214 385.416 61.8327 386.136 60.6387 386.674L64.9453 394.809V395H60.543L56.8105 387.713ZM53.543 384.391H56.8516C57.8815 384.391 58.679 384.131 59.2441 383.611C59.8092 383.083 60.0918 382.358 60.0918 381.438C60.0918 380.499 59.8229 379.76 59.2852 379.223C58.7565 378.685 57.9408 378.416 56.8379 378.416H53.543V384.391ZM79.3008 386.373H71.4258V391.705H80.668V395H67.3242V375.094H80.6406V378.416H71.4258V383.16H79.3008V386.373ZM94.3125 390.898H87.1211L85.7539 395H81.3926L88.8027 375.094H92.6035L100.055 395H95.6934L94.3125 390.898ZM88.2285 387.576H93.2051L90.7031 380.125L88.2285 387.576ZM101.914 395V375.094H108.039C109.789 375.094 111.352 375.49 112.729 376.283C114.114 377.067 115.194 378.188 115.969 379.646C116.743 381.096 117.131 382.745 117.131 384.596V385.512C117.131 387.362 116.748 389.007 115.982 390.447C115.226 391.887 114.155 393.004 112.77 393.797C111.384 394.59 109.821 394.991 108.08 395H101.914ZM106.016 378.416V391.705H107.998C109.602 391.705 110.828 391.181 111.676 390.133C112.523 389.085 112.956 387.585 112.975 385.635V384.582C112.975 382.559 112.555 381.027 111.717 379.988C110.878 378.94 109.652 378.416 108.039 378.416H106.016ZM128.082 396.709H125.143L132.471 375.094H135.41L128.082 396.709ZM160.047 389.258L162.727 375.094H166.814L162.398 395H158.27L155.029 381.684L151.789 395H147.66L143.244 375.094H147.332L150.025 389.23L153.307 375.094H156.779L160.047 389.258ZM176.412 387.713H173.145V395H169.043V375.094H176.439C178.791 375.094 180.605 375.618 181.881 376.666C183.157 377.714 183.795 379.195 183.795 381.109C183.795 382.467 183.499 383.602 182.906 384.514C182.323 385.416 181.434 386.136 180.24 386.674L184.547 394.809V395H180.145L176.412 387.713ZM173.145 384.391H176.453C177.483 384.391 178.281 384.131 178.846 383.611C179.411 383.083 179.693 382.358 179.693 381.438C179.693 380.499 179.424 379.76 178.887 379.223C178.358 378.685 177.542 378.416 176.439 378.416H173.145V384.391ZM191.287 395H187.186V375.094H191.287V395ZM209.676 378.416H203.578V395H199.477V378.416H193.461V375.094H209.676V378.416ZM224.004 386.373H216.129V391.705H225.371V395H212.027V375.094H225.344V378.416H216.129V383.16H224.004V386.373Z" fill="#488DFF"/>
<line x1="142" y1="367.5" x2="226" y2="367.5" stroke="#488DFF" stroke-width="3"/>
</svg>
